<svg xmlns="http://www.w3.org/2000/svg" viewBox="0 0 500 500"><path d="m315.56 374.43-22.87 99.27 9.67-.02 22.91-98.32zm41.71 0 22.94 99.27h9.19l-22.2-99.27zm-57.15-74.57 13.02 68.35h14.8l-13.91-68.35zM73.36 374.43 54.71 473.7h9.5l19.48-99.27zm39.22 0 21.32 98.73h9.38l-20.59-98.73zm-54.65-74.57 13.02 68.35h14.79l-13.9-68.35z" style="fill:#e0e0e0"/><path d="m28.64 293.65 2.66 12.42h297.08l-3.47-12.42zm5.67 24.13 3.14 12.43h295.07l-2.68-12.43zm5.87 24.98 2.92 12.43h294.15l-2.78-12.43zm22.48 25.45h317.2v12.43H62.66z" style="fill:#ebebeb"/><path d="M399.86 311.76c-20.39-5.32-38.2-18.72-48.11-36.2a69.7 69.7 0 0 1-5.05-57.51c5.26-14.63 15.38-27.5 19.72-42.39 4.93-16.9 2-34.82-1-52.1s-6.15-35.16-1.53-52.13S383 38.52 401.72 37.31C419.07 36.19 435.1 48.2 442.34 63s7.29 31.71 5.6 47.88-5 32.31-4 48.53c2.1 32.82 21.79 63.72 19.47 96.54-1.2 17.09-8.28 28-20.4 40.87-10.45 11.08-27.81 18.37-43.19 15" style="fill:#f5f5f5"/><path d="M406 474.42c-.18 0-.32-72.72-.32-162.41s.14-162.42.32-162.42.33 72.71.33 162.42-.15 162.41-.33 162.41M405.05 255a24 24 0 0 1-3-2.64c-1.79-1.69-4.22-4.08-6.77-6.81s-4.92-5.15-6.62-6.92a24 24 0 0 1-2.66-2.93 25.4 25.4 0 0 1 3 2.65c1.79 1.69 4.21 4.07 6.77 6.81s4.91 5.14 6.61 6.91a25 25 0 0 1 2.67 2.93m1.95-68a22.6 22.6 0 0 0 6.64-2.76 18.3 18.3 0 0 0 5.32-5.36 17.8 17.8 0 0 0 2.89-8.49v-.29l.38.32a14.33 14.33 0 0 0-8 4.4 30.4 30.4 0 0 0-4.46 6 59 59 0 0 0-2.32 4.45 13 13 0 0 1-.83 1.64 9 9 0 0 1 .59-1.73 41 41 0 0 1 2.16-4.56 28.6 28.6 0 0 1 4.42-6.16 14.62 14.62 0 0 1 8.34-4.62l.41-.07v.68a18.46 18.46 0 0 1-8.61 14.16 16.9 16.9 0 0 1-4.94 2.1 12 12 0 0 1-1.44.27 1.6 1.6 0 0 1-.55.02" style="fill:#e0e0e0"/><path d="M407 187c-.13-.11 1.9-2.64 4.55-5.66s4.92-5.37 5.06-5.26-1.89 2.63-4.55 5.65-4.91 5.35-5.06 5.27" style="fill:#e0e0e0"/><path d="M259.57 85c.5-3.57-4.55-6.51-8.34-6.82-1.81-.14-3.69.13-5.4-.47-3.71-1.29-5.2-6.08-8.82-7.61-2.7-1.14-5.82-.13-8.45 1.19s-5.21 3-8.15 3.18c-2.55.16-5.32-.79-7.55.46-1.66.93-2.53 2.84-4.07 4a9.73 9.73 0 0 1-5.31 1.45 15 15 0 0 0-5.48.89c-1.7.78-3.1 2.57-2.75 4.4Z" style="fill:#f5f5f5"/><path d="M310.84 136c.72-5.22-6.66-9.53-12.2-10-2.65-.22-5.4.19-7.9-.68-5.43-1.9-7.6-8.91-12.89-11.14-4-1.67-8.52-.19-12.36 1.75s-7.63 4.36-11.92 4.63c-3.73.24-7.78-1.14-11 .68-2.43 1.36-3.71 4.16-5.95 5.81s-5.05 2-7.77 2.11-5.54.18-8 1.31-4.53 3.76-4 6.43Z" style="fill:#ebebeb"/><path d="M123.5 130.55c.62-4.55-5.8-8.29-10.62-8.68-2.3-.19-4.69.17-6.87-.59-4.72-1.65-6.61-7.75-11.21-9.69-3.45-1.45-7.41-.16-10.75 1.52s-6.64 3.79-10.37 4c-3.25.21-6.77-1-9.61.59-2.12 1.18-3.22 3.62-5.17 5.06s-4.4 1.7-6.77 1.83-4.81.16-7 1.14-3.94 3.27-3.49 5.6Z" style="fill:#f5f5f5"/><path d="M477.75 473.7c0 .15-102 .26-227.74.26s-227.76-.11-227.76-.26 102-.26 227.76-.26 227.74.12 227.74.26" style="fill:#263238"/><path d="M274.39 429.14a9 9 0 0 1 4.63 4.95 14.1 14.1 0 0 1 .75 6.59c-.41 4.26-2.86 8.52-5.53 11.87-3.86-3.23-4.86-8.72-5.18-11.53-.51-4.44 1.39-12.63 5.33-11.88m4.41 30.46a6.61 6.61 0 0 1 2.24-6.66 9.88 9.88 0 0 1 7.23-2 4.42 4.42 0 0 1 3.22 1.43 2.89 2.89 0 0 1 .12 3.06 5.84 5.84 0 0 1-2.33 2.18c-3.23 1.88-6.75 3.12-10.48 2" style="fill:#2d9f82"/><path d="M274.26 472.58a4 4 0 0 1 .11-.87c.11-.61.24-1.41.4-2.36a23.4 23.4 0 0 1 2.4-7.52 14.57 14.57 0 0 1 5.58-5.65 10.6 10.6 0 0 1 2.31-.92 6 6 0 0 1 .67-.15h.24a16.6 16.6 0 0 0-3.09 1.3 14.87 14.87 0 0 0-5.42 5.61 24.9 24.9 0 0 0-2.46 7.38c-.2 1-.37 1.79-.5 2.34a4 4 0 0 1-.24.84" style="fill:#263238"/><path d="M273.53 435.43a2 2 0 0 1 .05.39c0 .28.06.65.1 1.1.08 1 .17 2.34.26 4.05.2 3.43.4 8.16.5 13.38s.08 9.95 0 13.36c0 1.71-.07 3.09-.11 4.05 0 .45 0 .81-.06 1.1a1.4 1.4 0 0 1 0 .38 1.7 1.7 0 0 1 0-.39v-5.15c0-3.42 0-8.14-.1-13.36s-.27-9.94-.41-13.37c-.06-1.68-.12-3.05-.16-4.05v-1.1a1.5 1.5 0 0 1-.07-.39" style="fill:#263238"/><path d="M272.32 462.14a17.69 17.69 0 0 0-9.77-12.3c-1.28-.61-2.94-1-4-.15s-.75 2.48-.21 3.74a15.71 15.71 0 0 0 13.86 9.06" style="fill:#2d9f82"/><path d="M263.26 453.81a5.5 5.5 0 0 1 .81.35 9 9 0 0 1 .91.48c.35.21.76.42 1.17.71s.89.6 1.35 1 .94.79 1.43 1.24a19.7 19.7 0 0 1 2.75 3.33 18.3 18.3 0 0 1 1.85 3.82 15 15 0 0 1 .48 1.76 11 11 0 0 1 .27 1.57 10 10 0 0 1 .09 1.29 6 6 0 0 1 0 1 4 4 0 0 1-.07.82c-.08 0 0-1.18-.24-3.08a15 15 0 0 0-.3-1.53 15 15 0 0 0-.51-1.73 18.5 18.5 0 0 0-1.84-3.75 20.3 20.3 0 0 0-2.68-3.28c-.47-.45-.93-.89-1.39-1.25s-.9-.69-1.3-1c-1.67-1.17-2.82-1.69-2.78-1.75" style="fill:#263238"/><path d="M393.65 450.35V460s-8.26-.7-8.5 6.75h9.08l7.33-5.59.7-12.56Zm-25.09-7.83s0 5.33-4.41 13.09l-3.15 4.56 3.76 9.41s5.84.32 6.3 4.12h-9.46l-6.84-10.94a15.2 15.2 0 0 0 1.52-9.44 74 74 0 0 0-3.2-12.63l6.66-2.18Zm-5.06-37.25a19.3 19.3 0 0 0-3.84-2.64 12.95 12.95 0 0 0-16.38 19l3.13-2.46a4.91 4.91 0 0 1 .55-4.4 14.5 14.5 0 0 1 3.19-3.31c2.5-2.08 5.59-4.28 8.72-3.39 1.11.32 2.09 1 3.22 1.26s2.57-.15 2.86-1.27-.61-2.06-1.45-2.79" style="fill:#455a64"/><path d="M344.19 420.5a9.5 9.5 0 0 1 6.29-3.56 51 51 0 0 1 7.4-.46c4.95.12 30.58 3.42 30.58 3.42l13.54-3.43 11.16-8.37s10.79-6.72 15.74-6.21a21.7 21.7 0 0 1 9 3.29l2.66 3.3 11 3.94s-1.14 4.31-2.92 5.58-4.69 1.9-7.74 2.66-9.26.64-12.05 4.7-9.39 10.91-9.39 10.91-4.82 11.29-9.77 13.45-12.56 4.7-18.91 3-28.42-11.55-28.93-11.68-5.2-3.3-8.25 1.4-5.58 9.77-15 13.32c0 0-3.68 1.78-4.19 4.95S332 473.65 332 473.65s-3.93-1.77-4.18-5.2 1.14-3.55 1.14-3.55l1-12.56a12 12 0 0 0 6.22-4.7 39 39 0 0 0 4.36-7.38 101 101 0 0 1-.66-11.43c.2-2.57 2.42-5.94 4.31-8.33" style="fill:#263238"/><path d="M438 405.18a21.7 21.7 0 0 0-9-3.29c-2.66-.28-7 1.53-10.44 3.27L422 412a11.16 11.16 0 0 0 5.1 6.83 5.8 5.8 0 0 0 1.68.8 4.46 4.46 0 0 0 3.7-1c.73-.59 1.33-1.34 2.08-1.92a10.26 10.26 0 0 1 5.29-1.72 7 7 0 0 0 3.63-1 6.4 6.4 0 0 0 1.83-3.72l-4.71-1.68Z" style="fill:#455a64"/><path d="M398.71 440.13S403 452.06 407.9 456s14.32 17.66 14.32 17.66h12.23s-2.26-4.24-6.47-5.05c0 0-5.56-2.48-6.42-5.67s-7.76-27.5-7.76-27.5-8.41-7-11.68-2.27-3.41 6.96-3.41 6.96" style="fill:#263238"/><path d="M427.88 402.56a5.52 5.52 0 0 0-6.27-1.35 8.74 8.74 0 0 0-3.3 3 37 37 0 0 1-2.64 3.66 1.65 1.65 0 0 0-.49.79c-.07.47.31.88.66 1.21a7 7 0 0 0 1.42 1.13c1.73.95 3.88.32 5.71-.43a10.7 10.7 0 0 0 2.9-1.6 4.1 4.1 0 0 0 1.55-2.84c-.17.19.58-3.39.46-3.57" style="fill:#455a64"/><path d="M439.5 408.72c-.06 0-.25-.13-.61-.23a1.37 1.37 0 0 0-1.3.24 5.8 5.8 0 0 0-.95 1.21c-.25.34-.43.53-.49.5s0-.29.17-.68a3.4 3.4 0 0 1 .94-1.43 1.6 1.6 0 0 1 1-.37 1.54 1.54 0 0 1 .81.19c.38.24.49.54.43.57" style="fill:#263238"/><path d="M438.4 408.19a1 1 0 0 0-.95.35 1.3 1.3 0 0 0-.39 1 .6.6 0 0 0 .05.35 1.25 1.25 0 0 0 .34.45.9.9 0 0 0 .37.2.76.76 0 0 0 .78-.39 1.94 1.94 0 0 0 .24-.89c.03-.38-.04-.92-.44-1.07" style="fill:#263238"/><path d="M450.13 411.85a1.38 1.38 0 0 0-1.17.36 1.36 1.36 0 0 0-.39 1.15.26.26 0 0 0 .12.22c.13.07.26-.06.38-.14a.59.59 0 0 1 .6 0c.13.06.24.23.17.36s-.14.11-.22.17a.6.6 0 0 0-.13.75 1.7 1.7 0 0 0 .59.58.83.83 0 0 0 .59.21c.28-.05.43-.35.53-.62l.85-2.2a.3.3 0 0 0 0-.12.3.3 0 0 0-.15-.19 3.16 3.16 0 0 0-1.91-.57" style="fill:#455a64"/><path d="M425.87 409a6.75 6.75 0 0 1-2.8 1.76 11 11 0 0 1-3.49 1 4.7 4.7 0 0 1-2.18-.36 7 7 0 0 1-1.87-1.41 1.74 1.74 0 0 1-.61-1.17 1.7 1.7 0 0 1 .6-1.11 17 17 0 0 0 1.28-1.71 31 31 0 0 1 2.12-2.89 7.7 7.7 0 0 1 1.86-1.59 1.86 1.86 0 0 1 .83-.34 10.6 10.6 0 0 0-2.41 2.16c-.63.78-1.26 1.8-2 2.93a16 16 0 0 1-1.3 1.73c-.25.27-.48.53-.46.77a1.24 1.24 0 0 0 .46.8 6.7 6.7 0 0 0 1.71 1.32 4.24 4.24 0 0 0 1.94.34 11.3 11.3 0 0 0 3.38-.84 15.4 15.4 0 0 0 2.17-1 5 5 0 0 1 .77-.39" style="fill:#263238"/><path d="M403.92 415.1c1.23 1.71.76 4.21-.55 5.87a12.7 12.7 0 0 1-5.23 3.44 22 22 0 0 0-5.61 2.87c-3 2.43-4.46 6.68-8 8.11a8.44 8.44 0 0 1-5.61 0 25.4 25.4 0 0 1-5.12-2.53c-2.54-1.51-5.39-3.51-5.5-6.46-2.8 0-5.76-.36-8-2.07s-2.29-5.73-.49-7.88l28.9 3.31 13.29-3.29Z" style="fill:#455a64"/><path d="M415.43 426.1c-2.31-2.62-11.38-11.14-11.38-11.14l-2 1.51-13 3.3-2.19-.08 5.82 33.43a6.32 6.32 0 0 0 5.55 0L392 424.53l-1-4.34 11.21-2.63s11.12 9.85 13.17 14.9a52 52 0 0 1 2.51 7.16l1.61-3.35s-1.77-7.56-4.07-10.17" style="fill:#2d9f82"/><path d="M406.08 454.12a8.3 8.3 0 0 1-1.44-1.79 43 43 0 0 1-2.87-4.75 44 44 0 0 1-2.27-5.06 8.8 8.8 0 0 1-.65-2.21c.15-.05 1.38 3.22 3.38 7s3.97 6.69 3.85 6.81" style="fill:#455a64"/><path d="M400.12 439.71a5.32 5.32 0 0 1-.78-5.07c.15 0 0 1.18.25 2.56s.67 2.44.53 2.51" style="fill:#263238"/><path d="M401.66 440.92c-.12.07-.62-.6-1-1.55s-.38-1.78-.25-1.8.41.72.74 1.63.64 1.65.51 1.72m-42.59-5.17c-.16 0 0-1.62-.42-3.51s-1.22-3.28-1.09-3.36a7.58 7.58 0 0 1 1.51 6.87m-1.47 2.02c-.13-.08.27-.87.36-1.92s-.14-1.89 0-1.94.62.8.51 2-.77 1.95-.87 1.86" style="fill:#455a64"/><path d="M367.78 408.56c-.09 0 0-.44-.14-1.1a5.84 5.84 0 0 0-.89-2.4 6 6 0 0 0-1.84-1.78c-.57-.34-1-.48-1-.56s.47-.05 1.13.24a5.09 5.09 0 0 1 2.93 4.47 1.85 1.85 0 0 1-.19 1.13m2.97-1.64a15.4 15.4 0 0 0-1.08-2.86 15 15 0 0 0-2-2.3 4.77 4.77 0 0 1 3.09 5.16ZM141.48 100.53a9.22 9.22 0 0 1-1-7.47 20.1 20.1 0 0 1 5.6-8.06c.22-.16-.6.56 0 0a13 13 0 0 0 .74-1.93c.81-1.63 1.39-2.09 2-2.27a11 11 0 0 1 2.41-.6 7.2 7.2 0 0 1 3.94 1.24 4.34 4.34 0 0 1 3.07-3 5.35 5.35 0 0 1 4.27.77.72.72 0 0 0 .44.16c.18 0 .3-.18.42-.32a3.79 3.79 0 0 1 3.66-1.4 2.86 2.86 0 0 1 2.22 3 3.29 3.29 0 0 1 5.27 3.15 3.5 3.5 0 0 1 2.88.22 4.07 4.07 0 0 1 1.26 3.52 6.4 6.4 0 0 1-1.53 3c-.91.8-1.68.3-2.87.56a10.33 10.33 0 0 1-5.34.21" style="fill:#263238"/><path d="M180.16 101.72a19.85 19.85 0 0 0-19.76-18.3h-1c-11.09.62-16.75 10.39-15.82 21.45l2 51.12H171l-.23-16.64s10.66-1.63 10.82-12.29c.03-5.14-.68-15.75-1.43-25.34" style="fill:#b78876"/><path d="M170.82 139.34a25.9 25.9 0 0 1-13.95-4.12s3.27 7.68 13.9 6.74Z" style="fill:#995037"/><path d="M177.53 110.89a1.53 1.53 0 0 1-1.47 1.53 1.46 1.46 0 0 1-1.57-1.38 1.52 1.52 0 0 1 1.47-1.53 1.46 1.46 0 0 1 1.57 1.38m.32-3.97c-.18.2-1.33-.65-3-.65s-2.84.81-3 .61.11-.44.63-.82a4.16 4.16 0 0 1 2.42-.74 4 4 0 0 1 2.37.77c.51.39.73.75.58.83m-15.44 4.67a1.52 1.52 0 0 1-1.47 1.53 1.46 1.46 0 0 1-1.57-1.37 1.53 1.53 0 0 1 1.47-1.54 1.47 1.47 0 0 1 1.57 1.38m-.67-3.85c-.19.2-1.34-.66-3-.65s-2.84.81-3 .61.1-.44.63-.82a4.1 4.1 0 0 1 2.41-.74 3.92 3.92 0 0 1 2.37.77c.51.38.68.74.59.83m5.94 11.61a10.7 10.7 0 0 1 2.66-.47c.42 0 .81-.13.88-.41a2.1 2.1 0 0 0-.27-1.24l-1.23-3.23c-1.71-4.54-2.95-8.27-2.76-8.33s1.71 3.55 3.42 8.09c.41 1.12.8 2.18 1.18 3.2a2.4 2.4 0 0 1 .21 1.65 1.07 1.07 0 0 1-.69.61 2.7 2.7 0 0 1-.71.09 10.6 10.6 0 0 1-2.69.04m-4.82 1.12c.26 0 .26 1.77 1.78 3s3.41 1.07 3.43 1.32-.43.35-1.23.37a4.44 4.44 0 0 1-2.86-1 3.85 3.85 0 0 1-1.38-2.53c-.06-.73.13-1.17.26-1.16m-.28-16.47c-.16.45-1.79.26-3.71.51s-3.47.79-3.73.39c-.11-.19.15-.61.78-1.05a6.3 6.3 0 0 1 2.75-1 6.16 6.16 0 0 1 2.91.31c.71.31 1.07.66 1 .84m15.67-1.81c-.31.41-1.72.16-3.38.31s-3 .56-3.38.2c-.16-.17 0-.56.59-1a5.56 5.56 0 0 1 2.69-.89 5.5 5.5 0 0 1 2.77.47c.62.36.85.72.71.91" style="fill:#263238"/><path d="M145.15 112.76c-.18-.08-7.31-2.18-7.1 5.11s7.49 5.56 7.5 5.35-.4-10.46-.4-10.46" style="fill:#b78876"/><path d="M143.88 120.53s-.12.09-.34.19a1.2 1.2 0 0 1-.94 0 3.13 3.13 0 0 1-1.54-2.77 4.2 4.2 0 0 1 .3-1.83 1.47 1.47 0 0 1 .92-1 .64.64 0 0 1 .76.32c.11.2.07.35.1.36s.16-.12.09-.42a.78.78 0 0 0-.3-.45 1 1 0 0 0-.71-.17 1.79 1.79 0 0 0-1.29 1.17 4.4 4.4 0 0 0-.38 2c.09 1.46.88 2.81 1.95 3.09a1.34 1.34 0 0 0 1.15-.23c.22-.09.26-.25.23-.26" style="fill:#995037"/><path d="m149.93 91.11 3.6-3.11L165 89.75l8-2.07 4.82.74c-.91 1.21-.17-.42-2-1.8a23.65 23.65 0 0 0-13.75-5c-5-.09-15 5.94-18.63 9.36-2.87 2.73-2.85 5.1-2.85 5.1-.46 3.94 1.74 8.41 2.62 12.28.45 2 1.32 8 1.32 8 1.67 0 2.29-1.34 2-3l-.32-6.5a9.79 9.79 0 0 0 3-11.45c-.36-.49-1.29-3.2.72-4.3" style="fill:#263238"/><path d="M148.44 92.84a5.23 5.23 0 0 1 5.09-3.34 8.92 8.92 0 0 1 5.8 2.64 6.3 6.3 0 0 0 1.3 1.07 1.68 1.68 0 0 0 1.61.1c.15-.08.31-.2.48-.15a.52.52 0 0 1 .27.24 4.5 4.5 0 0 0 1.68 1.6 1.9 1.9 0 0 0 2.17-.33 2.78 2.78 0 0 0 4.67-2.07 2.61 2.61 0 0 0 2.65-1 5.4 5.4 0 0 0-1.34-8.26 9.9 9.9 0 0 0-3.52-1 45 45 0 0 0-5.77-.43 7.1 7.1 0 0 0-2.51.3c-1.11.4-2 1.3-3.2 1.45a5.6 5.6 0 0 1-2.21-.36 9 9 0 0 0-3.21-.47c-2.13.19-3.9 1.72-5.31 3.33a9 9 0 0 0-2.23 3.84 3.79 3.79 0 0 0 1.42 4 1.86 1.86 0 0 0 1.69.22 1.11 1.11 0 0 0 .61-1.46" style="fill:#263238"/><path d="M173.11 159.54a67 67 0 0 1 7.44 6.93c2.95 3.37 29.49 53.07 29.49 53.07l47.59 21.9-4.72 17S204.65 242.93 197.1 237s-19.49-32.19-19.49-32.19Z" style="fill:#2d9f82"/><path d="M136 151s-11 8-13.32 13.07S136 237.31 136 237.31s-5.13 24.05-5.13 37.06a51.5 51.5 0 0 0 5.13 22.48l17.73-17.33s31.17 16.54 39.45 14.57 11.83-1.6 11.83-1.6l-12.62-88.31-20.44-48-.5-5L144.3 136l-1.18 8.67Z" style="fill:#2d9f82"/><path d="M188.47 200a11 11 0 0 1-.52-1.6c-.34-1.12-.78-2.61-1.32-4.4-1.14-3.7-2.81-8.79-4.91-14.32s-4.15-10.47-5.7-14l-1.85-4.2a11.6 11.6 0 0 1-.64-1.56 8.7 8.7 0 0 1 .82 1.47c.5 1 1.19 2.38 2 4.14 1.63 3.52 3.77 8.45 5.85 14s3.72 10.66 4.78 14.4c.52 1.87.92 3.39 1.15 4.45a9.4 9.4 0 0 1 .34 1.62m-17-48.77a8 8 0 0 1-.32 1.51l-1 4.06c-.12.44-.23.88-.36 1.35a6 6 0 0 1-.53 1.46 1.76 1.76 0 0 1-1.47.94A3.3 3.3 0 0 1 166 160c-2-1.29-4.08-2.75-6.32-4.27-4.46-3.05-8.48-5.83-11.37-7.87l-3.42-2.43a9 9 0 0 1-1.21-.95 9 9 0 0 1 1.33.78l3.5 2.3c2.95 2 7 4.69 11.46 7.74l6.27 4.29a3 3 0 0 0 1.48.5 1.33 1.33 0 0 0 1.12-.71 6.2 6.2 0 0 0 .52-1.36c.13-.46.26-.9.39-1.33.48-1.63.89-3 1.2-4a10 10 0 0 1 .52-1.46" style="fill:#263238"/><path d="M171.22 152.5c-1 2.14-1.23 4.67-2.23 6.81a2 2 0 0 1-1.23 1c-.38.06-1.24-.59-1.56-.81-6.6-4.61-13.24-8.78-19.84-13.39v.26c6.57 6 12.25 11.36 19.66 17.21 1.16.92 2.85 1.7 4.09.89a3.7 3.7 0 0 0 1.25-2.66 31 31 0 0 0-.14-9.31" style="opacity:.30000000000000004"/><path d="M156.07 276.55a4.4 4.4 0 0 1-.2-1.09c-.11-.71-.22-1.74-.32-3a86.2 86.2 0 0 1 .76-20c.2-1.26.38-2.28.54-3a4.3 4.3 0 0 1 .29-1.08 5 5 0 0 1-.09 1.11c-.1.82-.23 1.82-.38 3-.31 2.53-.65 6-.8 9.93s-.07 7.41 0 10c.05 1.18.11 2.19.15 3a4.5 4.5 0 0 1 .05 1.13" style="fill:#263238"/><path d="m176.14 439.2.53 34.47 42.89-.44c-.3-4.09-22.57-12.09-22.57-12.09l.57-22.1Z" style="fill:#2d9f82"/><g style="opacity:.6000000000000001"><path d="M183.71 459.41a1.76 1.76 0 0 0-1.19 2 1.68 1.68 0 0 0 2 1.19 1.83 1.83 0 0 0 1.25-2.13 1.75 1.75 0 0 0-2.2-1" style="fill:#fff"/></g><g style="opacity:.6000000000000001"><path d="m176.67 473.67.08-3.48 41.09.88s1.92.81 1.72 2.16Z" style="fill:#fff"/></g><path d="M197.69 460.91c0 .21-1.06.32-2.08 1s-1.56 1.57-1.76 1.49.11-1.29 1.36-2.1 2.52-.58 2.48-.39m4.51 1.82c.05.2-.85.57-1.55 1.46s-.9 1.83-1.11 1.82-.35-1.19.54-2.28 2.12-1.2 2.12-1m2.61 5.36c-.19 0-.49-1 0-2.15s1.5-1.62 1.59-1.45-.51.79-.93 1.75-.47 1.82-.66 1.85m-7.55-12.23c-.09.19-1-.09-2.24 0s-2.1.47-2.21.29.77-.93 2.16-1 2.39.55 2.29.71m-1.08-5.08a3.9 3.9 0 0 1-2.15 0 9.5 9.5 0 0 1-2.25-.66 10 10 0 0 1-1.24-.64 3 3 0 0 1-.65-.5.92.92 0 0 1-.11-1.12 1.14 1.14 0 0 1 .91-.48 2.5 2.5 0 0 1 .81.1 7.5 7.5 0 0 1 1.34.44 7.8 7.8 0 0 1 2 1.28c1 .91 1.35 1.69 1.28 1.73s-.58-.58-1.6-1.33a9 9 0 0 0-1.93-1.06 8.6 8.6 0 0 0-1.24-.36c-.45-.12-.84-.12-1 .09s0 .1.05.24a2 2 0 0 0 .48.36 13 13 0 0 0 1.14.64 12 12 0 0 0 2.08.77 15 15 0 0 1 2.08.5" style="fill:#263238"/><path d="M195.91 451.09a3.52 3.52 0 0 1-.58-2.07 6.8 6.8 0 0 1 .26-2.36 7.6 7.6 0 0 1 .54-1.31 1.79 1.79 0 0 1 1.36-1.09 1 1 0 0 1 .9.59 2.5 2.5 0 0 1 .23.78 5 5 0 0 1 0 1.45 5.1 5.1 0 0 1-.9 2.23c-.83 1.12-1.7 1.37-1.72 1.3s.66-.51 1.29-1.59a5 5 0 0 0 .66-2 4.3 4.3 0 0 0-.05-1.24c-.08-.46-.25-.82-.42-.78s-.57.35-.74.72a6.4 6.4 0 0 0-.52 1.17 7.3 7.3 0 0 0-.4 2.14c-.02 1.24.18 2.02.09 2.06" style="fill:#263238"/><path d="m99.15 400.75-28.77 19 23.44 35.92c3.29-2.45-1.94-25.53-1.94-25.53l18.93-11.41Z" style="fill:#2d9f82"/><g style="opacity:.6000000000000001"><path d="M86.18 418a1.74 1.74 0 0 0-2.33.08 1.67 1.67 0 0 0 .06 2.31 1.85 1.85 0 0 0 2.47-.09 1.76 1.76 0 0 0-.33-2.41" style="fill:#fff"/></g><g style="opacity:.6000000000000001"><path d="m70.38 419.74 3-1.8 21.36 35.11s.35 2.05-.89 2.61Z" style="fill:#fff"/></g><path d="M92.44 430.59c-.18.11-.83-.71-2-1.21s-2.16-.47-2.2-.68 1.15-.6 2.5 0 1.88 1.83 1.7 1.89m.9 4.79c-.15.15-.94-.42-2.07-.53s-2 .23-2.13 0 .81-.94 2.21-.77 2.15 1.18 1.99 1.3m-3.11 5.08c-.15-.14.57-.95 1.83-1.13s2.17.4 2.07.57-.94 0-2 .15-1.77.57-1.9.41m6.23-12.95c-.2 0-.49-.93-1.2-1.87s-1.53-1.52-1.44-1.71 1.2.15 2 1.27.84 2.31.64 2.31m3.71-3.63c-.07.05-.63-.57-1.17-1.81a10.2 10.2 0 0 1-.65-2.26 10 10 0 0 1-.12-1.39 2.5 2.5 0 0 1 .07-.82.9.9 0 0 1 .88-.68 1.16 1.16 0 0 1 .9.5 3 3 0 0 1 .35.74 8 8 0 0 1 .34 1.37 7.5 7.5 0 0 1 0 2.37 3.7 3.7 0 0 1-.77 2c-.11-.05.17-.81.25-2.07a8.6 8.6 0 0 0-.14-2.2 9 9 0 0 0-.35-1.24c-.15-.44-.36-.77-.59-.76s-.12 0-.18.18a2 2 0 0 0 0 .6 11 11 0 0 0 .08 1.3 12 12 0 0 0 .47 2.17 17 17 0 0 1 .63 2" style="fill:#263238"/><path d="M99.77 423.81c-.07 0 .33-.8 1.43-1.6a7 7 0 0 1 3.52-1.3 1.77 1.77 0 0 1 1.65.56 1 1 0 0 1 0 1.08 3 3 0 0 1-.54.61 4.6 4.6 0 0 1-1.21.79 5 5 0 0 1-2.36.45c-1.39-.1-2.07-.69-2-.75a15 15 0 0 0 2 .23 5 5 0 0 0 2.06-.53 4.6 4.6 0 0 0 1-.71c.34-.31.56-.65.43-.77a1.24 1.24 0 0 0-1-.25 8 8 0 0 0-1.27.19 7.6 7.6 0 0 0-2 .83c-1.09.64-1.62 1.25-1.71 1.17" style="fill:#263238"/><path d="M136.31 292.42c-1.21 1.52 6.86 66.62 6.86 66.62S118 376.83 98.69 394.62c-1.4 1.3-15.85 13.91-15.85 13.91l15.85 20.61s68.68-43.77 72.95-51.95 23.76-85.55 23.76-85.55L168.32 278a17.05 17.05 0 0 0-19.25 2.69Z" style="fill:#263238"/><path d="M161 298.9c.35 2.85 7.11 128.1 8.89 138.07a52.5 52.5 0 0 0 5.34 16h25.13s-.93-67.61-.22-77 2.13-8.72 1.78-20.82-2.14-63.69-2.14-65.11S161 298.9 161 298.9" style="fill:#263238"/><path d="M186.41 296.85v.34l-.12 1c-.13.89-.3 2.17-.53 3.81-.47 3.34-1.16 8.15-2 14.16-1.77 12.06-4.24 28.89-7.05 48.09a72 72 0 0 1-2.35 7.9 27.2 27.2 0 0 1-4.12 7.44c-3.71 4.65-8.64 7.8-13.2 10.86l-13.24 8.82-22.49 14.93-15.15 10-4.16 2.73-1.08.69a3 3 0 0 1-.38.22l.35-.27c.26-.17.61-.42 1-.73l4.08-2.78 15.13-10.16 22.38-15 13.22-8.9c4.56-3.06 9.44-6.2 13.08-10.75a26.8 26.8 0 0 0 4-7.31 71 71 0 0 0 2.35-7.83c2.89-19.18 5.42-36 7.23-48.06.92-6 1.66-10.8 2.18-14.14.26-1.63.46-2.91.6-3.8.07-.41.13-.73.17-1a1.3 1.3 0 0 1 .1-.26" style="fill:#455a64"/><path d="M154.5 366.65a26.7 26.7 0 0 0-5.4-4.32 26.2 26.2 0 0 0-6.52-2.28 5.6 5.6 0 0 1 2.07.14 15.5 15.5 0 0 1 4.71 1.69 15.6 15.6 0 0 1 3.93 3.09 5.8 5.8 0 0 1 1.21 1.68" style="fill:#455a64"/><path d="M221.21 174.74s-2.87 12.94-4.12 16.29a29.4 29.4 0 0 0-1.44 4.6l-1.12 4.19a9.1 9.1 0 0 1-10.73 6.53 9.09 9.09 0 0 1-7-10.8v-.14c-5.32-1.91-6.69-7.74-5.67-14.15a61.5 61.5 0 0 1 2.28-10.91 13.63 13.63 0 0 1 7.83-9.28 15.72 15.72 0 0 1 15 1.29c4.47 2.84 6.01 7.19 4.97 12.38" style="fill:#b78876"/><path d="M196.68 176.4a1.3 1.3 0 0 0 1 1.55 1.24 1.24 0 0 0 1.56-.87 1.31 1.31 0 0 0-1-1.56 1.26 1.26 0 0 0-1.56.88m.03-2.72c.12.2 1.24-.31 2.62 0s2.24 1.2 2.42 1.06 0-.39-.38-.8a3.6 3.6 0 0 0-1.9-1.06 3.54 3.54 0 0 0-2.13.22c-.49.22-.7.49-.63.58m12.01 5.47a1.3 1.3 0 0 0 1 1.55 1.24 1.24 0 0 0 1.56-.88 1.3 1.3 0 0 0-1-1.55 1.26 1.26 0 0 0-1.56.88m.28-2.49c.12.2 1.25-.31 2.62 0s2.24 1.2 2.43 1.06 0-.39-.38-.81a3.6 3.6 0 0 0-1.9-1 3.46 3.46 0 0 0-2.13.22c-.46.17-.64.44-.64.53" style="fill:#263238"/><path d="M196.88 195.41s7 1.65 8.94.8c0 0-1.8 3.15-9.18 1.16Z" style="fill:#995037"/><path d="M204.07 177.34c-.07-.06-.34.16-.73.56q-.3.3-.66.72l-.37.44a2.4 2.4 0 0 0-.4.56 1 1 0 0 0-.06.85 1.14 1.14 0 0 0 .49.58 1.3 1.3 0 0 0 .61.21 2 2 0 0 0 .52 0c.59-.17.85-.4.83-.48s-.39 0-.89 0a1.1 1.1 0 0 1-.74-.21.66.66 0 0 1-.22-.29.5.5 0 0 1 0-.35 3 3 0 0 1 .31-.45l.35-.46c.21-.3.4-.57.55-.81.34-.49.49-.81.41-.87" style="fill:#263238"/><path d="M206.17 182.66a3.82 3.82 0 0 0-4.54.36 3.16 3.16 0 0 0-3.2-1.56 3.57 3.57 0 0 0-2.75 2.35 3.14 3.14 0 0 0 .51 3 5.12 5.12 0 0 0 2.86 1.34 13.05 13.05 0 0 0 5.88.38 4 4 0 0 0 2.47-1.53 3.33 3.33 0 0 0-1.23-4.34" style="fill:#2d9f82"/><path d="M204.82 189.73a3.16 3.16 0 0 1-2 2.2 4.54 4.54 0 0 1-4.59-.28 4.22 4.22 0 0 1-1.44-4.37 6.75 6.75 0 0 1 1.69-2.67h1.28s-1.54 1.76-1.5 3.09.9 3 2.93 2.55c3.19-.68 2.32-5 2.32-5l.89.21a19.3 19.3 0 0 1 .42 4.27" style="fill:#2d9f82"/><path d="M198.52 184.61a4.6 4.6 0 0 1-.48.64 6.5 6.5 0 0 0-1 1.85 4.08 4.08 0 0 0 .24 3 3.64 3.64 0 0 0 2.93 2.1 5.14 5.14 0 0 0 3.58-1 2.9 2.9 0 0 0 .89-1.35 3.9 3.9 0 0 0 .09-1.44c-.06-.9-.16-1.64-.22-2.14a4.6 4.6 0 0 1-.07-.8 4 4 0 0 1 .19.78 22 22 0 0 1 .32 2.15 4 4 0 0 1-.06 1.53 3.14 3.14 0 0 1-.95 1.49 5.3 5.3 0 0 1-3.8 1.1 4 4 0 0 1-1.95-.76 4.32 4.32 0 0 1-1.4-4.75 5.8 5.8 0 0 1 1.16-1.86 3.5 3.5 0 0 1 .53-.54" style="fill:#263238"/><path d="M203.55 185.28a1.4 1.4 0 0 1 .13.54 6.5 6.5 0 0 1 0 1.53 3.74 3.74 0 0 1-.85 2.13 3.12 3.12 0 0 1-2.61 1 2.24 2.24 0 0 1-1.35-.67 2.9 2.9 0 0 1-.63-1.24 3.3 3.3 0 0 1-.08-1.24 3.5 3.5 0 0 1 .36-1 7.2 7.2 0 0 1 .85-1.28 2 2 0 0 1 .39-.4s-.5.64-1 1.77a3.6 3.6 0 0 0-.3 1 3 3 0 0 0 .1 1.13 2.7 2.7 0 0 0 .58 1.1 1.86 1.86 0 0 0 1.15.57 2.92 2.92 0 0 0 2.37-.86 3.6 3.6 0 0 0 .84-2 14 14 0 0 0 .05-2.08m14.92-22.02a2.18 2.18 0 0 0-2.27-1.47 3.87 3.87 0 0 0-.37-4.08 3.74 3.74 0 0 0-2.86-1.86 2 2 0 0 0-2.08 2.26 2.57 2.57 0 0 0-4.18 1.4 2.35 2.35 0 0 0-3.73.7c-.56-.48-2 .45-1.9 1.15a1.45 1.45 0 0 0 .8 1.78 4.26 4.26 0 0 0 2.13.24 2 2 0 0 0 .09 2.68 3.33 3.33 0 0 0 2.73.87c.5 0 1.11-.29 1.09-.79a2.85 2.85 0 0 0 1.86 1.77c.88.17 1.9-.71 1.56-1.53a2.13 2.13 0 0 0 3.77-.84 2.12 2.12 0 0 0 3.36-2.28" style="fill:#263238"/><path d="M186.77 201.27c.44-.14 7.36-6.7 7.36-6.7s26.46-13.81 28.69-14.24a21.6 21.6 0 0 0 4.39-1.44 8.7 8.7 0 0 1 0 3.45c-.43 1.15-7.05 27.47-7.05 27.47s1.44 24.74.58 31.5-2.74 12.69-6.62 15.54l-3.88 1.15s1.72-1.87 0-5.75-8.2-18-16.11-20.14c0 0-3.45-.43-4.89 4.46s-2.45 7.48-2.45 7.48L148 238.87l-1.73-17.41 5 .44-9.07-7.77 4.17-8.63 40.57 25.5-.29-14.82s-24.45-48-34.09-54.37-22.22-6.29-22.22-6.29l7.2-5.88c4.39 0 5.26.72 9.31 2 13.64 4.34 30.45 34 30.45 34v.72Z" style="fill:#263238"/><path d="M212.48 214.89s-19.06-16.87-20.79-18-18-10.26-18-10.26l1.87-3.92 19.81 11.23 17.1 15.27Z" style="fill:#455a64"/><path d="M166.29 203.19a2.71 2.71 0 0 0 .33 3.14l-4.09-1.7s-1.94.13-1.57 1.61 3.18 2.52 3.18 2.52-2.51-.34-2.95.43-.47 1.23 0 1.68a9 9 0 0 0 1.67 1s-2.4-.62-2.73.46-.43 1.5.36 2a7.8 7.8 0 0 0 2 .76s-1.16.75-1.16 1.49.09 1.32.71 1.61 3.35-.76 3.35-.76h3.21l2.56-3.26 2-5.46-.49-2s-3.23-1.31-3.93-1.77-2.45-1.75-2.45-1.75" style="fill:#b78876"/><path d="m212.48 214.89-21.65-18.73h-1.38c-1.37.74-3.8 9.51-3.8 9.51l-3.94 2.64-10.42-2.58a33.7 33.7 0 0 0-3.43 4.84c-.81 2-.81 6.32-.81 6.32s18.18 5.69 22.3 5.69 11.51-5.92 11.51-5.92 7.08 1.8 10.15 2.75 1.47-4.52 1.47-4.52" style="fill:#e0e0e0"/><path d="m188.59 207.63.88 1.78 1.96.29-1.42 1.38.34 1.96-1.76-.92-1.76.92.34-1.96-1.43-1.38 1.97-.29zm7.6-5.22.87 1.78 1.97.29-1.42 1.38.33 1.96-1.75-.92-1.76.92.33-1.96-1.42-1.38 1.97-.29zm-18.26 8.8-.52 1.25.73 1.14-1.36-.11-.86 1.04-.31-1.32-1.26-.49 1.16-.7.08-1.36 1.03.89zm3.31 3.77 1.02.89 1.31-.33-.53 1.24.73 1.15-1.35-.12-.87 1.04-.3-1.32-1.26-.5 1.16-.7zm16.6-3.74 1.02.89 1.31-.34-.53 1.25.73 1.15-1.36-.12-.86 1.04-.3-1.32-1.27-.5 1.17-.7zm-6.88 4.87.53.46.69-.17-.28.65.38.6-.71-.06-.45.54-.15-.69-.66-.26.6-.36zm.67-15.03.54.47.68-.18-.28.65.38.6-.7-.06-.45.54-.16-.69-.66-.26.61-.36zm14.62 12.72.54.46.68-.17-.27.65.37.6-.7-.07-.45.55-.16-.69-.66-.26.61-.37zm-34.7-4.59.53.47.69-.18-.28.66.38.59-.71-.06-.45.55-.16-.69-.66-.27.61-.36z" style="fill:#fff"/><path d="M192 232.63c-.55.4-6 16.66-6.14 17.59s-5.78 12.5-2.66 19.85 12.2 21.57 12.2 21.57-5.79 7-4.07 9.54 4.22 4.37 7.66 1.87 10.47-6.25 10.63-8.75-6.41-24.07-6.1-27.36c0 0 6.11-7.65 6.72-8.94s3.48-2.81 0-7.78-13.04-21.43-18.24-17.59" style="fill:#e0e0e0"/><path d="m195.76 250.42.88 1.78 1.97.29-1.42 1.38.33 1.96-1.76-.92-1.75.92.33-1.96-1.42-1.38 1.96-.29zm-5.34 15.7.88 1.78 1.97.29-1.43 1.38.34 1.96-1.76-.92-1.76.92.34-1.96-1.42-1.38 1.96-.29zm11.21 18.11.87 1.78 1.97.29-1.42 1.39.33 1.95-1.75-.92-1.76.92.33-1.95-1.42-1.39 1.97-.29zm1.73-39.03.88 1.78 1.97.29-1.43 1.38.34 1.96-1.76-.92-1.76.92.34-1.96-1.42-1.38 1.96-.29zm-7.5-6.6-.52 1.25.73 1.14-1.35-.11-.87 1.05-.31-1.33-1.26-.49 1.16-.7.08-1.36 1.03.89zm-7.45 19.17 1.02.89 1.32-.34-.53 1.25.72 1.15-1.35-.12-.87 1.04-.3-1.32-1.26-.5 1.16-.7zm10.3 15.67 1.02.89 1.32-.34-.53 1.25.72 1.15-1.35-.12-.86 1.04-.31-1.32-1.26-.5 1.17-.7zm6.3-19.42 1.02.9 1.32-.34-.54 1.25.73 1.15-1.35-.12-.87 1.04-.3-1.32-1.26-.5 1.16-.7zm-8.25 5.69.53.46.69-.17-.28.65.38.6-.7-.07-.46.55-.15-.69-.66-.26.61-.37zm.39-14.87.53.47.69-.18-.28.65.38.6-.71-.06-.45.55-.16-.69-.66-.27.61-.36zm3.03 22.29.54.47.68-.18-.28.65.38.6-.7-.06-.45.54-.16-.69-.66-.26.61-.36zm-2.71 28.25.53.46.69-.17-.28.65.38.6-.71-.07-.45.55-.16-.69-.66-.27.61-.36zm-5.25-15.75.53.47.69-.17-.28.65.38.6-.71-.07-.45.55-.16-.69-.66-.27.61-.36zm13.81 12.82.53.47.69-.18-.28.65.38.6-.7-.06-.46.54-.15-.69-.66-.26.61-.36zm-17.8-41.46.53.47.69-.18-.28.65.38.6-.7-.06-.46.54-.15-.69-.66-.26.61-.36z" style="fill:#fff"/><path d="M212 208.4a6 6 0 0 1 .24 1.24c.13.81.28 2 .43 3.43a101 101 0 0 1 .48 11.39 102 102 0 0 1-.81 11.37c-.19 1.44-.37 2.61-.53 3.41a6 6 0 0 1-.28 1.24 6 6 0 0 1 .08-1.27c.1-.91.22-2.06.36-3.43.29-2.89.59-6.9.66-11.33s-.12-8.45-.33-11.35c-.1-1.37-.19-2.52-.26-3.44a5.5 5.5 0 0 1-.04-1.26m11.07-28.01a6 6 0 0 1-.17 1.2c-.13.76-.37 1.86-.69 3.21a92 92 0 0 1-7.58 20.28c-.64 1.24-1.18 2.22-1.58 2.88a5.7 5.7 0 0 1-.66 1 5.6 5.6 0 0 1 .49-1.11c.38-.8.86-1.78 1.42-3 1.2-2.5 2.75-6 4.23-9.94s2.58-7.61 3.32-10.27l.85-3.17a5 5 0 0 1 .37-1.08" style="fill:#455a64"/><path d="m257.2 243 13.45-3.47 7.3 3.87 2.18 8.36a4.6 4.6 0 0 1-4.82-1.88l-1.87-1.29-3.37 2-3.41 10.87-13.48-4Z" style="fill:#b78876"/><path d="M274.13 249.1a4.57 4.57 0 0 0-4.32-.49 2.94 2.94 0 0 0-1.51 1.26 1.78 1.78 0 0 0 .08 1.9 1.84 1.84 0 0 0-2.74.18 2.61 2.61 0 0 0 .05 3 2.47 2.47 0 0 0-1.73 2.38 4.4 4.4 0 0 0 1.15 2.87 4.33 4.33 0 0 0 3.25 1.76 2.42 2.42 0 0 0 2.45-2.37 2.49 2.49 0 0 0 4-2.64c1.23.5 2.59-.51 3.25-1.66a2.28 2.28 0 0 0-.14-2.92c-.36-.33-.87-.6-1.22-.94-1-1-2-1.33-2.59-2.37" style="fill:#b78876"/><path d="M274.76 256.8a13 13 0 0 1-3.76-2.42 12.7 12.7 0 0 1-3.11-3.22 39 39 0 0 1 3.44 2.82 36 36 0 0 1 3.43 2.82m-3.17 2.91c0 .05-.41-.23-1-.63s-1.5-.9-2.46-1.51a9 9 0 0 1-2.26-1.91c-.48-.6-.63-1.06-.58-1.09s.33.34.85.84a13.7 13.7 0 0 0 2.27 1.72 22.5 22.5 0 0 1 2.4 1.65c.55.49.83.88.78.93" style="fill:#995037"/><path d="M299.38 257.77a10.4 10.4 0 0 0-4-3.67 166 166 0 0 0-17.1-9.32l1.13 4.34 3.66 2s2.43 1.19.92 3.08a31.8 31.8 0 0 0-3.89 6.37 14.7 14.7 0 0 1-1.56 2.89 12.4 12.4 0 0 1-4.45 1c-2.22.09-6.83-1-7.72-2.56a2.3 2.3 0 0 1-.29-.82l-2.24-2.49a6.41 6.41 0 0 0 3.22 6.5c2.51 1.4 5.53 1.42 8.4 1.38a3.8 3.8 0 0 1 1.78.27 4.54 4.54 0 0 1 1.42 1.44c3.24 4.12 9.33 5.12 14.32 3.55a10.1 10.1 0 0 0 6-4.34 11.16 11.16 0 0 0 1.16-5.26 9.16 9.16 0 0 0-.76-4.36" style="fill:#263238"/><path d="M389 419.77c-.12.07-21.24-33.69-47.16-75.41s-46.84-75.61-46.73-75.68 21.24 33.68 47.17 75.41 46.84 75.6 46.72 75.68" style="fill:#263238"/><path d="M278.73 253.15c-.07.06-1.09-1.1-3.06-2.6a13 13 0 0 0-3.69-2.12 3.87 3.87 0 0 0-2.38 0 2.44 2.44 0 0 0-1.6 1.77 2.1 2.1 0 0 0 0 .79l.11.45-.44-.15a2.18 2.18 0 0 0-2.43.83 2.2 2.2 0 0 0 0 2.37l.3.45-.53-.1a1.77 1.77 0 0 0-1.85 1.38 2.74 2.74 0 0 0 .51 1.94c.63 1 1.15 1.51 1.11 1.55a1.3 1.3 0 0 1-.4-.31 7 7 0 0 1-.93-1.1 4.7 4.7 0 0 1-.51-.9 2 2 0 0 1-.14-1.26 2.4 2.4 0 0 1 .73-1.25 1.86 1.86 0 0 1 1.56-.49l-.22.35a2.59 2.59 0 0 1 2.95-3.95l-.33.31a2.3 2.3 0 0 1 0-1 3 3 0 0 1 2-2.14 4.4 4.4 0 0 1 2.69 0 12.7 12.7 0 0 1 3.78 2.29 22 22 0 0 1 2.16 2 4.3 4.3 0 0 1 .61.89" style="fill:#995037"/><path d="M269.9 245c.06-.14 1.76.57 4.07.78h.23v.22a5 5 0 0 0 0 .54 6.25 6.25 0 0 0 1.16 3c.49.68.9 1 .85 1.09s-.53-.2-1.14-.86a5.74 5.74 0 0 1-1.39-3.15v-.59l.23.26a8.2 8.2 0 0 1-4.01-1.29" style="fill:#995037"/><path d="M270.36 243.5a3.7 3.7 0 0 1-.41 1.63 11 11 0 0 1-2.21 3.39 10.9 10.9 0 0 1-3.29 2.36 3.76 3.76 0 0 1-1.6.49 14.66 14.66 0 0 0 7.51-7.87" style="fill:#995037"/><path d="M180 229.72s-21.69-15.4-27.89-16.86l1.66-36.67s.43-16.22-13.21-16.63S122.7 164 122.7 164s-5.28 32.73-4.71 45.13 8.73 30.71 14.93 32.12 31.56 11 41.7 8.45l14.93.43v-19Z" style="fill:#2d9f82"/><path d="M138.85 214.89s.05-.06.16-.15a5 5 0 0 1 .54-.4 12.7 12.7 0 0 1 2.28-1.22 14.87 14.87 0 0 1 9.55-.6 28.8 28.8 0 0 1 6.25 2.73c2.18 1.17 4.45 2.54 6.86 4 4.79 3 10 6.42 15.62 10.25h-.1l9.58 1.4h.22v19.52h-.27q-6.19-.27-12-.8c-1.92-.18-3.8-.39-5.63-.46s-3.63.1-5.4.05a74.4 74.4 0 0 1-18.3-3.09c-5-1.44-9-2.78-11.81-3.67l-3.17-1-.82-.27a1.7 1.7 0 0 1-.28-.11 1 1 0 0 1 .29.06l.83.23 3.2.95c2.78.83 6.8 2.12 11.85 3.51a75 75 0 0 0 18.21 3c1.75.05 3.54-.12 5.42-.07s3.74.27 5.66.44c3.83.36 7.83.61 11.95.79l-.27.26v-19l.22.25-9.55-1.49h-.06c-5.55-3.84-10.8-7.32-15.57-10.3-2.39-1.49-4.65-2.87-6.8-4.05a29.2 29.2 0 0 0-6.16-2.75 15 15 0 0 0-9.41.45 13.7 13.7 0 0 0-2.29 1.14c-.25.15-.44.28-.56.36a1 1 0 0 1-.24.04m12.28-45.66a11 11 0 0 1 .32 1.68c.18 1.09.4 2.66.63 4.62.47 3.9.92 9.32 1 15.33s-.1 11.44-.4 15.36c-.15 2-.3 3.55-.44 4.64a12 12 0 0 1-.25 1.69 9.7 9.7 0 0 1 .05-1.71c.07-1.18.16-2.75.27-4.64.21-3.92.37-9.34.25-15.33s-.52-11.4-.89-15.31c-.19-1.88-.35-3.44-.47-4.62a10.3 10.3 0 0 1-.07-1.71m-1.43-5.29c-.08.06-.78-1-2.31-2.4a15.57 15.57 0 0 0-14.9-3.39c-2 .57-3.08 1.25-3.13 1.16s.24-.22.75-.51a12.5 12.5 0 0 1 2.27-1 15 15 0 0 1 15.26 3.47 13 13 0 0 1 1.61 1.88 2.5 2.5 0 0 1 .45.79" style="fill:#263238"/><path d="M181.57 249.67a15.4 15.4 0 0 1-.16-2.84c0-1.92-.1-4.26-.16-6.84s-.17-4.92-.24-6.84a16 16 0 0 1 0-2.84 14.6 14.6 0 0 1 .38 2.82c.16 1.74.31 4.17.39 6.84s.07 5.11 0 6.86a15.3 15.3 0 0 1-.21 2.84m3.86-4.77a1.07 1.07 0 0 1 1.36 1.08 1 1 0 1 1-1.52-1" style="fill:#263238"/><path d="M152.27 212.72a10.82 10.82 0 0 0-13.55.33 1.9 1.9 0 0 0-.59.73.69.69 0 0 0 .27.83c.32.15.69-.06 1-.26a15.12 15.12 0 0 1 12.92-1.69m15.1 36.34a87 87 0 0 1-12.76-1.42c-6.73-1.14-13.12-3.62-19.58-5.56l-.34 1.79c4.83 3.65 9.89 5.07 15.5 7.31 4.27 1.7 8.81 3 13.4 2.74 6.81-.34 13.24-4 20-4.11-5.41-.13-10.83-.65-16.22-.75" style="opacity:.30000000000000004"/><path d="m189.46 231.43 5.94-.7 5.88 1.62s16.44 11.71 16.42 16.1c0 0 .22 4.18-2 3.86a1.85 1.85 0 0 1 .57 1.3 2.64 2.64 0 0 1-3.92 2.15c-.79-.43-1.42-.8-1.15-.72.6.18 3.1 2.74 1.77 4.19s-3-.08-5.65-1.37a30.3 30.3 0 0 1-5.76-4.16s7.18 9.69 6 10.54-1.53 1.66-3 .12-7.93-8.46-7.93-8.46-7.26-5.15-7.09-5.75-.08-18.72-.08-18.72" style="fill:#b78876"/><path d="M202.41 246.86c.1-.1 2.12 1.8 4.72 4.06a26.2 26.2 0 0 1 4.37 4.45c-.1.09-2.13-1.8-4.72-4.06a25.7 25.7 0 0 1-4.37-4.45m4.16-3.86a8 8 0 0 1 1.66 1.17 43 43 0 0 1 3.68 3.24 27 27 0 0 1 3.18 3.76 6.9 6.9 0 0 1 1 1.76c-.14.09-1.86-2.48-4.57-5.15s-5.07-4.62-4.95-4.78" style="fill:#995037"/></svg>