<svg xmlns="http://www.w3.org/2000/svg" viewBox="0 0 750 500"><path d="M461.18 128.91h158.87s-14-25.56-54.94-21.84c-39.06 3.55-41.05-12.58-60.91-14.57s-36.4 13.24-43.02 36.41m-296.74 12.66H270s-9.33-17-36.49-14.51c-25.94 2.36-27.26-8.35-40.45-9.67s-24.22 8.79-28.62 24.18" style="fill:#f5f5f5"/><path d="m484.18 362.74-23.95 103.98 10.13-.02 24-102.98zm43.69 0 24.04 103.98h9.62l-23.25-103.98zm-59.85-78.11 13.63 71.6h15.5l-14.57-71.6zm-237.51 78.11-19.54 103.98h9.95l20.4-103.98zm41.07 0 22.34 103.41h9.82l-21.56-103.41zm-57.24-78.11 13.64 71.6h15.49l-14.56-71.6z" style="fill:#e0e0e0"/><path d="m183.66 278.13 2.79 13.01h311.16l-3.63-13.01zm5.95 25.27 3.28 13.02h309.06l-2.81-13.02zm6.14 26.17 3.06 13.02h308.1L504 329.57zm23.55 26.66h332.24v13.02H219.3z" style="fill:#ebebeb"/><path d="M644.58 256.93h17.27v208.68h-17.27z" style="fill:#e0e0e0"/><path d="M648.9 49.26h8.64v230.61h-8.64z" style="fill:#e0e0e0"/><circle cx="653.22" cy="57.24" r="26.71" style="fill:#ebebeb" transform="rotate(-78.87 653.221 57.233)"/><path d="M658.93 86.05h-11.85a1.63 1.63 0 0 1-1.63-1.63 1.63 1.63 0 0 1 1.63-1.63h11.85a1.63 1.63 0 0 1 1.63 1.63 1.63 1.63 0 0 1-1.63 1.63m7.32 170.88H640a1.79 1.79 0 0 1-1.79-1.79 1.79 1.79 0 0 1 1.79-1.8h26.25a1.79 1.79 0 0 1 1.79 1.8 1.79 1.79 0 0 1-1.79 1.79" style="fill:#e0e0e0"/><path d="M255.39 175.32h87.29s-7.72-14-30.19-12c-21.46 2-22.55-6.91-33.46-8s-20.03 7.27-23.64 20M388.26 71.14H509s-10.68-19.43-41.76-16.61C437.56 57.24 436.05 45 421 43.47s-27.71 10.06-32.74 27.67" style="fill:#ebebeb"/><path d="M696.66 465.81c0 .15-144 .27-321.64.27s-321.68-.08-321.68-.27 144-.26 321.68-.26 321.64.12 321.64.26" style="fill:#263238"/><path d="M139 306c-20.07-5.25-37.61-18.44-47.37-35.65a68.62 68.62 0 0 1-5-56.63c5.18-14.4 15.15-27.08 19.42-41.74 4.85-16.64 2-34.29-1-51.31s-6-34.61-1.5-51.33 18.87-32.41 37.29-33.6c17.09-1.1 32.87 10.73 40 25.27s7.18 31.22 5.52 47.14-4.91 31.82-3.9 47.79c2.07 32.33 21.45 62.75 19.17 95.07-1.18 16.82-8.15 27.59-20.08 40.25-10.28 10.9-27.38 18.07-42.55 14.74" style="fill:#455a64"/><path d="M145.07 466.15c-.18 0-.33-71.6-.33-159.92s.15-159.94.33-159.94.32 71.6.32 159.94-.15 159.92-.32 159.92m-.93-216.05a23.4 23.4 0 0 1-2.95-2.6c-1.76-1.66-4.15-4-6.67-6.7s-4.84-5.07-6.51-6.81a24 24 0 0 1-2.62-2.9 24.5 24.5 0 0 1 3 2.6c1.76 1.67 4.15 4 6.67 6.71s4.84 5.07 6.51 6.81a25 25 0 0 1 2.57 2.89" style="fill:#263238"/><path d="M92.49 452.88h106.96v13.07H92.49zm53.58-269.78a21.8 21.8 0 0 0 6.53-2.72 17.75 17.75 0 0 0 5.24-5.27 17.55 17.55 0 0 0 2.85-8.36v-.28l.37.31a14.06 14.06 0 0 0-7.87 4.33 29.8 29.8 0 0 0-4.39 5.89 57 57 0 0 0-2.29 4.38 12.5 12.5 0 0 1-.82 1.62 9 9 0 0 1 .58-1.71 43 43 0 0 1 2.13-4.49 28 28 0 0 1 4.35-6.06 14.4 14.4 0 0 1 8.21-4.56l.41-.06v.67a18.16 18.16 0 0 1-8.48 13.94 16.6 16.6 0 0 1-4.89 2.07 12 12 0 0 1-1.43.26 1.5 1.5 0 0 1-.5.04" style="fill:#263238"/><path d="M146.07 183.1c-.14-.11 1.87-2.6 4.48-5.57s4.84-5.29 5-5.18-1.87 2.59-4.48 5.57-4.86 5.29-5 5.18" style="fill:#263238"/><path d="M161.22 438.31c-10.93-9-12.38-24.19-10.86-37.64.26-2.24.19-4.64 1.42-6.53s3.83-3 5.77-1.93c1.61.92 2.19 2.92 3 4.6a13.23 13.23 0 0 0 4.89 5.46c1.37.85 3.11 1.45 4.58.78 2-.92 2.47-3.59 2.63-5.83q.45-6.25.91-12.52a20.7 20.7 0 0 1 1.2-6.59 7 7 0 0 1 4.73-4.35c2.18-.43 4.71 1 5 3.23a20 20 0 0 1-.16 2.79 2.38 2.38 0 0 0 1.21 2.33 2.74 2.74 0 0 0 2.54-.84 30 30 0 0 0 6-7.64 41.8 41.8 0 0 1 5.64-7.94c2.29-2.3 5.35-4 8.57-3.95s6.48 2.32 7 5.53-1.53 6.27-3.74 8.67a50.2 50.2 0 0 1-11.18 9.1 4.13 4.13 0 0 0-1.89 1.73c-.6 1.46.7 3.05 2.13 3.66 1.63.68 3.45.65 5.18 1s3.56 1.27 4.09 3c.74 2.36-1.36 4.6-3.37 6a43 43 0 0 1-13.24 6.31 14.7 14.7 0 0 0-4.89 1.92c-1.42 1.05-2.38 3-1.7 4.64s2.7 2.31 4.45 2.13a31 31 0 0 0 5.06-1.49c3.16-.92 7.12-.4 8.88 2.41a7.11 7.11 0 0 1 .26 6.33 16.4 16.4 0 0 1-3.83 5.26 43.1 43.1 0 0 1-19.4 11.46c-7.33 1.92-14 2.06-20.88-1.09" style="fill:#2d9f82"/><path d="M161.22 438.31c-10.93-9-12.38-24.19-10.86-37.64.26-2.24.19-4.64 1.42-6.53s3.83-3 5.77-1.93c1.61.92 2.19 2.92 3 4.6a13.23 13.23 0 0 0 4.89 5.46c1.37.85 3.11 1.45 4.58.78 2-.92 2.47-3.59 2.63-5.83q.45-6.25.91-12.52a20.7 20.7 0 0 1 1.2-6.59 7 7 0 0 1 4.73-4.35c2.18-.43 4.71 1 5 3.23a20 20 0 0 1-.16 2.79 2.38 2.38 0 0 0 1.21 2.33 2.74 2.74 0 0 0 2.54-.84 30 30 0 0 0 6-7.64 41.8 41.8 0 0 1 5.64-7.94c2.29-2.3 5.35-4 8.57-3.95s6.48 2.32 7 5.53-1.53 6.27-3.74 8.67a50.2 50.2 0 0 1-11.18 9.1 4.13 4.13 0 0 0-1.89 1.73c-.6 1.46.7 3.05 2.13 3.66 1.63.68 3.45.65 5.18 1s3.56 1.27 4.09 3c.74 2.36-1.36 4.6-3.37 6a43 43 0 0 1-13.24 6.31 14.7 14.7 0 0 0-4.89 1.92c-1.42 1.05-2.38 3-1.7 4.64s2.7 2.31 4.45 2.13a31 31 0 0 0 5.06-1.49c3.16-.92 7.12-.4 8.88 2.41a7.11 7.11 0 0 1 .26 6.33 16.4 16.4 0 0 1-3.83 5.26 43.1 43.1 0 0 1-19.4 11.46c-7.33 1.92-14 2.06-20.88-1.09" style="opacity:.4"/><path d="m212.29 363.94-.24.2-.71.54c-.63.47-1.55 1.17-2.72 2.1a84 84 0 0 0-9.27 8.55c-1.83 1.94-3.75 4.16-5.76 6.57s-4.14 5-6.28 7.83a100 100 0 0 0-6.27 9.13c-1 1.64-1.91 3.37-2.84 5.14l-2.81 5.36a206 206 0 0 0-9.67 20.91 100.6 100.6 0 0 0-5.18 18.08 74 74 0 0 0-1.2 12.62c0 1.5 0 2.67.07 3.46v1.2a1.4 1.4 0 0 1 0-.3c0-.23-.05-.52-.08-.9-.07-.79-.12-1.95-.14-3.46a69.6 69.6 0 0 1 1.08-12.67 98 98 0 0 1 5.1-18.16 202 202 0 0 1 9.66-21l2.82-5.37c.93-1.76 1.85-3.5 2.85-5.15a103 103 0 0 1 6.32-9.16c2.15-2.81 4.3-5.4 6.32-7.81s4-4.62 5.81-6.55a79 79 0 0 1 9.39-8.48c1.18-.91 2.12-1.59 2.76-2l.74-.51a1.6 1.6 0 0 1 .25-.17" style="fill:#263238"/><path d="M180.81 398.64a4 4 0 0 1-.14-1c-.07-.63-.14-1.54-.21-2.67-.14-2.25-.23-5.37-.32-8.81s-.21-6.55-.39-8.79c-.08-1.13-.16-2-.22-2.66a4.3 4.3 0 0 1-.05-1 4.2 4.2 0 0 1 .21 1c.11.62.23 1.53.35 2.65.25 2.24.43 5.36.52 8.81s.14 6.46.19 8.81c0 1.06.06 1.95.08 2.67a4.7 4.7 0 0 1-.02.99" style="fill:#263238"/><path d="M210 395.53a7.5 7.5 0 0 1-1.16 0c-.74 0-1.82 0-3.15.06-2.65.08-6.32.32-10.36.75s-7.67 1-10.29 1.48c-1.31.23-2.36.45-3.09.59a6 6 0 0 1-1.15.19 6 6 0 0 1 1.11-.35c.72-.19 1.77-.45 3.08-.72 2.61-.55 6.25-1.16 10.3-1.6a101 101 0 0 1 10.4-.63c1.33 0 2.41 0 3.16.07a6 6 0 0 1 1.15.16m-44.24 34.1a1.6 1.6 0 0 1-.17-.36l-.41-1.08c-.35-.94-.83-2.31-1.39-4-1.13-3.4-2.54-8.16-4-13.42s-2.85-10-3.91-13.46c-.52-1.66-.94-3-1.26-4.05-.14-.44-.25-.81-.34-1.11a2 2 0 0 1-.09-.39 2 2 0 0 1 .17.37c.11.29.25.64.41 1.08.35.93.83 2.31 1.39 4 1.13 3.41 2.54 8.16 4 13.43s2.85 10 3.91 13.45c.52 1.67.94 3 1.26 4.05l.34 1.11a2 2 0 0 1 .09.38m39.24-9.31-.39.12-1.14.29-4.2 1c-3.55.85-8.43 2.08-13.82 3.45s-10.3 2.55-13.87 3.33c-1.78.38-3.22.68-4.23.87l-1.15.21c-.27 0-.41.06-.41 0l.39-.12 1.14-.29 4.2-1c3.55-.85 8.43-2.08 13.83-3.45s10.29-2.55 13.86-3.33c1.78-.38 3.22-.68 4.23-.87l1.15-.21c.24 0 .41-.02.41 0" style="fill:#263238"/><path d="M141 427.27c21.56-15.63 26-44 24.74-69.44-.22-4.25.17-8.73-1.91-12.42s-6.84-6.16-10.62-4.31c-3.12 1.54-4.44 5.23-6.15 8.3a24.9 24.9 0 0 1-9.8 9.68c-2.68 1.45-6 2.37-8.7.94-3.7-2-4.22-7-4.27-11.24q-.12-11.8-.25-23.62c0-4.22-.11-8.54-1.49-12.52s-4.35-7.66-8.39-8.72-9 1.34-9.74 5.49c-.32 1.73.06 3.51 0 5.26s-.87 3.71-2.53 4.23-3.39-.64-4.67-1.86c-4.43-4.19-7.49-9.63-10.34-15.05s-5.64-11-9.68-15.55-9.57-8.18-15.62-8.42-12.44 3.61-13.87 9.57 2.15 12 6 16.72a94.4 94.4 0 0 0 19.95 18.38c1.35.92 2.81 1.92 3.35 3.48 1 2.8-1.66 5.64-4.42 6.61-3.13 1.1-6.56.84-9.84 1.28s-6.83 2-8 5.09c-1.66 4.35 2 8.81 5.63 11.71a80.7 80.7 0 0 0 24.14 13.4c3.13 1.08 6.41 2 9 4.16s4.12 5.91 2.65 8.91-5.33 4-8.6 3.48-6.2-2.27-9.33-3.38c-5.84-2.1-13.33-1.57-17 3.51-2.39 3.34-2.52 7.94-1.22 11.85s3.87 7.25 6.58 10.33c9.49 10.75 21.55 19.34 35.1 23.78s26 5.49 39.34.37" style="fill:#2d9f82"/><path d="M142.66 465c.4-5.64.1-8.81-1-18.88a185 185 0 0 0-7.49-34.69 378 378 0 0 0-15.72-40.5l-4.67-10.4c-1.53-3.41-3.06-6.79-4.76-10a189 189 0 0 0-10.83-17.93c-3.71-5.53-7.44-10.65-11-15.41s-6.91-9.12-10.15-13a149.6 149.6 0 0 0-16.65-17c-2.12-1.85-3.81-3.23-5-4.15l-1.33-1a3 3 0 0 0-.46-.33 3 3 0 0 0 .41.39l1.28 1.1c1.12 1 2.78 2.37 4.86 4.25a159 159 0 0 1 16.43 17.14c3.21 3.86 6.55 8.24 10 13s7.2 9.9 10.89 15.43a190 190 0 0 1 10.73 17.87c1.68 3.2 3.19 6.56 4.73 10s3.09 6.88 4.66 10.4a386 386 0 0 1 15.75 40.39 189 189 0 0 1 7.63 34.54c1.18 10 1.57 13.16 1.25 18.79" style="fill:#263238"/><path d="M108.78 350.5a9.4 9.4 0 0 0 .38-1.81c.2-1.17.44-2.88.7-5 .53-4.21 1-10.06 1.61-16.51s1.16-12.27 1.75-16.47c.29-2.1.54-3.79.73-5a8 8 0 0 0 .2-1.84 9.2 9.2 0 0 0-.5 1.78c-.28 1.15-.61 2.84-1 4.94-.73 4.19-1.43 10-2 16.48s-1 12.12-1.39 16.52c-.17 2-.33 3.66-.45 5a9 9 0 0 0-.03 1.91m-54.48-9.23a11 11 0 0 0 2.17.22c1.4.1 3.42.24 5.91.48 5 .46 11.84 1.32 19.37 2.61s14.29 2.77 19.15 4c2.44.58 4.4 1.11 5.75 1.46a12.4 12.4 0 0 0 2.13.49 10.4 10.4 0 0 0-2-.78c-1.34-.45-3.28-1.06-5.7-1.71-4.84-1.35-11.61-2.9-19.16-4.21a191 191 0 0 0-19.46-2.38c-2.51-.17-4.54-.23-5.94-.23a12 12 0 0 0-2.22.05m79.16 69.17a2.7 2.7 0 0 0 .37-.67c.24-.53.53-1.19.89-2 .77-1.72 1.82-4.25 3.07-7.38 2.52-6.26 5.72-15 9.12-24.75s6.52-18.5 8.9-24.81c1.16-3.07 2.12-5.59 2.84-7.47l.76-2a2.5 2.5 0 0 0 .21-.73 3.5 3.5 0 0 0-.36.67l-.89 2c-.77 1.73-1.82 4.25-3.08 7.38-2.51 6.27-5.71 15-9.11 24.76s-6.52 18.5-8.9 24.81c-1.17 3.06-2.12 5.59-2.84 7.46-.3.82-.55 1.49-.76 2a3 3 0 0 0-.22.73M60.9 388.41a3 3 0 0 0 .72.28l2.11.67 7.77 2.37c6.56 2 15.59 4.88 25.57 8.07s19 6 25.64 7.85c3.3.94 6 1.67 7.84 2.13l2.15.53a2.7 2.7 0 0 0 .76.13 2.7 2.7 0 0 0-.72-.28l-2.1-.67-7.77-2.37c-6.57-2-15.6-4.88-25.57-8.07s-19-6-25.64-7.85c-3.31-.94-6-1.67-7.85-2.13l-2.15-.53a3.2 3.2 0 0 0-.76-.13" style="fill:#263238"/><path d="M681.86 439.62a15.88 15.88 0 0 1 9.84-1.19 8.15 8.15 0 0 1 4.86 2.17c1.22 1.34 1.45 3.7.05 4.85a4.64 4.64 0 0 1-3.06.78c-2.61 0-5.49-.49-7.57 1.07-1.18.9-2 2.38-3.39 2.82a3.36 3.36 0 0 1-3.69-1.64 5.78 5.78 0 0 1-.42-4.23 6.49 6.49 0 0 1 3.38-4.63M675 426.39c1.83 2.61 5.39 1.74 7 .15s2.35-3.91 3-6.11c1.45-5 2.91-10.33 1.83-15.46a8.56 8.56 0 0 0-2-4.2 4.48 4.48 0 0 0-4.25-1.41c-1.79.47-2.91 2.23-3.71 3.9a36.66 36.66 0 0 0-3.64 15.81c0 2.54.29 5.21 1.72 7.32m-4.95 3.75a9.56 9.56 0 0 0 1.48-8.76 16.94 16.94 0 0 0-5.19-7.52 28 28 0 0 0-9.28-5.47 9.8 9.8 0 0 0-4.17-.71 4.38 4.38 0 0 0-3.51 2.12c-1 1.86 0 4.12 1 6a70.4 70.4 0 0 0 6.09 9.29c1.83 2.36 3.92 4.68 6.71 5.74s5.68.94 7.15-1" style="fill:#2d9f82"/><path d="M674.88 465.82a6 6 0 0 0 .16-1.19c.09-.87.19-1.95.32-3.24a46 46 0 0 1 .73-4.76 37 37 0 0 1 1.73-5.61 20.4 20.4 0 0 1 2.86-5.08 10.9 10.9 0 0 1 3.63-3 10 10 0 0 1 3.05-.95 6.4 6.4 0 0 0 1.18-.17 6 6 0 0 0-1.2 0 9.3 9.3 0 0 0-3.19.83 10.7 10.7 0 0 0-3.82 3 20.4 20.4 0 0 0-3 5.18 34.4 34.4 0 0 0-1.71 5.7 41 41 0 0 0-.64 4.81c-.1 1.38-.14 2.5-.16 3.27a6.3 6.3 0 0 0 .06 1.21" style="fill:#263238"/><path d="M675.1 463.32a2 2 0 0 0 0-.55v-1.58c0-1.36 0-3.34.07-5.79.12-4.89.54-10.15 1.36-17.56.77-7 1.8-15.09 2.89-20.37.23-1.2.47-2.28.69-3.23s.39-1.76.57-2.42.27-1.13.36-1.53a2.2 2.2 0 0 0 .1-.55 2.5 2.5 0 0 0-.19.52c-.12.4-.27.9-.46 1.51s-.41 1.47-.65 2.41-.5 2-.76 3.22a178 178 0 0 0-3 18.9c-.82 7.43-1.18 14.2-1.22 19.1 0 2.45 0 4.43.09 5.8 0 .64.07 1.16.1 1.57a2.7 2.7 0 0 0 .05.55" style="fill:#263238"/><path d="M675.14 450.27a12 12 0 0 0 0-1.65 45 45 0 0 0-.5-4.46 61 61 0 0 0-1.45-6.5 54 54 0 0 0-2.72-7.69 40.9 40.9 0 0 0-8-12.42 19.5 19.5 0 0 0-1.88-1.75c-.28-.24-.54-.48-.8-.68l-.73-.5a11.5 11.5 0 0 0-1.38-.89 50 50 0 0 1 4.54 4.06 43 43 0 0 1 7.78 12.38 59 59 0 0 1 2.73 7.62 65 65 0 0 1 1.55 6.43c.34 1.86.53 3.37.65 4.42a9.3 9.3 0 0 0 .21 1.63" style="fill:#263238"/><path d="m597.47 460.37.64-5.38 19.36-1 .34 10.84-1.25.12c-5.52.45-28.14 1.92-31.87.89-4.17-1.18 12.78-5.47 12.78-5.47" style="fill:#2d9f82"/><path d="M610.53 464.83a7 7 0 0 1 2.44-4.35 6.8 6.8 0 0 1 4.66-1.58l.15 5.61Zm-21.33-2.07s-5.93 1.88-5.16 2.85 23.68.34 33.77-.82v-.44l-26.81.95s-.63-2.52-1.8-2.54" style="opacity:.4"/><path d="M618.08 464.33h-.35l-1 .09-3.64.26c-3.08.19-7.33.4-12 .53s-9 .16-12 .14l-3.66-.06h-1a1.4 1.4 0 0 1-.34 0h4.99c3.09 0 7.35-.07 12-.2s9-.32 12-.47l3.65-.18h1Z" style="fill:#263238"/><path d="M591.06 465.61a9 9 0 0 0-.73-1.72 8.6 8.6 0 0 0-1.28-1.37 2.74 2.74 0 0 1 1.48 1.23 2.7 2.7 0 0 1 .53 1.86m5.84-3.16c-.06 0-.35-.3-.66-.76a2.2 2.2 0 0 1-.45-.89c.06 0 .35.3.66.76a2.2 2.2 0 0 1 .45.89m1.6-.91s-.37-.15-.72-.45-.61-.59-.56-.64.36.15.72.45.6.59.56.64m.97-1.92c0 .07-.46.14-1 .16a2.3 2.3 0 0 1-1-.08 2.3 2.3 0 0 1 1-.16 2.3 2.3 0 0 1 1 .08m.32-1.34a2.1 2.1 0 0 1-1.16.37 2.07 2.07 0 0 1-1.21-.13 6.3 6.3 0 0 1 1.19-.12 6 6 0 0 1 1.18-.12" style="fill:#263238"/><path d="M596.17 460.71a3.7 3.7 0 0 1-1.29 0 7.6 7.6 0 0 1-1.38-.27 3.6 3.6 0 0 1-.8-.3.72.72 0 0 1-.33-.39.51.51 0 0 1 .19-.52 2.37 2.37 0 0 1 2.94.61 2.3 2.3 0 0 1 .44.85c.06.22.06.35 0 .35a3.6 3.6 0 0 0-.61-1.09 2.4 2.4 0 0 0-1.12-.68 2.06 2.06 0 0 0-1.54.14c-.2.16-.11.4.12.53a4 4 0 0 0 .73.29 10 10 0 0 0 1.34.31c.82.15 1.31.13 1.31.17" style="fill:#263238"/><path d="M595.84 460.79a1.3 1.3 0 0 1-.18-.9 2.2 2.2 0 0 1 .33-.95 1.29 1.29 0 0 1 1.06-.68.51.51 0 0 1 .41.58 1.4 1.4 0 0 1-.2.58 4.3 4.3 0 0 1-.59.8c-.4.41-.71.57-.73.54s.26-.24.6-.65a4.7 4.7 0 0 0 .52-.79c.17-.28.28-.77 0-.82s-.64.31-.83.57a2.2 2.2 0 0 0-.35.85 4.5 4.5 0 0 0-.04.87m21.68-1.94s-.58 0-1.48.09a6.27 6.27 0 0 0-5.14 4.33c-.29.87-.3 1.45-.35 1.44a1.6 1.6 0 0 1 0-.4 6 6 0 0 1 .19-1.09 6.3 6.3 0 0 1 1.95-3.05 6.2 6.2 0 0 1 3.34-1.4 5 5 0 0 1 1.1 0 1.1 1.1 0 0 1 .39.08m-2.16-5.02a12.5 12.5 0 0 1 .21 2.48 12.7 12.7 0 0 1 0 2.49 12.7 12.7 0 0 1-.21-2.48 12.6 12.6 0 0 1 0-2.49m-7.36 9.11a11.7 11.7 0 0 1-2.92.37 11.8 11.8 0 0 1-2.94-.15c0-.07 1.31 0 2.93-.09s2.87-.2 2.93-.13" style="fill:#263238"/><path d="M611.88 462.83c0 .05-.1.28-.22.58s-.2.58-.27.57-.11-.31 0-.66.45-.54.49-.49m1.43-1.89c.05.05-.07.26-.27.48s-.41.35-.46.31.08-.26.28-.48.4-.35.45-.31m2.1-.94c0 .07-.28.08-.57.19s-.5.27-.55.23.1-.33.47-.46.67.04.65.04m1.5-.39c0 .06-.09.16-.25.23s-.32.08-.35 0 .09-.17.26-.24.31-.06.34.01m5.53-186.29v12.91l-5.2 8.55c0 3.13-4.91 78.14-4.91 78.14l6.26 85.1-23.87 2.43-16.05-98.91 11.11-89.74Z" style="fill:#263238"/><path d="m595.34 458-1.61-5.88 19.75-9.25L618.4 454l-1.25.64c-5.57 2.8-28.52 13.87-32.84 14.37-4.82.6 11.03-11.01 11.03-11.01" style="fill:#2d9f82"/><path d="M610.83 457.13a7.84 7.84 0 0 1 .71-5.56 7.63 7.63 0 0 1 4.19-3.61l2.52 5.78Z" style="opacity:.4"/><path d="M587.73 464s-5.39 4.46-4.18 5.14 24.83-9.62 34.85-15.08l-.23-.45-27.45 12.26s-1.72-2.37-2.99-1.87" style="opacity:.4"/><path d="M618.48 453.42a1.5 1.5 0 0 1-.33.2l-1 .51-3.69 1.8c-3.12 1.5-7.47 3.51-12.32 5.63s-9.27 3.95-12.5 5.22l-3.83 1.49-1 .38a1.6 1.6 0 0 1-.38.12 2 2 0 0 1 .36-.17l1-.43 3.79-1.57a633 633 0 0 0 24.81-10.85l3.71-1.75 1-.46Z" style="fill:#263238"/><path d="M590.87 466.16a9.8 9.8 0 0 0-1.49-1.49 9 9 0 0 0-1.91-.88 3 3 0 0 1 2.07.65 3.07 3.07 0 0 1 1.33 1.72m4.75-5.76c0 .06-.49-.17-1-.51s-.89-.68-.85-.74.49.17 1 .51.89.67.85.74m1.29-1.62c0 .07-.45 0-.95-.17s-.87-.36-.85-.43.44 0 .94.17.88.36.86.43m.2-2.42c0 .07-.42.35-1 .61a2.6 2.6 0 0 1-1.13.36c0-.07.43-.34 1-.61a3 3 0 0 1 1.13-.36m-.24-1.53c.06.05-.37.52-1 .88a2.24 2.24 0 0 1-1.31.37 8 8 0 0 1 1.19-.62 8 8 0 0 1 1.12-.63" style="fill:#263238"/><path d="M594.13 458.9a4.2 4.2 0 0 1-1.33.57 9.3 9.3 0 0 1-1.56.31 4.2 4.2 0 0 1-1 0 .83.83 0 0 1-.51-.27.58.58 0 0 1 0-.62 2.67 2.67 0 0 1 4.14.09.9.9 0 0 1 .2.35 3.9 3.9 0 0 0-1.1-.87 2.6 2.6 0 0 0-1.46-.25 2.27 2.27 0 0 0-1.54.8c-.14.25 0 .46.34.5a3.8 3.8 0 0 0 .89 0 8.6 8.6 0 0 0 1.53-.24c.87-.19 1.38-.41 1.4-.37" style="fill:#263238"/><path d="M593.81 459.11s-.35-.23-.55-.85a2.3 2.3 0 0 1-.06-1.13 1.43 1.43 0 0 1 .8-1.13.56.56 0 0 1 .67.43 1.7 1.7 0 0 1 0 .7 4.6 4.6 0 0 1-.28 1.07 2 2 0 0 1-.53.87s.17-.35.35-.93a5.3 5.3 0 0 0 .21-1c.06-.36 0-.92-.4-.84s-.54.6-.63.95a2.5 2.5 0 0 0 0 1 6 6 0 0 0 .42.86M615.59 448c0 .05-.62.2-1.5.72a7.3 7.3 0 0 0-2.74 2.83 7.23 7.23 0 0 0-.79 3.85c.07 1 .3 1.64.25 1.65s-.09-.14-.19-.42a6 6 0 0 1-.26-1.21 6.86 6.86 0 0 1 3.64-6.92 6.6 6.6 0 0 1 1.15-.47 1.4 1.4 0 0 1 .44-.03m-4.37-4.37a14 14 0 0 1 1.27 2.49 14.6 14.6 0 0 1 1 2.61 14 14 0 0 1-1.27-2.49 14.6 14.6 0 0 1-1-2.61m-3.88 12.62a18.3 18.3 0 0 1-6 2.7c0-.08 1.37-.58 3-1.33s2.96-1.44 3-1.37" style="fill:#263238"/><path d="M611.4 454.48c.07 0 0 .33 0 .7v.71c0 .03-.25-.28-.25-.71s.18-.73.25-.7m.69-2.57c.07 0 0 .3-.09.61s-.27.54-.34.51 0-.3.09-.61.25-.54.34-.51m1.81-1.82c0 .07-.26.19-.52.43s-.4.5-.48.47 0-.38.3-.67.69-.32.7-.23m1.38-1.09c.05.05 0 .21-.16.35s-.31.21-.36.16 0-.21.16-.35.3-.22.36-.16m-44.03-175.68c-.88.49-16.11 54.75-23.38 80.8a37.07 37.07 0 0 0 2.47 26.36L588.67 458l28.92-13.54-34.71-76.26 30.66-94.88Z" style="fill:#263238"/><path d="m588.67 458 .5-.26 1.49-.73 5.74-2.75 21.11-10-.09.26C610.8 429.75 602 410 592.35 388.45l-9.66-21.72v-.18L598 319.11c1.92-5.87 3.46-10.56 4.52-13.81.53-1.59 1-2.82 1.23-3.69l.33-.95a1.7 1.7 0 0 1 .13-.31 3 3 0 0 1-.09.33l-.28 1c-.27.87-.66 2.11-1.15 3.72l-4.38 13.85-15.15 47.45v-.18c3.05 6.84 6.31 14.17 9.68 21.72 9.59 21.61 18.36 41.34 24.94 56.16l.08.18-.17.08-21.19 9.82-5.79 2.65-1.51.68c-.35.19-.53.19-.53.19m31.24-171.77a105 105 0 0 1-7.7 7.2c-4.35 3.86-8 6.91-8.05 6.8s3.36-3.33 7.7-7.19 7.95-6.91 8.05-6.81m-22.35-13.38a3.4 3.4 0 0 1-.27 1 9.7 9.7 0 0 1-1.44 2.58 11.3 11.3 0 0 1-3.3 2.89 10.37 10.37 0 0 1-10.39.19 11.3 11.3 0 0 1-3.4-2.77 9.8 9.8 0 0 1-1.53-2.52 4 4 0 0 1-.32-1 16 16 0 0 0 2.13 3.32 11.4 11.4 0 0 0 3.35 2.58 10.11 10.11 0 0 0 9.92-.18 11.4 11.4 0 0 0 3.25-2.7 16 16 0 0 0 2-3.39" style="fill:#455a64"/><path d="M573.65 360.75a15 15 0 0 1 2.53 1.41c1.53.92 3.62 2.24 5.91 3.71l1.17.75.36.24-.37.2c-2.09 1.19-4 2.22-5.29 2.94a12.5 12.5 0 0 1-2.2 1.06 11.7 11.7 0 0 1 2-1.36c1.3-.8 3.12-1.88 5.2-3.08v.44l-1.17-.75c-2.29-1.48-4.35-2.84-5.83-3.84a16.7 16.7 0 0 1-2.31-1.72" style="fill:#455a64"/><path d="m543.17 208.46-8.98 16.96-47.97 26.23 9.13 17.74 63.91-30.46 9.59-22.5z" style="fill:#ffbe9d"/><path d="M477.6 253.69c-1.49-.64-4.65-2.13-6.15-2.72a5.5 5.5 0 0 0-4.69 0c-2 1.12-2.45 4-1.36 6a7.46 7.46 0 0 0 5.57 3.47 5.74 5.74 0 0 0 7.94 7.26c1.13-.58 2-1.52 3.12-2.2a15.6 15.6 0 0 1 4.15-1.64l20.67-6a5.43 5.43 0 1 0 2.43-9c1.47-2.59 1.28-6.2-.91-8.22s-6.31-1.58-7.61 1.1a28 28 0 0 0-.91 3.21 7.1 7.1 0 0 1-4.21 4.47Z" style="fill:#2d9f82"/><path d="M477.6 253.69c-1.49-.64-4.65-2.13-6.15-2.72a5.5 5.5 0 0 0-4.69 0c-2 1.12-2.45 4-1.36 6a7.46 7.46 0 0 0 5.57 3.47 5.74 5.74 0 0 0 7.94 7.26c1.13-.58 2-1.52 3.12-2.2a15.6 15.6 0 0 1 4.15-1.64l20.67-6a5.43 5.43 0 1 0 2.43-9c1.47-2.59 1.28-6.2-.91-8.22s-6.31-1.58-7.61 1.1a28 28 0 0 0-.91 3.21 7.1 7.1 0 0 1-4.21 4.47Z" style="opacity:.2"/><path d="M477.14 254.8c-1.49-.63-4.65-2.12-6.15-2.72a5.57 5.57 0 0 0-4.69 0c-2 1.12-2.45 4-1.37 6a7.5 7.5 0 0 0 5.58 3.47 5.74 5.74 0 0 0 7.94 7.27c1.13-.58 2-1.53 3.12-2.21a16 16 0 0 1 4.14-1.64l20.68-6a5.42 5.42 0 1 0 2.43-9c1.47-2.58 1.28-6.2-.91-8.21s-6.32-1.59-7.61 1.09a26 26 0 0 0-.91 3.21 7.13 7.13 0 0 1-4.22 4.48Z" style="fill:#2d9f82"/><path d="M545 138.05c-2.25-3.94-4.53-7.94-5.68-12.32s-1.1-9.28 1.17-13.21a17.9 17.9 0 0 1 8.1-6.92c4.56-2.15 10.18-2.95 14.52-.39s6.29 7.66 7.36 12.53c.71 3.2 1.14 6.63 0 9.7-1.72 4.55-6.5 7.2-11.2 8.46s-9.65 1.52-14.2 3.23" style="fill:#263238"/><path d="m576.2 118 9.86 45.79-22.84 5.07-3.9-12.7s-9.74 1.41-12.71-7.85c-1.44-4.5-3.67-14-5.57-22.63a18 18 0 0 1 13.3-21.37A18 18 0 0 1 576.2 118" style="fill:#ffbe9d"/><path d="M559.26 156a22.64 22.64 0 0 0 11.06-7.17s-.81 7.57-10.34 9.58Z" style="fill:#eb996e"/><path d="M545.71 131.65a1.39 1.39 0 0 0 1.69.95 1.33 1.33 0 0 0 1-1.62 1.39 1.39 0 0 0-1.69-.95 1.33 1.33 0 0 0-1 1.62m-1.24-1.89c.21.12 1-.93 2.42-1.37s2.7 0 2.8-.26-.21-.36-.77-.56a3.9 3.9 0 0 0-2.31 0 3.66 3.66 0 0 0-1.86 1.31c-.34.47-.39.83-.28.88m14.83-2.03a1.4 1.4 0 0 0 1.7 1 1.33 1.33 0 0 0 1-1.62 1.4 1.4 0 0 0-1.69-1 1.33 1.33 0 0 0-1.01 1.62m-.71-2.02c.21.12 1-.93 2.42-1.36s2.7 0 2.8-.27-.21-.36-.77-.55a3.8 3.8 0 0 0-2.31 0 3.66 3.66 0 0 0-1.86 1.31c-.33.46-.39.82-.28.87m-1.93 12.19a9.3 9.3 0 0 0-2.45.29c-.38.07-.74.11-.88-.12a1.9 1.9 0 0 1-.09-1.16c.07-1 .15-2 .22-3.11.29-4.41.37-8 .19-8s-.55 3.56-.83 8c-.06 1.09-.12 2.12-.17 3.11a2.18 2.18 0 0 0 .25 1.49 1 1 0 0 0 .76.35 2.4 2.4 0 0 0 .65-.11 9.8 9.8 0 0 0 2.35-.74m4.5-.31c-.23.06.24 1.61-.75 3.12s-2.69 1.84-2.63 2.06.46.19 1.16 0a4.1 4.1 0 0 0 2.23-1.64 3.53 3.53 0 0 0 .53-2.58c-.14-.67-.43-1-.54-.96m-4.66-17.36c.26.34 1.63-.28 3.36-.59s3.24-.28 3.35-.69c0-.2-.3-.49-1-.7a5.64 5.64 0 0 0-2.67-.1 5.7 5.7 0 0 0-2.44 1.07c-.5.44-.72.84-.6 1.01m-12.78 5.23c.35.25 1.23-.39 2.41-.77s2.25-.45 2.38-.86c0-.2-.21-.47-.74-.65a3.7 3.7 0 0 0-3.86 1.32c-.31.5-.35.84-.19.96" style="fill:#263238"/><path d="M575.21 126c.14-.12 5.81-3.85 7.55 2.56s-5 6.85-5.11 6.67-2.44-9.23-2.44-9.23" style="fill:#ffbe9d"/><path d="M579 132.22s.13.05.34.08a1.16 1.16 0 0 0 .84-.21 2.88 2.88 0 0 0 .61-2.83 4 4 0 0 0-.75-1.52 1.34 1.34 0 0 0-1.08-.62.58.58 0 0 0-.57.48v.34c0 .02-.16-.07-.18-.35a.72.72 0 0 1 .14-.47.87.87 0 0 1 .57-.33 1.61 1.61 0 0 1 1.44.68 3.9 3.9 0 0 1 .88 1.68 3 3 0 0 1-.88 3.21 1.21 1.21 0 0 1-1.07.11c-.29-.1-.36-.23-.29-.25" style="fill:#eb996e"/><path d="M578.68 124.65a3.5 3.5 0 0 0-2.58 2.51c-.13 1 .09 2.09 0 3.12s-.81 2.14-1.85 2.21a2 2 0 0 1-1.77-1 5.6 5.6 0 0 1-.65-2c-.54-3.08-.82-6.21-1.62-9.24a16 16 0 0 0-4.53-8.06c-2.35-2.06-5.81-3-8.71-1.89-1.93.76-3.42 2.35-5.3 3.23a8.14 8.14 0 0 1-7.11-.17 15 15 0 0 0-1.47-.5 3.83 3.83 0 0 1 .06-2.17c2.79-4.8 9.49-8 15-8.24a19.36 19.36 0 0 1 15.16 6c3.7 4.14 5.1 11 5.38 16.29" style="fill:#263238"/><path d="M568.17 104.7c.15 0 .09-.16.1-.31.05-1.24-1.19-3.64-5.56-4-3.27-.31-7.39.79-10.41 2.09s-6.1 2.74-9.39 2.8c-1.21 0-2.42-.15-3.62 0a4 4 0 0 0-3.06 1.69A2.17 2.17 0 0 0 537 110a3.74 3.74 0 0 0-4.81 1.87 4.38 4.38 0 0 0 1.48 5.12 5.37 5.37 0 0 0 5.46.36l5.25-6.58s2 .75 5.49-.61c3.28-1.29 15.85-5.07 18.3-5.46" style="fill:#263238"/><path d="M532.12 114.09a4.7 4.7 0 0 0 .87.91 4.1 4.1 0 0 0 3.25.49 9.77 9.77 0 0 0 4.13-2.87 28.6 28.6 0 0 1 5-4 22 22 0 0 1 5.86-2.62 18.8 18.8 0 0 1 5.2-.69 15.5 15.5 0 0 1 3.51.44 4.6 4.6 0 0 1 1.23.41 26.5 26.5 0 0 0-4.74-.48 19.8 19.8 0 0 0-5.07.78 22.4 22.4 0 0 0-5.71 2.6 29.4 29.4 0 0 0-4.95 3.94 9.94 9.94 0 0 1-4.38 2.88 4.2 4.2 0 0 1-3.46-.69 2.7 2.7 0 0 1-.63-.75c-.09-.23-.13-.34-.11-.35" style="fill:#455a64"/><path d="M563.63 105.7s-.24-.35-.77-.87a6.26 6.26 0 0 0-2.65-1.55c-2.54-.82-6.32-.14-10.06 1.4s-7.1 3.25-9.79 3.83a4.55 4.55 0 0 1-3.19-.37 2.9 2.9 0 0 1-.68-.56c-.14-.16-.18-.25-.17-.26a7 7 0 0 0 .95.64 4.5 4.5 0 0 0 3 .19c2.58-.65 5.87-2.39 9.68-4s7.71-2.21 10.36-1.26a6.07 6.07 0 0 1 2.69 1.76 2.6 2.6 0 0 1 .63 1.05" style="fill:#455a64"/><path d="M560.22 170a14.19 14.19 0 0 1 13.11-6 11.63 11.63 0 0 1 6.5 2.89c2.73 2.51 6.58 5.54 6.76 9.25s-1.66 9.47-2.63 13c-3 10.93-7.51 22.5-11.82 33l-32.31-15.28 16.59-31.61Z" style="fill:#2d9f82"/><path d="M560.22 170a14.19 14.19 0 0 1 13.11-6 11.63 11.63 0 0 1 6.5 2.89c2.73 2.51 6.58 5.54 6.76 9.25s-1.66 9.47-2.63 13c-3 10.93-7.51 22.5-11.82 33l-32.31-15.28 13.65-26a90 90 0 0 1 6.63-10.74Z" style="opacity:.2"/><path d="M561.67 213.36A18.6 18.6 0 0 1 559 211c-.79-.77-1.71-1.7-2.69-2.77a21.6 21.6 0 0 1-2.93-3.74 16.5 16.5 0 0 0-2.88-3.62 7.65 7.65 0 0 0-3.25-1.78 6.67 6.67 0 0 0-3.43.14 2.25 2.25 0 0 1 .87-.41 5.3 5.3 0 0 1 2.64-.08 7.6 7.6 0 0 1 3.49 1.77 16 16 0 0 1 3 3.7 23 23 0 0 0 2.84 3.7c1 1.08 1.85 2 2.6 2.83l1.77 1.9a3.4 3.4 0 0 1 .64.72M564 198.4a9 9 0 0 1-2.4-1 41 41 0 0 1-5.3-3.3 34.5 34.5 0 0 1-4.72-4.1 7.7 7.7 0 0 1-1.58-2c.07 0 .67.72 1.82 1.81a47 47 0 0 0 4.76 3.94c2 1.42 3.8 2.6 5.17 3.4a23 23 0 0 1 2.25 1.25m1.74-9.67a29 29 0 0 1-6.46-3.49 37 37 0 0 1-4.16-3.12 6 6 0 0 1-1.46-1.59 17 17 0 0 1 1.69 1.31c1 .81 2.54 1.86 4.22 3s3.23 2.06 4.36 2.75a11.3 11.3 0 0 1 1.81 1.14" style="fill:#e0e0e0"/><path d="M560.22 170a14.19 14.19 0 0 1 13.11-6 11.63 11.63 0 0 1 6.5 2.89c2.73 2.51 6.58 5.54 6.76 9.25s-1.66 9.47-2.63 13c-3 10.93-7.51 22.5-11.82 33l-32.31-15.28 16.59-31.61Z" style="fill:#2d9f82"/><path d="M560.22 170a14.19 14.19 0 0 1 13.11-6 11.63 11.63 0 0 1 6.5 2.89c2.73 2.51 6.58 5.54 6.76 9.25s-1.66 9.47-2.63 13c-3 10.93-7.51 22.5-11.82 33l-32.31-15.28 13.65-26a90 90 0 0 1 6.63-10.74Z" style="opacity:.2"/><path d="M561.67 213.36A18.6 18.6 0 0 1 559 211c-.79-.77-1.71-1.7-2.69-2.77a21.6 21.6 0 0 1-2.93-3.74 16.5 16.5 0 0 0-2.88-3.62 7.65 7.65 0 0 0-3.25-1.78 6.67 6.67 0 0 0-3.43.14 2.25 2.25 0 0 1 .87-.41 5.3 5.3 0 0 1 2.64-.08 7.6 7.6 0 0 1 3.49 1.77 16 16 0 0 1 3 3.7 23 23 0 0 0 2.84 3.7c1 1.08 1.85 2 2.6 2.83l1.77 1.9a3.4 3.4 0 0 1 .64.72M564 198.4a9 9 0 0 1-2.4-1 41 41 0 0 1-5.3-3.3 34.5 34.5 0 0 1-4.72-4.1 7.7 7.7 0 0 1-1.58-2c.07 0 .67.72 1.82 1.81a47 47 0 0 0 4.76 3.94c2 1.42 3.8 2.6 5.17 3.4a23 23 0 0 1 2.25 1.25m1.74-9.67a29 29 0 0 1-6.46-3.49 37 37 0 0 1-4.16-3.12 6 6 0 0 1-1.46-1.59 17 17 0 0 1 1.69 1.31c1 .81 2.54 1.86 4.22 3s3.23 2.06 4.36 2.75a11.3 11.3 0 0 1 1.81 1.14" style="fill:#e0e0e0"/><path d="m561.18 165.73 23.44-13.35s11.2 4.58 18.27 12.88c9.31 10.94 13.68 26 15.21 39.53 1.3 11.56 6.94 68.53 6.94 68.53h-60.29V235.1Z" style="fill:#2d9f82"/><path d="M564.68 249.84c3.27 1.6 7.38.6 10.18-1.72s4.48-5.75 5.57-9.22c1-3.11 1.58-6.42 3.41-9.11 1.37-2 3.33-3.55 4.9-5.42 4.71-5.62 5.3-13.51 5.69-20.83a72.7 72.7 0 0 0-5.73 12.53c-.61 1.76-2.23 5.33-2.23 5.33l-4.58-2.21c-5.74 9.93-11.28 18.49-17 28.41" style="opacity:.2"/><path d="M618.73 212.3s-.46-.06-1.27-.05a8.1 8.1 0 0 0-3.31.85 26.7 26.7 0 0 0-4.35 2.76 12.25 12.25 0 0 1-5.87 2.59 12.6 12.6 0 0 1-6.25-1.48c-1.77-.84-3.33-1.65-4.65-2.32l-3.11-1.65a6.5 6.5 0 0 1-1.11-.66 7 7 0 0 1 1.2.47l3.18 1.47 4.69 2.22a12.3 12.3 0 0 0 6 1.39 12.1 12.1 0 0 0 5.65-2.46 24.5 24.5 0 0 1 4.47-2.71 7.8 7.8 0 0 1 3.46-.71 4.3 4.3 0 0 1 .95.14 1.2 1.2 0 0 1 .32.15m2.43 23.26s-.56-.41-1.63-1a13.3 13.3 0 0 0-4.9-1.43 22.4 22.4 0 0 0-7.57.57c-2.82.62-5.84 1.66-9.11 2.45a29.6 29.6 0 0 1-17-.81 26.4 26.4 0 0 1-4.73-2.19c-.53-.3-.92-.58-1.19-.76s-.41-.28-.4-.3.61.32 1.69.88a29.6 29.6 0 0 0 4.75 2 30.6 30.6 0 0 0 7.49 1.47 29.8 29.8 0 0 0 9.28-.82c3.24-.77 6.27-1.81 9.12-2.41a22.6 22.6 0 0 1 7.73-.47 13 13 0 0 1 5 1.62 8.5 8.5 0 0 1 1.17.82 2.4 2.4 0 0 1 .3.38M564.76 253a2.3 2.3 0 0 1 .49-.38c.17-.11.4-.2.66-.34a7 7 0 0 1 1-.26c1.55-.3 3.79.25 6.28 1.3a36 36 0 0 0 4.15 1.47 22 22 0 0 0 5 .73 45.5 45.5 0 0 0 11.48-1.31c4-.88 7.84-1.93 11.4-2.5a37.2 37.2 0 0 1 9.53-.5 20.4 20.4 0 0 1 6.25 1.55 11 11 0 0 1 1.56.78 2.4 2.4 0 0 1 .52.33 3.3 3.3 0 0 1-.57-.24 17 17 0 0 0-1.59-.69 22 22 0 0 0-6.2-1.37 38.8 38.8 0 0 0-9.42.61c-3.53.59-7.32 1.66-11.37 2.54a45 45 0 0 1-11.65 1.28 24 24 0 0 1-9.24-2.34c-2.47-1.08-4.62-1.66-6.11-1.44a5.7 5.7 0 0 0-2.17.78m58.45 12.54c0 .07-.81-.29-2.32-.51a15.5 15.5 0 0 0-6.37.73c-2.62.78-5.57 2.21-8.94 3.61a43.2 43.2 0 0 1-11.51 2.91 46.3 46.3 0 0 1-11.87-.16 44.4 44.4 0 0 1-9.39-2.43A19 19 0 0 1 571 269l-1.6-.71c-1-.51-1.82-.92-2.49-1.31l-1.51-.93a2.6 2.6 0 0 1-.51-.36 3.5 3.5 0 0 1 .56.27l1.56.84c.68.36 1.54.75 2.51 1.23l1.61.67c.57.25 1.18.48 1.83.7a45.8 45.8 0 0 0 9.33 2.29 46.7 46.7 0 0 0 11.74.13 44.5 44.5 0 0 0 11.39-2.84 93 93 0 0 1 9-3.52 15.1 15.1 0 0 1 6.5-.58 8 8 0 0 1 2.29.66m-7.91-75.71s-.24-.18-.71-.38a3.54 3.54 0 0 0-2.08-.16 7 7 0 0 0-2.81 1.45 33 33 0 0 1-3.29 2.35 25 25 0 0 1-6.78 2.83 19 19 0 0 1-2.19.41c-.53.06-.82.07-.82 0s1.13-.27 2.91-.8a28.4 28.4 0 0 0 6.61-2.92 39 39 0 0 0 3.27-2.28 6.9 6.9 0 0 1 3-1.43 3.5 3.5 0 0 1 2.24.34c.51.3.67.57.65.59m-18.68-20.96a25.6 25.6 0 0 1 6.27-3.61 12.1 12.1 0 0 1-3 2 12.6 12.6 0 0 1-3.27 1.61m-25.72 10.18a4 4 0 0 1-1.34-.39 29 29 0 0 0-3.14-1c-2.51-.63-4.59.17-4.62 0a2.9 2.9 0 0 1 1.31-.52 7.6 7.6 0 0 1 3.43 0 15 15 0 0 1 3.16 1.22c.77.35 1.23.64 1.2.69m19-24.05a6 6 0 0 1-.78 1 23 23 0 0 1-2.45 2.49 34 34 0 0 1-9.92 5.79c-4.18 1.68-8.12 2.72-10.89 3.65-1.4.45-2.51.85-3.28 1.14a5.6 5.6 0 0 1-1.21.41 7 7 0 0 1 1.13-.6c.75-.35 1.85-.8 3.24-1.3 2.76-1 6.67-2.12 10.82-3.78a37.4 37.4 0 0 0 9.88-5.59 31 31 0 0 0 2.53-2.35 6 6 0 0 1 .93-.86" style="fill:#e0e0e0"/><path d="M560.3 208.32a2.2 2.2 0 0 1-.17.4l-.56 1.11-2.17 4.17c-1.91 3.62-4.61 8.7-7.81 14.76v.06h-.07l-18.05 8.4L503.81 250l-8.39 3.8-2.29 1a8 8 0 0 1-.82.32 5 5 0 0 1 .77-.42l2.25-1.1 8.33-4 27.55-12.86 18.08-8.35-.11.1c3.28-6 6-11.07 8-14.67l2.29-4.12.61-1.08a3 3 0 0 1 .22-.3" style="fill:#eb996e"/><path d="m560.3 208.32-10.86 20.57-49 22.79-9.51 4.17a12.2 12.2 0 0 1-3.94-.95 18 18 0 0 1-4.42-2.45c-1.15-1-3-.17-2.71 1.22s3.35 4.37 8.12 5.92-5.26 6.5-7.92 7.59c.35 2.6 5 1 5.5 2.39a2.54 2.54 0 0 0-1.57 3.72c.41.92 2.5.46 3.9 0a1.64 1.64 0 0 1 2 .83l.4.81c1.2 2.57 5.66.26 5.66.26s4-1.89 4.95-2.61c.39-.28 4-1.95 6.6-3.08v.05l1.12-.54c7.13-3.49 39.77-15.43 53.42-20.39a16.27 16.27 0 0 0 9-7.92l10.95-21.54Z" style="fill:#ffbe9d"/><path d="M600.85 186.71c-5.39 11.45-11.48 28.42-14.41 34.47l-30.12-14.82 18.25-34.15c4.23-6.5 11.92-8.44 18.91-5.09 7.68 3.67 11 11.88 7.37 19.59" style="fill:#2d9f82"/><path d="M556.32 206.36a2 2 0 0 1 .16-.34l.52-1 2.07-4c1.83-3.48 4.46-8.48 7.71-14.64 1.64-3.1 3.43-6.49 5.36-10.12a27 27 0 0 1 3.36-5.46 15.42 15.42 0 0 1 12.5-5.29 15.9 15.9 0 0 1 7.11 2.17 15.55 15.55 0 0 1 5.42 5.48 16.2 16.2 0 0 1 1.55 3.66 15.6 15.6 0 0 1 .56 4 15.3 15.3 0 0 1-1.14 6c-.75 1.84-1.55 3.63-2.31 5.41-1.53 3.56-3 7-4.47 10.4l-8.06 18.69-.09.21-.2-.1-21.9-10.9-6.05-3-1.57-.8c-.35-.18-.51-.28-.51-.28l.57.26 1.63.78 6.14 2.95L586.54 221l-.29.11 8-18.72c1.45-3.36 2.93-6.84 4.46-10.4.76-1.78 1.55-3.58 2.3-5.41a14.8 14.8 0 0 0 1.1-5.76 15 15 0 0 0-.54-3.85 15.8 15.8 0 0 0-1.5-3.54 15 15 0 0 0-5.23-5.3A15.2 15.2 0 0 0 588 166a15 15 0 0 0-12.11 5.11 27 27 0 0 0-3.31 5.34l-5.39 10-7.92 14.55-2.17 4-.57 1c-.13.24-.21.36-.21.36" style="fill:#263238"/><path d="M489.15 268.42a8.33 8.33 0 0 1-8.91-.67 13.23 13.23 0 0 0 8.91.67" style="fill:#eb996e"/><path d="M590.63 207.77a5.3 5.3 0 0 1-1.27.22c-.82.1-2 .22-3.49.29a27.4 27.4 0 0 1-5.21-.22 14.9 14.9 0 0 1-6-2.17 34 34 0 0 1-4.73-4.28 14.4 14.4 0 0 0-4.08-3 7.46 7.46 0 0 0-3.31-.76c-.81 0-1.25.18-1.26.13s.1-.06.3-.14a4.3 4.3 0 0 1 1-.19 7.1 7.1 0 0 1 3.47.62 14.3 14.3 0 0 1 4.26 3 35 35 0 0 0 4.69 4.19 15 15 0 0 0 5.81 2.14 29 29 0 0 0 5.13.32c1.47 0 2.66-.09 3.48-.13a8 8 0 0 1 1.21-.02m5.99-11.41a5 5 0 0 1-1.27.15 19.7 19.7 0 0 1-3.46-.16 17 17 0 0 1-5-1.37 18 18 0 0 1-5-3.89c-1.55-1.6-3-3.18-4.41-4.4a13.8 13.8 0 0 0-4.32-2.54 8.5 8.5 0 0 0-3.33-.5c-.8.06-1.23.19-1.25.14s.1-.06.31-.13a5 5 0 0 1 .92-.21 7.94 7.94 0 0 1 3.47.35 13.5 13.5 0 0 1 4.5 2.52 59 59 0 0 1 4.49 4.4 18 18 0 0 0 4.8 3.82 17.6 17.6 0 0 0 4.82 1.44 42 42 0 0 0 4.73.38m5.38-14.74a5 5 0 0 1-1.2 0l-3.25-.18-4.81-.33c-1.81-.14-3.81-.29-5.9-.64a20.1 20.1 0 0 1-5.72-1.69 10.5 10.5 0 0 1-3.58-3.31 16 16 0 0 1-1.54-2.87 4.5 4.5 0 0 1-.38-1.14 37 37 0 0 0 2.24 3.81 10.5 10.5 0 0 0 3.52 3.09 21 21 0 0 0 5.58 1.61c2 .34 4 .51 5.85.67l4.81.44 3.23.34a5 5 0 0 1 1.15.2" style="fill:#e0e0e0"/><path d="M492.31 271.56a9.12 9.12 0 0 1-8.16 1.86 39 39 0 0 0 4.19-.45 36 36 0 0 0 3.97-1.41" style="fill:#eb996e"/><path d="M433 334.11a10.39 10.39 0 0 0-4.39 11.09 10.7 10.7 0 0 0 9.62 8.06 10 10 0 0 0 6.6-17.82c-3.29-2.6-8.35-3.66-11.83-1.33" style="fill:#2d9f82"/><g style="opacity:.30000000000000004"><path d="M433 334.11a10.39 10.39 0 0 0-4.39 11.09 10.7 10.7 0 0 0 9.62 8.06 10 10 0 0 0 6.6-17.82c-3.29-2.6-8.35-3.66-11.83-1.33" style="fill:#fff"/></g><path d="M434.41 352.18a14 14 0 0 0 1.34-2.18 6.8 6.8 0 0 0-4.71-9.49 15 15 0 0 0-2.54-.26 1.7 1.7 0 0 1 .69-.17 6 6 0 0 1 1.93.07 6.92 6.92 0 0 1 5 10 6 6 0 0 1-1.11 1.58c-.36.33-.57.47-.6.45m13.14-4.33a1.64 1.64 0 0 1-.73-.07 7.6 7.6 0 0 1-1.89-.65 9.74 9.74 0 0 1-4.5-4.74 10 10 0 0 1-.54-6.52 9 9 0 0 1 .7-1.87c.22-.42.37-.63.4-.62s-.42 1-.74 2.57a10.4 10.4 0 0 0 .65 6.22 10.08 10.08 0 0 0 4.2 4.63 26 26 0 0 0 2.45 1.05" style="fill:#fafafa"/><path d="M377 358.53c1.59-1.43 2.71-3.41 1.88-5.33l-.05-.15a3.8 3.8 0 0 0-.91-1.32 6.47 6.47 0 0 0-3.07-1.44c-3.7-.81-7.61.08-11.33-.65a15.3 15.3 0 0 0 2.14 6.24 9.27 9.27 0 0 0 5.13 4 6.67 6.67 0 0 0 6.21-1.35" style="fill:#455a64"/><path d="M378.73 360c-.12-1.82-.84-3.6-2.56-4.07h-.13a3.5 3.5 0 0 0-1.36-.09 5.46 5.46 0 0 0-2.57 1.29c-2.5 2-4 5.12-6.42 7.21a12.9 12.9 0 0 0 5.28 1.86 7.87 7.87 0 0 0 5.37-1.31 5.69 5.69 0 0 0 2.39-4.89" style="fill:#455a64"/><path d="M378.67 359.74a2.65 2.65 0 1 1 .88-5.07" style="fill:#455a64"/><path d="M338.79 424.41c-7.54 2.38-15.66-4-17.87-11.56s0-15.74 2.77-23.14 6.23-14.76 6.64-22.66c.46-9.07-3.7-18.58-11.49-23.25s-19-3.41-24.67 3.72-3.49 19.39 4.74 23.22c-2.2-1.22-4.51-2.48-7-2.56s-5.29 1.43-5.73 3.91 1.44 4.69 3.44 6.17 4.34 2.69 5.58 4.84c1.95 3.39.45 7.61-.48 11.41a35.75 35.75 0 0 0 52.79 39.29" style="fill:#2d9f82"/><path d="M336.82 425c-.91.69-2.25-.3-3.35 0a2.79 2.79 0 0 0-1.47 2 12 12 0 0 0-.73 6.45 5.75 5.75 0 0 0 4.22 4.54 1.45 1.45 0 0 0 1.55-.46 1.7 1.7 0 0 0 .14-.89l-.3-11.08" style="opacity:.30000000000000004"/><path d="m369.4 466.27-5.8-34.53 23.18-6.12c4.66 1.27 8.78 5.06 11 10.1s1.28 13.61-.47 18.92a46.5 46.5 0 0 1 13.71 1.6c4.31 1.47 8.48 4.57 7.85 9.87Z" style="fill:#2d9f82"/><path d="m369.4 466.27-5.8-34.53 23.18-6.12c4.66 1.27 8.78 5.06 11 10.1s1.28 13.61-.47 18.92a46.5 46.5 0 0 1 13.71 1.6c4.31 1.47 8.54 4.74 7.91 10Z" style="fill:#2d9f82"/><path d="m369.4 466.27-5.8-34.53 23.18-6.12c4.66 1.27 8.78 5.06 11 10.1s1.28 13.61-.47 18.92a46.5 46.5 0 0 1 13.71 1.6c4.31 1.47 8.54 4.74 7.91 10Z" style="opacity:.30000000000000004"/><path d="m446.25 396 18.17-16.11 3.31 7s-17.81 30.62-20.89 30.18-11.45-12.55-20.92-7.26l-7-7.93 10.6-22L446.23 396" style="fill:#2d9f82"/><path d="M347.87 466.27h56.39c-.27-13.09-9.8-11.64-9.8-11.64h-13c7.13-4 9.2-14.23 9.2-14.23 13.61-3.65 24.5-19.79 24.5-19.79l10.61-21.91.55 7.91 4.9-10C435.84 378.91 422 353 422 353l10.89.31c0-5.79-7.08-5.79-12.25-7s-3.26-7.92-3.26-7.92 12.24 1.53 17.14-4.26 2.45-14 2.45-14l-17.69 2.13c-2.45-2.74-11.16-6.69-16.88-5.17s-16.33 9.74-18.23 14.3-2.73 19.18-3.7 31.66-8.83 20.69-15.9 28.61-17.47 13.43-24.57 21.95c-2.21 2.67-3.31 7.26-3.77 12.32a57.74 57.74 0 0 0 9.45 37.07Z" style="fill:#2d9f82"/><path d="M426.93 389.16c0 .45.34 67.07.34 67.07s12.64 1 14.37 10h-22.7S405 425.35 400.7 421.89a63 63 0 0 0-11.24-6.55l6.34-2.67-4.33-5.48s2 2.31 4.62-1.44" style="fill:#2d9f82"/><path d="M399.92 324.48a2.2 2.2 0 0 1 .05.53v15.42a44 44 0 0 1-.19 4.93 13.5 13.5 0 0 1-1.48 5.12 7.13 7.13 0 0 1-4.12 3.37 8.3 8.3 0 0 1-5-.15 8.9 8.9 0 0 1-3.78-2.45 10.4 10.4 0 0 1-2-3.38 13 13 0 0 1-.65-5.58 11 11 0 0 1 .23-1.51 1.7 1.7 0 0 1 .15-.51c.05 0-.11.72-.18 2a13.5 13.5 0 0 0 .8 5.44 10 10 0 0 0 1.95 3.22 8.65 8.65 0 0 0 3.61 2.29 7.9 7.9 0 0 0 4.67.11 6.62 6.62 0 0 0 3.82-3.14 13.2 13.2 0 0 0 1.43-4.92 45 45 0 0 0 .21-4.87c.05-3.11.09-5.91.12-8.3s.09-4.2.12-5.6c0-.61.05-1.11.06-1.52a1.8 1.8 0 0 1 .18-.5m31.72-3.6a3.64 3.64 0 0 0 .64 2.62 5 5 0 0 0 2.08 1.53 4.74 4.74 0 0 0 3.28.49 13.4 13.4 0 0 0-.16-4.15 1.55 1.55 0 0 0-.59-1.1 1.5 1.5 0 0 0-.7-.15 11.1 11.1 0 0 0-4.55.76" style="fill:#263238"/><path d="M460.69 384.33c1.95-2.49 3.76-4.79 5.58-6a10.84 10.84 0 0 1 6.52-2.05 7 7 0 0 1 5.77 3.31 5.26 5.26 0 0 1-.84 6.37 7.46 7.46 0 0 1-5 1.73 4.37 4.37 0 0 1-2.74-.84 2.5 2.5 0 0 1-.46-3.06l-2.08 3.67Z" style="fill:#2d9f82"/><path d="M426.93 452.16c-.14 0-.18-14.25-.09-31.81s.29-31.8.43-31.8.19 14.24.09 31.81-.29 31.8-.43 31.8m-25.81 14.11c-.08 0 .06-.69 0-1.77a7.54 7.54 0 0 0-4.57-6.51c-1-.43-1.68-.53-1.66-.61a3.3 3.3 0 0 1 1.79.27 7.14 7.14 0 0 1 4.81 6.84 3.4 3.4 0 0 1-.37 1.78m-35.96-40.84a3 3 0 0 1 .48-.22 13 13 0 0 1 1.43-.52 21.5 21.5 0 0 1 5.5-.95 19.4 19.4 0 0 1 8.17 1.4 17.46 17.46 0 0 1 7.92 6.27 14 14 0 0 1 2.06 4.88 15.3 15.3 0 0 1 .15 4.94 17.2 17.2 0 0 1-3 7.71 25.6 25.6 0 0 1-3.83 4.07c-.49.44-.89.76-1.16 1a2 2 0 0 1-.43.31 2.6 2.6 0 0 1 .36-.39l1.09-1.05a29 29 0 0 0 3.67-4.13 17.1 17.1 0 0 0 2.81-7.56 15.1 15.1 0 0 0-.17-4.77 13.6 13.6 0 0 0-2-4.7 17.2 17.2 0 0 0-7.68-6.12 19.5 19.5 0 0 0-8-1.47 23.5 23.5 0 0 0-5.47.77c-1.2.32-1.88.58-1.9.53m42.84 8.48s-.08-.09-.21-.28l-.52-.85c-.44-.74-1.07-1.84-1.83-3.25s-1.66-3.11-2.61-5.09a51 51 0 0 1-2.79-6.76l.45.05c-.62 1.15-1.26 2.36-1.91 3.61l-.24.44-.22-.45a10.8 10.8 0 0 1-1-5.85 10.5 10.5 0 0 1 .37-1.87l.45.23-3.29 4.29-.35.46-.09-.57a40.2 40.2 0 0 1 .35-14.87 35 35 0 0 1 1.16-4.19c.16-.48.31-.84.4-1.08a2 2 0 0 1 .17-.37 11 11 0 0 1-.41 1.51c-.28 1-.66 2.38-1 4.19a42.1 42.1 0 0 0-.17 14.72l-.45-.11 3.28-4.3.84-1.11-.39 1.34a11 11 0 0 0-.34 1.78 10.4 10.4 0 0 0 1 5.58h-.45l1.93-3.6.27-.52.17.56a56 56 0 0 0 2.7 6.72c.92 2 1.78 3.71 2.5 5.13l1.71 3.32a11 11 0 0 1 .52 1.19m30.47 32.36c-.08 0-.15-.68-.51-1.72a8.71 8.71 0 0 0-5.9-5.62c-1.05-.3-1.74-.34-1.74-.42a3.63 3.63 0 0 1 1.83.07 8.17 8.17 0 0 1 3.92 2.06 8.06 8.06 0 0 1 2.24 3.81 3.7 3.7 0 0 1 .16 1.82m29.02-88.46a5.4 5.4 0 0 1-.9.84l-2.59 2.14c-2.15 1.8-5.12 4.29-8.35 7.1s-6.12 5.41-8.2 7.3l-2.45 2.22a5.6 5.6 0 0 1-.95.77 5.3 5.3 0 0 1 .81-.92c.54-.56 1.35-1.37 2.36-2.34 2-2 4.87-4.6 8.1-7.42s6.26-5.27 8.47-7c1.11-.86 2-1.55 2.66-2a6.4 6.4 0 0 1 1.04-.69m5.73 5.6c-.05.06-.3-.14-.74-.3a2.64 2.64 0 0 0-1.77 0 2.7 2.7 0 0 0-1.34 1.15c-.24.41-.3.72-.38.71s-.14-.34.05-.86a2.47 2.47 0 0 1 3.59-1.29c.48.24.64.55.59.59" style="fill:#263238"/><path d="m426.92 409 5.54-.79a1.94 1.94 0 0 0 1.06-.38c.49-.45.38-1.24.23-1.88a63.3 63.3 0 0 0-6.38-16.14c-.51 6.67-.7 13.37-.55 20.06m-31.76-11.38a31.3 31.3 0 0 0-4.18 11.36 14.93 14.93 0 0 0 3 11.44 23.4 23.4 0 0 0 4.64 3.83l4.79 3.3a13.85 13.85 0 0 0-3.39-9.92c-.37 1-.73 2.05-1.1 3.07a8.45 8.45 0 0 1-1.63-7.14l-3.3 3.57a99 99 0 0 1 1.84-19.41m-12.8-55.19c.1 3.12.55 6.59 2.38 9.13a8.8 8.8 0 0 0 8.06 3.82c3.8-.55 6.54-4.2 7.28-8s-.08-7.65-.91-11.4c.2 3.5.38 7.11-.83 10.4s-4.16 6.21-7.67 6.21a7.63 7.63 0 0 1-6.12-3.42 11 11 0 0 1-2.19-6.77m-4.46 16.2c1.7 9.32 11.37 16 19.86 20.32s17.94 6.51 27.42 7.62a30 30 0 0 0 5.61.27c1.14-.09 2.53-.54 2.68-1.67s-1.19-2-2.33-2.44a318 318 0 0 1-36-16.64c-5.26-2.85-10.56-5.88-16.42-7.1" style="opacity:.30000000000000004"/><path d="M378.94 353.58a11 11 0 0 0-1.47.35 3.23 3.23 0 0 0-.62 5.64 12 12 0 0 0 1.35.66 2.1 2.1 0 0 1-1.55-.35 3.46 3.46 0 0 1-1.25-1.25 3.53 3.53 0 0 1 .45-4.11 3.5 3.5 0 0 1 1.5-.94 2 2 0 0 1 1.59 0" style="fill:#263238"/><path d="M378.7 357.7c-.14 0-.44-.87-1.14-1.79s-1.47-1.46-1.39-1.6 1.05.26 1.81 1.29.86 2.09.72 2.1" style="fill:#263238"/><path d="M378 356.3c.1.1-.35.67-1.1 1.12s-1.46.58-1.5.44.53-.46 1.23-.89 1.25-.78 1.37-.67m-3.66.95a8 8 0 0 0-1.61.32 7.67 7.67 0 0 0-3.06 2.47 32 32 0 0 1-3.95 4.24 32.5 32.5 0 0 1 3.56-4.58 7 7 0 0 1 3.33-2.48 2.2 2.2 0 0 1 1.73.03m-.34 4.96c-.09-.12.52-.69 1.16-1.47s1.09-1.47 1.22-1.41-.13.91-.82 1.74-1.56 1.25-1.56 1.14m-.58-2.02c0-.14.52-.39 1.2-.67s1.26-.48 1.34-.35-.42.54-1.14.84-1.37.32-1.4.18m-1.83-5.95c0-.14.91-.45 2.1-.28s2 .72 1.95.83-.92-.17-2-.31-2.03-.09-2.05-.24m1.41-2.15c0-.14 1-.08 1.85.68s1 1.72.89 1.74-.49-.7-1.24-1.35-1.58-.92-1.5-1.07" style="fill:#263238"/><path d="M378.47 359.57c2.1 4.43 5.21 7 9 10a75.75 75.75 0 0 0 39.88 16.75 11.6 11.6 0 0 0 3.77-.07 4.5 4.5 0 0 0 3-2.08c.77-1.4.47-3.12.11-4.67a105 105 0 0 0-4-13.43 2.9 2.9 0 0 0-.53-1c-.79-.82-1.08-.8-2.16-.4-7.81 2.87-17.61 1.94-25.61-.39s-15.09-5.54-23.35-6.58Z" style="fill:#455a64"/><path d="m431.28 369.36-.56.1-1.59.27c-.69.12-1.54.26-2.53.35s-2.12.26-3.38.31-2.62.17-4.1.15-3.06 0-4.72-.1a78 78 0 0 1-10.7-1.44 77 77 0 0 1-10.37-3c-1.55-.61-3-1.16-4.36-1.8s-2.58-1.21-3.69-1.79-2.1-1.15-3-1.65-1.59-.94-2.18-1.34l-1.35-.88-.46-.32.49.28 1.37.86c.59.38 1.32.83 2.19 1.3s1.84 1.08 3 1.62 2.34 1.19 3.7 1.76 2.81 1.18 4.36 1.78a78.5 78.5 0 0 0 10.34 3 79.5 79.5 0 0 0 10.68 1.43c1.65.07 3.22.17 4.7.13s2.84-.05 4.09-.13 2.38-.18 3.37-.28 1.85-.2 2.54-.31l1.6-.23c.36-.06.56-.07.56-.07" style="fill:#e0e0e0"/><path d="M433.91 377.36s-.84.17-2.39.4a61 61 0 0 1-6.58.55 61.77 61.77 0 0 1-40.54-13.58 59 59 0 0 1-4.92-4.4c-1.1-1.11-1.67-1.76-1.67-1.76l.45.44c.3.28.71.73 1.27 1.26a62 62 0 0 0 5 4.35 62.64 62.64 0 0 0 40.45 13.54 65 65 0 0 0 6.57-.48c.78-.09 1.37-.2 1.78-.25Z" style="fill:#e0e0e0"/><path d="M384.77 367s0-.11-.09-.31a6 6 0 0 1-.1-.85 8.5 8.5 0 0 1 .3-2.81 8.7 8.7 0 0 1 1.21-2.56 7 7 0 0 1 .54-.67c.14-.15.22-.22.23-.21s-.26.36-.64 1a9.7 9.7 0 0 0-1.14 2.54 10 10 0 0 0-.36 2.75c.01.71.08 1.12.05 1.12m-4.08-3.58a2.5 2.5 0 0 1 0-.78 8.8 8.8 0 0 1 .5-1.82 8.6 8.6 0 0 1 .88-1.66 2.4 2.4 0 0 1 .51-.6 24 24 0 0 0-1.2 2.34 26 26 0 0 0-.69 2.52m9.41 8.11a15 15 0 0 1 .45-1.49 28.3 28.3 0 0 0 1.25-7.38c0-1 0-1.56.06-1.56a1.5 1.5 0 0 1 .05.42v1.14a23 23 0 0 1-.33 3.76 23 23 0 0 1-.93 3.66c-.16.46-.3.82-.41 1.07a3 3 0 0 1-.14.38m8.9 5.92a3.5 3.5 0 0 1-.19-.52c-.11-.34-.24-.84-.38-1.46a20.56 20.56 0 0 1 .32-9.86 13 13 0 0 1 .47-1.43 2 2 0 0 1 .22-.5 3.4 3.4 0 0 1-.15.53c-.11.34-.25.83-.4 1.44a23.3 23.3 0 0 0-.69 4.88 22.8 22.8 0 0 0 .38 4.91c.11.62.22 1.12.31 1.47a3.6 3.6 0 0 1 .11.54m9.77 4.55a2.6 2.6 0 0 1-.23-.61c-.13-.4-.3-1-.49-1.72a41.5 41.5 0 0 1-1.05-5.81 42 42 0 0 1-.19-5.9c0-.75.08-1.36.13-1.78a5 5 0 0 1 .08-.65 2.7 2.7 0 0 1 0 .65c0 .42 0 1-.06 1.79a47 47 0 0 0 1.23 11.66c.17.74.32 1.33.43 1.73a5 5 0 0 1 .15.64m7.78-15.62a3 3 0 0 1 .22.74 6.2 6.2 0 0 1 0 2.13c-.13.89-.45 1.92-.62 3.08a4.7 4.7 0 0 0 .67 3.59 9.6 9.6 0 0 0 1.47 1.31 3.27 3.27 0 0 1 1.14 1.5 4.42 4.42 0 0 1-.44 3.1c-.37.82-.69 1.46-.84 1.94s-.19.74-.21.74a3.4 3.4 0 0 1 .13-.77 16 16 0 0 1 .79-2 4.34 4.34 0 0 0 .39-3 3.2 3.2 0 0 0-1.09-1.4 9.3 9.3 0 0 1-1.5-1.34 4.84 4.84 0 0 1-.7-3.75c.19-1.18.52-2.2.67-3.07a6.8 6.8 0 0 0 .1-2.09c-.1-.45-.2-.71-.18-.71m13.65 20.02a2 2 0 0 0 .7-.56 2.82 2.82 0 0 0 .34-2.35 7.4 7.4 0 0 0-2.11-2.95 8.3 8.3 0 0 1-1.32-1.77 8.7 8.7 0 0 1-.81-2.23 38 38 0 0 1-.58-4.52 14 14 0 0 0-.78-3.59 7 7 0 0 0-1.26-2.12c-.4-.43-.67-.62-.66-.64a4.3 4.3 0 0 1 .72.59 6.5 6.5 0 0 1 1.33 2.12 13.3 13.3 0 0 1 .84 3.62 41 41 0 0 0 .59 4.49 7.8 7.8 0 0 0 2.07 3.92 7.4 7.4 0 0 1 2.11 3 2.82 2.82 0 0 1-.42 2.43 1.5 1.5 0 0 1-.53.43c-.15.11-.22.14-.23.13m-54.62-26.67a1.7 1.7 0 0 1-.19.42 7 7 0 0 1-.68 1 8.5 8.5 0 0 1-3.19 2.55 8.7 8.7 0 0 1-4 .78 7 7 0 0 1-1.23-.17c-.29-.06-.45-.11-.44-.13s.64.13 1.68.15a8.94 8.94 0 0 0 7.09-3.27c.64-.76.92-1.35.96-1.33" style="fill:#e0e0e0"/><path d="M372.93 365.87a6 6 0 0 0-3.57-6s.11 0 .29.07a4.6 4.6 0 0 1 .74.35 5.41 5.41 0 0 1 2.66 4.46 6 6 0 0 1 0 .81c-.05.21-.05.32-.12.31m4.07-1.72s0-.51-.22-1.3a7 7 0 0 0-3.78-4.75c-.73-.35-1.23-.46-1.22-.49a1.2 1.2 0 0 1 .36.05 6 6 0 0 1 .92.31 6.75 6.75 0 0 1 2.55 1.94 6.86 6.86 0 0 1 1.33 2.91 6 6 0 0 1 .09 1 1.5 1.5 0 0 1-.03.33m-6.54-14.02a1.9 1.9 0 0 1-.81.63c-.56.31-1.43.47-2.26.89a7 7 0 0 0-2.48 2.29 2.7 2.7 0 0 1 .5-.89 5.4 5.4 0 0 1 1.88-1.59c.88-.43 1.75-.57 2.3-.83a8 8 0 0 0 .87-.5m5.54.23a1.6 1.6 0 0 1-.12.45 8 8 0 0 1-.5 1.15 10.6 10.6 0 0 1-6.2 5.2 7.3 7.3 0 0 1-1.22.29l-.45.05s.64-.14 1.63-.48a11.35 11.35 0 0 0 6.11-5.13c.49-.89.75-1.54.75-1.53" style="fill:#e0e0e0"/><path d="M374.43 356s-.16-.06-.42-.21l-1.12-.66-3.69-2.13-3.73-2.08-1.13-.62a2.3 2.3 0 0 1-.4-.25 2 2 0 0 1 .44.18l1.16.56c1 .5 2.31 1.2 3.76 2s2.75 1.61 3.67 2.2l1.08.71a2.3 2.3 0 0 1 .38.3" style="fill:#e0e0e0"/><path d="M352 405.09a8.5 8.5 0 0 1 1.64-2.49 8.6 8.6 0 0 1 2-2.16 8.5 8.5 0 0 1-1.64 2.49 8.6 8.6 0 0 1-2 2.16m1.3.44c-.12-.09.3-.88.92-1.77s1.23-1.54 1.35-1.46-.29.87-.92 1.76-1.23 1.55-1.35 1.47m3.35.54c-.15 0-.18-.74-.07-1.63s.3-1.58.45-1.56.17.74.07 1.63-.31 1.58-.45 1.56m26.48-18.64a5.2 5.2 0 0 1-.35-2.29 5.4 5.4 0 0 1 .17-2.32 5.2 5.2 0 0 1 .35 2.3 5.4 5.4 0 0 1-.17 2.31m1.87.57a5.11 5.11 0 0 1-.56-4.79 20 20 0 0 1 .19 2.41A17 17 0 0 1 385 388m2.79.49a6.4 6.4 0 0 1-2-4.77 15 15 0 0 1 1 2.39 15 15 0 0 1 1 2.38m21.13-28.24c-.06.13-1-.26-1.73-1.28s-.76-2.07-.62-2.07.4.86 1 1.77 1.43 1.45 1.35 1.58m1.41-.34c-.06.13-.8-.12-1.44-.81s-.82-1.45-.69-1.5.5.54 1.07 1.15 1.13 1.03 1.06 1.16m2.84.35c-.05.13-1.15-.3-2.14-1.34a3.78 3.78 0 0 1-1.24-2.2c.14-.07.69.88 1.62 1.84s1.84 1.57 1.76 1.7m-25.48-21.12c-.15 0-.34-.69-.42-1.57s0-1.61.09-1.63.33.69.42 1.58.05 1.61-.09 1.62m1.51-.72c-.13.06-.52-.66-.62-1.64s.13-1.75.26-1.73.16.77.26 1.68.24 1.64.1 1.69m1.6.71c-.12.07-.67-.71-.93-1.84a3 3 0 0 1 0-2.06c.15 0 .24.89.49 1.94s.58 1.89.44 1.96m-34.49 102.99a14.6 14.6 0 0 1 1.06-5.33 7.1 7.1 0 0 1-.27 2.71 7.5 7.5 0 0 1-.79 2.62m1.69-1.59c-.14 0-.14-.69 0-1.47s.38-1.4.52-1.37.14.68 0 1.46-.43 1.4-.52 1.38m-60.24-53.02c-.15 0 0-1.8-.38-3.94s-1.17-3.75-1-3.82a7.47 7.47 0 0 1 1.54 3.73 7.36 7.36 0 0 1-.16 4.03m139.78-60.62a2.8 2.8 0 0 1-.1.9 15.6 15.6 0 0 1-.68 2.37 17 17 0 0 1-1.64 3.29 10.45 10.45 0 0 1-3.19 3.2 14.1 14.1 0 0 1-4.2 1.65 22 22 0 0 1-6.08.56 3.2 3.2 0 0 1-.9-.12c0-.09 1.29-.05 3.33-.27a24.6 24.6 0 0 0 3.54-.64 14.7 14.7 0 0 0 4-1.62 10.5 10.5 0 0 0 3.06-3 19 19 0 0 0 1.7-3.15c.83-1.92 1.07-3.19 1.16-3.17m-25.37-.36a1.64 1.64 0 1 0 .11 0m-6.28 1.15c-.2.05-.48-.24-.66-.81a4 4 0 0 1 1.43-4.18c.49-.35.89-.4 1-.23.26.35-.46 1.31-.88 2.61s-.43 2.48-.89 2.61" style="fill:#263238"/><path d="M372.65 382.25a26.2 26.2 0 0 1-11.34 7.26 5.2 5.2 0 0 0 2.7.87 17.4 17.4 0 0 1-5.5 2.19 8.55 8.55 0 0 0 12.27-7.38" style="fill:#2d9f82"/><path d="M278.1 368.71a5.4 5.4 0 0 1-.55-1.21 14 14 0 0 1-.55-1.5c-.17-.58-.41-1.24-.57-2a31.7 31.7 0 0 1-.85-5.32 33.3 33.3 0 0 1 1.64-13 32.6 32.6 0 0 1 2.15-4.94c.34-.69.74-1.26 1.05-1.78a16 16 0 0 1 .88-1.29 6 6 0 0 1 .84-1c.09.06-1.06 1.57-2.44 4.27a34.4 34.4 0 0 0-2 4.92 38.6 38.6 0 0 0-1.42 6.35 38 38 0 0 0-.2 6.5 35 35 0 0 0 .73 5.27c.65 2.95 1.39 4.7 1.29 4.73m-7.46-4.21a3 3 0 0 1-.36-.8 15 15 0 0 1-.69-2.29 23.83 23.83 0 0 1 1.65-15.41 16.5 16.5 0 0 1 1.16-2.09c.31-.47.5-.72.53-.7s-.57 1.11-1.35 2.94a26.25 26.25 0 0 0-1.58 15.19c.32 1.95.73 3.13.64 3.16m69.45 1.99c-.12 0 .1-1.81-.18-4.71a21 21 0 0 0-.34-2.35c-.13-.84-.38-1.72-.62-2.64a28.8 28.8 0 0 0-5.88-10.89c-.65-.71-1.24-1.4-1.88-2a22 22 0 0 0-1.77-1.58c-2.27-1.82-3.91-2.62-3.85-2.72a6 6 0 0 1 1.15.54 11.5 11.5 0 0 1 1.29.76 17 17 0 0 1 1.63 1.13 20 20 0 0 1 1.85 1.55 26 26 0 0 1 1.94 2 30.4 30.4 0 0 1 3.63 5.2 29.7 29.7 0 0 1 2.35 5.88 25 25 0 0 1 .59 2.7 20 20 0 0 1 .28 2.39c.08.73.05 1.4.06 2a11 11 0 0 1-.08 1.49 6.7 6.7 0 0 1-.17 1.25" style="fill:#263238"/></svg>