<svg xmlns="http://www.w3.org/2000/svg" viewBox="0 0 500 500"><g id="Scissors"><g><g><path d="M377.20229,113.0352c-.6174,.0255,15.1443,85.7924,15.1443,85.7924l.0361-.0027c-4.8338,1.8517-7.3734,7.2114-5.6861,12.1502,1.7265,5.053,7.2222,7.7497,12.2751,6.0232,5.053-1.7263,7.7496-7.222,6.0232-12.275-1.315-3.8488-4.8173-6.328-8.6447-6.5291-.6069-2.9628-5.016-25.4489-.0313-30.0437,0,0-13.61889-55.3417-19.1166-55.1153Zm25.3923,92.5082c1.2733,3.7272-.7159,7.781-4.443,9.0545-3.7272,1.2734-7.781-.7158-9.0545-4.4429-1.2734-3.7272,.7157-7.781,4.443-9.0544,3.7271-1.2734,7.78091,.7157,9.0545,4.4428Z" style="fill:#e0e0e0;"></path><path d="M377.20229,113.0352c-.6174,.0255,15.1443,85.7924,15.1443,85.7924l.0361-.0027c-4.8338,1.8517-7.3734,7.2114-5.6861,12.1502,1.7265,5.053,7.2222,7.7497,12.2751,6.0232,5.053-1.7263,7.7496-7.222,6.0232-12.275-1.315-3.8488-4.8173-6.328-8.6447-6.5291-.6069-2.9628-5.016-25.4489-.0313-30.0437,0,0-13.61889-55.3417-19.1166-55.1153Zm25.3923,92.5082c1.2733,3.7272-.7159,7.781-4.443,9.0545-3.7272,1.2734-7.781-.7158-9.0545-4.4429-1.2734-3.7272,.7157-7.781,4.443-9.0544,3.7271-1.2734,7.78091,.7157,9.0545,4.4428Z" style="fill:none; stroke:#263238; stroke-linecap:round; stroke-linejoin:round; stroke-width:.5px;"></path><g style="opacity:.3;"><path d="M384.75049,157.0928c-.0069-.0386,4.5472-1.0025,4.5472-1.0025,0,0-9.4896-39.8586-12.0954-43.0551-.0547,.0236-.0005,.4942,.0851,1.0954l.5183,3.4109,1.5605,9.2451,5.3843,30.3062Z"></path></g></g><g><g><path d="M390.04119,170.7834c6.45981-2.0571,23.816,12.9035,26.0901,14.8972-1.7194,3.4254-1.2988,7.6957,1.39471,10.7432,3.53619,4.0011,9.64619,4.3781,13.64719,.842,4.001-3.5362,4.3779-9.6463,.84181-13.6474-3.45631-3.9106-9.37041-4.3567-13.37191-1.073l.0203-.03s-66.7235-56.146-67.0512-55.6221c-2.9178,4.6648,38.429,43.8901,38.429,43.8901Zm30.0065,13.8941c2.9512-2.6084,7.4582-2.3304,10.0666,.6208,2.6083,2.9514,2.3303,7.4582-.6211,10.0667-2.9511,2.6083-7.45819,2.3304-10.0665-.621-2.6084-2.9512-2.3303-7.4583,.621-10.0665Z" style="fill:#e0e0e0;"></path><g><path d="M390.04119,170.7834c6.45981-2.0571,23.816,12.9035,26.0901,14.8972-1.7194,3.4254-1.2988,7.6957,1.39471,10.7432,3.53619,4.0011,9.64619,4.3781,13.64719,.842,4.001-3.5362,4.3779-9.6463,.84181-13.6474-3.45631-3.9106-9.37041-4.3567-13.37191-1.073l.0203-.03s-66.7235-56.146-67.0512-55.6221c-2.9178,4.6648,38.429,43.8901,38.429,43.8901Zm30.0065,13.8941c2.9512-2.6084,7.4582-2.3304,10.0666,.6208,2.6083,2.9514,2.3303,7.4582-.6211,10.0667-2.9511,2.6083-7.45819,2.3304-10.0665-.621-2.6084-2.9512-2.3303-7.4583,.621-10.0665Z" style="fill:none;"></path><path d="M420.04759,184.6773c.0436,.0443-.4508,.4496-1.0644,1.3839-.6007,.9182-1.2807,2.4845-1.1145,4.4661,.1282,1.9439,1.309,4.2848,3.6188,5.5167,1.1279,.6151,2.5083,.932,3.9023,.7909,1.39821-.1133,2.7899-.7129,3.9119-1.6853,1.1036-.994,1.87-2.3017,2.1545-3.6757,.3116-1.3664,.16681-2.7755-.30519-3.9707-.93871-2.444-3.11711-3.9034-5.03051-4.2693-1.9463-.4084-3.5841,.0741-4.569,.5573-1.0024,.4942-1.4654,.9349-1.5039,.8861-.0131-.0147,.0965-.1271,.3201-.3295,.2191-.2062,.5782-.4766,1.0806-.756,.9834-.5593,2.6798-1.1363,4.7514-.758,2.035,.3345,4.40431,1.8503,5.4455,4.4745,.52281,1.2833,.69181,2.8043,.3631,4.2852-.30029,1.4877-1.1281,2.913-2.3249,3.9882-1.214,1.0548-2.7298,1.7007-4.243,1.8157-1.5095,.1441-2.9979-.2106-4.2072-.887-2.4759-1.3556-3.6893-3.8928-3.7711-5.9536-.121-2.1024,.65991-3.7152,1.33591-4.6225,.339-.4645,.65149-.7876,.88319-.9797,.2283-.1972,.3533-.2921,.3664-.2773Z" style="fill:#263238;"></path><path d="M390.04119,170.7832s-.1649-.128-.4568-.3944c-.3088-.2864-.7403-.6867-1.29739-1.2036-1.14221-1.0912-2.79691-2.6723-4.91991-4.7007-4.2366-4.1188-10.3542-10.097-17.6035-17.7903-3.5964-3.8702-7.5479-8.1136-11.3087-13.088-.9211-1.2574-1.8412-2.5561-2.5847-4.0139-.1783-.3693-.3538-.7435-.4774-1.1509-.1245-.4012-.23879-.8366-.1332-1.3292,.0043-.0599,.0422-.1205,.0637-.1804l.0391-.0897,.0201-.0444c.0343-.041-.0478,.0291,.0821-.103,.3101-.1123,.2371-.007,.2802-.0276,.0264,.0104,.0526,.0229,.0621,.0292l.0805,.0469,.1369,.0903,.5069,.3674,.9837,.7573c2.6036,2.0505,5.2352,4.2104,7.9375,6.4234,10.79261,8.8697,22.5781,18.7141,34.937,29.0613,7.7733,6.5287,15.3144,12.8626,22.45361,18.8588l.19229,.1616-.1406,.2081-.0201,.0299-.4085-.3716c2.2213-1.8276,5.1977-2.5699,7.9326-2.1116,2.7487,.4407,5.19131,2.1008,6.6521,4.3335,1.4871,2.2292,1.9615,5.0108,1.4213,7.513-.5189,2.5171-2.05209,4.7162-4.0605,6.1035-2.0045,1.417-4.4904,1.9552-6.7837,1.6796-2.30189-.2672-4.4328-1.3451-5.9318-2.9317-1.533-1.5573-2.4569-3.5799-2.7143-5.5998-.2677-2.0255,.1244-4.0401,.9761-5.7226l.0454,.2329c-7.2338-6.2804-13.5318-10.7516-18.2241-13.1468-2.3409-1.2059-4.2987-1.8337-5.6624-1.9967-1.3664-.1514-2.0846,.1487-2.0756,.1002,0,0,.17981-.0583,.5174-.1449,.3416-.072,.8766-.1115,1.5697-.064,1.38671,.1296,3.3769,.7325,5.74571,1.916,4.75129,2.3524,11.09679,6.7846,18.38529,13.0443l.1132,.0973-.0678,.136c-.8089,1.6201-1.17469,3.5553-.90869,5.494,.25629,1.9336,1.14749,3.8613,2.619,5.3437,1.43789,1.5104,3.47279,2.5278,5.66709,2.7751,2.1863,.2545,4.5485-.2649,6.4484-1.6174,1.9059-1.3264,3.353-3.4157,3.8394-5.8042,.50611-2.3751,.0496-5.0085-1.36189-7.1144-1.38911-2.1119-3.69921-3.6753-6.29831-4.088-2.5873-.4279-5.3942,.277-7.4894,2.0044l-1.47929,1.2195,1.07069-1.5912,.0202-.0298,.0517,.3693c-7.1425-5.9915-14.6873-12.3204-22.4643-18.8441-12.3584-10.3465-24.1334-20.2032-34.90429-29.0928-2.696-2.2173-5.32381-4.3844-7.91321-6.4351l-.9733-.7535-.4873-.3555-.1187-.0789-.0516-.0305c-.0121-.0076-.0068-.004-.0068-.004-.00609,.0137,.07891-.2257,.0716-.2193,.37731,.2222,.099,.0766,.1807,.1329l-.0101,.0258-.0212,.051c-.011,.0359-.0387,.0618-.0395,.1054-.12359,.658,.2465,1.4565,.56641,2.1432,.71139,1.4063,1.619,2.7011,2.52759,3.9487,3.71741,4.9522,7.6503,9.2126,11.2219,13.0938,7.2034,7.7206,13.2759,13.7416,17.4626,17.9082,2.09,2.0615,3.719,3.6683,4.8433,4.7773,.5402,.5345,.9584,.9486,1.2577,1.2447,.28491,.2841,.4161,.437,.4161,.437Z" style="fill:#263238;"></path></g></g><g style="opacity:.2;"><path d="M386.15869,155.2584c-.03-.0251-3.1216,3.4549-3.1216,3.4549,0,0-29.9372-27.9737-31.4249-31.82,.0476-.0359,.4297,.2441,.9096,.6161l2.7073,2.1386,7.26091,5.9318,23.66869,19.6786Z"></path></g></g><g><path d="M393.09079,163.8287c.4403,1.2885-.2475,2.69-1.536,3.1302s-2.68979-.2474-3.1301-1.5359c-.4402-1.2885,.2475-2.6899,1.536-3.1301,1.2885-.4403,2.6899,.2473,3.1301,1.5358Z" style="fill:#e0e0e0;"></path><path d="M393.09079,163.8287c-.0443,.0161-.1324-.1862-.3617-.4836-.226-.2923-.6342-.6812-1.2579-.8626-.6079-.1887-1.4485-.1081-2.0903,.4307-.6437,.5148-1.0017,1.5103-.6834,2.4163,.3023,.9116,1.195,1.4801,2.0191,1.4935,.8375,.0335,1.5518-.4172,1.917-.9385,.3823-.5252,.4672-1.0825,.467-1.4519-.00059-.3756-.0547-.5896-.0098-.6039,.0293-.0117,.1598,.1791,.2335,.5853,.071,.3972,.0509,1.0448-.3519,1.6973-.3829,.6459-1.2225,1.251-2.2656,1.2429-1.0242,.0194-2.17279-.6822-2.555-1.8384-.4046-1.1481,.0744-2.4054,.8961-3.0166,.82-.6447,1.8543-.6799,2.5524-.4035,.7179,.2696,1.1301,.7695,1.3171,1.1273,.1901,.3664,.2038,.5971,.1734,.6057Z" style="fill:#263238;"></path></g><path d="M391.86839,163.1513c.1061,.1277-.4568,.7437-.9325,1.6215-.4882,.8713-.7082,1.6761-.8726,1.6545-.1525-.0078-.179-.9484,.36771-1.9328,.53989-.9876,1.34939-1.4678,1.43739-1.3432Z" style="fill:#263238;"></path><path d="M392.63669,165.336c-.10369,.1283-.8386-.3136-1.7959-.7033-.95379-.3995-1.7862-.6049-1.7691-.769,.0085-.1531,.9445-.1988,1.9891,.2361,1.0468,.4288,1.678,1.1216,1.5759,1.2362Z" style="fill:#263238;"></path></g></g><g id="Comb"><path d="M103.281,245.6441c.3846-.7584,.1038-1.6831-.6391-2.0968-4.1553-2.3139-13.7663-7.8937-13.6634-9.9488,.1031-2.0571,10.8553,3.4302,15.4773,5.8868,.8435,.4483,1.8895,.1173,2.3216-.7346h0c.4143-.8168,.1114-1.8131-.688-2.2599-4.273-2.3882-13.5364-7.8045-13.4354-9.8217,.1021-2.0384,10.6624,3.3322,15.3521,5.8204,.8441,.4479,1.8886,.1153,2.3208-.7369h0c.4143-.8169,.1126-1.8133-.6866-2.2608-4.3214-2.4198-13.4109-7.7532-13.3109-9.752,.1012-2.02,10.4739,3.2364,15.2258,5.7534,.8447,.4474,1.8888,.1138,2.3212-.7387h0c.414-.8163,.1131-1.8141-.6852-2.2619-4.3696-2.4515-13.2854-7.7025-13.1863-9.6822,.1056-2.1093,11.4074,3.7136,15.8172,6.068,.4488,.2396,1.0033,.062,1.2334-.3917h0c.2203-.4344,.0598-.9638-.3651-1.2019-4.3402-2.4319-13.3698-7.737-13.2701-9.729,.1002-2.0004,10.2726,3.1347,15.085,5.679,.528,.2792,1.1787,.0695,1.4488-.4631h0c.2593-.5111,.0723-1.1337-.4277-1.4137-4.3269-2.4233-13.4015-7.7497-13.3015-9.7467,.1014-2.0243,10.5147,3.2572,15.2522,5.7676,.527,.2792,1.1768,.0701,1.4466-.4618h0c.2589-.5105,.0718-1.1323-.4279-1.4115-4.2553-2.3769-13.5676-7.8157-13.4663-9.8388,.1025-2.0476,10.7611,3.3825,15.4193,5.8562,.526,.2793,1.175,.0707,1.4444-.4605h0c.2587-.51,.0712-1.1311-.4283-1.4094-4.1784-2.3283-13.7334-7.8823-13.6308-9.9308,.1038-2.0726,11.0183,3.5138,15.5821,5.9427,.5255,.2797,1.1773,.0736,1.4466-.4573h0c.2584-.5096,.0701-1.1304-.4294-1.408-4.0807-2.2676-13.8987-7.9448-13.7947-10.0219,.105-2.0983,11.292,3.6542,15.7498,6.0321,.5241,.2795,1.1751,.0729,1.4438-.4569h0c.258-.5087,.07-1.1294-.4289-1.4059-3.9788-2.2053-14.0655-8.0092-13.9601-10.1137,.1064-2.125,11.5783,3.8017,15.9172,6.1214,.5236,.2799,1.1728,.073,1.4414-.4565h0c.258-.5086,.0706-1.1283-.4286-1.4042-3.8497-2.1277-14.2324-8.0696-14.1255-10.2052,.1078-2.1527,11.8786,3.9572,16.0815,6.2092,.523,.2803,1.1738,.0746,1.4422-.4546h0c.2579-.5084,.0692-1.1283-.43-1.4036-3.7146-2.0476-14.3975-8.1299-14.2891-10.2955,.1001-1.9981,10.2472,3.1218,15.0651,5.6684,1.1772,.6222,2.6326,.1581,3.2349-1.0294h0c.5363-1.0573,.0768-2.1825-.7554-3.0268-3.8333-3.889-14.2069-12.8841-23.3255-7.7506-7.5003,4.2225-41.3358,64.9391-35.3234,76.9696,5.1687,10.3424,16.3501,9.8812,19.9925,9.7337,.5714-.0231,1.0818-.3552,1.3404-.8652h0Z" style="fill:#2D9F82;"></path></g><g id="Dog_2"><g><path d="M300.07549,141.1514c-6.6536-13.624-26.3099-59.8003-38.31249-72.95-12.00261-13.1498-32.22671-15.773-46.11731-16.1202-13.8905-.3472-27.86969,8.5527-30.6515,11.3753-2.7816,2.8229-5.557,10.6892-6.304,12.0887-.5247,.9829-1.4179,2.2584-2.3676,3.5157-1.4035,.4216-3.0082,.7158-4.80059,.7506-7.26661,.1407-45.4629,2.4319-40.2645,9.7927,0,0,6.1505,25.8261,13.4881,35.2782,8.7128,11.2236,20.9143,9.435,20.9143,9.435,0,0,.2148,3.6369,22.8103,4.6367,6.4663,.2861,14.0807,4.2722,15.5339,6.0982,5.03191,6.3224,5.6173,10.0344,7.0843,17.5463,1.5364,7.8661,3.2675,20.7215,3.2675,20.7215l30.4603-20.6817c24.019-5.9141,58.0011-15.8728,55.2593-21.487Z" style="fill:#ae7461;"></path><g style="opacity:.3;"><path d="M300.07549,141.1514c-6.6536-13.624-26.3099-59.8003-38.31249-72.95-12.00261-13.1498-32.22671-15.773-46.11731-16.1202-13.8905-.3472-27.86969,8.5527-30.6515,11.3753-2.7816,2.8229-5.557,10.6892-6.304,12.0887-.5247,.9829-1.4179,2.2584-2.3676,3.5157-1.4035,.4216-3.0082,.7158-4.80059,.7506-7.26661,.1407-45.4629,2.4319-40.2645,9.7927,0,0,6.1505,25.8261,13.4881,35.2782,8.7128,11.2236,20.9143,9.435,20.9143,9.435,0,0,.2148,3.6369,22.8103,4.6367,6.4663,.2861,14.0807,4.2722,15.5339,6.0982,5.03191,6.3224,5.6173,10.0344,7.0843,17.5463,1.5364,7.8661,3.2675,20.7215,3.2675,20.7215l30.4603-20.6817c24.019-5.9141,58.0011-15.8728,55.2593-21.487Z"></path></g><path d="M214.14029,158.9419c-1.87129,3.7424-2.9614,30.5236-3.585,61.0869-.6238,30.5634,19.9348,77.1118,19.9348,77.1118,0,0,23.5695,43.3101,33.5495,60.7749,9.9798,17.4647,25.5733,49.2757,33.0583,55.5131,7.4849,6.2373,111.34211,2.7032,112.8972,0,3.5927-6.2453,6.2721-13.1738,8.2607-19.7801,4.8331-16.0563,2.7513-33.4041-5.4576-48.0255-4.3828-7.8064-8.4168-14.7594-8.4168-13.9047,0,1.8713,7.485,8.1088,6.8613-2.4949-.6238-10.6036-15.5936-24.326-15.5936-24.326,0,0,5.6612-1.6052-1.8237-10.8906-7.4849-9.2855-28.7397-27.1576-39.9669-52.1073-11.22749-24.9497-24.6593-44.8166-33.4002-62.2771-9.4256-18.8285-23.06-45.3707-25.311-49.9832-3.69429-7.5695-81.007,29.3027-81.007,29.3027Z" style="fill:#ae7461;"></path><g style="opacity:.3;"><path d="M214.14029,158.9419c-1.87129,3.7424-2.9614,30.5236-3.585,61.0869-.6238,30.5634,19.9348,77.1118,19.9348,77.1118,0,0,23.5695,43.3101,33.5495,60.7749,9.9798,17.4647,25.5733,49.2757,33.0583,55.5131,7.4849,6.2373,111.34211,2.7032,112.8972,0,3.5927-6.2453,6.2721-13.1738,8.2607-19.7801,4.8331-16.0563,2.7513-33.4041-5.4576-48.0255-4.3828-7.8064-8.4168-14.7594-8.4168-13.9047,0,1.8713,7.485,8.1088,6.8613-2.4949-.6238-10.6036-15.5936-24.326-15.5936-24.326,0,0,5.6612-1.6052-1.8237-10.8906-7.4849-9.2855-28.7397-27.1576-39.9669-52.1073-11.22749-24.9497-24.6593-44.8166-33.4002-62.2771-9.4256-18.8285-23.06-45.3707-25.311-49.9832-3.69429-7.5695-81.007,29.3027-81.007,29.3027Z"></path></g><path d="M208.49849,154.6003s48.39651-11.9956,77.205-45.1989c2.3236,2.0539,5.5584,8.5881,5.1443,11.7308,0,0-37.44279,37.2609-79.4509,43.8798-1.39889-3.3057-3.1943-7.4319-2.8984-10.4117Z" style="fill:#2D9F82;"></path><g style="opacity:.3;"><path d="M264.30109,93.6935l-45.3893,47.9284c.29221,4.55,3.3019,8.7007,7.3323,11.1024,4.0302,2.4015,8.9594,3.1814,13.7026,2.822,13.6432-1.0334,25.4492-11.464,29.6264-23.9743,4.1772-12.51,1.4591-26.4925-5.272-37.8785Z"></path></g><path d="M248.13419,69.8294c5.5419,6.4273,11.1193,12.9041,15.3491,20.2614,4.2299,7.3573,7.0759,15.7353,6.6722,24.2122-.7279,15.285-12.1216,28.5483-25.8599,35.2879-6.4423,3.1603-14.5731,5.0032-20.4893,.9425-3.9319-2.6988-5.9742-7.5094-6.50429-12.2488-.53031-4.7394,.245-9.5135,.85279-14.2435,2.1456-16.692,2.2168-33.6496,.2119-50.3591" style="fill:#ae7461;"></path><path d="M218.36659,73.6821c.0127-.0015,.0447,.1683,.0947,.5017,.0511,.3718,.1182,.8616,.2034,1.4818,.17431,1.3034,.393,3.2307,.6174,5.7185,.4491,4.9731,.9085,12.2018,.7477,21.1401-.0826,4.4678-.32579,9.3601-.7987,14.5949-.23709,2.617-.5396,5.3198-.8986,8.095-.3589,2.7722-.75,5.6179-.8429,8.544-.091,2.9196,.1428,5.9365,1.1062,8.8228,.962,2.8569,2.6167,5.6378,5.1664,7.4645,2.5349,1.8429,5.7979,2.595,9.0396,2.421,3.2583-.1501,6.5057-1.0949,9.5969-2.4192,12.3405-5.4899,21.9475-15.598,25.6751-26.7144,1.87921-5.5425,2.1833-11.2448,1.3351-16.3762-.8128-5.1522-2.57489-9.749-4.5368-13.7241-1.9815-3.9793-4.21209-7.3494-6.2694-10.2241-2.0636-2.8746-3.9808-5.2503-5.554-7.1851-1.5683-1.8949-2.7971-3.3794-3.66369-4.4264-.39651-.4843-.70951-.8666-.94721-1.1569-.2102-.2632-.3133-.4022-.3036-.4106,.00981-.0085,.1321,.1138,.3614,.3608,.2519,.2781,.58341,.6445,1.00341,1.1086,.87489,.9807,2.157,2.4346,3.77319,4.3387,1.6095,1.9089,3.5637,4.2625,5.6683,7.1256,2.0978,2.8636,4.3728,6.2315,6.4033,10.2326,2.0096,3.9961,3.8231,8.633,4.67621,13.8628,.88939,5.2056,.605,11.0376-1.29381,16.6922-3.7734,11.349-13.498,21.6031-26.03219,27.1821-3.15331,1.3498-6.47561,2.3205-9.85751,2.4755-3.3596,.1802-6.8171-.6086-9.5039-2.571-2.7059-1.9483-4.4243-4.8716-5.4135-7.8321-.9914-2.9943-1.2193-6.1043-1.1169-9.0691,.1042-2.9755,.51-5.8395,.8797-8.6078,.3696-2.7679,.6832-5.4584,.9328-8.0669,.4982-5.2165,.7714-10.0933,.8874-14.5488,.22791-8.9137-.1499-16.1314-.5095-21.105-.1797-2.4877-.35159-4.4179-.4775-5.7255-.0543-.6234-.0972-1.1157-.1296-1.4894-.0251-.3361-.0317-.5091-.0189-.5106Z" style="fill:#263238;"></path><path d="M202.71819,69.3051c-2.12219-.4065-4.3215-.1552-6.3169,.7216-.7415,.3261-1.5254,.8286-1.7548,1.7225-.3492,1.3606,.76751,2.641,1.8294,3.3547,2.0075,1.3488,4.2888,2.112,6.5796,2.2009,.8172,.0316,1.651-.0249,2.4084-.3688,.7576-.3439,1.4354-1.0095,1.7099-1.9108,.415-1.3633-.1916-2.9473-1.1345-3.9119-.9432-.9647-2.1595-1.4459-3.3406-1.9041" style="fill:#263238;"></path><path d="M191.74779,84.519c.38321,.0857,.36321,1.1161,1.0494,2.3014,.6647,1.1774,2.1336,2.5056,4.1885,2.9523,2.0491,.476,3.9452-.096,5.0499-.8758,1.1273-.7777,1.5502-1.7174,1.9331-1.6308,.1661,.0352,.2932,.3317,.2534,.8662-.03009,.5335-.2884,1.3019-.8944,2.0762-.60969,.759-1.5781,1.4941-2.8011,1.9066-1.2184,.4226-2.6744,.5146-4.1121,.198-1.4344-.3292-2.7106-1.0353-3.6308-1.9386-.9286-.896-1.4893-1.9747-1.7156-2.9216-.2165-.9591-.12109-1.7642,.08-2.2594,.1928-.5002,.4346-.7137,.5997-.6745Z" style="fill:#263238;"></path><path d="M147.0303,87.4127c-.6132-1.2822-2.2512-1.9179-3.7907-2.2916-2.2315-.5414-4.5646-.7805-6.8911-.7067-.9415,.0301-1.9056,.1166-2.7596,.4744-.8541,.358-2.6082,1.3776-2.7377,2.1914-.9792,4.5485,.4518,8.9001,3.5484,12.5997,.5204,.6217,1.2554,1.2716,2.1391,1.1608,.4555-.0573,.8452-.3118,1.2062-.564,3.4111-2.3832,6.2825-5.354,8.3935-8.6838,.8184-1.291,1.5347-2.8366,.8919-4.1802Z" style="fill:#263238;"></path><path d="M137.4788,86.9116c-.8565-.5303-1.7782-1.0792-2.785-1.0495-.6984,.0204-1.5247,.6514-1.8955,1.365-.2364,.4552-.0326,1.0374,.4414,1.2336,1.268,.5243,2.6692,.7263,4.0332,.574,.4527-.0504,.9721-.1936,1.1443-.6153,.2442-.599-.3884-1.1673-.9384-1.5078Z" style="fill:#fff;"></path><path d="M417.47989,356.1314c.0486-.0172,.3536,.783,.8647,2.2488,.5479,1.454,1.1463,3.6228,1.7829,6.3277,1.1918,5.4073,2.0031,13.2035,.5856,21.6158-.6989,4.1952-1.814,8.0998-3.0423,11.5644-1.2763,3.4493-2.633,6.4723-3.90579,8.9391-1.26491,2.4703-2.37321,4.4245-3.20011,5.7362-.8156,1.3192-1.2868,2.0347-1.33089,2.0082-.04421-.0267,.34269-.7925,1.07869-2.1527,.7478-1.3529,1.78131-3.3387,2.9789-5.8252,1.2057-2.4833,2.5018-5.506,3.7312-8.9362,1.1814-3.4454,2.2631-7.3106,2.9537-11.4543,1.3988-8.3055,.6836-15.995-.3661-21.3885-.5656-2.696-1.0823-4.8733-1.5431-6.348-.424-1.4861-.636-2.3183-.5874-2.3353Z" style="fill:#263238;"></path><path d="M358.30429,304.9249c-11.1811-9.2198-22.7179-18.4161-36.1911-23.7544-13.4733-5.3381-29.377-6.3555-42.07119,.6359-9.74,5.3645-16.73731,15.0551-19.92541,25.7079-3.1882,10.6528-2.7685,22.1804-.0024,32.9505,.4036-2.0836,.8071-4.1673,1.2106-6.2508,8.5734,18.7897,13.8405,39.0825,15.4876,59.67,0,0-41.8186-1.4577-50.98239,0-9.16381,1.4579-20.16051,9.5529-22.90961,23.1457h57.3978c22.4933,0,107.61381,4.0557,121.3281-.7977,13.7144-4.8534,16.0053-21.8066,16.4634-30.0539" style="fill:#ae7461;"></path><g style="opacity:.3;"><path d="M358.30429,304.9249c-11.1811-9.2198-22.7179-18.4161-36.1911-23.7544-13.4733-5.3381-29.377-6.3555-42.07119,.6359-9.74,5.3645-16.73731,15.0551-19.92541,25.7079-3.1882,10.6528-2.7685,22.1804-.0024,32.9505,.4036-2.0836,.8071-4.1673,1.2106-6.2508,8.5734,18.7897,13.8405,39.0825,15.4876,59.67,0,0-41.8186-1.4577-50.98239,0-9.16381,1.4579-20.16051,9.5529-22.90961,23.1457h57.3978c22.4933,0,107.61381,4.0557,121.3281-.7977,13.7144-4.8534,16.0053-21.8066,16.4634-30.0539"></path></g><path d="M398.10969,386.1781s-.0066,1.4537-.3008,4.2188c-.3258,2.7502-.8678,6.8719-2.7446,11.8698-.97329,2.4724-2.3111,5.1654-4.3714,7.7013-2.044,2.5272-4.8957,4.849-8.4821,6.227-1.7874,.7133-3.7625,1.0333-5.7726,1.3201-2.0193,.2727-4.1115,.4653-6.2687,.6259-4.3152,.3088-8.8914,.486-13.7068,.5927-19.264,.4047-42.3516-.1121-68.2638-.7868-6.478-.1566-13.133-.3172-19.94989-.4818-6.81331-.1513-13.79291-.0692-20.92281-.0851-14.2573,.0054-29.1001,.0112-44.4056,.017l-.4485,.0003,.0883-.4406c1.4739-7.3595,5.8249-14.3197,12.2308-18.7936,3.18381-2.2311,6.83481-3.9108,10.7514-4.6011,3.9251-.5558,7.8523-.57,11.8052-.66,13.4357-.134,26.6193,.2089,39.47721,.6134l-.38061,.398c-1.7286-21.6175-7.39-41.9016-15.43239-59.5567l.65049-.0772c-.41349,2.1281-.8156,4.1969-1.21449,6.2498l-.28781,1.4806-.3753-1.4607c-2.8303-11.0166-3.0576-22.3584-.1585-32.4438,2.86161-10.0757,8.87561-18.693,16.5242-24.168,3.82741-2.7296,8.0362-4.6517,12.2867-5.7706,4.2468-1.1403,8.5032-1.6031,12.5774-1.5409,8.1676,.1367,15.5539,2.0666,21.821,4.6246,6.2875,2.566,11.5186,5.7063,15.9322,8.6005,4.397,2.9341,7.9812,5.6694,10.8559,7.929,2.8708,2.2663,5.0327,4.0627,6.4918,5.2744,.7149,.603,1.2611,1.0635,1.6441,1.3865,.3668,.3136,.5445,.4842,.5445,.4842,0,0-.2017-.1415-.58019-.4409-.391-.3129-.94881-.7594-1.67891-1.3438-1.4816-1.1833-3.6655-2.9519-6.5548-5.1893-2.8934-2.2303-6.4929-4.9353-10.8967-7.8353-4.4199-2.8602-9.6483-5.9618-15.9121-8.4863-6.2392-2.5154-13.5816-4.4019-21.6723-4.5108-8.0175-.0751-16.97719,1.8095-24.5284,7.2789-7.5216,5.4109-13.4435,13.9294-16.2491,23.88-2.8451,9.9633-2.60769,21.187,.2117,32.1024l-.6629,.02c.3963-2.0535,.7958-4.1227,1.2066-6.2514l.2038-1.0552,.447,.978c8.0953,17.7141,13.797,38.0756,15.5423,59.7831l.0329,.4112-.4138-.0129c-12.8464-.3986-26.0326-.7383-39.4409-.6044-3.931,.0874-7.8862,.1093-11.6908,.6487-3.7814,.6654-7.3438,2.2983-10.448,4.4737-6.25059,4.3646-10.4944,11.146-11.9391,18.3317l-.3599-.4402c15.3055,.006,30.1483,.0117,44.4056,.0172,7.1265,.0235,14.112-.0502,20.936,.1104,6.8182,.175,13.47481,.3455,19.9541,.5118,25.9091,.718,48.9894,1.2899,68.2364,.9503,4.8107-.0903,9.38131-.2504,13.68631-.5413,2.15189-.1513,4.23739-.3346,6.245-.5966,2.00259-.2765,3.94779-.5844,5.69149-1.2714,3.5266-1.3358,6.3381-3.5976,8.3697-6.0781,2.0467-2.488,3.3911-5.1458,4.376-7.5928,1.9019-4.948,2.4864-9.052,2.8542-11.7905,.1752-1.376,.2715-2.4287,.3288-3.1356,.0585-.7071,.1055-1.0676,.1055-1.0676Z" style="fill:#263238;"></path><path d="M236.838,402.3719c.01769,.1245-1.27641,.2871-3.21571,.998-1.9301,.6968-4.501,2.0576-6.6812,4.3106-2.1809,2.254-3.456,4.8689-4.0888,6.8208-.6465,1.9617-.76629,3.2602-.8914,3.2465-.0794-.0006-.1492-1.3312,.3856-3.3968,.5196-2.05,1.7732-4.8286,4.0581-7.1895,2.2837-2.3606,5.0191-3.7053,7.0506-4.2922,2.047-.6026,3.3795-.5768,3.38281-.4974Z" style="fill:#263238;"></path><path d="M193.22219,117.6957c.0171-.0055,.07,.1266,.1554,.3848,.081,.2592,.21341,.6405,.3401,1.1431,.1857,1.0067,.42931,2.5553-.1009,4.3789-.2226,.9201-.7496,1.8299-1.3857,2.7302-.6927,.8624-1.5502,1.6845-2.5622,2.3958-2.0314,1.4114-4.5526,2.4732-7.26489,3.2448-5.44681,1.5373-10.56411,1.9432-14.23271,2.1636-1.8396,.0996-3.3296,.1288-4.3588,.1359-1.0292,.0052-1.5979-.0059-1.5998-.0417-.0018-.0361,.566-.0935,1.5924-.1608,1.1167-.0774,2.5784-.1787,4.3416-.3008,3.6494-.3126,8.7355-.7779,14.1127-2.2965,2.6782-.7613,5.153-1.7925,7.1352-3.1382,.9873-.6782,1.8189-1.456,2.4962-2.2679,.6188-.8482,1.1414-1.701,1.3739-2.5723,.5511-1.7234,.3767-3.2318,.2539-4.2329-.209-.9965-.3349-1.554-.2964-1.566Z" style="fill:#263238;"></path><g style="opacity:.3;"><path d="M263.48339,90.0908c-4.23-7.3572-9.8073-13.8342-15.3491-20.2614l-29.7676,3.8526c2.005,16.7095,1.9337,33.6671-.2118,50.3591-.60789,4.73-1.3832,9.5041-.85289,14.2435,.53009,4.7394,2.57239,9.5501,6.50429,12.2488,5.9162,4.0607,14.047,2.2177,20.4893-.9425,13.7382-6.7396,25.132-20.0029,25.8599-35.2878,.4038-8.477-2.4423-16.855-6.6721-24.2123Z"></path></g><path d="M211.22789,194.6991c-1.4472,.5612,4.5572,162.6501,4.2744,181.4028-.2827,18.7527-35.23129,16.427-34.9266,41.4136h55.1734s21.2514-123.5082,24.612-153.8639c3.3605-30.3558-12.9125-82.9982-49.1332-68.9525Z" style="fill:#ae7461;"></path><g style="opacity:.3;"><path d="M211.22789,194.6991c-1.4472,.5612,4.5572,162.6501,4.2744,181.4028-.2827,18.7527-35.23129,16.427-34.9266,41.4136h55.1734s21.2514-123.5082,24.612-153.8639c3.3605-30.3558-12.9125-82.9982-49.1332-68.9525Z"></path></g><path d="M268.88869,231.1015c.0089,.001,.0052,.0987-.01069,.2885-.02171,.2188-.04911,.4958-.08331,.8412-.089,.7761-.2131,1.8569-.3706,3.2301-.367,2.7991-.9793,6.84-1.877,11.8072-1.76209,9.9418-4.703,23.5736-8.0134,38.6089-3.3115,15.0403-6.3082,28.6548-8.1613,38.5704-.9433,4.9543-1.6101,8.9807-2.0382,11.7678-.1986,1.3663-.3549,2.4416-.46719,3.2138-.05521,.3427-.09961,.6175-.13461,.8346-.0332,.1878-.0546,.2835-.0635,.2825-.009-.001-.0052-.0986,.0106-.2884,.0217-.2188,.0491-.4957,.0833-.841,.0891-.7759,.2131-1.8566,.3707-3.2297,.3668-2.7988,.9791-6.8393,1.8768-11.8065,1.7621-9.9418,4.7032-23.575,8.0148-38.6155,3.3103-15.035,6.3068-28.6482,8.15991-38.5638,.94319-4.9544,1.61009-8.981,2.03829-11.7684,.1986-1.3665,.355-2.4421,.4672-3.2143,.0553-.3428,.0996-.6177,.1346-.8348,.0333-.1878,.0546-.2836,.0636-.2826Z" style="fill:#263238;"></path><g style="opacity:.1;"><path d="M325.79509,189.4857c-10.6556,4.5718-26.3073,6.2371-37.1632,2.1636-2.735-1.0262-5.40789-2.3261-8.29689-2.7585-2.88891-.4325-6.14561,.1796-8.03451,2.4079-1.9072,2.25-2.03249,5.6186-3.9448,7.8643-2.5463,2.9902-7.139,2.8817-11.02169,2.2898-16.549-2.5228-32.42441-9.3414-45.64811-19.6062v-6.9334c13.2237,10.2647,29.09911,17.0833,45.64811,19.6061,3.88269,.5919,8.47539,.7005,11.02169-2.2897,1.91231-2.2457,2.0376-5.6143,3.9448-7.8643,1.8889-2.2283,5.1456-2.8404,8.03451-2.408,2.889,.4325,5.56189,1.7324,8.29689,2.7586,10.8559,4.0735,23.2797,3.7856,33.9353-.7862l3.2279,5.556Z" style="fill:#fff;"></path></g><g style="opacity:.1;"><path d="M268.39069,101.2925c-3.6453-1.6353-5.72269-2.3349-9.368-3.9702-1.0244-.4596-2.1938-.9243-3.23269-.4984-2.11281,.866-1.458,4.0055-2.24841,6.1478-.6941,1.8814-2.6984,3.0372-4.6917,3.258-1.9931,.2207-3.98689-.333-5.885-.9804-8.99089-3.0668-16.5177-9.9038-22.9561-16.8887l.044,8.5533c3.6711,4.6092,7.0009,8.7717,11.7858,12.2106,4.785,3.4388,10.8402,5.5473,16.6129,4.365,5.7727-1.1824,10.899-6.2809,10.86051-12.1733,3.29359,2.1667,6.21639,3.6282,10.00149,4.7306-.0169-1.3428-.9059-3.4116-.9228-4.7543Z" style="fill:#fff;"></path></g><path d="M277.85849,161.3688c-.1239,.0732-.7841-.8148-1.47449-1.9832-.69061-1.1688-1.14991-2.1753-1.02611-2.2484,.1238-.0732,.7839,.8147,1.4745,1.9834,.6904,1.1684,1.1498,2.1751,1.0261,2.2482Z" style="fill:#263238;"></path><path d="M283.62749,161.7545c-.1214,.0772-1.1242-1.2811-2.2396-3.0336-1.11589-1.753-1.9218-3.2363-1.8004-3.3135,.1213-.0772,1.1239,1.2808,2.2397,3.0339,1.1155,1.7524,1.9216,3.236,1.8003,3.3132Z" style="fill:#263238;"></path><path d="M290.746,162.5229c-.10021,.1032-1.64551-1.2342-3.45121-2.9868-1.8063-1.7531-3.1889-3.2575-3.0887-3.3608,.1001-.1031,1.6451,1.234,3.4514,2.9872,1.8057,1.7525,3.1886,3.2572,3.08851,3.3604Z" style="fill:#263238;"></path></g></g><g id="Dog_1"><g><g><path d="M333.75079,237.8661c-2.269-2.7022-6.2655-3.8013-9.5973-2.6397,2.1161-3.8865,2.1312-8.8397,.0388-12.7391-2.0925-3.8994-6.2282-6.6253-10.6366-7.0106-.8386-.0734-1.7268-.08-2.4465-.5165-1.1536-.6994-1.4498-2.1999-1.8118-3.4995-1.4686-5.2715-5.7892-9.5101-10.889-11.4942-5.0999-1.984-10.8719-1.8572-16.1165-.2954-3.11889,.9288-6.153,2.3942-8.4148,4.7341-2.2616,2.3398-3.6637,5.6474-3.1967,8.8679-5.4177-1.8089-11.8703,.1037-15.4271,4.5727-3.5568,4.4691-3.9725,11.1864-.9938,16.0599-4.0109-.3347-7.9057,3.2549-7.8987,7.2796l88.3301,6.5901c1.7205-3.0807,1.329-7.2071-.9401-9.9093Z" style="fill:#fff;"></path><path d="M306.53749,188.9195c-3.3261,0-6.0224,2.6964-6.0224,6.0224s2.6963,6.0225,6.0224,6.0225,6.0224-2.6964,6.0224-6.0225-2.6963-6.0224-6.0224-6.0224Z" style="fill:#fff;"></path></g><g><path d="M222.19729,212.1074c3.7438-2.6576,3.9245-8.6961,.9886-12.226-2.93589-3.5299-8.0775-4.6545-12.5701-3.7082-4.4927,.9463-8.42179,3.6537-11.8445,6.7138,.95171-2.3142-.3248-5.0998-2.3879-6.5157s-4.6976-1.7126-7.1977-1.6105c-10.0039,.4087-19.49369,7.0186-23.3452,16.2603-1.98149-1.4233-4.7891-1.2605-6.9482-.1246-2.1592,1.1358-3.7706,3.0889-5.1137,5.1256-5.2433,7.9513-7.1713,18.0177-5.2372,27.3437,1.9342,9.3259,7.7065,17.7953,15.6794,23.0056,0,0-29.5407,41.5676-25.2906,51.5417,4.2502,9.9741,5.72,9.6824,5.72,9.6824,0,0-5.1142,26.0356,7.6213,39.4455,12.7354,13.41,13.8374,57.2459,17.3527,59.3559,3.5154,2.11,12.209,4.3071,15.0729,1.2615,2.8638-3.0456-4.1214-5.7882-4.1214-5.7882l9.4517-53.2795,6.0649-19.1639,10.2959,14.2243,2.011,57.3632s14.9024,3.7314,16.2434-.7461-3.9055-6.7807-3.9055-6.7807l8.0728-34.0133s9.8679,8.3225,23.1489,7.4211c0,0,25.395,56.3974,27.3951,57.3217,2.00011,.9243,19.0427,2.1253,17.6677-2.5152-1.3751-4.6404-6.35259-6.2125-6.35259-6.2125l-5.88261-39.0061s13.1788,3.7845,26.5697-1.5567c0,0,3.35591,44.9989,5.6174,46.4081,2.26151,1.4092,18.0881,3.1404,18.6147-3.7766,.5266-6.9171-3.4736-8.7657-3.4736-8.7657l7.0765-42.3622s36.70691-24.5428,33.0971-53.7604c0,0,20.3573-11.224,10.7016-28.672,0,0,10.5801-.5719,4.0079-13.925s-10.6633-18.1564-10.6633-18.1564c0,0,11.6181,1.1213,6.4512-6.6064-5.1669-7.7278-22.5163-26.9109-22.5163-26.9109,0,0,4.7468-29.9675-3.5567-27.494-8.30359,2.4736-15.4707,9.8414-15.4707,9.8414l-29.56989,.1702s-18.61431-12.2326-23.66021-8.0162c-5.0459,4.2165-2.7846,21.6455-2.7846,21.6455l-7.4437,6.3905-39.4416-.2655s2.52311-30.1457-16.8985-28.5624" style="fill:#ae7461;"></path><path d="M341.02409,256.2298c-.9375,0-1.8252-.3516-2.5108-.9971-.7138-.6718-1.124-1.581-1.15429-2.5605l1-.0313c.04489,1.4727,1.32029,2.6172,2.75,2.587,.71389-.0215,1.376-.3204,1.86429-.8399,.4883-.5195,.7461-1.1982,.7236-1.9111l1-.0313c.0303,.9805-.3232,1.9131-.9951,2.628-.6719,.7138-1.582,1.124-2.5615,1.1543-.0391,.0009-.0772,.0019-.1162,.0019Z" style="fill:#263238;"></path><path d="M335.01279,240.4536c-.27-.6605,.0634-1.5135,.9347-2.2938,.8632-.7787,2.2732-1.4563,3.9317-1.7039,1.6592-.2458,3.2056-.0077,4.258,.4862,1.0606,.493,1.6276,1.2121,1.5615,1.9226-.0665,.7204-.7144,1.3055-1.62669,1.7592-.91921,.4525-2.10541,.7886-3.42691,.9831-1.3204,.1983-2.553,.2218-3.56409,.0564-1.00481-.1687-1.795-.5399-2.06821-1.2098Z" style="fill:#263238;"></path><path d="M309.38829,256.2298c-1.9717,0-3.6054-1.5732-3.6679-3.5576l1-.0313c.0449,1.4444,1.2343,2.5889,2.6679,2.5889,.0283,0,.05571-.001,.083-.0019,1.47171-.045,2.6328-1.2793,2.5869-2.751l1-.0313c.0303,.9805-.32319,1.9131-.9951,2.628-.6718,.7138-1.581,1.124-2.5605,1.1543-.0381,.0009-.0762,.0019-.1143,.0019Z" style="fill:#263238;"></path><path d="M302.99069,241.7094c-.2699-.6605,.0635-1.5135,.9347-2.2938,.8632-.7787,2.2733-1.4563,3.9317-1.7039,1.6593-.2458,3.2057-.0076,4.2581,.4862,1.0606,.4931,1.6276,1.2122,1.5615,1.9226-.0665,.7204-.7144,1.3055-1.62669,1.7592-.91921,.4525-2.10551,.7886-3.42691,.9831-1.3204,.1984-2.553,.2218-3.56409,.0564-1.00481-.1687-1.795-.5399-2.06831-1.2098Z" style="fill:#263238;"></path><path d="M331.07879,258.9084c-.595-1.0134-1.5722-1.7738-2.6611-2.2157-1.0888-.442-2.28469-.5798-3.4584-.5214-1.5491,.0771-3.1106,.507-4.3576,1.4292s-2.144,2.3745-2.1948,3.9246c.3222,1.0888,3.0334,.9087,4.6762,.6019,.268-.0501,.56891-.1084,.79391,.0453,.18439,.1258,.25929,.3568,.32359,.5706,.1538,.5108,.3213,1.0308,.6456,1.4543,.3243,.4236,.8395,.739,1.3701,.684,.47871-.0497,.8908-.3945,1.1234-.8157,.2327-.4213,.30931-.911,.3348-1.3915,.0097-.1825,.0172-.3788,.1287-.5234,.1521-.1972,.4334-.2234,.6812-.2469,.5734-.0544,1.1398-.1815,1.6814-.3774,.4449-.161,.9005-.3931,1.12921-.8073,.30749-.5572,.10609-1.2617-.21621-1.8106Z" style="fill:#263238;"></path><path d="M340.14119,264.157c.0356-.0033,.0877,.3149,.1491,.8996,.01671,.5832,.0516,1.4485-.2199,2.486-.2567,1.0234-.8811,2.2543-2.0867,3.0753-1.18369,.8342-2.7976,1.1841-4.4172,1.0822-1.6266-.1032-3.1407-.587-4.34749-1.3378-.60041-.3772-1.12891-.8338-1.48291-1.3892-.3285-.5576-.5664-1.0397-.8172-1.5114-.50189-.9259-.707-1.8044-.7084-2.3948-.011-.5933,.064-.912,.0929-.9099,.123-.0181-.1501,1.3619,.9399,3.1303,.2564,.4345,.5462,.9625,.853,1.4477,.3181,.4694,.8083,.8793,1.3753,1.2193,1.1382,.6796,2.5883,1.1298,4.1257,1.226,1.5339,.096,3.0281-.2218,4.1159-.9587,1.1076-.7232,1.7136-1.8209,2.0032-2.7802,.5495-1.9615,.3022-3.2898,.4248-3.2844Z" style="fill:#263238;"></path><path d="M309.47079,265.9992c.0989-.0589,.61121,1.1488,1.9826,2.6569,.6834,.7463,1.6241,1.5336,2.8358,2.0749,1.204,.55,2.6909,.777,4.2086,.5756,3.0688-.4304,5.4423-2.3147,6.56621-3.9564,1.174-1.6908,.998-3.0681,1.09769-3.0487,.0179-.0014,.036,.0773,.054,.2312,.0257,.1545,.0352,.3832,.0038,.6783-.0531,.5868-.28649,1.4379-.8474,2.341-1.1034,1.7791-3.5495,3.8109-6.805,4.2707-1.6099,.2155-3.2064-.0441-4.4762-.6548-1.2794-.6014-2.2412-1.4636-2.913-2.2673-.678-.8055-1.10289-1.5437-1.367-2.0618-.2505-.5272-.3723-.8237-.3401-.8396Z" style="fill:#263238;"></path><path d="M355.95289,218.8569c-.4457-.3582-1.0686-.4325-1.6297-.3225-.511,.1001-.983,.3361-1.4389,.5904-1.4601,.8144-2.8544,1.7387-4.18329,2.7531-1.16761,.8914-2.57711,1.9944-2.77351,3.5228-.1798,1.3985,.7163,2.7013,1.6894,3.7217,1.2043,1.2628,2.3927,2.2134,3.7533,2.9643,1.4817,.8178,3.3816,.0997,3.8926-1.5137,.9579-3.0252,1.44921-6.1984,1.4438-9.3717-.0015-.8503-.0909-1.8119-.7537-2.3444Z" style="fill:#6f4439;"></path><path d="M291.80209,218.8569c.4458-.3582,1.0687-.4325,1.6297-.3225,.5111,.1001,.983,.3361,1.439,.5904,1.46,.8144,2.8544,1.7387,4.1833,2.7531,1.1676,.8914,2.577,1.9944,2.7734,3.5228,.1798,1.3985-.7162,2.7013-1.6894,3.7217-1.2043,1.2628-2.3926,2.2134-3.7533,2.9643-1.4817,.8178-3.3816,.0997-3.8925-1.5137-.9579-3.0252-1.4492-6.1984-1.4439-9.3717,.0015-.8503,.0909-1.8119,.7537-2.3444Z" style="fill:#6f4439;"></path><path d="M269.30429,291.8684s-.1844,.1064-.5744,.206c-.3868,.1014-.9964,.1814-1.7605,.0451-1.49939-.2275-3.7135-1.4653-4.8811-4.0664-.5976-1.2675-.97229-2.7659-1.2384-4.3785-.2504-1.6157-.53589-3.3362-.6718-5.1976-.1185-1.8479-.0649-3.8826,.7161-5.8316,.7591-1.9028,2.2552-3.7867,4.473-4.4651l-.0171,.488c-.924-.3175-1.4727-1.2712-1.6315-2.1585-.18159-.9077-.1287-1.8349,.0319-2.7393,.9823-4.9419,3.2364-9.2268,5.5569-12.8479,2.38-3.6039,4.896-6.5813,7.1503-8.9324,2.2571-2.3529,4.2677-4.0705,5.7066-5.1858,.7136-.5664,1.296-.9683,1.6964-1.2324,.3976-.2678,.6109-.4009,.6211-.3861,.0334,.0473-.8024,.6088-2.1907,1.7766-1.3934,1.1587-3.3558,2.909-5.56609,5.281-2.20751,2.37-4.67761,5.3533-7.01481,8.9399-2.2786,3.6015-4.488,7.8491-5.4474,12.6805-.153,.8535-.1982,1.7321-.0355,2.5414,.1528,.805,.5908,1.5331,1.3041,1.7807l.7448,.2585-.762,.2296c-2.0127,.6064-3.4328,2.3483-4.1629,4.1563-.7479,1.8345-.8215,3.8042-.7182,5.6179,.1178,1.8233,.38691,3.557,.6165,5.1613,.2448,1.6002,.5918,3.0652,1.1491,4.3003,1.0811,2.5201,3.1686,3.749,4.6056,4.0272,1.4846,.2988,2.2941-.15,2.3-.0687Z" style="fill:#263238;"></path><path d="M199.93289,347.4091c-.0043,.0174-.2095-.0165-.59689-.0971-.38621-.0852-.95511-.2169-1.67781-.4264-1.4341-.4264-3.5463-1.0943-5.8274-2.5771-1.1347-.7373-2.2882-1.7175-3.2751-2.9838-.9825-1.2607-1.8171-2.8178-2.1721-4.6078-.36659-1.7715-.17659-3.8124,.8189-5.5535,.9508-1.7322,2.6412-3.2224,4.7493-3.6792,.4235-.0862,.8513-.1174,1.2508-.1239l-.1491,.4756c-3.2757-2.2034-6.3884-4.4287-8.6047-7.0915-1.1125-1.3155-1.9904-2.724-2.5726-4.149-.5737-1.4264-.8493-2.8457-.9244-4.1429-.1471-2.6097,.5861-4.6956,1.3891-5.8887,.7965-1.2145,1.4786-1.6624,1.4786-1.6624,.0484,.0447-.5854,.5494-1.3096,1.7654-.73189,1.1959-1.386,3.2314-1.1978,5.7625,.09591,1.2579,.3845,2.6317,.9571,4.0051,.5786,1.3669,1.44381,2.7276,2.5414,4.0043,2.1835,2.5825,5.2586,4.7669,8.5345,6.9662l.6836,.4589-.83269,.0168c-.36331,.0073-.75241,.0351-1.13891,.1136-1.92109,.4138-3.51309,1.794-4.4094,3.4185-.9374,1.6291-1.1262,3.5196-.7931,5.2127,.3236,1.7016,1.1083,3.2073,2.04341,4.436,.93929,1.2347,2.04009,2.2,3.13809,2.9414,2.2033,1.4891,4.2751,2.207,5.6822,2.6892,.6702,.2113,1.2146,.383,1.6441,.5185,.378,.1132,.5748,.1811,.5705,.1986Z" style="fill:#263238;"></path><path d="M241.26659,349.7307c.0315,.0373-.531,.4858-1.3923,1.4407-.85529,.9511-1.9882,2.4628-2.8447,4.5883-.8474,2.1121-1.3645,4.8804-.8401,7.861,.4971,2.9428,1.9753,6.1454,4.5903,8.4049,1.09,.902,2.368,1.5448,3.669,1.8118,1.30321,.2762,2.6355,.0196,3.6074-.7043l.53381-.3977-.145,.6493c-.54221,2.426-.51921,4.7856-.13541,6.8179,.358,2.0435,1.0467,3.763,1.7468,5.1075,1.4292,2.6966,2.8345,3.9076,2.75161,3.9734-.01,.01-.09711-.0623-.25581-.2116-.1541-.1533-.39919-.3666-.6754-.6819-.5643-.619-1.332-1.5854-2.0893-2.9347-.7507-1.3479-1.4906-3.0892-1.8889-5.1754-.4239-2.0746-.4763-4.4988,.0661-7.0053l.3886,.2515c-1.0834,.8263-2.597,1.1126-4.0014,.8156-1.4083-.2844-2.753-.9644-3.9021-1.9132-2.7527-2.383-4.2385-5.6798-4.73379-8.7294-.51511-3.0825,.06069-5.9363,.97289-8.0792,.9219-2.1595,2.1248-3.6654,3.0374-4.5869,.4545-.4668,.8409-.7946,1.1106-1.0048,.2712-.2091,.4184-.3115,.4297-.2975Z" style="fill:#263238;"></path><path d="M290.52309,372.2687c.032,.007-.02009,.4138-.1769,1.1376-.1551,.7241-.4384,1.7591-.8541,3.0153-.8004,2.5245-2.3137,5.8573-3.5094,9.6711-1.1848,3.8146-1.3988,7.5009-.8692,10.0534,.4953,2.5709,1.4824,3.9371,1.3757,3.9877-.0228,.0153-.279-.3082-.6421-.9581-.3682-.6466-.7904-1.6521-1.094-2.9541-.639-2.6042-.4749-6.4027,.7314-10.2806,1.2142-3.8689,2.7781-7.1664,3.6603-9.6416,.457-1.2319,.7913-2.2415,1.0055-2.9451,.21571-.7029,.3346-1.0942,.3728-1.0856Z" style="fill:#263238;"></path><path d="M304.53179,395.5449c.0048-.1435,2.0767,.6565,5.4607-.0117,1.6691-.3304,3.6248-1.0683,5.4711-2.4278,1.8518-1.3279,3.5589-3.339,4.4855-5.8625l.0736-.2005,.2201,.035c.5957,.0945,1.2013,.2147,1.8223,.2954,.6244,.051,1.2547,.156,1.898,.1664,1.5774,.1077,3.1214-.0023,4.6026-.1456,1.4736-.2096,2.8956-.4505,4.208-.8482,2.641-.7347,4.9034-1.7785,6.6859-2.8394,1.7871-1.0614,3.0977-2.1251,3.9952-2.8656,.86621-.7764,1.3449-1.2128,1.3736-1.1851,.013,.0125-.0901,.1374-.2988,.3645-.2115,.2243-.5173,.5632-.939,.9711-.86259,.7928-2.1528,1.9133-3.9402,3.03-1.78239,1.1159-4.0652,2.2127-6.745,2.9859-1.3316,.4169-2.7775,.6734-4.278,.8932-1.50839,.1536-3.0826,.2687-4.692,.1593-.6562-.0112-1.2997-.118-1.9366-.1717-.6337-.0836-1.25179-.2077-1.8592-.307l.29341-.1654c-.97891,2.6383-2.77591,4.7105-4.70461,6.057-1.9247,1.3791-3.9522,2.0995-5.6726,2.3933-1.7262,.2972-3.1451,.2182-4.0894,.0503-.4766-.06-.8303-.1908-1.0738-.2458-.24159-.0671-.365-.1095-.3608-.1251Z" style="fill:#263238;"></path><path d="M206.03519,367.8383c.0575-.0839,1.2264,.9073,3.4564,1.8372,1.113,.4566,2.495,.8735,4.06941,1.0759,.78629,.1024,1.61979,.1462,2.48079,.1141,.4298-.0118,.8845-.0541,1.3658-.0152,.4755,.0314,1.00141,.1834,1.4133,.4939,.825,.629,1.23911,1.466,1.7909,2.1191,.5356,.6788,1.104,1.2921,1.6755,1.8447,1.143,1.1072,2.3105,1.9564,3.3386,2.5857,2.0645,1.2597,3.5265,1.6925,3.4909,1.7858-.009,.0286-.3824-.0453-1.0311-.2684-.6485-.2208-1.574-.5951-2.6465-1.2-1.0726-.6009-2.29119-1.4385-3.4826-2.5554-.5955-.5573-1.1873-1.1805-1.74359-1.8743-.57311-.6815-1.01971-1.5132-1.69711-2.015-.6708-.5146-1.578-.4182-2.4577-.391-.8914,.0262-1.7523-.0296-2.5616-.1485-1.62059-.2353-3.03059-.7023-4.1512-1.2133-1.1217-.5144-1.9608-1.0604-2.5102-1.4707-.5517-.4092-.8178-.6827-.8-.7046Z" style="fill:#263238;"></path></g><g><rect x="86.5308" y="344.8346" width="365.54679" height="20.3082" rx="9.1714" ry="9.1714" style="fill:#2D9F82;"></rect><path d="M431.60079,360.6617c0,.2215-.3099,1.8268-.91879,4.4839-1.86011,8.1597-6.53221,26.2284-13.70651,44.1863-9.52149,23.8258-23.4494,47.4412-41.042,47.4412H162.60839c-21.4011,0-37.3773-34.9526-46.5998-62.7088-4.0743-12.256-6.8311-23.1061-8.1486-28.9187h-.0111c-.5978-2.6571-.9078-4.2624-.9078-4.4839l147.0955-4.6943v-.9743l15.2343,.4872,15.2344-.4872v.9743l147.0955,4.6943Z" style="fill:#2D9F82;"></path><path d="M431.08129,365.1428c0,.1438-72.363,.2604-161.6065,.2604-89.2746,0-161.622-.1166-161.622-.2604s72.3474-.2604,161.622-.2604c89.2435,0,161.6065,.1166,161.6065,.2604Z" style="fill:#263238;"></path></g><path d="M328.37639,272.7162c.0368,.0512-.18939,.3057-.67639,.5449-.48181,.2401-1.23761,.4211-2.067,.334-.82931-.0899-1.53-.4264-1.95031-.7628-.4255-.3366-.5929-.633-.5461-.6753,.1008-.1126,1.0467,.7805,2.5516,.9203,1.5,.1809,2.6134-.4924,2.6882-.3611Z" style="fill:#263238;"></path><path d="M332.25679,209.6568c-.9873-1.5665-3.5649-1.344-4.7854,.0486-1.2205,1.3925-1.3573,3.4344-1.1031,5.2686-2.754-2.9989-2.476-8.2591,.5789-10.9509-2.2624-1.1532-4.9924-2.3106-7.2211-1.0934-1.3156,.7185-2.1097,2.1249-2.6037,3.5404-1.947,5.5789,3.8713,13.6453,8.6401,17.1345l3.8219-.2816c-3.0937-4.4958-.1948-9.0226,2.6724-13.6662Z" style="fill:#ae7461;"></path><path d="M238.40619,237.9877c.0089-.0008,.0214,.0857,.0371,.2557l.0572,.7564c.0408,.6647,.0294,1.6552-.1508,2.9145-.20769,1.251-.6128,2.7767-1.4512,4.386-.8314,1.6064-2.08,3.2924-3.7844,4.8069-1.6877,1.5333-3.783,2.9208-6.20409,4.0699-2.43961,1.1095-5.23741,1.8781-8.23521,2.1588-2.9953,.3046-6.1779,.1471-9.3956-.4285-3.1976-.5893-6.5485-1.4736-9.516-3.369-1.7236-1.1092-3.2109-2.5839-4.2011-4.3261-1.0096-1.7231-1.5122-3.7327-1.312-5.6661l.4933,.1024c-.8687,2.6975-2.6016,4.9641-4.6916,6.515-2.0842,1.5677-4.5251,2.4523-6.874,2.5961-2.3519,.1555-4.5695-.3464-6.4272-1.1854-1.8717-.832-3.3745-2.0358-4.4889-3.3125l.282-.1069c.0126,3.4066,.7008,6.0536,1.2705,7.7986,.2887,.8759,.5566,1.5338,.7351,1.9788,.1864,.4416,.2798,.6729,.2656,.6797-.00689,.0033-.03989-.0498-.0982-.1576l-.24869-.4858c-.20561-.4348-.501-1.0853-.81751-1.9585-.6247-1.7396-1.3709-4.4007-1.42849-7.8528l-.00711-.4293,.2893,.3224c1.1016,1.2276,2.5757,2.3813,4.4029,3.1724,1.8132,.7983,3.96991,1.2664,6.2402,1.1005,2.2652-.1544,4.6103-1.0194,6.6165-2.5417,2.0111-1.5054,3.671-3.6989,4.4964-6.2843l.7355-2.3036-.2421,2.406c-.1822,1.811,.2896,3.7091,1.2565,5.3544,.9498,1.6645,2.3678,3.0726,4.0362,4.1472,2.867,1.834,6.1635,2.7165,9.3233,3.304,3.17441,.5749,6.311,.7398,9.2592,.453,2.9511-.2632,5.7008-1.0029,8.1021-2.0741,2.3829-1.1104,4.4675-2.464,6.1375-3.9513,1.6903-1.4706,2.9329-3.1063,3.7728-4.6687,.8463-1.565,1.273-3.0549,1.5087-4.2837,.401-2.4823,.1752-3.8939,.2563-3.8928Z" style="fill:#263238;"></path><path d="M168.65569,262.2497c.0937,.1171-1.1456,1.2385-2.5482,2.7337-1.4092,1.4899-2.4544,2.7936-2.577,2.7071-.1143-.0766,.7591-1.5422,2.1979-3.0642,1.4329-1.5266,2.8441-2.4862,2.9273-2.3766Z" style="fill:#263238;"></path><path d="M354.26229,289.2138c.0085-.0027,.04071,.0816,.0954,.2492,.061,.1977,.1369,.444,.2308,.749,.1127,.3272,.195,.7456,.2894,1.2414,.1159,.4927,.1813,1.0711,.2439,1.7246,.2449,2.5819-.0204,6.559-2.2361,10.7532-1.12069,2.0622-2.7025,4.1765-4.8986,5.8881-1.0875,.8683-2.3444,1.5836-3.6857,2.2074-1.3621,.5819-2.8278,1.0202-4.3647,1.3006-3.0759,.4993-6.4481,.3474-9.6722-.7616-1.6081-.5461-3.1873-1.2989-4.6308-2.3089-.6954-.5414-1.4316-1.0244-2.0488-1.7216-.3034-.3473-.5773-.7541-.7148-1.2332-.1415-.47-.117-1.0273,.1146-1.4794,.4557-.9175,1.4136-1.4314,2.3746-1.4853,1.00271-.0589,1.9072,.5561,2.4244,1.3135,.5251,.7731,.7605,1.701,.712,2.6082-.0593,.9089-.3786,1.7584-.813,2.5079-1.86369,2.9266-4.7343,4.8411-7.6486,5.9327-2.94,1.089-6.0046,1.284-8.7405,.8215-2.7505-.4527-5.1445-1.6577-6.9804-3.1256-1.8697-1.4494-3.1838-3.1801-4.1344-4.7804-.9449-1.615-1.4844-3.15-1.7879-4.4248-.313-1.2762-.393-2.2973-.4203-2.9847,.0018-.3192,.0032-.5771,.0043-.784,.0039-.1764,.0103-.2664,.0193-.2663,.088-.0091-.0755,1.4692,.5931,3.9849,.3296,1.2512,.8894,2.7528,1.8421,4.3267,.9583,1.5592,2.2683,3.2407,4.1107,4.6386,1.8107,1.4172,4.14591,2.5673,6.8252,2.9898,2.665,.4318,5.6484,.2257,8.5023-.8458,2.8211-1.0612,5.6211-2.9681,7.3735-5.7382,.4045-.6991,.6898-1.4805,.7406-2.2809,.043-.7955-.17169-1.6225-.6238-2.2845-.4506-.6515-1.1901-1.1393-1.9764-1.089-.7789,.0366-1.5911,.4899-1.927,1.1905-.3627,.7013-.0317,1.5415,.5216,2.1451,.5496,.6267,1.2862,1.1192,1.9542,1.6395,1.3995,.9814,2.9335,1.7155,4.4978,2.2505,3.1362,1.0868,6.4265,1.2454,9.4288,.7717,1.4999-.2675,2.9307-.6878,4.2616-1.2473,1.3096-.6013,2.5381-1.2893,3.6037-2.1287,2.1526-1.6537,3.71881-3.7091,4.8393-5.7217,2.21651-4.0939,2.5394-8.005,2.3582-10.5629-.0465-.6475-.0952-1.2222-.1943-1.7133-.0776-.4942-.1429-.9132-.2386-1.2426l-.18-.7592c-.03779-.1722-.0531-.2619-.0445-.2647Z" style="fill:#263238;"></path><path d="M328.20159,220.8304c.0246,.1351-1.3551,.4719-3.0904,.3975-1.7363-.0667-3.0838-.5144-3.0484-.647,.0337-.1464,1.3909,.0631,3.0695,.1266,1.67771,.0729,3.04771-.0258,3.0693,.1229Z" style="fill:#263238;"></path><g style="opacity:.2;"><path d="M174.50639,258.2601s-1.6707-4.6355-1.7735-6.1684-.43889-4.2172-.43889-4.2172c3.55659,5.0927,8.44769,4.8777,12.91009,4.3926s8.3353-4.3099,9.2977-8.6942c.0051,4.3797,2.3696,8.1616,6.1031,10.4515,3.7334,2.2899,8.2082,3.0685,12.5849,3.2336,5.4948,.2073,11.1887-.5418,15.9253-3.3348s9.3543-7.7551,9.2268-13.2523c1.8759,.0971,3.0342-.0971,4.91011,0-.42291,6.4509-4.25781,12.6406-9.31971,16.6618s-11.5335,6.075-17.9936,6.3195c-6.4602,.2446-12.9098-1.2477-18.8765-3.7359-2.6499-1.105-5.3711-2.5473-6.768-5.0556-4.6598,3.414-11.697,3.0692-16.0008-.7839-.0113,1.2739,.4035,2.9882,.3922,4.2621"></path></g><path d="M324.419,257.3662c-1.03221-.0078-2.06251,.3773-2.83651,1.0602-.1433,.1265-.2893,.2938-.2608,.4828,.0227,.1507,.1566,.2656,.3021,.3107,.1456,.0451,.3019,.0334,.4535,.0185,1.2399-.1223,2.4529-.4339,3.6515-.774,.2664-.0755,.5948-.2443,.5495-.5174-.0287-.1729-.2021-.2786-.3617-.3512-.59759-.272-1.40059-.2297-2.1163-.1287" style="fill:#fff;"></path><path d="M430.94079,317.7063c-7.6504-7.9136-20.2693-10.5388-30.441-6.333-10.1717,4.206-17.2516,14.9765-17.0791,25.9821-5.1893-4.5934-13.3019-5.524-19.3965-2.2249,.4511-9.5361-6.6773-18.8761-15.9944-20.9569-9.3173-2.0809-19.742,3.3389-23.3909,12.1608-3.6105-6.8479-13.0628-9.8565-19.9674-6.3556-6.90449,3.5009-10.0634,12.904-6.673,19.8635-5.48449-2.4654-11.9279-2.7154-17.5869-.6822,.3857-2.782-3.27559-5.147-5.653-3.6516-1.7948-12.5082-13.8184-22.6971-26.4515-22.4153-12.6333,.2819-24.1905,10.9968-25.4256,23.5727-8.89449-5.4091-21.0296-4.8856-29.4251,1.2692-3.79439-7.4003-11.95539-12.3426-20.2715-12.2762-8.3161,.0665-16.3972,5.1384-20.0728,12.5984-14.6315-5.0765-30.3487-2.662-42.778,6.5773l324.21779,.0778c2.1557-6.1227,4.0392-19.2925-3.6111-27.2061Z" style="fill:#fff;"></path><path d="M182.33459,207.2589c.0699,.155-2.8649,1.1435-5.6538,3.6189-2.8202,2.4417-4.1839,5.2215-4.3285,5.1318-.055-.0263,.2083-.7524,.8516-1.8186,.6396-1.0649,1.7008-2.4452,3.1336-3.7048,1.4358-1.255,2.943-2.1264,4.08251-2.621,1.14129-.4982,1.89569-.6642,1.91459-.6063Z" style="fill:#263238;"></path><path d="M182.14769,212.2057c.0571,.1409-1.3711,.8141-2.9732,1.8896-1.60949,1.0656-2.7799,2.1249-2.8881,2.0179-.1011-.0902,.9364-1.3489,2.5992-2.4513,1.6565-1.1104,3.2177-1.5842,3.2621-1.4562Z" style="fill:#263238;"></path><path d="M206.10139,304.4135c-.0595,.1177-1.6786-1.0277-2.5518-3.2186-.8972-2.1821-.5307-4.1309-.4062-4.0877,.1597,.0031,.0434,1.8505,.8889,3.8923,.81271,2.0541,2.1816,3.3006,2.0691,3.414Z" style="fill:#263238;"></path><path d="M215.19059,304.0156c-.0237,.1253-2.3158-.6209-4.348-2.6892-2.0527-2.0495-2.78-4.3472-2.65459-4.3698,.14629-.0716,1.05689,2.0444,3.02429,4.003,1.9421,1.9823,4.051,2.9103,3.9783,3.056Z" style="fill:#263238;"></path><path d="M364.01339,280.9453c-.1423,.0481-.6355-1.0965-1.4067-2.4076-.7632-1.3164-1.5176-2.3082-1.4058-2.4085,.0987-.0956,1.0597,.7756,1.8555,2.1459,.8021,1.3659,1.0887,2.6312,.957,2.6702Z" style="fill:#263238;"></path><path d="M366.86489,278.9881c-.121,.0778-.9348-.9726-1.8175-2.3457-.883-1.3735-1.5005-2.5497-1.3795-2.6275,.1209-.0777,.9345,.9724,1.8176,2.3459,.8826,1.3731,1.5003,2.5495,1.3794,2.6273Z" style="fill:#263238;"></path><g style="opacity:.2;"><path d="M108.7209,368.6393s87.1511,6.7902,185.2713,5.1196c98.1203-1.6707,135.16781-2.3169,135.16781-2.3169l1.517-6.2534-322.8242-.0458,.8681,3.4965Z"></path></g><g style="opacity:.2;"><path d="M416.97549,409.3319c-9.52149,23.8258-23.4494,47.4412-41.042,47.4412H162.60839c-21.4011,0-37.3773-34.9526-46.5998-62.7088,12.4443,16.9948,30.668,29.5055,50.2866,37.4437,22.12081,8.9569,46.0573,12.5109,69.8499,14.3598,35.6058,2.7568,71.7321,1.8046,106.56291-6.0893,26.21729-5.9454,51.72589-15.9319,74.26749-30.4466Z"></path></g><path d="M430.94079,317.7063c-7.6504-7.9136-20.2693-10.5388-30.441-6.333-10.1717,4.206-17.2516,14.9765-17.0791,25.9821-5.1893-4.5934-13.3019-5.524-19.3965-2.2249,.4511-9.5361-6.6773-18.8761-15.9944-20.9569-9.3173-2.0809-19.742,3.3389-23.3909,12.1608-3.6105-6.8479-13.0628-9.8565-19.9674-6.3556-6.90449,3.5009-10.0634,12.904-6.673,19.8635-5.48449-2.4654-11.9279-2.7154-17.5869-.6822,.3857-2.782-3.27559-5.147-5.653-3.6516-1.7948-12.5082-13.8184-22.6971-26.4515-22.4153-12.6333,.2819-24.1905,10.9968-25.4256,23.5727-8.89449-5.4091-21.0296-4.8856-29.4251,1.2692-3.79439-7.4003-11.95539-12.3426-20.2715-12.2762-8.3161,.0665-16.3972,5.1384-20.0728,12.5984-14.6315-5.0765-30.3487-2.662-42.778,6.5773l324.21779,.0778c2.1557-6.1227,4.0392-19.2925-3.6111-27.2061Z" style="fill:#fff;"></path><path d="M110.3342,344.8347s.8295-.6256,2.476-1.7688c1.6925-1.0667,4.2269-2.6461,7.8034-4.1176,3.5681-1.4479,8.1808-2.8435,13.7449-3.2733,5.5448-.446,12.0422,.1304,18.8047,2.4346l-.1913,.0785c1.5463-3.1007,3.9357-6.0065,7.048-8.2737,3.1135-2.2454,6.9469-3.8738,11.1359-4.3167,4.1814-.4529,8.6613,.3997,12.6727,2.5025,4.0003,2.0995,7.5803,5.4389,9.8172,9.7378l-.315-.0745c3.94631-2.8892,8.9199-4.6693,14.154-4.9855,5.22031-.3232,10.7585,.8107,15.5184,3.6876l-.3548,.1773c.5825-5.8071,3.4049-11.439,7.7071-15.7471,4.2812-4.3067,10.12661-7.4063,16.4977-7.9468,6.3681-.5654,12.9365,1.6505,18.0891,5.7216,5.158,4.045,9.0814,10.0398,10.0729,16.801l-.3944-.1825c1.2111-.7735,2.8554-.5912,4.0617,.1776,1.2131,.7336,2.2065,2.1671,1.9867,3.729l-.3453-.2802c4.0606-1.4671,8.8498-1.8186,13.3964-.7742,1.5096,.3435,2.9829,.8336,4.3849,1.4635l-.3407,.3514c-3.5313-7.3927-.0172-16.997,7.1532-20.3675,7.2036-3.3264,16.37841-.098,19.9456,6.6273l-.4586,.0214c4.0561-9.5733,15.3412-14.7033,24.659-12.0313,4.6543,1.3137,8.5959,4.3792,11.2625,8.1461,2.6792,3.7698,4.129,8.3292,3.9258,12.789l-.3361-.2112c3.2394-1.7422,6.9455-2.276,10.4016-1.8312,3.4633,.4426,6.7301,1.8731,9.2442,4.0973l-.35359,.1625c-.01321-3.615,.67609-7.1443,1.95059-10.3467,1.2889-3.1984,3.0918-6.0901,5.2435-8.5591,4.3374-4.9267,10.1336-8.0087,15.88791-8.8825,5.76019-.9176,11.32759,.0375,15.91269,2.0188,2.3006,.9917,4.3704,2.243,6.1759,3.6528,1.8149,1.3962,3.3535,2.9907,4.5112,4.712,.6205,.836,1.0443,1.7561,1.5084,2.6184,.35781,.911,.7657,1.7742,.9963,2.668,.5712,1.7534,.8177,3.4697,.9982,5.0573,.284,3.1927,.06531,5.92-.2441,8.0928-.3238,2.1745-.72259,3.8136-1.0545,4.8958-.3235,1.085-.5423,1.6262-.5423,1.6262,0,0,.0347-.1421,.11821-.4166,.07669-.2766,.22649-.6783,.36169-1.2274,.3108-1.0857,.68831-2.7256,.9907-4.8957,.2884-2.1682,.4857-4.886,.1842-8.0567-.189-1.5762-.4431-3.2783-1.018-5.0117-.23259-.8844-.6411-1.7358-.9984-2.635-.4633-.8495-.88519-1.7567-1.5013-2.5783-1.1473-1.6903-2.6727-3.2596-4.4767-4.6365-1.7925-1.3885-3.8454-2.6196-6.1256-3.5934-4.5441-1.946-10.0565-2.8729-15.7418-1.9513-5.6786,.8787-11.3794,3.9281-15.65179,8.7986-2.11791,2.4409-3.89091,5.2977-5.15591,8.4532-1.2507,3.1595-1.9219,6.6362-1.9037,10.1904l.0024,.4781-.3562-.3155c-4.87359-4.3164-12.8047-5.5674-19.1468-2.1837l-.354,.1889,.0177-.4002c.1926-4.3479-1.228-8.8063-3.8554-12.4943-2.6144-3.6856-6.47609-6.6774-11.0093-7.9513-9.0645-2.6068-20.1307,2.4383-24.0585,11.7573l-.2087,.4952-.2501-.4739c-3.4158-6.4729-12.36049-9.6137-19.277-6.3964-6.8958,3.2189-10.317,12.5779-6.905,19.672l.3096,.6437-.6504-.2922c-1.37-.6155-2.8105-1.0947-4.2873-1.4306-4.4477-1.0221-9.1373-.6776-13.1048,.7556l-.4081,.1474,.0627-.4278c.1897-1.2947-.6538-2.5551-1.745-3.2162-1.086-.6901-2.50919-.8258-3.5125-.1803l-.3363,.2163-.0583-.3989c-.9664-6.6084-4.8103-12.4972-9.8763-16.4725-5.0605-4.002-11.5026-6.1742-17.7306-5.6245-6.2347,.5235-11.9827,3.5601-16.1951,7.7911-4.2339,4.2317-7.0084,9.7618-7.5854,15.4494l-.0375,.3698-.3176-.1925c-4.6643-2.8267-10.1095-3.9517-15.2478-3.6403-5.1519,.3039-10.048,2.0492-13.9295,4.881l-.2008,.1465-.11449-.2211c-2.18421-4.2148-5.69481-7.5051-9.62451-9.5768-3.941-2.0754-8.3407-2.9215-12.4481-2.4859-4.1173,.4256-7.8983,2.019-10.9728,4.2239-3.0734,2.2266-5.4362,5.0838-6.9692,8.1331l-.062,.1233-.1297-.0447c-6.71169-2.3096-13.16669-2.9067-18.6838-2.4871-5.5361,.4033-10.1349,1.7674-13.7001,3.1857-3.5733,1.4418-6.1151,2.9933-7.8197,4.0345-.8219,.5572-1.4482,.9817-1.8789,1.2738-.4223,.2859-.644,.4228-.644,.4228Z" style="fill:#263238;"></path><g><path d="M230.00659,167.2354c-1.7544-1.7053-4.3298-2.4138-6.7671-2.2012,1.4399-.9464,1.7596-3.0386,1.1229-4.6397-.6367-1.6012-2.0038-2.7913-3.4117-3.7847-2.5571-1.8041-5.5025-3.2022-8.6268-3.383-3.1242-.1808-6.4358,1.019-8.2622,3.5603-1.7704,2.4637-3.1758,8.4441-1.1546,10.7299-1.7895,.5118-3.4076,1.7404-4.1386,3.4485-.7631,1.7833-.4133,4.0572,1.0307,5.3523,1.4441,1.2951,3.9379,1.3133,5.2415-.1231-1.602,2.8137-.0208,6.4529,2.2791,8.7319,3.3409,3.3105,8.5233,4.9997,12.9307,3.3572,4.4072-1.6424,7.2888-7.0847,5.3871-11.3865,2.3156,.7897,5.0557-.6682,5.9772-2.9346,.9214-2.2665,.1461-5.022-1.6082-6.7273Z" style="fill:#fff;"></path><path d="M230.00649,167.2355s.2808,.2067,.69651,.7229c.40279,.5178,.95369,1.3639,1.24509,2.6102,.2826,1.2121,.2997,2.9464-.7936,4.4796-.5313,.753-1.3208,1.4064-2.287,1.8234-.9622,.4064-2.1457,.5669-3.2852,.1883l.2123-.2319c1.02041,2.2049,.7596,5.1367-.7069,7.5891-.734,1.2265-1.7666,2.3411-3.0459,3.1968-1.2873,.85-2.8484,1.3473-4.4662,1.4921-3.2585,.2893-6.7338-.8996-9.4871-3.1576-1.3876-1.1156-2.5773-2.5823-3.3124-4.3022-.7462-1.6859-.9583-3.8219,.0396-5.5795l.4166,.3021c-1.4996,1.6405-4.4747,1.5518-5.9821-.2459-1.297-1.5291-1.4505-3.7611-.6201-5.4731,.8375-1.7292,2.4836-2.8842,4.2065-3.3788l-.1213,.4154c-.767-.9392-.9994-2.1169-1.0455-3.2092-.0381-1.1062,.0977-2.1885,.3234-3.2316,.4801-2.0558,1.2266-4.109,2.7126-5.5754,1.4706-1.4492,3.384-2.2459,5.2556-2.5469,1.8877-.2951,3.7547-.0666,5.4219,.4437,1.6754,.5087,3.1753,1.2713,4.51171,2.1124,1.32519,.8512,2.55829,1.7348,3.48939,2.8244,.9347,1.0687,1.50161,2.4039,1.4343,3.6654-.0246,1.2488-.6104,2.3971-1.5109,2.9688l-.079-.2277c2.4229-.1793,4.24321,.5225,5.3049,1.1481,1.0732,.6479,1.4728,1.1771,1.4728,1.1771-.0256,.0318-.46149-.4632-1.537-1.0636-1.0642-.5797-2.8597-1.2255-5.2191-1.0139-.06839,.0062-.1288-.0443-.1349-.1127-.0042-.0471,.0189-.0907,.0558-.1151,.8119-.535,1.3408-1.5954,1.35-2.7687,.0466-1.1807-.489-2.4121-1.3964-3.4341-.8998-1.0336-2.1191-1.8948-3.4331-2.7228-1.3213-.8167-2.7966-1.5516-4.4284-2.0352-1.6263-.4858-3.424-.6923-5.2305-.4006-1.7941,.2974-3.6143,1.0714-4.9906,2.4399-1.3777,1.3615-2.1026,3.3402-2.5629,5.3425-.2161,1.0106-.3431,2.0578-.3046,3.1051,.0411,1.0369,.2828,2.1103,.9239,2.8911l.0058,.007c.0897,.1093,.0739,.2707-.0354,.3605-.0276,.0226-.0596,.0387-.0917,.0482-1.605,.4619-3.1275,1.5463-3.8799,3.1111-.75049,1.5329-.5963,3.574,.5474,4.9089,1.2872,1.5712,3.963,1.6295,5.204,.2377,.09511-.1066,.2586-.116,.3652-.0209,.0927,.0827,.1107,.2192,.0515,.323-.8942,1.5705-.725,3.5188-.01959,5.125,.69619,1.6332,1.82049,3.0347,3.15969,4.1167,2.6519,2.1888,6.01131,3.3471,9.1312,3.0821,1.5526-.1325,3.04-.5987,4.2666-1.3987,1.223-.8083,2.22151-1.8698,2.9338-3.0415,1.4233-2.3471,1.6906-5.1373,.7433-7.2397-.0388-.0861-.0005-.1875,.0858-.2264,.0412-.0186,.087-.0191,.1267-.0055,1.0396,.3575,2.143,.2253,3.0558-.1472,.9156-.3821,1.6749-.9922,2.1878-1.6982,1.05431-1.4288,1.078-3.0965,.829-4.2811-.2548-1.2175-.7671-2.0635-1.1396-2.5922-.3848-.5273-.63809-.7628-.6196-.7807Z" style="fill:#263238;"></path></g></g></g><g id="Foam"><g><path d="M113.1388,399.4465c-4.5284-1.7667-10.0686-.5327-13.419,2.9891,1.5972-6.1816-.8179-13.2083-5.8779-17.1017s-12.471-4.4273-18.0368-1.2994c-2.1607-10.3449-14.7433-17.0575-24.5387-13.0909-9.7955,3.9666-14.1624,17.5427-8.5165,26.4762-4.0249-1.5218-8.8749-.5713-12.0276,2.3572s-4.9107,6.7026-3.6894,10.8286l93.9552,.1277c-.0802-4.8602-3.321-9.5201-7.8493-11.2868Z" style="fill:#fff;"></path><path d="M113.1388,399.4466s.3007,.1075,.8776,.3558c.5583,.2829,1.3983,.7142,2.3591,1.4923,.9545,.7762,2.0371,1.8934,2.9725,3.4541,.9101,1.5603,1.689,3.5906,1.7468,5.9826,.0014,.0585-.0449,.1071-.1034,.1085l-.0024,.0001c-18.0111,.19-53.0433-.4377-93.9539-.006-.104,.0016-.1931-.0685-.2211-.1637-.3759-1.3002-.0668-1.6882,.0176-3.0682,.1054-1.378,.427-2.7561,.9826-4.0515,1.099-2.5904,3.201-4.8336,5.8633-5.9863,2.8814-1.2967,6.2414-1.4541,9.1536-.3595l-.2755,.3376c-1.5741-2.5178-2.3758-5.434-2.4933-8.317-.1205-2.8895,.4147-5.7578,1.4654-8.3715,1.0517-2.6136,2.6287-4.986,4.632-6.8711,1.9962-1.8909,4.451-3.2408,7.038-3.8929,5.2155-1.3105,10.6288,.0362,14.7334,2.7099,4.1476,2.6646,7.1167,6.7774,8.0579,11.1961l-.2759-.1253c1.7927-.9853,3.7228-1.5952,5.6434-1.8735,1.9248-.2633,3.8377-.1898,5.6424,.149,3.6225,.6621,6.7752,2.507,8.932,4.9193,2.1723,2.4076,3.4693,5.2389,4.0215,7.9365,.2816,1.3512,.3904,2.6725,.3682,3.9278-.0425,1.2563-.2313,2.4378-.4978,3.5324l-.18-.0999c1.6677-1.7273,3.6216-2.6918,5.3493-3.2234,1.7474-.5122,3.2994-.6006,4.5254-.5239,1.2319,.0791,2.1387,.3316,2.7388,.5003,.5901,.2078,.8825,.3314,.8825,.3314,0,0-.3063-.088-.8987-.277-.6025-.1502-1.5071-.383-2.729-.4435-1.2161-.0584-2.7505,.0472-4.4712,.5691-1.7013,.5409-3.6183,1.5078-5.2429,3.2136-.0406,.0427-.108,.0443-.1505,.0037-.0284-.0269-.038-.0681-.0297-.1036,.2546-1.0813,.4329-2.2468,.4671-3.4849,.014-1.2373-.1009-2.5384-.3855-3.8678-.5579-2.6541-1.8499-5.434-3.9913-7.7867-2.1252-2.356-5.2164-4.1496-8.7714-4.7876-1.7703-.3261-3.6455-.3922-5.529-.129-1.8793,.2783-3.7637,.8803-5.5095,1.8453-.0913,.0505-.2062,.0174-.2567-.0738-.0091-.0163-.0156-.0343-.0194-.0516-.93-4.3068-3.8388-8.3245-7.9106-10.9298-4.0287-2.6152-9.336-3.9171-14.4056-2.6335-2.5151,.6381-4.8978,1.9508-6.8423,3.7963-1.9507,1.8395-3.4907,4.1593-4.5172,6.7167-1.0257,2.5572-1.5467,5.364-1.4274,8.1832,.1163,2.8135,.8986,5.6486,2.4261,8.0912,.0677,.1075,.0354,.2495-.0721,.3172-.0626,.0394-.1389,.0442-.2034,.0206-2.7884-1.0487-6.0301-.8989-8.8019,.3498-2.5609,1.1102-4.5676,3.2524-5.6302,5.7479-.5352,1.2468-.8451,2.5748-.9475,3.9008-.0814,1.328-.3962,1.6614-.0371,2.9075l-.221-.1634c40.9116-.3253,75.9446,.3925,93.9561,.2492l-.1056,.1084c-.0406-2.3471-.7906-4.354-1.6749-5.9033-.9091-1.5497-1.9672-2.6676-2.9019-3.4506-.9408-.785-1.7658-1.2292-2.3132-1.5275-.2745-.128-.4852-.2262-.6401-.2984-.1429-.0677-.2143-.1041-.2125-.1085Z" style="fill:#263238;"></path></g><g><path d="M448.63979,443.8155c-5.1176-1.9967-11.37879-.602-15.1653,3.3781,1.8051-6.986-.9243-14.9273-6.6428-19.3273-5.7185-4.4001-14.094-5.0035-20.3842-1.4686-2.4418-11.6911-16.662-19.2772-27.7321-14.7944-11.0703,4.4827-16.0055,19.8256-9.6248,29.9217-4.5488-1.7198-10.0299-.6456-13.593,2.6641-3.563,3.3096-5.0379,8.6967-3.65759,13.3598l105.67069-.9778c-.09069-5.4926-3.7532-10.7589-8.8709-12.7556Z" style="fill:#fff;"></path><path d="M448.63979,443.8156s.3399,.1215,.9919,.4022c.6309,.3197,1.58031,.8071,2.6661,1.6864,1.0787,.8772,2.3023,2.1398,3.3593,3.9036,1.0286,1.7635,1.90891,4.0579,1.9741,6.7612,.0016,.0662-.0507,.1211-.1168,.1227h-.0027c-20.3551,.2149-59.4345,.6273-105.6692,1.1152-.1176,.0018-.2183-.0774-.25-.1849-.4247-1.4695-.5873-3.0299-.4919-4.5895,.1192-1.5574,.4826-3.1148,1.1105-4.5788,1.242-2.9275,3.6175-5.4625,6.6263-6.7653,3.2564-1.4655,7.0537-1.6434,10.3449-.4063l-.31129,.3815c-1.779-2.8454-2.685-6.1411-2.81781-9.3994-.13619-3.2655,.4687-6.5071,1.656-9.4609,1.1886-2.9537,2.97081-5.6348,5.2349-7.7653,2.256-2.137,5.0302-3.6625,7.95391-4.3996,5.89429-1.481,12.012,.041,16.65079,3.0626,4.6874,3.0113,8.043,7.6594,9.1066,12.6533l-.3118-.1418c2.026-1.1135,4.2073-1.8026,6.3779-2.1173,2.1752-.2975,4.337-.2145,6.3767,.1684,4.0939,.7482,7.65681,2.8333,10.0943,5.5595,2.4551,2.721,3.9209,5.9207,4.5449,8.9694,.3182,1.527,.4413,3.0203,.4161,4.439-.048,1.4198-.2613,2.755-.56249,3.9921l-.20351-.113c1.8847-1.952,4.0929-3.0421,6.04551-3.6428,1.97479-.5789,3.72869-.6787,5.11429-.5921,1.3922,.0894,2.417,.3747,3.0952,.5655,.6669,.2348,.9973,.3744,.9973,.3744,0,0-.3461-.0994-1.0156-.313-.6809-.1698-1.70319-.4328-3.0841-.5012-1.3744-.066-3.1085,.0533-5.05309,.6431-1.92281,.6113-4.08921,1.7041-5.92531,3.6319-.0458,.0481-.122,.05-.1701,.0042-.032-.0305-.0429-.077-.0335-.1172,.2878-1.222,.4893-2.5391,.52791-3.9384,.01579-1.3983-.114-2.8687-.43571-4.3711-.6305-2.9995-2.0906-6.1412-4.5107-8.8001-2.4018-2.6627-5.8953-4.6896-9.9129-5.4107-2.00069-.3686-4.12-.4432-6.2485-.1457-2.1239,.3145-4.2536,.9948-6.2265,2.0854-.1032,.0571-.2331,.0197-.2902-.0835-.0102-.0183-.0176-.0387-.0219-.0583-1.051-4.8673-4.3384-9.4079-8.9401-12.3521-4.553-2.9556-10.551-4.4268-16.2804-2.9763-2.8423,.7212-5.53509,2.2047-7.7327,4.2904-2.2045,2.0789-3.945,4.7006-5.105,7.5908-1.1593,2.89-1.748,6.0621-1.6132,9.2482,.1314,3.1797,1.0156,6.3836,2.74181,9.1442,.07649,.1214,.04,.2819-.08141,.3584-.0709,.0446-.157,.05-.23,.0233-3.1512-1.1851-6.8148-1.0159-9.9473,.3953-2.8942,1.2547-5.1621,3.6757-6.3629,6.496-.6049,1.4091-.9552,2.9098-1.0708,4.4084-.092,1.5009,.064,2.9997,.4698,4.4079l-.2497-.1847c46.2358-.3676,85.3162-.6784,105.6718-.8402l-.1194,.1225c-.0459-2.6527-.8935-4.9207-1.8929-6.6717-1.0274-1.7513-2.22319-3.0148-3.2795-3.8996-1.0633-.8872-1.9956-1.3892-2.6143-1.7263-.3103-.1446-.5483-.2557-.72339-.3373-.16141-.0764-.24211-.1176-.24021-.1226Z" style="fill:#263238;"></path></g></g><g id="Bottle"><g><g><path d="M90.2233,349.5934s-1.2073-2.9653-.1487-3.8671c1.3386-1.1402,5.2528-1.2459,5.2528-1.2459l.5473-6.4057s-5.8992-1.8672-11.6006,.5125c-4.0752,1.701-5.4935,3.0097-5.2498,1.8443,0,0,1.8539-6.1322,10.8986-7.7039,9.0446-1.5718,17.1012,1.04,18.1293,3.3571s-1.3966,3.2326-1.3966,3.2326l-6.3168-.8166,.3493,5.841s4.7587,.0811,5.2817,1.1528c.5229,1.0717,.0368,4.4636,.0368,4.4636l-15.7833-.3647Z" style="fill:#263238;"></path><path d="M125.2895,441.9977c-.197,1.9149-.4505,3.6889-.7509,5.2659-.5819,3.0506-1.3704,5.369-2.4123,6.6456-3.1069,3.8015-13.0379,5.2283-22.9313,5.2283h-.6946c-9.9497,.0188-19.9933-1.3986-23.1096-5.2283-6.749-8.279-2.9474-60.5526-1.6709-70.69,.2441-1.9899,.9575-3.9236,1.9524-5.7258,2.938-5.3878,8.2978-9.7151,10.9823-11.658,.3661-.2723,.6852-.4975,.9387-.6759,.4411-.291,.6852-.4505,.6852-.4505,0,0,.7697-.1033,2.0181-.2535,1.0607-.122,2.4592-.2816,4.0174-.4224,.9668-.0938,1.9993-.1783,3.0506-.2534l-.0093-.1596c.4599,.0282,.9386,.0469,1.3986,.0751,.1877-.0094,.3848-.0188,.5725-.0282,.2816-.0187,.5632-.0281,.8354-.0469l-.0094,.1596c1.6802,.122,3.3135,.2722,4.7214,.413,2.5626,.2722,4.3648,.5163,4.3648,.5163,0,0,.1126,.075,.3285,.2159,.0188,.0093,.0282,.0187,.047,.0375,.1689,.1033,.3942,.2628,.6664,.4412,3.1539,2.2152,12.4653,9.4053,13.5166,17.8156,.1408,1.1076,.3098,2.7315,.4881,4.7402,1.1076,12.0617,2.6752,38.1938,1.0043,54.0383Z" style="fill:#455a64;"></path><path d="M109.7047,350.4575c.6498,1.6785,1.3256,12.8675,.8102,14.6923-.5154,1.8249-20.9574,.8933-23.6551,1.0527-.7735,.0457-.4394-12.0931-.3318-14.1913,.1295-2.5248,2.5942-2.882,6.7976-3.627,10.6173-.84,15.6022,.0663,16.3791,2.0733Z" style="fill:#455a64;"></path><path d="M110.7108,364.8395c.004,.0358-.3253,.1055-.9251,.201-.5996,.0976-1.4709,.2093-2.5503,.3234-2.1585,.2298-5.1541,.4381-8.4679,.4756-3.3151,.0349-6.3148-.1079-8.4777-.2895-1.0817-.0902-1.9552-.1823-2.5567-.2664-.6018-.0821-.9325-.1443-.9293-.1802,.007-.0764,1.3461-.0073,3.5083,.0791,2.1623,.0871,5.1495,.171,8.4497,.1362,3.2989-.0373,6.2833-.1864,8.4431-.3217,2.1598-.1343,3.4972-.2338,3.5059-.1575Z" style="fill:#263238;"></path><path d="M90.3328,364.7576c-.0671,.0099-.2684-.8547-.468-2.274-.2003-1.4185-.3814-3.3941-.4165-5.5822-.0328-2.1888,.087-4.1692,.2432-5.5933,.1556-1.4247,.33-2.295,.3973-2.2872,.0755,.0086,.0308,.8917-.0301,2.3147-.0615,1.423-.1221,3.3876-.0896,5.5578,.0348,2.1693,.1562,4.1309,.2619,5.5514,.1049,1.4203,.177,2.3018,.1018,2.3128Z" style="fill:#263238;"></path><path d="M94.3869,364.9891c-.0688,.0066-.2283-.9236-.382-2.4395-.1542-1.5154-.2909-3.6177-.3201-5.9427-.0277-2.326,.0575-4.4311,.1745-5.9499,.1166-1.5192,.2533-2.4527,.3223-2.4478,.0745,.0051,.0678,.9466,.0456,2.4643-.0227,1.518-.0492,3.6129-.0217,5.927,.0292,2.3132,.1069,4.4067,.1667,5.9236,.0593,1.5168,.0891,2.4579,.0147,2.465Z" style="fill:#263238;"></path><path d="M98.9974,347.7944c.1438-.003,.3414,3.9162,.4415,8.7525,.1,4.838,.0645,8.7611-.0793,8.7641-.1437,.003-.3414-3.9153-.4414-8.7533-.1-4.8364-.0645-8.7603,.0792-8.7633Z" style="fill:#263238;"></path><path d="M103.2608,348.599c.0645-.017,.3696,.8521,.7225,2.297,.3536,1.4439,.7334,3.4688,.9551,5.7296,.2189,2.2618,.237,4.3221,.1686,5.8071-.0674,1.4859-.1991,2.3974-.2656,2.3932-.0769-.0046-.0756-.9215-.1026-2.3977-.0261-1.4762-.1021-3.5128-.3187-5.7521-.2196-2.2382-.5379-4.2511-.7973-5.7046-.2583-1.4536-.4366-2.3532-.362-2.3725Z" style="fill:#263238;"></path><path d="M109.5466,365.2262c-.1587-.0093,.0263-3.3801-.3827-7.502-.3887-4.1253-1.2164-7.3974-1.0624-7.437,.0646-.0174,.3549,.7802,.688,2.1095,.3338,1.3282,.6898,3.1934,.8927,5.2774,.2002,2.0835,.2083,3.9821,.1353,5.3497-.0722,1.3685-.2042,2.2071-.2709,2.2024Z" style="fill:#263238;"></path></g><g style="opacity:.2;"><path d="M75.9164,372.7626l-.0281,.1033c.0093-.0657,.0187-.1033,.0281-.1033Z"></path></g><g style="opacity:.2;"><path d="M124.5386,447.2636c-.5819,3.0506-1.3704,5.369-2.4123,6.6456-3.1069,3.8015-13.0379,5.2283-22.9313,5.2283h-.6946c-9.9497,.0188-19.9933-1.3986-23.1096-5.2283-6.749-8.279-2.9474-60.5526-1.6709-70.69,.2441-1.9899,.9575-3.9236,1.9524-5.7258-.4974,15.2438-.9761,62.4486,3.3229,68.0711,5.1344,6.7208,14.0892,9.0956,27.3429,7.3497,9.5837-1.2672,15.6005-4.1488,18.2005-5.6506Z"></path></g><g><g style="opacity:.3;"><circle cx="100.4529" cy="408.4836" r="16.3029" style="fill:#fff;"></circle></g><path d="M114.2592,400.5088c.8576-1.7573,1.0683-3.8217,.5833-5.716-.0779,1.6759-.6812,3.3237-1.7037,4.6537-.8882,1.1552-2.0897,2.0653-3.4382,2.6164-1.6748-.2621-8.2903,.0838-8.2903,.0838l-7.179-1.262-1.7964-2.5852-.783-1.4253s.1261-.8365,.1371-1.8715c.0554-5.2083-1.0873-5.3619-1.0873-5.3619l-1.3488,2.5305c-.2609-.5631-.5727-1.1027-.9415-1.6018-.1763,.8399-.2262,1.7041-.1634,2.5601l-1.0954,.087s-1.3618-.0117-1.9563,.0443c-.5944,.056-1.3436,.7962-1.6761,1.1442-.2581,.27-2.6577,.3641-3.719,.3926-.2911,.0079-.5203,.244-.5221,.5351-.002,.3243,.0104,.8003,.0655,1.4323,.1149,1.3164,2.1163,2.4353,2.1163,2.4353,0,0,.4303,.6287,1.5177,.1926,.1697-.0681,3.408,.616,3.408,.616l1.1519,1.8868h.0002c.3647,1.0541,1.5046,4.0492,3.4603,6.5984-1.2322-.0411-2.6159,.027-3.3737,.4437-1.5751,.866-2.5323,2.7348-1.1193,4.4212s2.8215,1.8687,3.1428,1.1394c.3212-.7292,.2301-2.1422,.2301-2.1422l3.8654-.3061,2.5612,4.6916s-3.3273,.1268-3.464,2.816l4.9681,.2279s2.0673-1.5497,1.7401-2.8259c-.2047-.7986-.7989-2.9357-1.215-4.4234,.9106-.0343,1.7093-.1989,2.4218-.4279,.1002,.3713,.2829,.7599,.5882,1.1594,1.7064,2.2334,3.1649,1.6865,3.1649,1.8232s-.5013,2.3701-.5013,2.3701c0,0-3.7422-.3191-4.4235,2.3245h5.8365l2.6735-5.432c1.427,.4628,2.1613-.113,2.1964-.0126,.0451,.129,.3089,2.4027,.3089,2.4027,0,0-2.9472,.6925-2.7177,3.4128l4.8187-1.6849,.7851-6.4548-.9892-.6198s-1.0812,1.0505-1.8642-.7744c-.0473-.1103-.0935-.2184-.1386-.3245,.5919-1.0163,1.1983-2.8704,1.2625-4.1861,.0405-.8314-.145-1.6257-.431-2.2886,1.248-.8197,2.2783-1.9722,2.9335-3.3147Z" style="fill:#fff;"></path></g><path d="M82.9856,428.6478s-.5197,3.5769,.6236,4.7692,29.5578-.0917,29.5578-.0917l-.4559-5.2278-29.7255,.5503Z" style="fill:#fff;"></path></g></g><g id="Sparkles"><path d="M326.55289,391.923l-2.7025,1.478,2.7025,1.478c.852,.466,1.5525,1.1665,2.0184,2.0184l1.4781,2.7025,1.478-2.7025c.4659-.8519,1.1664-1.5524,2.0185-2.0184l2.7024-1.478-2.7024-1.478c-.8521-.466-1.5526-1.1665-2.0185-2.0185l-1.478-2.7024-1.4781,2.7024c-.4659,.852-1.1664,1.5525-2.0184,2.0185Z" style="fill:#fff;"></path><path d="M311.61449,404.5973l-1.0938,.5982,1.0938,.5983c.3449,.1885,.6284,.4721,.817,.8169l.5982,1.0938,.5982-1.0938c.1886-.3448,.47211-.6284,.817-.8169l1.0938-.5983-1.0938-.5982c-.34489-.1886-.6284-.4721-.817-.817l-.5982-1.0937-.5982,1.0937c-.1886,.3449-.4721,.6284-.817,.817Z" style="fill:#fff;"></path><path d="M160.24389,394.107l-1.6502,.9026,1.6502,.9025c.5203,.2845,.948,.7123,1.2326,1.2326l.90251,1.6502,.90259-1.6502c.2845-.5203,.7123-.9481,1.2326-1.2326l1.6502-.9025-1.6502-.9026c-.5203-.2845-.9481-.7123-1.2326-1.2326l-.90259-1.6502-.90251,1.6502c-.2846,.5203-.7123,.9481-1.2326,1.2326Z" style="fill:#fff;"></path><path d="M285.70339,288.4263l-1.4398,.7876,1.4398,.7874c.454,.2483,.8272,.6215,1.0755,1.0754l.7874,1.4399,.7875-1.4399c.2483-.4539,.6215-.8271,1.0754-1.0754l1.4399-.7874-1.4399-.7876c-.4539-.2482-.8271-.6215-1.0754-1.0754l-.7875-1.4399-.7874,1.4399c-.2483,.4539-.6215,.8272-1.0755,1.0754Z" style="fill:#fff;"></path><path d="M249.944,174.1257l-1.43991,.7875,1.43991,.7875c.45389,.2482,.82709,.6215,1.07539,1.0754l.7875,1.4399,.7875-1.4399c.2483-.4539,.6215-.8272,1.0754-1.0754l1.4398-.7875-1.4398-.7875c-.4539-.2483-.8271-.6215-1.0754-1.0754l-.7875-1.4399-.7875,1.4399c-.2483,.4539-.6215,.8271-1.07539,1.0754Z" style="fill:#fff;"></path><path d="M280.59659,304.1986l-.821,.4491,.821,.449c.2589,.1415,.4717,.3544,.6133,.6132l.449,.8211,.44911-.8211c.14149-.2588,.35429-.4717,.61319-.6132l.821-.449-.821-.4491c-.2589-.1416-.4717-.3544-.61319-.6132l-.44911-.8211-.449,.8211c-.1416,.2588-.3544,.4716-.6133,.6132Z" style="fill:#fff;"></path><path d="M158.25859,302.7643l-.821,.4491,.821,.449c.2589,.1416,.4717,.3544,.6133,.6132l.449,.8211,.44911-.8211c.14149-.2588,.35439-.4716,.61319-.6132l.821-.449-.821-.4491c-.2588-.1416-.4717-.3544-.61319-.6132l-.44911-.8211-.449,.8211c-.1416,.2588-.3544,.4716-.6133,.6132Z" style="fill:#fff;"></path></g></svg>
