<svg xmlns="http://www.w3.org/2000/svg" viewBox="0 0 500 500"><path d="M372.07 203.87a6.52 6.52 0 1 1-6.52-6.52 6.52 6.52 0 0 1 6.52 6.52" style="fill:#f5f5f5"/><path d="M360.78 204.75c-.06 0-.27-.26-.41-.81a3.75 3.75 0 0 1 .12-2.17 3.86 3.86 0 0 1 1.27-1.77c.46-.34.8-.43.83-.37a5.3 5.3 0 0 0-1.81 5.12m2.78 3.25c0 .14-.63.18-1.2-.27s-.68-1.06-.55-1.09.42.34.87.68.89.48.88.68" style="fill:#fff"/><path d="M472.3 283.75a6.52 6.52 0 1 1-6.52-6.52 6.52 6.52 0 0 1 6.52 6.52" style="fill:#f5f5f5"/><path d="M461 284.62c-.06 0-.27-.26-.41-.8a3.86 3.86 0 0 1 .11-2.18 3.94 3.94 0 0 1 1.28-1.77c.45-.34.8-.43.83-.37a5.3 5.3 0 0 0-1.81 5.12m2.78 3.2c0 .14-.62.18-1.19-.26s-.68-1.06-.55-1.1.42.34.87.69.89.52.87.67" style="fill:#fff"/><circle cx="40.8" cy="395.15" r="12.8" style="fill:#f5f5f5"/><path d="M31.43 396.87a3.4 3.4 0 0 1-.62-1.61 7.76 7.76 0 0 1 2.68-7.58 3.5 3.5 0 0 1 1.49-.86c.05.07-.51.41-1.25 1.13a8.9 8.9 0 0 0-2.14 3.32 8.74 8.74 0 0 0-.42 3.93c.12 1.03.34 1.64.26 1.67m5.45 6.28c0 .14-1.13.12-2.19-.71s-1.36-1.93-1.23-2 .61.82 1.55 1.55 1.9 1.01 1.87 1.16" style="fill:#fff"/><path d="M109.13 279.67a6.52 6.52 0 1 1-6.52-6.52 6.52 6.52 0 0 1 6.52 6.52" style="fill:#f5f5f5"/><path d="M97.84 280.55c-.06 0-.27-.26-.41-.81a3.83 3.83 0 0 1 .11-2.17 3.94 3.94 0 0 1 1.28-1.77c.45-.34.8-.43.83-.37a7.7 7.7 0 0 0-1.65 2.31 7.9 7.9 0 0 0-.16 2.81m2.77 3.2c0 .14-.62.18-1.19-.27s-.68-1.06-.55-1.09.42.34.87.68.89.53.87.68" style="fill:#fff"/><path d="M129.1 41.94a6.53 6.53 0 1 1-6.52-6.52 6.52 6.52 0 0 1 6.52 6.52" style="fill:#f5f5f5"/><path d="M117.8 42.81c-.06 0-.27-.25-.41-.8a3.88 3.88 0 0 1 1.4-3.95c.45-.33.79-.42.82-.37A8.5 8.5 0 0 0 118 40a8.1 8.1 0 0 0-.2 2.81m2.78 3.19c0 .14-.63.19-1.2-.26s-.68-1.06-.54-1.1.41.35.86.69.9.54.88.67" style="fill:#fff"/><path d="M328.12 147.88a6.52 6.52 0 1 1-6.52-6.52 6.52 6.52 0 0 1 6.52 6.52m14.58-90.62a6.53 6.53 0 1 1-6.53-6.52 6.52 6.52 0 0 1 6.53 6.52" style="fill:#f5f5f5"/><path d="M316.83 148.76c-.06 0-.27-.26-.41-.81a3.83 3.83 0 0 1 .11-2.17 3.94 3.94 0 0 1 1.28-1.77c.45-.34.8-.43.83-.37A7.7 7.7 0 0 0 317 146a7.9 7.9 0 0 0-.17 2.76m2.77 3.24c0 .14-.62.18-1.19-.27s-.68-1.06-.55-1.09.42.34.87.68.89.49.87.68" style="fill:#fff"/><circle cx="191.63" cy="151.96" r="10.02" style="fill:#f5f5f5" transform="rotate(-76.66 191.622 151.96)"/><path d="M184.29 153.3c-.06 0-.35-.42-.53-1.25a6.05 6.05 0 0 1 2.11-6c.67-.53 1.17-.7 1.2-.64s-.39.35-.95.92a6.75 6.75 0 0 0-2 5.64 8 8 0 0 1 .17 1.33m4.27 4.92c0 .13-.91.15-1.76-.52s-1.06-1.54-.92-1.57.52.61 1.24 1.16 1.46.78 1.44.93" style="fill:#fff"/><circle cx="111.62" cy="335.18" r="11.88" style="fill:#f5f5f5" transform="rotate(-45.89 111.645 335.2)"/><path d="M102.92 336.77a3.13 3.13 0 0 1-.59-1.49 7.22 7.22 0 0 1 2.49-7 3.1 3.1 0 0 1 1.4-.79c0 .07-.47.39-1.15 1.06a7.92 7.92 0 0 0-2.38 6.72 12 12 0 0 1 .23 1.5m5.08 5.83c0 .13-1.06.13-2-.65s-1.25-1.8-1.12-1.83.57.75 1.45 1.42 1.67.91 1.67 1.06" style="fill:#fff"/><circle cx="65.36" cy="85.62" r="21.84" style="fill:#f5f5f5" transform="rotate(-76.91 65.364 85.615)"/><path d="M49.37 88.54a2.2 2.2 0 0 1-.35-.7 11.3 11.3 0 0 1-.58-2.06A13.48 13.48 0 0 1 53 73a11 11 0 0 1 1.75-1.24 2 2 0 0 1 .71-.32c0 .08-.93.62-2.22 1.83a14.21 14.21 0 0 0-4.44 12.45c.2 1.75.66 2.79.57 2.82m9.31 10.71a6.47 6.47 0 0 1-5.84-4.55 17.5 17.5 0 0 0 2.52 2.78 17.7 17.7 0 0 0 3.32 1.77" style="fill:#fff"/><circle cx="434.86" cy="63.78" r="21.84" style="fill:#f5f5f5"/><path d="M418.87 66.7s-.17-.23-.36-.7a11.3 11.3 0 0 1-.58-2.06 13.55 13.55 0 0 1 4.53-12.82 12 12 0 0 1 1.75-1.24 2.1 2.1 0 0 1 .72-.32c.05.08-.93.62-2.22 1.84a14.22 14.22 0 0 0-4.42 12.48c.25 1.76.71 2.79.58 2.82m9.3 10.71a6.47 6.47 0 0 1-5.83-4.55 17.5 17.5 0 0 0 2.52 2.78 17.4 17.4 0 0 0 3.31 1.77" style="fill:#fff"/><circle cx="168.88" cy="79.97" r="10.92" style="fill:#f5f5f5"/><path d="M160.88 81.43a2.7 2.7 0 0 1-.56-1.36 6.64 6.64 0 0 1 2.3-6.5 2.7 2.7 0 0 1 1.29-.71c.05.07-.42.37-1 1a7.31 7.31 0 0 0-2.22 6.14 9.6 9.6 0 0 1 .19 1.43m4.66 5.36c0 .14-1 .14-1.9-.58s-1.16-1.67-1-1.7.54.68 1.34 1.29 1.58.84 1.56.99" style="fill:#fff"/><circle cx="451.42" cy="127.47" r="10.92" style="fill:#f5f5f5"/><path d="M443.42 128.93a2.6 2.6 0 0 1-.55-1.36 6.61 6.61 0 0 1 2.29-6.5 2.77 2.77 0 0 1 1.3-.71c0 .07-.43.37-1 1a7.27 7.27 0 0 0-2.18 6.16 10 10 0 0 1 .14 1.41m4.66 5.36c0 .14-1 .14-1.9-.58s-1.16-1.67-1-1.7.55.68 1.34 1.29 1.58.84 1.56.99" style="fill:#fff"/><circle cx="426.19" cy="429.16" r="10.92" style="fill:#f5f5f5" transform="rotate(-45 426.192 429.155)"/><path d="M418.19 430.62a2.7 2.7 0 0 1-.56-1.36 6.64 6.64 0 0 1 2.3-6.5 2.8 2.8 0 0 1 1.29-.71c0 .07-.42.37-1 1a7.5 7.5 0 0 0-1.82 2.82 7.6 7.6 0 0 0-.36 3.34 10 10 0 0 1 .15 1.41m4.66 5.38c0 .14-1 .14-1.9-.58s-1.16-1.67-1-1.7.54.68 1.34 1.29 1.58.82 1.56.99" style="fill:#fff"/><path d="M396.6 350.7a6.86 6.86 0 1 1-6.85-6.86 6.86 6.86 0 0 1 6.85 6.86" style="fill:#f5f5f5"/><path d="M401.12 342.29c-.06 0-.28-.27-.42-.85a4.06 4.06 0 0 1 1.46-4.14c.47-.35.83-.45.86-.39a5.45 5.45 0 0 0-1.9 5.38m2.88 3.36c0 .14-.66.19-1.25-.28s-.72-1.11-.59-1.15.43.38.91.74.99.55.93.69" style="fill:#fff"/><circle cx="78.02" cy="438.8" r="6.86" style="fill:#f5f5f5"/><path d="M89.39 430.39c-.06 0-.28-.27-.42-.85a4 4 0 0 1 1.46-4.13c.47-.36.83-.46.86-.4a8.2 8.2 0 0 0-1.7 2.42 7.9 7.9 0 0 0-.2 2.96m2.92 3.37c0 .14-.65.18-1.25-.29s-.72-1.11-.58-1.14.42.37.9.73.95.55.93.7" style="fill:#fff"/><path d="M459.51 462.55c0 .14-93.45.26-208.69.26s-208.71-.12-208.71-.26 93.43-.26 208.71-.26 208.69.12 208.69.26" style="fill:#263238"/><path d="M369.27 108.2 375 97.78l2.39-6.15 3.26-.41 1.27-1.51-.49-3.91-1.7-1.87s4.87-.24 4.94 3.55c.08 4.62 1.56 9.1-2.27 11.87l-2.21.7-5.53 10Z" style="fill:#e0e0e0"/><path d="M390.13 105.9 382 97.21l-4-4.76a1.24 1.24 0 0 0-1.13-.44l-2 .25-1.61-1.16-.68-3.32 1.06-2.19a.31.31 0 0 0-.38-.44c-1.28.43-3.88 1.67-3.21 4.48 1.06 4.49.74 9.19 5.13 10.94l2.31.12 7.91 8.31Z" style="fill:#fafafa"/><path d="M390.13 105.9a2 2 0 0 1-.28.21l-.88.63-3.49 2.38-.09.07-.09-.09-7.89-8.25.15.07-2.31-.12h-.07a6.05 6.05 0 0 1-2.78-2.12 9.2 9.2 0 0 1-1.4-3.39c-.3-1.21-.48-2.46-.7-3.71-.11-.63-.24-1.26-.38-1.88a3.5 3.5 0 0 1 .09-2.09 4.8 4.8 0 0 1 2.87-2.55l.46-.16a.56.56 0 0 1 .67.34.58.58 0 0 1 0 .41c-.05.12-.07.15-.11.23l-.2.4c-.26.55-.52 1.08-.78 1.61v-.16c.23 1.13.45 2.24.67 3.32l-.1-.15 1.61 1.16h-.17l1.15-.15a8.4 8.4 0 0 1 1.19-.1 1.6 1.6 0 0 1 1.08.65l.69.84 2.62 3.16c1.69 2 3.3 3.65 4.55 5.06s2.21 2.47 2.94 3.27c.3.35.55.63.76.86a2 2 0 0 1 .23.29 2.6 2.6 0 0 1-.31-.3l-.84-.85-3.06-3.18c-1.29-1.37-2.88-2.94-4.58-4.88l-2.65-3.14c-.23-.28-.47-.55-.7-.84a1.14 1.14 0 0 0-.78-.47 6.4 6.4 0 0 0-1.08.11l-1.14.11h-.1l-.07-.06-1.63-1.14h-.08v-.1c-.23-1.08-.45-2.19-.69-3.32v-.16l.78-1.61.2-.41.08-.18h-.06a3 3 0 0 0-.4.15 4.3 4.3 0 0 0-2.58 2.24 3 3 0 0 0-.07 1.79c.15.64.28 1.28.39 1.91.22 1.26.4 2.5.68 3.68a9 9 0 0 0 1.34 3.21 5.66 5.66 0 0 0 2.56 2h-.08l2.32.14h.09l.06.07 7.77 8.36h-.18l3.49-2.19 1-.59Z" style="fill:#263238"/><path d="M371.09 106.09s-4.5-.06-5.8 7-4.42 16.32-3.43 23.4 2.29 23.41 8.81 22.69c4.84-.53-.16-9.58-.31-21.57 0 0-.61-3.16 1.43-9.37s3.9-10.51 5.59-12.81.8-5.22-1.74-7.19a9.6 9.6 0 0 0-4.55-2.15" style="fill:#2d9f82"/><path d="M380.27 96.75a2.13 2.13 0 1 1-2.37-1.84 2.13 2.13 0 0 1 2.37 1.84" style="fill:#e0e0e0"/><path d="M380.27 96.75s-.08-.18-.22-.47a2.16 2.16 0 0 0-.91-.94 2 2 0 0 0-1.84 0 1.9 1.9 0 0 0 .45 3.52 2 2 0 0 0 1.77-.45 2.07 2.07 0 0 0 .65-1.15c.07-.31.06-.5.1-.51s.11.18.1.54a2.06 2.06 0 0 1-.59 1.38 2.31 2.31 0 0 1-2.14.66 2.36 2.36 0 0 1-.55-4.42 2.29 2.29 0 0 1 2.23.11 2.17 2.17 0 0 1 .92 1.19c.09.34.06.54.03.54" style="fill:#263238"/><path d="M387.29 104.06s4.34-1.18 7.35 5.34 8.33 14.71 9.12 21.82 3.58 23.25-2.91 24.17c-4.82.68-2.22-9.33-5-21 0 0-.2-3.21-3.71-8.72s-6.38-9.22-8.59-11-2.07-4.86-.1-7.4a9.5 9.5 0 0 1 3.84-3.21" style="fill:#2d9f82"/><circle cx="120.35" cy="125.38" r="22.79" style="fill:#2d9f82" transform="rotate(-76.86 120.344 125.38)"/><path d="M131.07 105.19a22.8 22.8 0 0 1-28 35 22.8 22.8 0 1 0 28-35" style="opacity:.30000000000000004"/><path d="M103.23 135.72a3.8 3.8 0 0 1-.66-.81 15 15 0 0 1-1.4-2.49 17.22 17.22 0 0 1 2.28-17.86 15.5 15.5 0 0 1 2-2.06 3.7 3.7 0 0 1 .85-.62c.07.07-1.12 1-2.53 2.9a17.84 17.84 0 0 0-2.23 17.5c.86 2.2 1.78 3.39 1.69 3.44" style="fill:#fff"/><path d="M282.47 75.83a8.75 8.75 0 0 0-8.15-3.14 10.61 10.61 0 0 0-17.53-5.18 27 27 0 0 0-11.23-5.89 16.4 16.4 0 0 0-12.33 1.88 11.83 11.83 0 0 0-5.51 10.85 8.21 8.21 0 0 0-9.17 10.06l65.1.07a8.73 8.73 0 0 0-1.18-8.65" style="fill:#ae7461"/><path d="m301.35 108.35-8.91-24.94A5.14 5.14 0 0 0 287.6 80h-69.86a5.15 5.15 0 0 0-4.85 3.42L204 108.35h-5.45v7H306.8v-7Z" style="fill:#2d9f82"/><path d="M261.45 57c-.67-.6-1.85-.24-2.27-.1l-.79-.46-3.27-1.92c-.09-.42-.37-1.63-1.24-1.9s-1.15.12-1.36.45a2.9 2.9 0 0 0-.26 1.08 3.2 3.2 0 0 0-.78.78c-.18.35-.37.79.31 1.4s1.85.25 2.26.11l2.42 1.41 1.6.94c.09.42.37 1.62 1.24 1.9s1.15-.12 1.36-.45a3.2 3.2 0 0 0 .28-1.07 3 3 0 0 0 .81-.76 1 1 0 0 0-.31-1.41" style="fill:#ae7461"/><path d="M307.55 108.64c0 .14-24.55.26-54.83.26s-54.84-.12-54.84-.26 24.55-.27 54.84-.27 54.83.12 54.83.27" style="fill:#263238"/><path d="M250.83 69.08c-.9-.07-1.61.94-1.85 1.3l-.91.12-3.76.48c-.33-.28-1.3-1-2.14-.74s-.85.8-.81 1.19a2.9 2.9 0 0 0 .46 1 3.2 3.2 0 0 0-.14 1.09c.07.39.19.85 1.1.92s1.62-.94 1.86-1.3l2.77-.35 1.84-.25c.33.28 1.29 1.06 2.14.75s.84-.8.81-1.19a3.3 3.3 0 0 0-.43-1 2.9 2.9 0 0 0 .16-1.1c-.07-.39-.18-.85-1.1-.92m20.1 7.13c-.45-.78-1.69-.8-2.12-.79l-.62-.68-2.52-2.83c0-.43.14-1.66-.6-2.19a1 1 0 0 0-1.43 0 2.9 2.9 0 0 0-.58 1 3.1 3.1 0 0 0-1 .5 1 1 0 0 0-.14 1.43c.46.79 1.69.8 2.13.8l1.86 2.08 1.24 1.38c-.05.44-.15 1.67.59 2.19s1.14.25 1.44 0a3.2 3.2 0 0 0 .59-.93 3.1 3.1 0 0 0 1-.48 1 1 0 0 0 .16-1.48" style="fill:#6f4439"/><path d="m32 215.81 7.73-.28a1.25 1.25 0 1 0 0-2.5l-7.73.28a1.25 1.25 0 1 0 0 2.5m.43 4.98 7.73-.28a1.25 1.25 0 0 0 0-2.5l-7.73.28a1.25 1.25 0 0 0 0 2.5" style="fill:#e0e0e0"/><path d="M62.11 254.22a47.4 47.4 0 0 1-.87 11.4 38.4 38.4 0 0 1-3.33 10.17 7 7 0 0 1-2.77 3.14c-1.75.9-3.8.36-5.53-.31a23.3 23.3 0 0 1-7.49-4.81 22.27 22.27 0 0 1-7.22-15.52A20.6 20.6 0 0 1 41.46 243c11.35-10.44 27.78-1.49 40.5.5 4.93.77 11.46.64 14.49-4.08a8.92 8.92 0 0 0 .27-8.41A15.35 15.35 0 0 0 90 224.3a75.6 75.6 0 0 0-22.49-8.07 84.9 84.9 0 0 0-24.06-1.42c-1.59.13-1.61 2.63 0 2.5a82.2 82.2 0 0 1 43.43 8.15c3.06 1.54 6.36 3.52 7.7 6.85 1.1 2.75.57 5.87-2 7.52-2.34 1.48-5.33 1.67-8 1.47a57.6 57.6 0 0 1-10.62-2.2c-7.19-1.95-14.57-4.19-22.11-3.27a21.4 21.4 0 0 0-15.32 9.1 23 23 0 0 0-3.8 16.55 25.35 25.35 0 0 0 8.76 15.08 23.7 23.7 0 0 0 9.15 5 7.76 7.76 0 0 0 8.81-3.4c2.15-3.25 3.28-7.45 4.1-11.21a50.5 50.5 0 0 0 1.1-12.74c-.06-1.6-2.56-1.61-2.5 0Zm-14.62-58.94-1.7-.76c-3-1.37-3.56-4.29-3-8 1.41-6.22 3.62-11.91 7.42-16.52 2.5-2.76 4.93-4.39 8-3l1.7.76Z" style="fill:#263238"/><path d="M47.49 195.28c1.35-11 4.85-20.7 12.48-27.81 0 0 8.58-3.11 29.37 6.92s12.2 13.13 43.78 27.54l-11.87 26.45s-31.85-15.76-36.69-8.65c-2.21 3.23 2.08 5-5.55 22-2.41 5.37-3.56 8.09-4.83 10.91S67 259.6 62.93 257.5s-7-7.81-5.09-11.89c4.65-9.74 6.17-14.36 7.36-21.36.75-4.47 1.3-7 .82-9.36-1.32-6.47-9.23-11.52-18.53-19.61" style="fill:#2d9f82"/><path d="M129.35 216.12c-3.28 7.31-6.91 12.8-8.1 12.26s.5-6.89 3.78-14.2 6.91-12.8 8.1-12.27-.5 6.9-3.78 14.21" style="fill:#2d9f82"/><path d="M128.84 215.89c-3 6.6-6.1 11.62-7 11.21s.75-6.09 3.71-12.69 6.1-11.62 7-11.21-.75 6.09-3.71 12.69" style="opacity:.30000000000000004"/><path d="M81.21 231c-.91 2-2.66 3.21-3.91 2.65s-1.53-2.65-.62-4.65 2.66-3.22 3.91-2.66 1.53 2.66.62 4.66m-21.86 11 16.29 7.31-1.7 3.8a8.93 8.93 0 0 1-11.81 4.49 8.94 8.94 0 0 1-4.49-11.81Z" style="fill:#263238"/><path d="M94.78 206.99h15.32v2.66H94.78z" style="fill:#fff" transform="rotate(24.17 102.44 208.33)"/><path d="m35.49 222.64-1.22-12 5.39-.55a6 6 0 0 1 6.62 5.4 6 6 0 0 1-5.39 6.62Z" style="fill:#263238"/><path d="M201.73 350.2c-8.48-10.25-21.38-7.75-26.63-4.86s-11.29 13-12.06 19a15.66 15.66 0 0 0-15.55 24.34c-9.08.48-21.84 15.48-13.63 19.39 2.8 1.33 78.65 1.33 78.65 1.33Zm-55.84 46.14a1.94 1.94 0 1 1 1.94-1.94 1.94 1.94 0 0 1-1.94 1.94m6-1.92a1.21 1.21 0 0 1-1.56.65 1.19 1.19 0 0 1 .91-2.2 1.18 1.18 0 0 1 .64 1.55Zm227.51 12.67c0-11.55-12.87-19-20.85-16.2 5.51-6.37 1.93-17.33-5.48-21.35s-16.78-2.41-24.22 1.54a23.54 23.54 0 0 0-7.56-22c-6.17-5.3-16.12-8.66-22.91-4.17-4.05 2.67-12.36 67.52-9.17 68s18.77 6.24 19.63 5.67 70.56-11.49 70.56-11.49m-118.27-192.8c-4.93-6.13-14.85-7.44-21.21-2.8-3.15 2.31-5.45 6.4-4.23 10.11a6.71 6.71 0 0 0-2.69 12.08l26.28 1.93c5.94-5.22 6.78-15.18 1.85-21.32m-19.13 5a2.53 2.53 0 1 1 2.53-2.53 2.53 2.53 0 0 1-2.53 2.52Zm2.86-5.06a.87.87 0 1 1 .88-.87.87.87 0 0 1-.88.86Z" style="fill:#e0e0e0"/><path d="M216.82 391.84c-5.06 3.71-7.56 10.13-8 16.39s1 12.49 2.41 18.6c-2.79-1.2-6.2 1.3-6.59 4.32s1.61 6 4.22 7.51 5.73 2 8.77 2.22a152 152 0 0 0 15.26.08c3.28-.09 6.84-.29 9.33-2.44 2.72-2.35 3.3-6.3 3.47-9.9a86.1 86.1 0 0 0-2.91-26.62" style="fill:#6f4439"/><path d="M315.45 355.76s-1.25-19.54-8.9-30.79c-5.83-8.59-21.45-24.43-21.45-24.43l-77.4 7s-19 26.61-15.24 55.84a278 278 0 0 1 .83 57s-13.33 3.11-7.94 19.47H203s3.83.09 8.48-5.29 8.22-40.51 9.58-47.72L218 405.29c.28.82 14.55 18.8 38.71 20.31s27.44-1.23 27.44-1.23l35.28-44.88Z" style="fill:#ae7461"/><path d="M284 386.48c.48.16 3.48 9 3.64 17.24s-2.37 27.21-1.82 32.91 3.72 7.91 9.89 9 19.93.95 21.36-2.84 3.48-9.5-2.85-13-7.44-9.21-7.12-13.46 7.34-27.88 8.23-37.32-3.1-20.92-3.1-20.92l-18.89 8.42Z" style="fill:#ae7461"/><path d="M311.38 382.21s6.49-6.33 14.4 0 5.85 34.48 3.48 38.91l-.79 1.9s10.6-1.58 10.12 16.14c0 0-13.06 6.44-21.24 2.9s-16.06-10.18-16.06-10.18l-3-24.52Z" style="fill:#ae7461"/><path d="M225.34 368.92a12 12 0 0 1-.25 1.77c-.22 1.21-.5 2.83-.84 4.79-.71 4.13-1.67 9.68-2.73 15.82s-2.08 11.77-2.89 15.8c-.4 2-.74 3.64-1 4.76a13 13 0 0 1-.45 1.73 11.6 11.6 0 0 1 .25-1.77c.22-1.21.5-2.83.84-4.79.71-4.13 1.67-9.68 2.73-15.82s2.08-11.77 2.89-15.8c.4-2 .74-3.64 1-4.76a11.5 11.5 0 0 1 .45-1.73m59.08-3.06c.15 0 .84 8.53 1.56 19.06s1.18 19.09 1 19.1-.84-8.52-1.56-19.06-1.14-19.09-1-19.1m30.3-18.63a3 3 0 0 1 .11.71c.05.51.11 1.18.19 2s.17 2 .27 3.2.17 2.69.26 4.26a186 186 0 0 1-.24 24.66c-.4 4.8-1 9.36-1.74 13.47s-1.61 7.78-2.4 10.84-1.55 5.49-2.09 7.17c-.26.8-.48 1.44-.64 1.93a3 3 0 0 1-.26.66 5 5 0 0 1 .16-.69l.55-1.95c.48-1.7 1.16-4.16 1.92-7.22s1.6-6.71 2.29-10.82 1.3-8.65 1.69-13.44a207 207 0 0 0 .39-24.6c-.06-1.57-.12-3-.18-4.25s-.13-2.31-.18-3.21-.07-1.51-.1-2a6 6 0 0 1 0-.72" style="fill:#263238"/><g style="opacity:.30000000000000004"><path d="M272.82 382.78a64.2 64.2 0 0 0-2.24-13.67c-1.4-4.41-3.87-8.62-7.66-11.28-5.81-4.09-14-3.77-20.17-.2s-10.3 9.95-12.34 16.76-2.12 14-1.57 21.13 1.71 14.11 2.13 21.2l44.29-7q-1.26-13.44-2.44-26.94" style="fill:#fff"/></g><path d="M272.39 314.32c0-4.92-3.61-9.18-7.75-11.85a30.4 30.4 0 0 0-16.06-4.67c-4-.05-8.15.71-11.25 3.2a14.05 14.05 0 0 0-4.94 10.37c-.18 3.95-2.9 7.23-1 10.71a38.93 38.93 0 0 0 24.18 5.9 22.77 22.77 0 0 0 11.2-3.66c3.23-2.32 5.63-6.02 5.62-10" style="fill:#6f4439"/><path d="m298.45 297.76.51-9.11s.48-4.27-5.29-28.82c-7.61-32.39-49-29.06-49-29.06-3.9-.14-40.68.68-45.38 35.47-2.52 18.65-.28 25.46-.28 25.46l2.7 12s3.38 23.6 22.33 26.14c0 0 5.17 1.28 11.1-9.8 5.78-10.78 4.76-16 13.49-18.46 10.93.83 10.56 7.07 18.17 17s12.51 7.92 12.51 7.92c18.31-5.5 19.14-28.74 19.14-28.74" style="fill:#ae7461"/><path d="M223 282.2a6.6 6.6 0 1 1 1.24-9.24 6.59 6.59 0 0 1-1.24 9.24m59-3.78a6.6 6.6 0 1 1 1.23-9.24 6.6 6.6 0 0 1-1.23 9.24" style="fill:#263238"/><path d="M298 301.81c-18.5-16.51-27.31-27.59-43.48-29.52l-.89-.09a31.3 31.3 0 0 0-27.3 8.53c-4.88 4.9-6.88 12.23-12.69 16-2.56 1.65-7.61 3-9.64 5.22a8.3 8.3 0 0 0-1.89 3.62c1.26 5.64 6.28 22.15 22 24.25 0 0 5.17 1.28 11.1-9.8 5.78-10.78 4.76-16 13.49-18.46 10.93.83 10.56 7.07 18.17 17s12.51 7.92 12.51 7.92c13.45-4.04 17.43-17.76 18.62-24.67" style="opacity:.2"/><path d="M258.06 279.25a5.48 5.48 0 0 0-2.59-2.34h-.06a9.6 9.6 0 0 0-2.19-.78 15.1 15.1 0 0 0-10.82.44 8.37 8.37 0 0 0-4.16 3.22 4 4 0 0 0 .48 4.92c1.42 1.27 3.66 1 5.29 2a17.2 17.2 0 0 1 2.65 2.55c.89.84 2.24 1.46 3.33.89 1.38-.72 1.41-2.8 2.62-3.79s2.89-.59 4.15-1.36c1.63-1 2.09-4 1.3-5.75" style="fill:#263238"/><path d="M271.05 278.28a3.5 3.5 0 0 1-.56-.27l-1.56-.81a59 59 0 0 0-5.88-2.63 42.8 42.8 0 0 0-9.22-2.35 32.7 32.7 0 0 0-11.58.44 27.9 27.9 0 0 0-10.53 4.74 24.3 24.3 0 0 0-3.74 3.42 34 34 0 0 0-2.66 3.54c-1.5 2.27-2.64 4.17-3.51 5.43-.44.63-.79 1.11-1 1.42a2.3 2.3 0 0 1-.41.47 4 4 0 0 1 .32-.53l.95-1.48c.82-1.28 1.9-3.2 3.37-5.51a34 34 0 0 1 2.65-3.63 24.6 24.6 0 0 1 3.77-3.52 28.1 28.1 0 0 1 10.71-4.86 32.7 32.7 0 0 1 11.76-.41 41.2 41.2 0 0 1 9.28 2.49A49 49 0 0 1 269 277c.67.37 1.17.69 1.51.9a2.6 2.6 0 0 1 .54.38" style="fill:#263238"/><path d="M201.29 201.49c-4.17-4.75-9.34-9.92-15.64-9.38-4.12.35-7.7 3.25-9.8 6.81s-2.89 7.73-3.35 11.84a81.7 81.7 0 0 0 8.75 46.58c3.73 7.13 9.34 14.23 17.27 15.56l31.68-38.51q-14.44-16.45-28.91-32.9M288 200c3.93-5 8.83-10.39 15.15-10.18 4.13.14 7.85 2.85 10.13 6.31s3.29 7.57 4 11.65a81.8 81.8 0 0 1-6.35 47c-3.36 7.3-8.61 14.69-16.46 16.42l-33.67-36.89Q274.4 217.15 288 200" style="fill:#ae7461"/><path d="M226.76 234.65a14 14 0 0 1-1.67.69 43 43 0 0 0-4.44 2.09 38.1 38.1 0 0 0-19.05 24.92 38 38 0 0 0-.85 4.84 18 18 0 0 1-.23 1.79 1.4 1.4 0 0 1 0-.47v-1.34a33 33 0 0 1 .7-4.9 36.95 36.95 0 0 1 19.24-25.16 33 33 0 0 1 4.54-2c.55-.2 1-.31 1.28-.4a2.3 2.3 0 0 1 .48-.06m17.91-3.88a2.4 2.4 0 0 1 .62-.09c.42 0 1-.07 1.81-.1a63 63 0 0 1 6.67.16A58.6 58.6 0 0 1 275 236.2a38.2 38.2 0 0 1 9.88 7 32.3 32.3 0 0 1 5.81 8 34.4 34.4 0 0 1 2.43 6.22c.18.72.32 1.3.44 1.76a2.5 2.5 0 0 1 .11.62 3.6 3.6 0 0 1-.21-.6c-.14-.44-.32-1-.53-1.72a39 39 0 0 0-2.56-6.11 32.9 32.9 0 0 0-5.83-7.84 38.8 38.8 0 0 0-9.77-6.9 60.6 60.6 0 0 0-21-5.55 76 76 0 0 0-6.63-.33h-1.84a3 3 0 0 1-.63.02m53.78 66.99v.67c0 .44-.08 1.09-.18 1.94a43 43 0 0 1-1.54 7.27A33.8 33.8 0 0 1 291.6 318a24.2 24.2 0 0 1-5.08 5.09 23.7 23.7 0 0 1-7.15 3.58 4.8 4.8 0 0 1-2.37.1 8.6 8.6 0 0 1-2.26-.72 16.6 16.6 0 0 1-4-2.75 42.8 42.8 0 0 1-6.5-7.88c-1-1.46-1.91-3-2.83-4.54a39 39 0 0 0-3-4.53 11.1 11.1 0 0 0-4.3-3.35 17.7 17.7 0 0 0-5.5-1.23h.09a14.7 14.7 0 0 0-4.41 2c-2.49 1.76-3.69 4.67-4.84 7.39s-2.3 5.49-3.64 8.05a33.6 33.6 0 0 1-4.7 7.09 15 15 0 0 1-3.18 2.65 6.15 6.15 0 0 1-4 1 22.14 22.14 0 0 1-10.25-4.15 27.2 27.2 0 0 1-6.67-7.39 39.7 39.7 0 0 1-3.71-7.83 40.4 40.4 0 0 1-1.8-7c-.84-3.82-1.49-6.81-1.94-8.87-.21-1-.37-1.77-.49-2.32l-.11-.6a1 1 0 0 1 0-.2.6.6 0 0 1 .06.2l.15.58c.14.55.32 1.31.56 2.31l2.06 8.84a42.6 42.6 0 0 0 1.86 6.91 39 39 0 0 0 3.72 7.73 26.9 26.9 0 0 0 6.6 7.25 21.8 21.8 0 0 0 10 4 5.82 5.82 0 0 0 3.58-1 14.6 14.6 0 0 0 3.06-2.57 34 34 0 0 0 4.62-7c1.33-2.55 2.47-5.25 3.61-8a34 34 0 0 1 1.95-4.11 10.8 10.8 0 0 1 3.07-3.5 15.1 15.1 0 0 1 4.57-2.11h.09a18.3 18.3 0 0 1 5.67 1.28 11.7 11.7 0 0 1 4.49 3.49 43 43 0 0 1 3.06 4.6c.92 1.56 1.85 3.07 2.81 4.53a42.7 42.7 0 0 0 6.4 7.81 16.2 16.2 0 0 0 3.88 2.68 8.4 8.4 0 0 0 2.14.7 4.6 4.6 0 0 0 2.13-.06 23.6 23.6 0 0 0 7-3.48 24 24 0 0 0 5-5 33.8 33.8 0 0 0 5.16-10.26 46 46 0 0 0 1.65-7.21c.12-.85.2-1.5.24-1.93s.3-.51.3-.51" style="fill:#263238"/><path d="M249.53 289.61a24.4 24.4 0 0 1 .14 6.05 24 24 0 0 1-.88 6c-.15 0 .16-2.7.36-6s.23-6.04.38-6.05m-25.9 19.5a1.17 1.17 0 1 1-1-1.31 1.17 1.17 0 0 1 1 1.31m5.62-7.4a1.17 1.17 0 1 1-1-1.31 1.16 1.16 0 0 1 1 1.31m7.01 5.66a1.17 1.17 0 1 1-1-1.32 1.18 1.18 0 0 1 1 1.32m4.3-7.57a1.17 1.17 0 1 1-1-1.31 1.16 1.16 0 0 1 1 1.31m-11.96 15.61a1.17 1.17 0 1 1-1-1.31 1.16 1.16 0 0 1 1 1.31m49.9-7.12a1.17 1.17 0 1 0 1.31-1 1.16 1.16 0 0 0-1.31 1m-5.61-7.46a1.16 1.16 0 0 0 1 1.31 1.17 1.17 0 1 0-1-1.31m-7.03 3.09a1.17 1.17 0 1 0 1.31-1 1.17 1.17 0 0 0-1.31 1m-3.39-7.92a1.17 1.17 0 1 0 1.31-1 1.18 1.18 0 0 0-1.31 1m8.92 16.06a1.16 1.16 0 0 0 1 1.31 1.17 1.17 0 1 0-1-1.31m-47.46-56.19c0 .73-.78 1.41-2 2.09a38 38 0 0 1-4.79 2.13c-3.76 1.42-7.12 2.41-8 1.23-.4-.59 0-1.65 1.05-2.83a13.7 13.7 0 0 1 5.07-3.26 13 13 0 0 1 6-.9c1.66.21 2.64.84 2.67 1.54m57.92-3.87c-.23.69-1.23 1-2.62 1.23a39 39 0 0 1-5.24.28c-4 0-7.5-.29-7.88-1.7-.17-.69.57-1.55 2-2.27a13.8 13.8 0 0 1 5.9-1.24 13 13 0 0 1 5.95 1.32c1.42.8 2.11 1.73 1.89 2.38m-25.5 16.34c0 .09-1.15-.16-3-.38a36.7 36.7 0 0 0-7.2-.2 37 37 0 0 0-7.09 1.23c-1.79.49-2.87.89-2.9.81a2.5 2.5 0 0 1 .72-.38 21 21 0 0 1 2.07-.79 31 31 0 0 1 7.17-1.39 30.5 30.5 0 0 1 7.29.35 20 20 0 0 1 2.16.48 2.8 2.8 0 0 1 .78.27" style="fill:#263238"/><path d="M201.62 261.12c-1.41 6.27-12.47-3.59-16.07-8.92s-5.19-11.72-6.72-18c-2-8.21-4-16.7-2.63-25a17.16 17.16 0 0 1 3.17-7.89 9.14 9.14 0 0 1 7.42-3.65c3.23.2 5.91 2.49 8.14 4.83a64.25 64.25 0 0 1 15.85 28.8c1 4.17 2.78 9.52.34 13 0 .06-7.27 6.91-9.5 16.83m92.05-2.52c1.41 6.27 10.2-4.39 13.79-9.71s5.19-11.72 6.72-18c2-8.21 2-14.91.54-23.25a36.4 36.4 0 0 0-3.79-10.61c-1.35-2.53-4.81-5.18-7.67-5-3.22.2-6.35 2.49-8.58 4.82-7.66 8-9.78 20.34-12.45 31.1-1 4.17-2.78 9.52-.33 13 0 .05 9.54 7.73 11.77 17.65" style="opacity:.2"/><path d="M257.51 376s-.1-.07-.25-.25-.37-.42-.64-.77a26 26 0 0 1-2.05-3.17 27.4 27.4 0 0 1-3.38-12.54l.48.06a5.76 5.76 0 0 1-1.88 3.46 2.61 2.61 0 0 1-2.13.44 2.47 2.47 0 0 1-1.56-1.59 10.56 10.56 0 0 1 .09-7.34l.29.33a3 3 0 0 0-1.5 1c-.44.47-.79 1-1.28 1.47a3.6 3.6 0 0 1-1.7.9 1.66 1.66 0 0 1-1.74-.72 3.25 3.25 0 0 1-.36-1.71c0-.54 0-1.06.07-1.56a18.6 18.6 0 0 1 .43-2.73 18 18 0 0 1 1.31-3.69c.2-.41.37-.72.49-.92s.2-.31.21-.3-.19.45-.55 1.29a21 21 0 0 0-1.15 3.69 18.6 18.6 0 0 0-.37 2.69v1.53a2.9 2.9 0 0 0 .31 1.48 1.19 1.19 0 0 0 1.3.5 3.1 3.1 0 0 0 1.48-.81c.42-.4.79-.95 1.23-1.44a3.43 3.43 0 0 1 1.76-1.18l.46-.11-.17.44a10 10 0 0 0-.07 7 1.92 1.92 0 0 0 1.21 1.28 2.1 2.1 0 0 0 1.7-.36 5.46 5.46 0 0 0 1.7-3.17l.45-1.65v1.71a28.34 28.34 0 0 0 3.16 12.41 30 30 0 0 0 1.92 3.21 11 11 0 0 1 .73 1.12" style="fill:#263238"/><path d="M292.18 405.54a22.59 22.59 0 0 0-21.26-2.67 16.71 16.71 0 0 0-31.31 11.06c-7.91-3.2-18.07 1.82-20.31 10.05l81.94 1a22.6 22.6 0 0 0-9.06-19.44" style="fill:#e0e0e0"/><path d="m125.28 412.68 73.6.32L220 424.42c5.26.44 87.22 0 87.22 0l11.74-11.74h59l-29.42 49.87H153.36Z" style="fill:#2d9f82"/><path d="M379.21 403.91h-47.43c-2.08 0-4.2-.13-6.27 0-4.34.28-6.53 2.82-9.31 5.6l-14.78 14.78h-80.53l-14.14-11.53c-4.79-3.91-9.15-8.7-15.61-8.85-17.17-.39-34.4 0-51.57 0h-19.48c-11.28 0-11.3 17.53 0 17.53h69.7c7.1 5.82 14.18 11.67 21.35 17.4 6.13 4.91 16.58 3 24 3h42.33c9.05 0 18.29.54 27.34 0 5.9-.35 9.88-6 13.78-9.9l10.48-10.48h50.15c11.27-.02 11.29-17.55-.01-17.55" style="fill:#2d9f82"/><path d="M379.21 403.91h.34a7 7 0 0 1 1 .07 7.8 7.8 0 0 1 3.67 1.38 8.5 8.5 0 0 1 3.34 5.39 9.9 9.9 0 0 1-.05 4.12 8.7 8.7 0 0 1-2.15 4.17 7.85 7.85 0 0 1-4.67 2.38 19 19 0 0 1-2.85.13h-48.8l.12-.05-10.95 11c-1.86 1.92-3.64 4-5.76 5.88a13.06 13.06 0 0 1-7.69 3.59c-5.78.34-11.76.26-17.91.14s-12.47-.12-19-.12H248c-6.82.05-13.76-.16-20.86.32a38.4 38.4 0 0 1-10.76-.77 14.2 14.2 0 0 1-5-2.32c-1.47-1.12-2.86-2.3-4.29-3.45l-17.42-14.19.16.06h-69.71a9.1 9.1 0 0 1-4.5-1.11 8.2 8.2 0 0 1-3.17-3.35 10.14 10.14 0 0 1-.09-8.94 8.2 8.2 0 0 1 3-3.4 8.8 8.8 0 0 1 4.37-1.23h8.88q17.66 0 34.64-.13c5.66 0 11.25-.06 16.77 0l8.23.1c1.36 0 2.71 0 4.09.15a14.1 14.1 0 0 1 4 1.08 27.7 27.7 0 0 1 6.7 4.46c2 1.73 4 3.42 6.05 5.06l11.91 9.78-.14-.06 80.53.05-.13.06q7.06-7.05 13.42-13.39l3.13-3.12a15.8 15.8 0 0 1 3.4-2.66 9.8 9.8 0 0 1 4-1.2c1.37-.11 2.71-.08 4-.06 10.53.09 19.59 0 27 .08l17 .05h5.93-22.93c-7.4 0-16.46.07-27 0-2.6 0-5.44-.2-7.88 1.23s-4.3 3.69-6.45 5.75l-13.39 13.41-.05.06h-80.76l-12-9.74c-2-1.63-4-3.34-6.06-5.06a27.7 27.7 0 0 0-6.58-4.38 14 14 0 0 0-3.82-1.05c-1.31-.12-2.69-.1-4-.14l-8.23-.09h-16.76c-11.3.1-22.87.17-34.64.14h-8.86a8.35 8.35 0 0 0-4.12 1.15 7.7 7.7 0 0 0-2.85 3.19 9.62 9.62 0 0 0 .08 8.47 7.6 7.6 0 0 0 3 3.14 8.6 8.6 0 0 0 4.24 1h69.76l.07.06 17.41 14.19c1.43 1.15 2.83 2.35 4.27 3.45a13.9 13.9 0 0 0 4.83 2.24 37.8 37.8 0 0 0 10.61.76c7.09-.47 14.08-.26 20.88-.31h20c6.49 0 12.82 0 19 .14s12.11.22 17.87-.11a12.58 12.58 0 0 0 7.46-3.48c2.1-1.82 3.87-3.92 5.75-5.85l11-11 .05-.05h48.88a17.4 17.4 0 0 0 2.82-.11 7.6 7.6 0 0 0 4.56-2.3 8.6 8.6 0 0 0 2.13-4.08 10 10 0 0 0 .07-4.06 8.42 8.42 0 0 0-3.25-5.33 7.9 7.9 0 0 0-3.63-1.41 8 8 0 0 0-1-.1 3 3 0 0 1-.41.32" style="fill:#263238"/><path d="M154.41 370.59c.53-3.17 1.55-5.79 4-7.87-2.07-1.24-3.85-2.05-4.19-5.4a6.84 6.84 0 0 1 1.56-5.14 18 18 0 0 1 4.41-3.37 6.5 6.5 0 0 1-1.09-3.55 5.5 5.5 0 0 0 2.4 1.75 6.25 6.25 0 0 1 .35-5c.06 2.53 2.36 4.41 4.66 5.45s4.88 1.65 6.74 3.35a8 8 0 0 1 2.06 8.12 9.29 9.29 0 0 1-6.13 5.9 13.84 13.84 0 0 0 17.92-2.72 12.84 12.84 0 0 1 2.35 9.29 15.92 15.92 0 0 1-5.33 9.3h-27.37c-1.63-2.77-2.87-6.95-2.34-10.11" style="fill:#2d9f82"/><path d="M156.75 357.57c-.23-.26-1.66-4-1.66-4a8.76 8.76 0 0 1-3.72-1.7s-.68.36.37 2a11.7 11.7 0 0 0 2.29 2.58s-3.22.17-3.22 2.39l2.65-.14 1.24.91Z" style="fill:#2d9f82"/><path d="M156.75 357.57c-.23-.26-1.88-4-1.88-4a8.1 8.1 0 0 1-3.5-1.66s-.68.36.37 2a11.7 11.7 0 0 0 2.29 2.58s-3.22.17-3.22 2.39l2.65-.14 1.24.91Z" style="opacity:.30000000000000004"/><path d="M158.53 354.84a1.23 1.23 0 1 0 1.16-1.29 1.23 1.23 0 0 0-1.16 1.29m2.11 15.25a25 25 0 0 0 2.75 2.18 11.75 11.75 0 0 0 15.26-2.27 23 23 0 0 0 2-2.88 3.5 3.5 0 0 1-.32.91 10.2 10.2 0 0 1-1.4 2.21 11.68 11.68 0 0 1-15.73 2.34 10.4 10.4 0 0 1-2-1.72 3.3 3.3 0 0 1-.56-.77" style="fill:#263238"/><path d="M152.48 384.21a9.07 9.07 0 0 1 12.76-4.8 10.38 10.38 0 0 1 6.47-3.34 21.7 21.7 0 0 1 7.4.4 18.3 18.3 0 0 1 7 2.64 8.21 8.21 0 0 1 3.69 6.26" style="fill:#e0e0e0"/><circle cx="150.9" cy="284.29" r="13.5" style="fill:#e0e0e0"/><path d="M164.4 284.29a22 22 0 0 0-.52-3.27 13.4 13.4 0 0 0-4.92-7.31 13.25 13.25 0 0 0-12.58-1.87 13.37 13.37 0 0 0-6.15 4.62 13.21 13.21 0 0 0 0 15.66 12.7 12.7 0 0 0 2.8 2.82 12.6 12.6 0 0 0 3.35 1.81 13.36 13.36 0 0 0 7 .59 13.14 13.14 0 0 0 5.61-2.46 13.47 13.47 0 0 0 4.92-7.31 22 22 0 0 0 .52-3.28 5 5 0 0 1 0 .87 6 6 0 0 1-.08 1 8.4 8.4 0 0 1-.25 1.41 13.62 13.62 0 0 1-10.65 10.16 13.74 13.74 0 0 1-7.21-.57 13.76 13.76 0 0 1-6.4-4.78 13.7 13.7 0 0 1-2.68-8.13 13.87 13.87 0 0 1 2.68-8.13 13.83 13.83 0 0 1 6.4-4.77 13.74 13.74 0 0 1 7.21-.57A13.58 13.58 0 0 1 164.08 281a8.6 8.6 0 0 1 .25 1.41 6 6 0 0 1 .08 1.05 5 5 0 0 1-.01.83" style="fill:#263238"/><path d="M141 286.1a3.7 3.7 0 0 1-.64-1.69 8.21 8.21 0 0 1 2.82-8 3.8 3.8 0 0 1 1.57-.92c0 .08-.54.43-1.32 1.19a8.89 8.89 0 0 0-2.71 7.66c.14 1.09.37 1.73.28 1.76m5.77 6.62a2.77 2.77 0 0 1-2.31-.76c-1.12-.86-1.43-2-1.3-2s.62.88 1.62 1.64 2.01.97 1.99 1.12" style="fill:#fff"/><circle cx="256.35" cy="167.02" r="12.19" style="fill:#e0e0e0"/><path d="M268.54 167a24 24 0 0 0-.48-3 12 12 0 0 0-15.79-8.27 11.95 11.95 0 0 0-5.54 4.17 11.89 11.89 0 0 0 0 14.11 11.95 11.95 0 0 0 5.54 4.17 12 12 0 0 0 6.29.54 11.8 11.8 0 0 0 5.05-2.22 12.15 12.15 0 0 0 4.45-6.59 25 25 0 0 0 .48-2.95 4 4 0 0 1 0 .78 6 6 0 0 1-.07.94 9 9 0 0 1-.22 1.28 12.32 12.32 0 0 1-9.62 9.19 12.4 12.4 0 0 1-6.53-.52A11.7 11.7 0 0 1 249 177a11.4 11.4 0 0 1-2.64-2.64 12.4 12.4 0 0 1-2.43-7.36 12.52 12.52 0 0 1 2.43-7.35 12.4 12.4 0 0 1 5.79-4.32 12.4 12.4 0 0 1 6.53-.51 12.32 12.32 0 0 1 9.62 9.18 9 9 0 0 1 .22 1.28 6 6 0 0 1 .07 1 4 4 0 0 1-.05.72" style="fill:#263238"/><path d="M247.42 168.65a3.06 3.06 0 0 1-.61-1.53 7.46 7.46 0 0 1 .28-4 7.4 7.4 0 0 1 2.28-3.26c.8-.65 1.4-.87 1.43-.81s-.49.4-1.18 1.08a8.4 8.4 0 0 0-2 3.16 8.3 8.3 0 0 0-.4 3.74 15 15 0 0 1 .2 1.62m5.19 5.98c0 .14-1.09.13-2.1-.67s-1.29-1.84-1.16-1.87.59.78 1.48 1.46 1.81.93 1.78 1.08" style="fill:#fff"/><path d="M398.2 291.32a6.52 6.52 0 1 1-6.52-6.52 6.52 6.52 0 0 1 6.52 6.52" style="fill:#e0e0e0"/><path d="M398.2 291.32c-.06 0 0-.58-.3-1.57a6.54 6.54 0 0 0-2.39-3.47 6.33 6.33 0 0 0-6-.86 6.2 6.2 0 0 0-2.91 2.19 6.28 6.28 0 0 0 0 7.41 6.23 6.23 0 0 0 2.91 2.2 6.36 6.36 0 0 0 6-.87 6.5 6.5 0 0 0 2.39-3.47c.27-1 .24-1.57.3-1.56s0 .14 0 .42a4.6 4.6 0 0 1-.14 1.19 6.47 6.47 0 0 1-2.35 3.72 6.73 6.73 0 1 1 0-10.66 6.48 6.48 0 0 1 2.35 3.71 4.7 4.7 0 0 1 .14 1.2 1.2 1.2 0 0 1 0 .42" style="fill:#263238"/><path d="M386.9 292.19c-.06 0-.27-.26-.4-.8a3.86 3.86 0 0 1 .11-2.18 3.8 3.8 0 0 1 1.28-1.77c.45-.34.79-.43.82-.37a8.3 8.3 0 0 0-1.61 2.31 8.5 8.5 0 0 0-.2 2.81m2.78 3.2c0 .14-.63.18-1.2-.26s-.68-1.06-.54-1.1.41.35.86.69.9.52.88.67" style="fill:#fff"/><circle cx="346.17" cy="294.03" r="12.22" style="fill:#e0e0e0" transform="rotate(-12.8 351.547 297.655)"/><path d="M356.59 300.42a25 25 0 0 0 1.13-2.77 12.14 12.14 0 0 0-.34-8 11.86 11.86 0 0 0-3.15-4.55 12.06 12.06 0 0 0-5.65-2.83 12.07 12.07 0 0 0-6.92.65 11.92 11.92 0 0 0-7.4 12.06 12 12 0 0 0 2.55 6.47 12 12 0 0 0 5.08 3.75 11.9 11.9 0 0 0 5.48.75 12.14 12.14 0 0 0 7.26-3.3 24 24 0 0 0 2-2.27 7 7 0 0 1-.4.68 6 6 0 0 1-.56.77 9 9 0 0 1-.86 1 12.16 12.16 0 0 1-7.36 3.52 12.36 12.36 0 0 1-11-4.58 11.9 11.9 0 0 1-1.81-3.09 11.6 11.6 0 0 1-.87-3.63 12.37 12.37 0 0 1 7.72-12.57 11.7 11.7 0 0 1 3.63-.87 11.6 11.6 0 0 1 3.58.22 12.37 12.37 0 0 1 5.84 3 12.29 12.29 0 0 1 3.4 12.89 8.5 8.5 0 0 1-.48 1.21 6 6 0 0 1-.43.84 4.3 4.3 0 0 1-.44.65" style="fill:#263238"/><path d="M337.69 290.75a3.17 3.17 0 0 1 .28-1.63 7.47 7.47 0 0 1 6-4.84 3.2 3.2 0 0 1 1.65.06 12.5 12.5 0 0 1-1.59.31 8.16 8.16 0 0 0-5.69 4.61c-.44.89-.57 1.5-.65 1.49m1.31 7.83c-.07.12-1-.47-1.44-1.68a2.41 2.41 0 0 1 0-2.2c.15 0 .09 1 .5 2s1.03 1.76.94 1.88" style="fill:#fff"/><path d="m73.46 353.32-3 1.51L50 314.07a1.68 1.68 0 0 1 .75-2.26 1.68 1.68 0 0 1 2.26.75Z" style="fill:#e0e0e0"/><path d="m53.54 314.58 11.91-6a.51.51 0 0 0-.46-.92l-11.92 6a.51.51 0 0 0 .47.91Zm1.29 2.58 11.91-6a.51.51 0 0 0-.46-.92l-11.91 6a.51.51 0 0 0 .46.92m1.29 2.58 11.91-6a.51.51 0 0 0-.46-.92l-11.91 6a.51.51 0 0 0 .46.92m1.29 2.57 11.92-6a.51.51 0 0 0-.46-.92L57 321.4a.51.51 0 0 0 .46.91Zm1.29 2.58 11.92-6a.51.51 0 0 0-.46-.92l-11.92 6a.51.51 0 0 0 .46.92m1.3 2.58 11.92-6a.51.51 0 0 0-.46-.92l-11.92 6a.51.51 0 0 0 .46.92m1.28 2.53 11.92-6a.51.51 0 0 0-.46-.92l-11.92 6a.51.51 0 0 0 .46.91Zm1.29 2.62 11.92-6a.51.51 0 0 0-.46-.92l-11.92 6a.51.51 0 0 0 .46.92m1.29 2.58 11.92-6a.51.51 0 0 0-.46-.92l-11.92 6a.51.51 0 0 0 .46.92m1.3 2.57 11.91-6a.51.51 0 0 0-.46-.92l-11.91 6a.51.51 0 0 0 .46.91Zm1.24 2.48 11.91-6a.51.51 0 0 0-.46-.92l-11.91 6a.51.51 0 0 0 .46.92m1.24 2.48 11.92-6a.51.51 0 0 0-.46-.92l-11.92 6a.51.51 0 0 0 .46.92m1.24 2.48 11.92-6a.51.51 0 0 0-.46-.92l-11.92 6a.51.51 0 0 0 .46.92m1.24 2.48 11.92-6a.51.51 0 0 0-.46-.92l-11.92 6a.51.51 0 0 0 .46.92" style="fill:#e0e0e0"/><path d="M93.58 396.53A5.62 5.62 0 0 1 86 394l-19-38 10.06-5 19 38a5.61 5.61 0 0 1-2.48 7.53m356.28-5.37c2.83-6.11-2.37-13.73-4.26-16.36l1.49-6.68 6.45-27.55c2.84-1.58 10.78-6.27 10.81-13s-3.37-8-6.19-8.77-8.28.59-8.28.59-4.41-3.35-7.29-3.84-6.45-.91-9.33 5.31 2.37 13.74 4.26 16.37l-4.74 20.32-3.11 13.45c-2.83 1.58-10.77 6.27-10.8 13s3.37 8 6.19 8.76 8.23-.38 8.23-.38 4.36 3.55 7.25 4.05 6.46.96 9.32-5.27" style="fill:#2d9f82"/><path d="M436.17 319.42a3.4 3.4 0 0 1 1.25-1.36 6.5 6.5 0 0 1 1.79-.92 8.2 8.2 0 0 1 2.45-.4 8.5 8.5 0 0 1 2.44.4 6.8 6.8 0 0 1 1.79.93 3.33 3.33 0 0 1 1.24 1.36c-.07.06-.52-.48-1.44-1.05a7.4 7.4 0 0 0-1.74-.78 8.7 8.7 0 0 0-2.29-.34 9 9 0 0 0-2.3.33 7.4 7.4 0 0 0-1.74.78c-.92.57-1.37 1.11-1.45 1.05m24.65 2.4a11 11 0 0 1-1.75-.68 12.3 12.3 0 0 0-4.31-.89 8.16 8.16 0 0 0-4.2 1.12c-1 .59-1.43 1.15-1.49 1.09s.32-.69 1.29-1.4a7.64 7.64 0 0 1 4.4-1.33 10.7 10.7 0 0 1 4.46 1.07 4.7 4.7 0 0 1 1.6 1.02" style="fill:#263238"/><path d="M464.64 180.91c-.34-.44-55.4 55.88-55.4 55.88a8.74 8.74 0 1 0 2.53 2.6c1.87-2 16.16-17 22.15-15.68.02.02 33.75-38.86 30.72-42.8m-55 66.94a6.44 6.44 0 1 1-1.44-9 6.43 6.43 0 0 1 1.42 9Z" style="fill:#e0e0e0"/><path d="m436.07 209.44 3.11 2.83s24.46-27.77 25.46-31.36a3.5 3.5 0 0 0-.76.63l-2.25 2.16-6 6Z" style="opacity:.30000000000000004"/><path d="M428.73 220.47c4.88 3.7 2.89 24.3 2.6 27a8.74 8.74 0 1 0 3.62.22s6.65-78.48 6.09-78.45c-4.92.29-12.31 51.23-12.31 51.23m5.38 29.38a6.44 6.44 0 1 1-7.75 4.79 6.44 6.44 0 0 1 7.75-4.79" style="fill:#e0e0e0"/><path d="M428.73 220.47c4.88 3.7 2.89 24.3 2.6 27a8.74 8.74 0 1 0 3.62.22s6.65-78.48 6.09-78.45c-4.92.29-12.31 51.23-12.31 51.23m5.38 29.38a6.44 6.44 0 1 1-7.75 4.79 6.44 6.44 0 0 1 7.75-4.79" style="fill:none"/><path d="M434.11 249.85c0 .06-.56-.1-1.57-.06a6.43 6.43 0 0 0-3.88 1.5 6.26 6.26 0 0 0-2.18 5.55 6.14 6.14 0 0 0 1.45 3.29 6.15 6.15 0 0 0 7.11 1.68 6.1 6.1 0 0 0 2.77-2.29 6.25 6.25 0 0 0 .53-5.94 6.38 6.38 0 0 0-2.79-3.08c-.89-.48-1.45-.59-1.44-.65a1.2 1.2 0 0 1 .41.07 4.4 4.4 0 0 1 1.12.4 6.36 6.36 0 0 1 3 3.11 6.66 6.66 0 1 1-10.21-2.43 6.35 6.35 0 0 1 4.11-1.42 4.7 4.7 0 0 1 1.18.14c.28.07.4.11.39.13" style="fill:#263238"/><path d="M428.73 220.47v-.54l.21-1.58c.21-1.41.52-3.46.91-6.08.83-5.27 2.05-12.9 4-22.26a150 150 0 0 1 3.76-15.16 26.6 26.6 0 0 1 1.62-4 7 7 0 0 1 .6-.95 2.3 2.3 0 0 1 .91-.79s.11 0 .16-.05h.21c.12 0 .13.17.17.19a.2.2 0 0 1 0 .06v1.92c-.16 3-.38 6.06-.6 9.2-.92 12.59-2 26.41-3.24 40.92-.76 9.14-1.51 18-2.21 26.4v.22H435l.06-.5a9.06 9.06 0 0 1 5.69 4.75 9 9 0 0 1-15.92 8.19 8.94 8.94 0 0 1 1.79-10.83 8.93 8.93 0 0 1 4.73-2.26l-.15.16c.86-8.61.88-15.59.2-20.3a16.2 16.2 0 0 0-1.48-5.22 6.2 6.2 0 0 0-1.15-1.48l.37.31a5.4 5.4 0 0 1 .87 1.13 15.6 15.6 0 0 1 1.58 5.23c.74 4.73.78 11.73 0 20.36v.14h-.13a8.63 8.63 0 0 0-4.53 2.19 8.56 8.56 0 1 0 8.06-1.9l-1.67-.46h1.73l-.24.23c.69-8.39 1.43-17.25 2.19-26.39 1.2-14.51 2.33-28.33 3.28-40.91.23-3.14.46-6.21.62-9.19l.05-1.11v-.73l.2-.06v.2h-.25a3.56 3.56 0 0 0-1.28 1.53A26.4 26.4 0 0 0 438 175a154 154 0 0 0-3.81 15.11c-1.94 9.33-3.22 16.95-4.11 22.21-.43 2.62-.77 4.66-1 6.06-.12.68-.2 1.21-.27 1.58s-.08.51-.08.51" style="fill:#263238"/><path d="M438.16 209.52 434 209s5-36.66 7.1-39.77a3.1 3.1 0 0 1 0 1l-.16 3.11-.6 8.44Z" style="opacity:.2"/><path d="M435.45 219.1a2.23 2.23 0 1 1-.45-3.1 2.23 2.23 0 0 1 .45 3.1" style="fill:#e0e0e0"/><path d="M435.45 219.1s.07-.19.17-.52a2.3 2.3 0 0 0 0-1.38 2.07 2.07 0 0 0-1.41-1.31 2 2 0 0 0-2.14.75 2 2 0 0 0-.05 2.27 2 2 0 0 0 1.69.92 2.18 2.18 0 0 0 1.32-.41c.27-.19.4-.34.44-.32s-.05.21-.31.48a2.23 2.23 0 0 1-1.44.62 2.4 2.4 0 0 1-2.1-1 2.48 2.48 0 0 1 0-2.84 2.46 2.46 0 0 1 2.69-.91 2.37 2.37 0 0 1 1.69 1.65 2.23 2.23 0 0 1-.15 1.56c-.22.34-.38.46-.4.44" style="fill:#263238"/><path d="M435.31 217.85c0 .14-.79.05-1.68.15s-1.61.35-1.68.22.61-.62 1.62-.73 1.79.23 1.74.36" style="fill:#263238"/><path d="M434.1 219.55c-.15 0-.21-.78-.42-1.69s-.48-1.63-.35-1.71.64.6.86 1.59.05 1.83-.09 1.81" style="fill:#263238"/></svg>