<svg xmlns="http://www.w3.org/2000/svg" viewBox="0 0 500 500"><g id="snack-box"><rect x="304.56" y="225.26" width="146.92" height="191.55" transform="translate(756.04 642.07) rotate(180)" style="fill:#ff9a6c"></rect><rect x="418.75" y="366.02" width="24.31" height="11.06" transform="translate(861.81 743.1) rotate(180)" style="fill:#fff"></rect><path d="M382.24,292.38c-4.74-1-9.22,3.91-10.75,5.66l-4.92.06H346.25c-1.57-1.72-6.16-6.51-10.88-5.42s-5,3.67-5.11,5.77,1.77,5.69,1.77,5.69-1.62,3.63-1.49,5.73.42,4.66,5.24,5.65,9.22-3.91,10.75-5.66l15,0,10,0c1.57,1.72,6.16,6.51,10.87,5.43s5-3.67,5.12-5.78-1.62-5.69-1.62-5.69,1.77-3.63,1.64-5.73S387.07,293.37,382.24,292.38Z" style="fill:#fff"></path><path d="M328.41,336.3a5.39,5.39,0,0,1-2.16-1.3l.56-1.11a5.59,5.59,0,0,0,2,1.2,7.15,7.15,0,0,0,2.55.46,4.66,4.66,0,0,0,2.76-.67,2.09,2.09,0,0,0,.92-1.76,1.71,1.71,0,0,0-.5-1.31,3.37,3.37,0,0,0-1.22-.76,19.77,19.77,0,0,0-2-.58,20.71,20.71,0,0,1-2.47-.75,3.92,3.92,0,0,1-1.58-1.11,2.94,2.94,0,0,1-.66-2,3.37,3.37,0,0,1,.55-1.89,3.73,3.73,0,0,1,1.69-1.37,6.84,6.84,0,0,1,2.82-.51,8.15,8.15,0,0,1,2.3.33,6.43,6.43,0,0,1,2,.89l-.49,1.16a6.88,6.88,0,0,0-3.77-1.14,4.42,4.42,0,0,0-2.72.7,2.17,2.17,0,0,0-.91,1.79,1.79,1.79,0,0,0,.5,1.32,3.19,3.19,0,0,0,1.26.77c.5.17,1.18.37,2,.58a21.53,21.53,0,0,1,2.44.73,4,4,0,0,1,1.58,1.1,2.92,2.92,0,0,1,.64,2,3.37,3.37,0,0,1-.55,1.89,3.86,3.86,0,0,1-1.72,1.36,7.22,7.22,0,0,1-2.84.5A9.07,9.07,0,0,1,328.41,336.3Z" style="fill:#fff"></path><path d="M351.1,322.94v13.73h-1.2l-8.83-11.14v11.14h-1.45V322.94h1.2l8.84,11.14V322.94Z" style="fill:#fff"></path><path d="M364.18,333h-7.65l-1.65,3.67h-1.51l6.28-13.73h1.43l6.28,13.73h-1.53Zm-.53-1.17-3.3-7.38-3.29,7.38Z" style="fill:#fff"></path><path d="M371.72,335.89a6.71,6.71,0,0,1-2.57-2.5,7.36,7.36,0,0,1,0-7.16,6.62,6.62,0,0,1,2.58-2.51,8,8,0,0,1,6.51-.39,5.92,5.92,0,0,1,2.2,1.49l-.92.93a5.48,5.48,0,0,0-4.07-1.63,6,6,0,0,0-3,.74,5.44,5.44,0,0,0-2.08,2,5.93,5.93,0,0,0,0,5.81,5.44,5.44,0,0,0,2.08,2,5.94,5.94,0,0,0,3,.74,5.44,5.44,0,0,0,4.07-1.64l.92.92a6,6,0,0,1-2.21,1.5,7.7,7.7,0,0,1-2.83.52A7.51,7.51,0,0,1,371.72,335.89Z" style="fill:#fff"></path><path d="M387.79,330.22l-2.8,2.84v3.61h-1.45V322.94H385v8.3l8.06-8.3h1.67l-6,6.22,6.36,7.51H393.4Z" style="fill:#fff"></path><path d="M336,272.75h6.77a9.28,9.28,0,0,1,4.05.84,6.28,6.28,0,0,1,2.73,2.38,7.33,7.33,0,0,1,0,7.29,6.37,6.37,0,0,1-2.73,2.39,9.42,9.42,0,0,1-4.05.83H336Zm6.57,10.12A3.31,3.31,0,0,0,345,282a3.69,3.69,0,0,0,0-4.81,3.31,3.31,0,0,0-2.39-.85h-1.94v6.51Z" style="fill:#fff"></path><path d="M355.45,285.87a6.85,6.85,0,0,1-2.77-2.56,7.33,7.33,0,0,1,0-7.39,6.92,6.92,0,0,1,2.77-2.56,9.07,9.07,0,0,1,8,0,6.92,6.92,0,0,1,2.77,2.56,7.33,7.33,0,0,1,0,7.39,6.85,6.85,0,0,1-2.77,2.56,9.07,9.07,0,0,1-8,0Zm5.54-3.24a3.07,3.07,0,0,0,1.11-1.2,4.22,4.22,0,0,0,0-3.63,3.11,3.11,0,0,0-1.11-1.19,3,3,0,0,0-3.12,0,3.11,3.11,0,0,0-1.11,1.19,4.22,4.22,0,0,0,0,3.63,3.07,3.07,0,0,0,1.11,1.2,3.11,3.11,0,0,0,3.12,0Z" style="fill:#fff"></path><path d="M378,279.24h4v5.81a9.42,9.42,0,0,1-2.83,1.29,11.65,11.65,0,0,1-3.16.45,8.38,8.38,0,0,1-3.94-.91,6.78,6.78,0,0,1-2.73-2.55,7.47,7.47,0,0,1,0-7.43,6.8,6.8,0,0,1,2.76-2.55,8.61,8.61,0,0,1,4-.91,9.2,9.2,0,0,1,3.62.67,6.84,6.84,0,0,1,2.66,2l-3,2.6a4,4,0,0,0-3.08-1.51,3.22,3.22,0,0,0-2.43.93,3.39,3.39,0,0,0-.91,2.51,3.46,3.46,0,0,0,.9,2.49,3.15,3.15,0,0,0,2.38.94,4.43,4.43,0,0,0,1.69-.33Z" style="fill:#fff"></path><g style="opacity:0.30000000000000004"><circle cx="358.87" cy="301.8" r="19.93" style="fill:#fff"></circle></g><g style="opacity:0.30000000000000004"><rect x="322.49" y="238.52" width="68.89" height="5.76" rx="2.69" transform="translate(713.87 482.81) rotate(180)" style="fill:#fff"></rect></g><g style="opacity:0.30000000000000004"><rect x="410.81" y="225.26" width="40.67" height="191.55" transform="translate(862.29 642.07) rotate(180)"></rect></g><path d="M417.53,276.2c0-.14,5.86-.26,13.09-.26s13.1.12,13.1.26-5.87.26-13.1.26S417.53,276.35,417.53,276.2Z" style="fill:#263238"></path><path d="M417.53,282c0-.14,5.86-.26,13.09-.26s13.1.12,13.1.26-5.87.26-13.1.26S417.53,282.18,417.53,282Z" style="fill:#263238"></path><path d="M417.53,287.86c0-.14,5.86-.26,13.09-.26s13.1.12,13.1.26-5.87.26-13.1.26S417.53,288,417.53,287.86Z" style="fill:#263238"></path><path d="M417.53,293.69c0-.14,5.86-.26,13.09-.26s13.1.12,13.1.26-5.87.26-13.1.26S417.53,293.84,417.53,293.69Z" style="fill:#263238"></path><path d="M417.53,299.52c0-.14,5.86-.26,13.09-.26s13.1.12,13.1.26-5.87.26-13.1.26S417.53,299.67,417.53,299.52Z" style="fill:#263238"></path><path d="M417.53,305.35c0-.14,5.86-.26,13.09-.26s13.1.12,13.1.26-5.87.26-13.1.26S417.53,305.5,417.53,305.35Z" style="fill:#263238"></path><path d="M417.53,311.18c0-.14,5.86-.26,13.09-.26s13.1.12,13.1.26-5.87.26-13.1.26S417.53,311.33,417.53,311.18Z" style="fill:#263238"></path><rect x="421.37" y="264.89" width="19.34" height="4.28" rx="2" transform="translate(862.08 534.07) rotate(180)" style="fill:#263238"></rect><path d="M451.48,254.56c0,.14-32.89.26-73.46.26s-73.46-.12-73.46-.26,32.89-.26,73.46-.26S451.48,254.42,451.48,254.56Z" style="fill:#263238"></path><path d="M393.39,241.28c0,.15-13.24.26-29.56.26s-29.56-.11-29.56-.26,13.23-.26,29.56-.26S393.39,241.14,393.39,241.28Z" style="fill:#fff"></path><rect x="320.07" y="385.3" width="16.48" height="9.66" rx="2.03" style="fill:#fff"></rect><path d="M402.06,354.31c0,.15-16.71.26-37.31.26s-37.32-.11-37.32-.26,16.7-.26,37.32-.26S402.06,354.17,402.06,354.31Z" style="fill:#263238"></path><path d="M402.06,360c0,.15-16.71.26-37.31.26s-37.32-.11-37.32-.26,16.7-.26,37.32-.26S402.06,359.85,402.06,360Z" style="fill:#263238"></path><path d="M380.57,365.67c0,.15-8.5.27-19,.27s-19-.12-19-.27,8.5-.26,19-.26S380.57,365.53,380.57,365.67Z" style="fill:#263238"></path><path d="M405.56,387.15c0,.14-13.86.26-30.95.26s-31-.12-31-.26,13.86-.26,31-.26S405.56,387,405.56,387.15Z" style="fill:#fff"></path><path d="M381.88,391.56c0,.14-8.56.26-19.11.26s-19.12-.12-19.12-.26,8.56-.26,19.12-.26S381.88,391.42,381.88,391.56Z" style="fill:#fff"></path></g><g id="food-can"><rect x="375.04" y="370.99" width="95.7" height="42.58" style="fill:#e0e0e0"></rect><path d="M473.79,371H372.85a3.33,3.33,0,0,1-3.34-3.33h0a3.33,3.33,0,0,1,3.34-3.34H473.79a3.33,3.33,0,0,1,3.34,3.34h0A3.33,3.33,0,0,1,473.79,371Z" style="fill:#e0e0e0"></path><path d="M473.79,416.85H372.85a3.34,3.34,0,0,1-3.34-3.34h0a3.33,3.33,0,0,1,3.34-3.34H473.79a3.33,3.33,0,0,1,3.34,3.34h0A3.34,3.34,0,0,1,473.79,416.85Z" style="fill:#e0e0e0"></path><rect x="375.04" y="374.45" width="95.7" height="31.41" style="fill:#2D9F82"></rect><path d="M471.84,410.17c0,.14-22.13.26-49.42.26s-49.42-.12-49.42-.26,22.12-.26,49.42-.26S471.84,410,471.84,410.17Z" style="fill:#263238"></path><path d="M473.88,371c0,.15-22.13.27-49.42.27S375,371.14,375,371s22.12-.26,49.42-.26S473.88,370.85,473.88,371Z" style="fill:#263238"></path><g style="opacity:0.30000000000000004"><ellipse cx="423.9" cy="390.58" rx="33.69" ry="11.13" style="fill:#fff"></ellipse></g><path d="M405.3,392c2.87,2.64,13.39,7.19,30.59-.78a.85.85,0,0,0,0-1.54c-5.19-3.22-21.57-8-30.55-.35A1.78,1.78,0,0,0,405.3,392Z" style="fill:#fff"></path><path d="M434.43,389.88l7-3.33a.71.71,0,0,1,1,.63l.1,6.56a.7.7,0,0,1-1,.65l-7.07-3.23A.7.7,0,0,1,434.43,389.88Z" style="fill:#fff"></path></g><g id="food-bag"><polygon points="60.43 136.09 56.67 116.87 194.25 116.87 190.34 136.09 60.43 136.09" style="fill:#2D9F82"></polygon><polygon points="61.33 134.51 32.97 221.94 32.97 417.07 66.91 417.07 82.6 234.94 61.33 134.51" style="fill:#2D9F82"></polygon><rect x="41.27" y="361.5" width="16.51" height="37.27" style="fill:#e0e0e0"></rect><rect x="41.27" y="341.07" width="16.51" height="13.89" style="fill:#e0e0e0"></rect><g style="opacity:0.30000000000000004"><polygon points="60.67 136.55 32.97 221.94 32.97 417.07 66.91 417.07 82.6 234.94 60.67 136.55"></polygon></g><polygon points="65.34 220.79 60.43 136.09 190.34 136.09 214.48 220.79 214.48 417.07 66.91 417.07 65.34 220.79" style="fill:#2D9F82"></polygon><path d="M214.55,222c0,.15-33.62.26-75.08.26s-75.08-.11-75.08-.26,33.61-.26,75.08-.26S214.55,221.88,214.55,222Z" style="fill:#263238"></path><path d="M189.67,136.33c0,.15-29,.26-64.88.26s-64.88-.11-64.88-.26,29-.26,64.88-.26S189.67,136.19,189.67,136.33Z" style="fill:#263238"></path><path d="M157.53,196.37H117.37a4.16,4.16,0,0,1-4.16-4.16h0a4.16,4.16,0,0,1,4.16-4.16h40.16a4.16,4.16,0,0,1,4.16,4.16h0A4.16,4.16,0,0,1,157.53,196.37Z" style="fill:#fff"></path><path d="M179.49,333.58H114.63a4.16,4.16,0,0,1-4.16-4.16h0a4.16,4.16,0,0,1,4.16-4.15h64.86a4.16,4.16,0,0,1,4.16,4.15h0A4.16,4.16,0,0,1,179.49,333.58Z" style="fill:#fff"></path><rect x="125.46" y="174.58" width="20.5" height="8.32" rx="4.16" style="fill:#fff"></rect><g style="opacity:0.30000000000000004"><circle cx="145.64" cy="265.64" r="30.8" style="fill:#fff"></circle></g><path d="M171.72,250.58a15.86,15.86,0,0,0,1.1-10.8,15.6,15.6,0,0,1-9.71,13.73c-3.17-.49-15.66.16-15.66.16l-13.57-2.38-3.39-4.89L129,243.71a28.14,28.14,0,0,0,.26-3.53c.1-9.84-2.06-10.13-2.06-10.13l-2.54,4.78a18,18,0,0,0-1.78-3,17.1,17.1,0,0,0-.31,4.84l-2.07.16s-2.57,0-3.7.09-2.53,1.5-3.16,2.16c-.49.51-5,.68-7,.74a1,1,0,0,0-1,1c0,.61,0,1.51.12,2.71.22,2.48,4,4.6,4,4.6s.81,1.18,2.86.36c.33-.13,6.44,1.16,6.44,1.16l2.18,3.57h0a46.91,46.91,0,0,0,6.54,12.46c-2.33-.07-5,0-6.38.84-3,1.64-4.78,5.17-2.11,8.35s5.33,3.53,5.94,2.16a11.5,11.5,0,0,0,.43-4.05l7.3-.58,4.84,8.86s-6.28.24-6.54,5.32l9.38.43s3.91-2.92,3.29-5.33c-.39-1.51-1.51-5.55-2.3-8.36a17.25,17.25,0,0,0,4.58-.81,6.21,6.21,0,0,0,1.11,2.19c3.22,4.22,6,3.19,6,3.45s-1,4.47-1,4.47S145.28,282,144,287h11l5-10.26a6.52,6.52,0,0,0,4.15,0c.09.24.59,4.54.59,4.54s-5.57,1.31-5.14,6.45l9.11-3.19,1.48-12.19-1.87-1.17s-2,2-3.52-1.47c-.09-.2-.18-.41-.26-.61a20.65,20.65,0,0,0,2.38-7.91,9.75,9.75,0,0,0-.81-4.32A16,16,0,0,0,171.72,250.58Z" style="fill:#fff"></path><path d="M96.74,303.85h6a8.35,8.35,0,0,1,3.56.73,5.62,5.62,0,0,1,2.39,2.1,6.4,6.4,0,0,1,0,6.41,5.6,5.6,0,0,1-2.39,2.09,8.21,8.21,0,0,1-3.56.73h-6Zm5.78,8.89a2.89,2.89,0,0,0,2.09-.75,3.24,3.24,0,0,0,0-4.22,2.89,2.89,0,0,0-2.09-.75h-1.71v5.72Z" style="fill:#fff"></path><path d="M113.8,315.38a6.18,6.18,0,0,1,0-11,8,8,0,0,1,7,0,6.18,6.18,0,0,1,0,11,8,8,0,0,1-7,0Zm4.87-2.85a2.66,2.66,0,0,0,1-1,3.4,3.4,0,0,0,.37-1.6,3.33,3.33,0,0,0-.37-1.59,2.6,2.6,0,0,0-1-1.05,2.72,2.72,0,0,0-2.74,0,2.6,2.6,0,0,0-1,1.05,3.33,3.33,0,0,0-.37,1.59,3.4,3.4,0,0,0,.37,1.6,2.66,2.66,0,0,0,3.71,1Z" style="fill:#fff"></path><path d="M133.57,309.56h3.53v5.1a8.18,8.18,0,0,1-2.48,1.13,10.1,10.1,0,0,1-2.78.4,7.41,7.41,0,0,1-3.46-.8,6,6,0,0,1-2.4-2.24,6.56,6.56,0,0,1,0-6.53,6,6,0,0,1,2.42-2.24,7.55,7.55,0,0,1,3.53-.8,8,8,0,0,1,3.18.59,6,6,0,0,1,2.33,1.73l-2.6,2.29a3.46,3.46,0,0,0-2.7-1.32,2.86,2.86,0,0,0-2.14.81,3,3,0,0,0-.79,2.2,3.06,3.06,0,0,0,.78,2.19,2.75,2.75,0,0,0,2.09.83,3.81,3.81,0,0,0,1.49-.3Z" style="fill:#fff"></path><path d="M148.07,306.92V309h5v3.06h-5v3.86H144V303.85h9.8v3.07Z" style="fill:#fff"></path><path d="M157.84,315.38a6.18,6.18,0,0,1,0-11,8,8,0,0,1,7,0,6.18,6.18,0,0,1,0,11,8,8,0,0,1-7,0Zm4.87-2.85a2.66,2.66,0,0,0,1-1,3.29,3.29,0,0,0,.37-1.6,3.22,3.22,0,0,0-.37-1.59,2.6,2.6,0,0,0-1-1.05,2.72,2.72,0,0,0-2.74,0,2.6,2.6,0,0,0-1,1.05,3.33,3.33,0,0,0-.36,1.59,3.4,3.4,0,0,0,.36,1.6,2.66,2.66,0,0,0,3.71,1Z" style="fill:#fff"></path><path d="M172.45,315.38a6.18,6.18,0,0,1,0-11,8,8,0,0,1,7,0,6.13,6.13,0,0,1,2.43,2.25,6.42,6.42,0,0,1,0,6.49,6.13,6.13,0,0,1-2.43,2.25,8,8,0,0,1-7,0Zm4.87-2.85a2.76,2.76,0,0,0,1-1,3.4,3.4,0,0,0,.36-1.6,3.33,3.33,0,0,0-.36-1.59,2.69,2.69,0,0,0-1-1.05,2.72,2.72,0,0,0-2.74,0,2.6,2.6,0,0,0-1,1.05,3.33,3.33,0,0,0-.36,1.59,3.4,3.4,0,0,0,.36,1.6,2.66,2.66,0,0,0,3.71,1Z" style="fill:#fff"></path><path d="M184.24,303.85h5.94a8.32,8.32,0,0,1,3.56.73,5.59,5.59,0,0,1,2.4,2.1,6.47,6.47,0,0,1,0,6.41,5.57,5.57,0,0,1-2.4,2.09,8.17,8.17,0,0,1-3.56.73h-5.94Zm5.77,8.89a2.94,2.94,0,0,0,2.1-.75,3.24,3.24,0,0,0,0-4.22A2.94,2.94,0,0,0,190,307h-1.7v5.72Z" style="fill:#fff"></path><g style="opacity:0.30000000000000004"><circle cx="92.67" cy="398.77" r="9.28" style="fill:#fff"></circle></g><g style="opacity:0.30000000000000004"><path d="M190.88,402.37h-69.2a3.15,3.15,0,0,1-3.15-3.15h0a3.15,3.15,0,0,1,3.15-3.15h69.2a3.16,3.16,0,0,1,3.16,3.15h0A3.16,3.16,0,0,1,190.88,402.37Z" style="fill:#fff"></path></g><g style="opacity:0.30000000000000004"><path d="M175.91,355h-55a5.07,5.07,0,0,1-5.07-5.07h0a5.07,5.07,0,0,1,5.07-5.07h55a5.07,5.07,0,0,1,5.07,5.07h0A5.07,5.07,0,0,1,175.91,355Z" style="fill:#fff"></path></g><g style="opacity:0.30000000000000004"><path d="M162.21,372H142.52a5.07,5.07,0,0,1-5.07-5.07h0a5.07,5.07,0,0,1,5.07-5.07h19.69a5.07,5.07,0,0,1,5.07,5.07h0A5.07,5.07,0,0,1,162.21,372Z" style="fill:#fff"></path></g></g><g id="food-plate"><path d="M305.93,358.89A16,16,0,0,0,291,353.16a19.37,19.37,0,0,0-32-9.46c-6-5-12.9-9.08-20.52-10.77s-16-.79-22.53,3.44S205,348.43,205.89,356.18a15,15,0,0,0-16.75,18.39l118.94.13A16,16,0,0,0,305.93,358.89Z" style="fill:#ae7461"></path><path d="M340.41,419.19l-16.27-45.57a9.41,9.41,0,0,0-8.86-6.24H187.66a9.42,9.42,0,0,0-8.86,6.24l-16.27,45.57H159a6.41,6.41,0,0,0-6.4,6.4h0A6.41,6.41,0,0,0,159,432H344a6.4,6.4,0,0,0,6.4-6.41h0a6.4,6.4,0,0,0-6.4-6.4Z" style="fill:#455a64"></path><path d="M267.51,324.42c-1.22-1.1-3.38-.44-4.13-.19l-1.46-.83-6-3.51c-.16-.78-.68-3-2.25-3.47s-2.12.21-2.5.81a5.43,5.43,0,0,0-.47,2,5.79,5.79,0,0,0-1.42,1.42c-.33.64-.68,1.44.56,2.57s3.38.44,4.14.19l4.4,2.58,2.93,1.71c.17.78.69,3,2.26,3.47s2.11-.21,2.5-.81a5.92,5.92,0,0,0,.51-1.95,5.51,5.51,0,0,0,1.47-1.4C268.4,326.35,268.76,325.55,267.51,324.42Z" style="fill:#6f4439"></path><path d="M248.12,346.55c-1.65-.12-3,1.72-3.39,2.38l-1.66.23-6.87.88c-.61-.51-2.36-1.93-3.91-1.36s-1.54,1.45-1.48,2.17a5.38,5.38,0,0,0,.84,1.84,5.69,5.69,0,0,0-.25,2c.13.7.34,1.55,2,1.68s3-1.72,3.39-2.38l5.07-.65,3.36-.44c.6.51,2.36,1.93,3.91,1.36s1.54-1.46,1.48-2.17a6,6,0,0,0-.8-1.86,5.27,5.27,0,0,0,.31-2C250,347.53,249.79,346.68,248.12,346.55Z" style="fill:#6f4439"></path><path d="M284.83,359.59c-.82-1.43-3.08-1.46-3.87-1.45l-1.13-1.24-4.61-5.17c.08-.79.26-3-1.08-4s-2.08-.45-2.63,0a5.58,5.58,0,0,0-1.05,1.74,5.66,5.66,0,0,0-1.79.92c-.51.51-1.09,1.16-.25,2.62s3.08,1.46,3.88,1.45l3.4,3.81L278,360.8c-.08.79-.26,3,1.08,4s2.08.45,2.63,0a5.64,5.64,0,0,0,1.08-1.7,5.36,5.36,0,0,0,1.83-.88C285.09,361.7,285.68,361.05,284.83,359.59Z" style="fill:#6f4439"></path><g style="opacity:0.1"><polygon points="201.44 432 290.65 367.38 309.2 367.38 220.61 432 201.44 432" style="fill:#fff"></polygon></g><path d="M344,418.82c0,.15-41.42.26-92.49.26S159,419,159,418.82s41.41-.26,92.51-.26S344,418.68,344,418.82Z" style="fill:#263238"></path><path d="M254.45,450.79c-2.37-1.11-5.33.89-6.35,1.62l-2.59-.59-10.66-2.56c-.61-1.1-2.41-4.18-5-4.21s-3.11,1.29-3.41,2.38a8.56,8.56,0,0,0,.21,3.21,9,9,0,0,0-1.5,2.82c-.2,1.12-.37,2.5,2,3.63s5.32-.9,6.35-1.62l7.87,1.87,5.22,1.23c.61,1.1,2.41,4.19,5,4.22s3.1-1.3,3.41-2.39a9.06,9.06,0,0,0-.13-3.19,8.66,8.66,0,0,0,1.58-2.8C256.69,453.29,256.86,451.91,254.45,450.79Z" style="fill:#ae7461"></path><path d="M222.44,467.69c-1.32-.79-3.19.2-3.84.57l-1.48-.5L211,465.6c-.28-.69-1.16-2.61-2.69-2.79s-1.91.57-2.16,1.2a3.47,3.47,0,0,1-1.12,3.47c-.19.64-.37,1.44,1,2.26s3.19-.2,3.83-.57l4.52,1.59,3,1c.29.68,1.16,2.61,2.7,2.79s1.9-.57,2.15-1.2a5.32,5.32,0,0,0,.12-1.88,5.06,5.06,0,0,0,1.1-1.56C223.61,469.31,223.79,468.51,222.44,467.69Z" style="fill:#ae7461"></path><path d="M203.81,438.37c-2.52.58-3.62,3.95-4,5.14l-2.38,1.12-9.9,4.5c-1.15-.49-4.44-1.81-6.5-.23s-1.64,2.9-1.21,3.94a8.48,8.48,0,0,0,2.12,2.38,9.18,9.18,0,0,0,.54,3.12c.53,1,1.24,2.18,3.81,1.59s3.62-3.94,4-5.14l7.3-3.33,4.84-2.22c1.14.5,4.44,1.81,6.49.24s1.65-2.9,1.22-4a9.09,9.09,0,0,0-2-2.41,8.54,8.54,0,0,0-.47-3.16C207.09,439,206.38,437.79,203.81,438.37Z" style="fill:#6f4439"></path></g></svg>
