<svg xmlns="http://www.w3.org/2000/svg" viewBox="0 0 500 500"><path d="M474.35 255.7a1 1 0 0 1 0-.23v-3.2c0-2.22 0-5.41-.08-9.44l.15.15-48.65.1c.11-.11-.25.24.24-.25v12.87l-.25-.24 34.68.11 10.23.07h3.75a1 1 0 0 1-.23 0h-3.41l-10.18.07-34.84.11h-.24v-12.97l.25-.25 48.65.1h.15v.15c0 4.07-.07 7.29-.09 9.53v3.14a1.2 1.2 0 0 1-.13.18" style="fill:#e0e0e0"/><path d="M480.94 242.83v-.93c0-.63 0-1.49-.05-2.58 0-2.25-.05-5.44-.09-9.36l.17.18-29.23.07.26-.21v12.85l-.24-.24 20.91.12 6.09.06h2.23a3.3 3.3 0 0 1-.53 0h-1.59l-6 .06-21.07.12h-.23V230l.25-.25 29.23.07h.18v.18c0 4-.07 7.19-.09 9.47v2.54a5 5 0 0 1-.2.82" style="fill:#e0e0e0"/><path d="M43.99 249.21h48.65v12.87H43.99z" style="fill:#f5f5f5"/><path d="M72.07 275.64a2 2 0 0 1 0-.23v-3.2c0-2.22 0-5.41-.08-9.44l.15.15-48.65.1.25-.25v12.85l-.24-.24 34.67.11 10.23.07h3.75-3.63l-10.18.07-34.84.11h-.24v-13.1l.25-.25 48.65.1h.15v.15c0 4.07-.06 7.29-.08 9.53v3.14c0 .17-.15.34-.16.33m262.78 179.65c-1.55-.08-2.72 1.69-3.11 2.32l-1.55.26-6.41 1c-.58-.47-2.26-1.75-3.7-1.17s-1.41 1.4-1.33 2.07a5.1 5.1 0 0 0 .85 1.71 5.2 5.2 0 0 0-.19 1.88c.14.66.36 1.45 1.93 1.52s2.72-1.69 3.11-2.32l4.73-.75 3.14-.5c.58.46 2.26 1.74 3.69 1.17s1.41-1.41 1.33-2.08a5.5 5.5 0 0 0-.79-1.71 5 5 0 0 0 .23-1.89c-.14-.65-.36-1.44-1.93-1.51" style="fill:#e0e0e0"/><path d="M317.56 449.36c-1.2-1-3.19-.27-3.88 0l-1.4-.71-5.74-3c-.19-.72-.77-2.75-2.27-3.15s-2 .29-2.3.87a5 5 0 0 0-.35 1.87 5.4 5.4 0 0 0-1.27 1.4c-.28.61-.58 1.38.64 2.38s3.18.27 3.88 0l4.24 2.22 2.81 1.47c.19.72.77 2.76 2.27 3.15s2-.28 2.3-.87a5.3 5.3 0 0 0 .39-1.85 5.2 5.2 0 0 0 1.32-1.37 1.72 1.72 0 0 0-.64-2.41" style="fill:#f5f5f5"/><path d="M167.3 438.54c-1.55-.07-2.72 1.69-3.11 2.32l-1.55.26-6.41 1c-.58-.46-2.27-1.75-3.7-1.17s-1.41 1.41-1.33 2.07a5.1 5.1 0 0 0 .84 1.71 5.3 5.3 0 0 0-.18 1.88c.14.66.36 1.45 1.93 1.52s2.72-1.69 3.11-2.32l4.73-.75 3.14-.5c.58.46 2.26 1.75 3.69 1.17s1.41-1.41 1.33-2.07A5.4 5.4 0 0 0 169 442a5 5 0 0 0 .23-1.89c-.14-.7-.36-1.5-1.93-1.57m181.52 4.36c-1.93-.77-4.19 1-5 1.59l-2.08-.35-8.59-1.54c-.54-.84-2.11-3.21-4.19-3.11s-2.4 1.17-2.6 2.05a6.9 6.9 0 0 0 .32 2.54 7.1 7.1 0 0 0-1.06 2.31c-.11.9-.18 2 1.79 2.79s4.19-1 5-1.59l6.34 1.13 4.2.73c.54.85 2.11 3.22 4.19 3.12s2.41-1.17 2.6-2.06a7.3 7.3 0 0 0-.26-2.53 6.8 6.8 0 0 0 1.13-2.29c.11-.9.18-2-1.79-2.79" style="fill:#e0e0e0"/><path d="M231.22 287.82h88.47v125.19h-88.47zm91.3 0h-93.33a3.09 3.09 0 0 1-3.09-3.08 3.09 3.09 0 0 1 3.09-3.09h93.33a3.09 3.09 0 0 1 3.09 3.09 3.09 3.09 0 0 1-3.09 3.08" style="fill:#ebebeb"/><path d="M322.52 416h-93.33a3.09 3.09 0 0 1-3.09-3 3.09 3.09 0 0 1 3.09-3.09h93.33a3.09 3.09 0 0 1 3.09 3.09 3.09 3.09 0 0 1-3.09 3" style="fill:#fafafa"/><path d="M319.65 287.82c0 .15-20 .26-44.67.26s-44.67-.11-44.67-.26 20-.26 44.67-.26 44.67.12 44.67.26" style="fill:#e0e0e0"/><path d="M319.61 409.87c0 .14-20 .26-44.67.26s-44.67-.12-44.67-.26 20-.26 44.67-.26 44.67.12 44.67.26" style="fill:#263238"/><path d="M230.27 293.31h89.43v112.76h-89.43z" style="fill:#f5f5f5"/><path d="m297.94 320.89-.24-.2-.92-1c-.18-.2-.33-.25-.39-.53l-.06-.52c-.11-.48-.95-1.12-1.37-1.31l-2.08-.94a4.5 4.5 0 0 0-1.37-.37 10 10 0 0 1-.13-1.25c.08-.37.38-1.71.11-1.38 0 0-.6-.23-1.55 1.12a9.6 9.6 0 0 0-1 2 5 5 0 0 0-.56.34 5.1 5.1 0 0 0-1.9 2.64l-.31 1.07-.9 2.83-4.73 1.74a45.4 45.4 0 0 0-9.24-1.18h-4.37l-.5.05h-.12l-.47.05h-.1l-.44.05h-.11l-.41.05h-.09l-.38.06h-.35c-3-1.24-8.25-3.94-8.18-8.22.1-6.42 4.28-7.55 5.21-7.4 1.7.28 2 2.73 2.87 2.13s0-5.25-4.9-4.28c-3.85.76-5.77 4.4-5.87 9.44-.11 5.7 3.92 9.21 6 10.63-1 1.55-1.31 3.83-1.47 6v.33c0 2.64-5.57 7-5.58 7.7l-.47 6.52a2.7 2.7 0 0 0 .7 1.82l1.34 2.27h1.2a1.16 1.16 0 0 0 1-1.62l-1.1-2.46.46-3.38s1.24-.38 3-1l.31.35c.12.35.27.7.41 1.05l1.65 4.19a5.3 5.3 0 0 0 .48 1 2.8 2.8 0 0 0 .8.76c.32.19.67.33 1 .5l1 .49h2.14c.09-.16.21-.31.28-.47a.43.43 0 0 0 0-.27l-.11-.26c-.09-.17-.13-.36-.23-.52a1.7 1.7 0 0 0-.34-.45 2.8 2.8 0 0 0-1-.49l-1.09-.37-.94-3.3a35 35 0 0 0 3.86-3.64 19.5 19.5 0 0 0 1.65-2.07 8.9 8.9 0 0 0 1.2-2.35 11.35 11.35 0 0 1 6.11-.8 48 48 0 0 1 5 1l-1.08 5.37-.43 7.93 1.1 1.1h3.38a1.4 1.4 0 0 0 .05-.4.8.8 0 0 0 0-.21 2 2 0 0 0-.05-.21 1.2 1.2 0 0 0-.19-.38 1 1 0 0 0-.13-.16.7.7 0 0 0-.15-.14 2.6 2.6 0 0 0-.77-.38l-.8-.31 1.25-6.23 2.56-5.08 1.39 4.5 4 7.74 1.11 1.11H295a1.47 1.47 0 0 0-.89-1.76l-1.19-.46-3.71-7.95 1.26-6.55a10.4 10.4 0 0 0-.31-1.78l.05-.07v-.29l2.58-7.82a1 1 0 0 1 1.18-.82c1 .25 2.3.47 2.54-.13a1.5 1.5 0 0 1 .1-.22 2 2 0 0 1 .12-.23l.12-.06a3 3 0 0 0 .25-.2 2.1 2.1 0 0 0 .52-.75l.19-.65s.29-.43.13-.66m2.8 60.53h-49.17a3.15 3.15 0 0 1-3.15-3.15 3.16 3.16 0 0 1 3.15-3.16h49.17a3.16 3.16 0 0 1 3.15 3.16 3.15 3.15 0 0 1-3.15 3.15m-60.62-13.79a4.6 4.6 0 0 1-1.82-1.7 5 5 0 0 1 0-4.95 4.5 4.5 0 0 1 1.82-1.7 5.5 5.5 0 0 1 2.61-.61 5.8 5.8 0 0 1 2.38.47 4.45 4.45 0 0 1 1.73 1.36l-2 1.74a2.48 2.48 0 0 0-2-1.07 2 2 0 0 0-1.55.62 2.32 2.32 0 0 0-.59 1.66 2.35 2.35 0 0 0 .59 1.67 2 2 0 0 0 1.55.62 2.51 2.51 0 0 0 2-1.07l2 1.73a4.36 4.36 0 0 1-1.73 1.36 6.1 6.1 0 0 1-5-.13Zm13.71-1.2h-3.48l-.61 1.59h-3.14l4-9.14h3l4 9.14h-3.19Zm-.85-2.22-.89-2.3-.89 2.3Zm6.67-2.94H257v-2.39h8.43v2.39h-2.67V368h-3.09Zm13.56-.06v1.56H277v2.33h-3.82v2.9h-3.08v-9.14h7.43v2.33Zm7.41 6.41a4.6 4.6 0 0 1-1.84-1.71 4.54 4.54 0 0 1-.67-2.46 4.61 4.61 0 0 1 2.51-4.17 6.06 6.06 0 0 1 5.3 0 4.69 4.69 0 0 1 0 8.34 6.06 6.06 0 0 1-5.3 0m3.69-2.16a2 2 0 0 0 .74-.8 2.6 2.6 0 0 0 .27-1.21 2.6 2.6 0 0 0-.27-1.21 2 2 0 0 0-2.82-.79 1.93 1.93 0 0 0-.73.79 2.5 2.5 0 0 0-.28 1.21 2.46 2.46 0 0 0 .28 1.21 2 2 0 0 0 .73.8 2 2 0 0 0 1 .28 2 2 0 0 0 1.08-.28" style="fill:#e0e0e0"/><path d="M291.7 367.62a4.6 4.6 0 0 1-1.84-1.71 4.54 4.54 0 0 1-.67-2.46 4.61 4.61 0 0 1 2.51-4.17 6.06 6.06 0 0 1 5.3 0 4.69 4.69 0 0 1 0 8.34 6.06 6.06 0 0 1-5.3 0m3.69-2.16a2 2 0 0 0 .74-.8 2.6 2.6 0 0 0 .27-1.21 2.6 2.6 0 0 0-.27-1.21 2 2 0 0 0-.74-.79 2.07 2.07 0 0 0-2.08 0 2 2 0 0 0-.74.79 2.6 2.6 0 0 0-.27 1.21 2.6 2.6 0 0 0 .27 1.21 2 2 0 0 0 2.82.8m5.25-6.58h4.5a6.2 6.2 0 0 1 2.7.55 4.34 4.34 0 0 1 1.82 1.59 4.93 4.93 0 0 1 0 4.86 4.3 4.3 0 0 1-1.82 1.59 6.2 6.2 0 0 1-2.7.55h-4.5Zm4.37 6.74a2.2 2.2 0 0 0 1.59-.57 2.46 2.46 0 0 0 0-3.2 2.2 2.2 0 0 0-1.59-.57h-1.29v4.34Z" style="fill:#e0e0e0"/><g style="opacity:.30000000000000004"><path d="M289.05 392.83H259a3.84 3.84 0 0 1-3.84-3.84 3.84 3.84 0 0 1 3.84-3.85h30.08a3.84 3.84 0 0 1 3.84 3.85 3.84 3.84 0 0 1-3.87 3.84" style="fill:#e0e0e0"/></g><path d="M231.22 155.51h88.47V280.7h-88.47zm91.3 0h-93.33a3.09 3.09 0 0 1-3.09-3.09 3.1 3.1 0 0 1 3.09-3.09h93.33a3.1 3.1 0 0 1 3.09 3.09 3.09 3.09 0 0 1-3.09 3.09" style="fill:#ebebeb"/><path d="M322.52 283.73h-93.33a3.09 3.09 0 0 1-3.09-3.09 3.1 3.1 0 0 1 3.09-3.09h93.33a3.1 3.1 0 0 1 3.09 3.09 3.09 3.09 0 0 1-3.09 3.09" style="fill:#ebebeb"/><path d="M319.65 155.51c0 .14-20 .26-44.67.26s-44.67-.12-44.67-.26 20-.26 44.67-.26 44.67.11 44.67.26m-.04 122.04c0 .15-20 .26-44.67.26s-44.67-.11-44.67-.26 20-.26 44.67-.26 44.67.12 44.67.26" style="fill:#e0e0e0"/><path d="M230.27 161h89.43v112.76h-89.43z" style="fill:#f5f5f5"/><path d="m297.94 188.58-.24-.21-.92-1c-.18-.2-.33-.26-.39-.53l-.06-.53c-.11-.48-.95-1.12-1.37-1.31l-2.08-.94a4.5 4.5 0 0 0-1.37-.36 10 10 0 0 1-.13-1.26c.08-.36.38-1.7.11-1.38 0 0-.6-.22-1.55 1.13a9 9 0 0 0-1 2 5 5 0 0 0-.56.34 5.17 5.17 0 0 0-1.9 2.65l-.31 1.07-.9 2.83-4.73 1.73a46 46 0 0 0-9.24-1.17h-6.11l-.41.06h-.09l-.38.06h-.35c-3-1.24-8.25-4-8.18-8.23.1-6.41 4.28-7.55 5.21-7.39 1.7.27 2 2.72 2.87 2.12s0-5.25-4.9-4.28c-3.85.77-5.77 4.41-5.87 9.45-.11 5.69 3.92 9.21 6 10.62-1 1.56-1.31 3.84-1.47 6v.34c0 2.63-5.57 7-5.58 7.69l-.47 6.53a2.73 2.73 0 0 0 .7 1.82l1.34 2.27 1.2-.05a1.15 1.15 0 0 0 1-1.62l-1.1-2.45.46-3.39s1.24-.37 3-1l.31.35c.12.35.27.7.41 1l1.65 4.2a5 5 0 0 0 .48 1 2.5 2.5 0 0 0 .8.76c.32.19.67.34 1 .51l1 .49h2.14a5 5 0 0 0 .28-.48.4.4 0 0 0 0-.26c0-.09-.07-.17-.11-.26s-.13-.37-.23-.53a1.6 1.6 0 0 0-.34-.44 2.54 2.54 0 0 0-1-.49l-1.09-.38-.94-3.31a36 36 0 0 0 3.86-3.64 21 21 0 0 0 1.65-2.07 8.8 8.8 0 0 0 1.2-2.36 11.34 11.34 0 0 1 6.11-.81c1.94.27 3.61.64 5 1l-1.08 5.37-.43 7.93 1.1 1.1h3.38a1.3 1.3 0 0 0 .05-.4.8.8 0 0 0 0-.21 2 2 0 0 0-.05-.2 1.1 1.1 0 0 0-.19-.38.7.7 0 0 0-.13-.16.5.5 0 0 0-.15-.15 2.9 2.9 0 0 0-.77-.37l-.8-.31 1.25-6.24 2.56-5.08 1.39 4.5 4 7.73 1.11 1.12H295a1.47 1.47 0 0 0-.89-1.76l-1.19-.47-3.71-7.95 1.26-6.54a10.5 10.5 0 0 0-.31-1.79l.05-.06v-.3l2.58-7.81a1 1 0 0 1 1.18-.82c1 .25 2.3.47 2.54-.13a1.2 1.2 0 0 1 .1-.23l.12-.23.12-.06a1.7 1.7 0 0 0 .25-.2 2 2 0 0 0 .52-.74l.19-.65s.29-.18.13-.4m2.8 60.53h-49.17a3.16 3.16 0 0 1-3.15-3.16 3.15 3.15 0 0 1 3.15-3.15h49.17a3.15 3.15 0 0 1 3.15 3.15 3.16 3.16 0 0 1-3.15 3.16m-60.62-13.8a4.5 4.5 0 0 1-1.82-1.7 4.66 4.66 0 0 1-.66-2.47 4.7 4.7 0 0 1 .66-2.48 4.66 4.66 0 0 1 1.82-1.7 6.1 6.1 0 0 1 5-.13 4.36 4.36 0 0 1 1.73 1.36l-2 1.73a2.51 2.51 0 0 0-2-1.07 2 2 0 0 0-1.55.62 2.35 2.35 0 0 0-.59 1.67 2.32 2.32 0 0 0 .59 1.66 2 2 0 0 0 1.55.62 2.48 2.48 0 0 0 2-1.07l2 1.74a4.45 4.45 0 0 1-1.73 1.36 5.8 5.8 0 0 1-2.38.47 5.5 5.5 0 0 1-2.62-.61m13.71-1.19h-3.48l-.61 1.59h-3.14l4-9.14h3l4 9.14h-3.19Zm-.83-2.22-.89-2.3-.89 2.3Zm6.65-2.9H257v-2.39h8.43V229h-2.67v6.75h-3.09Zm13.56-.11v1.57H277v2.32h-3.82v2.93h-3.08v-9.14h7.43v2.32Zm7.41 6.42a4.61 4.61 0 0 1-2.51-4.17 4.54 4.54 0 0 1 .67-2.46 4.6 4.6 0 0 1 1.84-1.71 6.06 6.06 0 0 1 5.3 0 4.69 4.69 0 0 1 0 8.34 6.06 6.06 0 0 1-5.3 0m3.69-2.17a2 2 0 0 0 .74-.79 2.6 2.6 0 0 0 .27-1.21 2.6 2.6 0 0 0-.27-1.21 2 2 0 0 0-.74-.8 2 2 0 0 0-1-.28 2 2 0 0 0-1 .28 2 2 0 0 0-.73.8 2.46 2.46 0 0 0-.28 1.21 2.5 2.5 0 0 0 .28 1.21 1.93 1.93 0 0 0 .73.79 2 2 0 0 0 1 .28 1.93 1.93 0 0 0 1-.28" style="fill:#e0e0e0"/><path d="M291.7 235.31a4.61 4.61 0 0 1-2.51-4.17 4.54 4.54 0 0 1 .67-2.46 4.6 4.6 0 0 1 1.84-1.68 6.06 6.06 0 0 1 5.3 0 4.69 4.69 0 0 1 0 8.34 6.06 6.06 0 0 1-5.3 0Zm3.69-2.17a2 2 0 0 0 .74-.79 2.6 2.6 0 0 0 .27-1.21 2.6 2.6 0 0 0-.27-1.21 2.1 2.1 0 0 0-.74-.8 2.07 2.07 0 0 0-2.08 0 2.1 2.1 0 0 0-.74.8 2.6 2.6 0 0 0-.27 1.21 2.6 2.6 0 0 0 .27 1.21 2 2 0 0 0 .74.79 2.07 2.07 0 0 0 2.08 0m5.25-6.57h4.5a6.2 6.2 0 0 1 2.7.55 4.3 4.3 0 0 1 1.82 1.59 4.93 4.93 0 0 1 0 4.86 4.34 4.34 0 0 1-1.82 1.59 6.2 6.2 0 0 1-2.7.55h-4.5Zm4.37 6.74a2.2 2.2 0 0 0 1.59-.57 2.46 2.46 0 0 0 0-3.2 2.2 2.2 0 0 0-1.6-.54h-1.29v4.34Z" style="fill:#e0e0e0"/><path d="M289.05 260.52H259a3.85 3.85 0 0 1-3.84-3.85 3.84 3.84 0 0 1 3.84-3.84h30.08a3.84 3.84 0 0 1 3.84 3.84 3.85 3.85 0 0 1-3.87 3.85" style="fill:#ebebeb"/><path d="M296.8 282.34c0 .15-15.57.26-34.78.26s-34.78-.11-34.78-.26 15.57-.26 34.78-.26 34.78.12 34.78.26" style="fill:#e0e0e0"/><path d="M336.87 96.76h111.77v320.32H336.87z" style="fill:#f5f5f5" transform="matrix(-1 0 0 -1 785.51 513.84)"/><path d="M423.05 325.34h18.86v12.74h-18.86z" style="fill:#ebebeb" transform="matrix(-1 0 0 -1 864.96 663.43)"/><rect width="58.21" height="6.63" x="346.72" y="115.28" rx="3.11" style="fill:#ebebeb" transform="matrix(-1 0 0 -1 751.65 237.18)"/><path d="M417.7 96.76h30.94v319.33H417.7z" style="fill:#ebebeb" transform="matrix(-1 0 0 -1 866.34 512.85)"/><circle cx="398.16" cy="331.6" r="9.4" style="fill:#ebebeb" transform="rotate(-70.5 398.139 331.597)"/><rect width="37.11" height="7.08" x="346.49" y="328.88" rx="3.32" style="fill:#ebebeb" transform="matrix(-1 0 0 -1 730.1 664.83)"/><path d="M346.66 244.15c0-.14 11.94-.26 26.66-.26s26.66.12 26.66.26-11.93.26-26.66.26-26.66-.11-26.66-.26m0 10.57c0-.15 11.94-.26 26.66-.26s26.66.11 26.66.26-11.93.26-26.66.26-26.66-.12-26.66-.26m0 11.05c0-.14 11.94-.26 26.66-.26s26.66.12 26.66.26-11.93.26-26.66.26-26.66-.11-26.66-.26m0 11.86c0-.15 11.94-.26 26.66-.26s26.66.11 26.66.26-11.93.26-26.66.26-26.66-.12-26.66-.26" style="fill:#e0e0e0"/><path d="M362.37 173.89c1.43.45 2.66-1.43 3.29-2.64-.44 1.1-.87 2.81.49 3.09 1.79.37 3.53-2.76 3.94-3.56v.09c-.22.74-.69 2.76.68 3a4.3 4.3 0 0 0 1.9-.47v1.89c-.35 0-1.57.22-1.23.51a5 5 0 0 0 1.84.36s.17 1.7.64 1.6.32-.76.29-1.16c0 .43.19 1.2.42 1.22s.37-1.49.37-1.49.15 1.41.45 1.37.49-.72.39-1.66a1.3 1.3 0 0 0-.15-.5h.73s.18 1.71.64 1.61.33-.76.29-1.16c.06.43.19 1.2.42 1.22s.37-1.49.37-1.49.16 1.41.45 1.37.49-.72.39-1.66-.83-1-1.09-1.06a.49.49 0 0 1-.34-.49l.11-2a.9.9 0 0 0 .27-.24 2.2 2.2 0 0 1 .38-.34 12.1 12.1 0 0 0 4.81-1.71c4.14-2.61 4.08-8 4-9.83v-.11c-.12-1.65-2.12-6.59-2.12-6.59a5.8 5.8 0 0 0 1.48-1.25h.16a10.3 10.3 0 0 0 2.54-.42c.1.31.25.64.48.58.43-.12 1.29-.63 1.37-2.19a2.94 2.94 0 0 0-2.43-3.33h-.12a8 8 0 0 0-.47-2.87c-1.33-3.8-5.59-5.44-9.5-4.54s-5.32 3.16-5.79 5.54a13 13 0 0 0 .35 5.22 6 6 0 0 1-.34 1.62c-5.13 1.8-7.93 11.75-8.87 13.74-1.13 2.36-3.56 8.07-1.49 8.73m12.05.58.12-2.27.08-.07.11-.08.37-.32.28-.26h.26a1 1 0 0 0 .06.2.34.34 0 0 0 .12.12v2.91a3.4 3.4 0 0 0-1.1.23.49.49 0 0 1-.3-.46m48.9.3a96 96 0 0 1 9.89-.26 95 95 0 0 1 9.88.26 95 95 0 0 1-9.88.26 96 96 0 0 1-9.89-.26m0 10.23a96 96 0 0 1 9.89-.26 95 95 0 0 1 9.88.26 92 92 0 0 1-9.88.26 92 92 0 0 1-9.89-.26m0 10.15a96 96 0 0 1 9.89-.26 95 95 0 0 1 9.88.26 92 92 0 0 1-9.88.26 92 92 0 0 1-9.89-.26m0 10.2a92 92 0 0 1 9.89-.26 92 92 0 0 1 9.88.26 95 95 0 0 1-9.88.26 96 96 0 0 1-9.89-.26m0 10.19a92 92 0 0 1 9.89-.26 92 92 0 0 1 9.88.26 95 95 0 0 1-9.88.26 96 96 0 0 1-9.89-.26m0 10.19a96 96 0 0 1 9.89-.26 95 95 0 0 1 9.88.26 95 95 0 0 1-9.88.26 96 96 0 0 1-9.89-.26m0 10.19a96 96 0 0 1 9.89-.26 95 95 0 0 1 9.88.26 92 92 0 0 1-9.88.26 92 92 0 0 1-9.89-.26" style="fill:#ebebeb"/><rect width="19.2" height="5.01" x="423.89" y="156.79" rx="2.35" style="fill:#ebebeb" transform="matrix(-1 0 0 -1 866.99 318.6)"/><path d="M365.68 196.18a3.47 3.47 0 0 1 .71 2.2 3.35 3.35 0 0 1-1.58 3 8.26 8.26 0 0 1-4.57 1h-8.18v-14.53h7.77a7.7 7.7 0 0 1 4.39 1 3.2 3.2 0 0 1 1.48 2.76 3.36 3.36 0 0 1-.51 1.83 3.63 3.63 0 0 1-1.5 1.3 4.35 4.35 0 0 1 1.99 1.44m-8.8-4.9v2.16h2.28c1.07 0 1.6-.36 1.6-1.08s-.53-1.08-1.6-1.08Zm4.57 6.54c0-.77-.54-1.15-1.62-1.15h-2.95V199h2.95q1.62 0 1.62-1.18m6.66-9.97H373v14.53h-4.9Zm13.49 10.88h-1.33v3.65h-4.9v-14.53h7a8.4 8.4 0 0 1 3.5.67 5.35 5.35 0 0 1 2.41 7.53 5 5 0 0 1-2 1.85l3.05 4.48h-5.23Zm1.95-6.65a2.16 2.16 0 0 0-1.49-.45h-1.79V195h1.79a2.16 2.16 0 0 0 1.49-.44 1.62 1.62 0 0 0 .5-1.26 1.58 1.58 0 0 0-.5-1.22m7.28-4.23H398a10 10 0 0 1 4.28.88 6.73 6.73 0 0 1 2.89 2.53 7.81 7.81 0 0 1 0 7.72 6.77 6.77 0 0 1-2.89 2.52 9.86 9.86 0 0 1-4.28.88h-7.17Zm7 10.71a3.5 3.5 0 0 0 2.52-.9 3.92 3.92 0 0 0 0-5.09 3.5 3.5 0 0 0-2.52-.9h-2.06v6.89ZM354.25 211v5h6.48v1.15h-6.48v5.32h-1.33v-12.59h8.6V211Zm8.75 5.15a6.59 6.59 0 1 1 6.59 6.38 6.31 6.31 0 0 1-6.59-6.38m11.84 0a5.27 5.27 0 1 0-5.25 5.2 5.08 5.08 0 0 0 5.24-5.2Zm3.16 0a6.59 6.59 0 1 1 6.59 6.38 6.32 6.32 0 0 1-6.59-6.38m11.84 0a5.27 5.27 0 1 0-5.25 5.2 5.08 5.08 0 0 0 5.27-5.2Zm4.32-6.27h5.11c4 0 6.71 2.58 6.71 6.27s-2.7 6.27-6.71 6.27h-5.11Zm5 11.39c3.33 0 5.48-2.11 5.48-5.12s-2.11-5.15-5.44-5.15h-3.71v10.24Z" style="fill:#ebebeb"/><path d="M91.48 49.07h48.65v12.87H91.48z" style="fill:#f5f5f5"/><path d="M119.56 75.5a1 1 0 0 1 0-.23v-3.2c0-2.22 0-5.41-.08-9.44l.15.15-48.65.1c.11-.11-.25.25.24-.25V75.5l-.24-.24 34.67.11 10.23.07h3.75a1 1 0 0 1-.23 0h-3.41l-10.17.07-34.84.11h-.25V62.65l.25-.25 48.65.1h.15v.15c0 4.07-.06 7.29-.08 9.53v3.14a1.2 1.2 0 0 1-.14.18" style="fill:#e0e0e0"/><path d="M391.65 35.74h48.65v12.87h-48.65z" style="fill:#f5f5f5"/><path d="M419.73 62.17a1.4 1.4 0 0 1 0-.24v-3.19c0-2.22-.05-5.42-.09-9.44l.16.15-48.65.09.24-.24v12.87l-.25-.25 34.67.11 10.19.07h3.75-3.64l-10.18.07-34.84.11h-.24V49.32c.49-.5.13-.14.25-.25l48.65.09h.15v.16c0 4.06-.07 7.29-.09 9.53v3.13a2 2 0 0 1-.08.19M274 96.27a1 1 0 0 1 0-.23v-3.19c0-2.22-.05-5.42-.08-9.45l.15.15-48.65.1c.11-.11-.25.25.24-.25v12.87l-.24-.24 34.67.11 10.23.07H274h-3.64l-10.17.07-34.84.11h-.25V83.41c.49-.49.14-.13.25-.24l48.65.09h.15v.15c0 4.07-.06 7.29-.08 9.54v3.13a1 1 0 0 1-.07.19" style="fill:#e0e0e0"/><path d="M280.63 83.4v-.92c0-.64 0-1.5-.05-2.58 0-2.26-.05-5.45-.09-9.37l.17.18-29.23.07.25-.25v12.86l-.24-.23 20.91.11 6.1.07h1.64a5 5 0 0 1 .58 0 3.3 3.3 0 0 1-.53 0h-1.59l-6 .07-21.07.11h-.23V70.54l.25-.25 29.23.07h.18v.17c0 4-.07 7.19-.09 9.47 0 1.07 0 1.92-.05 2.55a4.7 4.7 0 0 1-.14.85" style="fill:#e0e0e0"/><path d="M480.09 417.07c0 .14-103 .26-230.08.26s-230.1-.12-230.1-.26 103-.26 230.1-.26 230.08.11 230.08.26" style="fill:#263238"/><path d="M304.56 225.26h146.92v191.55H304.56z" style="fill:#ff9a6c" transform="matrix(-1 0 0 -1 756.04 642.07)"/><path d="M418.75 366.02h24.31v11.06h-24.31z" style="fill:#fff" transform="matrix(-1 0 0 -1 861.81 743.1)"/><path d="M382.24 292.38c-4.74-1-9.22 3.91-10.75 5.66l-4.92.06h-20.32c-1.57-1.72-6.16-6.51-10.88-5.42s-5 3.67-5.11 5.77 1.77 5.69 1.77 5.69-1.62 3.63-1.49 5.73.42 4.66 5.24 5.65 9.22-3.91 10.75-5.66h25c1.57 1.72 6.16 6.51 10.87 5.43s5-3.67 5.12-5.78-1.62-5.69-1.62-5.69 1.77-3.63 1.64-5.73-.47-4.72-5.3-5.71m-53.83 43.92a5.4 5.4 0 0 1-2.16-1.3l.56-1.11a5.6 5.6 0 0 0 2 1.2 7.2 7.2 0 0 0 2.55.46 4.66 4.66 0 0 0 2.76-.67 2.09 2.09 0 0 0 .92-1.76 1.7 1.7 0 0 0-.5-1.31 3.4 3.4 0 0 0-1.22-.76 20 20 0 0 0-2-.58 21 21 0 0 1-2.47-.75 3.9 3.9 0 0 1-1.58-1.11 2.94 2.94 0 0 1-.66-2 3.37 3.37 0 0 1 .55-1.89 3.73 3.73 0 0 1 1.69-1.37 6.8 6.8 0 0 1 2.82-.51 8.2 8.2 0 0 1 2.3.33 6.4 6.4 0 0 1 2 .89l-.49 1.16a6.9 6.9 0 0 0-3.77-1.14 4.42 4.42 0 0 0-2.72.7 2.17 2.17 0 0 0-.91 1.79 1.8 1.8 0 0 0 .5 1.32 3.2 3.2 0 0 0 1.26.77c.5.17 1.18.37 2 .58a22 22 0 0 1 2.44.73 4 4 0 0 1 1.58 1.1 2.92 2.92 0 0 1 .64 2 3.37 3.37 0 0 1-.55 1.89 3.86 3.86 0 0 1-1.72 1.36 7.2 7.2 0 0 1-2.84.5 9.1 9.1 0 0 1-2.98-.52m22.69-13.36v13.73h-1.2l-8.83-11.14v11.14h-1.45v-13.73h1.2l8.84 11.14v-11.14ZM364.18 333h-7.65l-1.65 3.67h-1.51l6.28-13.73h1.43l6.28 13.73h-1.53Zm-.53-1.17-3.3-7.38-3.29 7.38Zm8.07 4.06a6.7 6.7 0 0 1-2.57-2.5 7.36 7.36 0 0 1 0-7.16 6.6 6.6 0 0 1 2.58-2.51 8 8 0 0 1 6.51-.39 5.9 5.9 0 0 1 2.2 1.49l-.92.93a5.48 5.48 0 0 0-4.07-1.63 6 6 0 0 0-3 .74 5.44 5.44 0 0 0-2.08 2 5.93 5.93 0 0 0 0 5.81 5.44 5.44 0 0 0 2.08 2 5.94 5.94 0 0 0 3 .74 5.44 5.44 0 0 0 4.07-1.64l.92.92a6 6 0 0 1-2.21 1.5 7.7 7.7 0 0 1-2.83.52 7.5 7.5 0 0 1-3.68-.82m16.07-5.67-2.8 2.84v3.61h-1.45v-13.73H385v8.3l8.06-8.3h1.67l-6 6.22 6.36 7.51h-1.69ZM336 272.75h6.77a9.3 9.3 0 0 1 4.05.84 6.3 6.3 0 0 1 2.73 2.38 7.33 7.33 0 0 1 0 7.29 6.37 6.37 0 0 1-2.73 2.39 9.4 9.4 0 0 1-4.05.83H336Zm6.57 10.12A3.3 3.3 0 0 0 345 282a3.69 3.69 0 0 0 0-4.81 3.3 3.3 0 0 0-2.39-.85h-1.94v6.51Zm12.88 3a6.85 6.85 0 0 1-2.77-2.56 7.33 7.33 0 0 1 0-7.39 6.9 6.9 0 0 1 2.77-2.56 9.07 9.07 0 0 1 8 0 6.9 6.9 0 0 1 2.77 2.56 7.33 7.33 0 0 1 0 7.39 6.85 6.85 0 0 1-2.77 2.56 9.07 9.07 0 0 1-8 0m5.54-3.24a3.07 3.07 0 0 0 1.11-1.2 4.22 4.22 0 0 0 0-3.63 3.1 3.1 0 0 0-1.11-1.19 3 3 0 0 0-3.12 0 3.1 3.1 0 0 0-1.11 1.19 4.22 4.22 0 0 0 0 3.63 3.07 3.07 0 0 0 1.11 1.2 3.11 3.11 0 0 0 3.12 0m17.01-3.39h4v5.81a9.4 9.4 0 0 1-2.83 1.29 11.7 11.7 0 0 1-3.16.45 8.4 8.4 0 0 1-3.94-.91 6.8 6.8 0 0 1-2.73-2.55 7.47 7.47 0 0 1 0-7.43 6.8 6.8 0 0 1 2.76-2.55 8.6 8.6 0 0 1 4-.91 9.2 9.2 0 0 1 3.62.67 6.84 6.84 0 0 1 2.66 2l-3 2.6a4 4 0 0 0-3.08-1.51 3.22 3.22 0 0 0-2.43.93 3.4 3.4 0 0 0-.91 2.51 3.46 3.46 0 0 0 .9 2.49 3.15 3.15 0 0 0 2.38.94 4.4 4.4 0 0 0 1.69-.33Z" style="fill:#fff"/><g style="opacity:.30000000000000004"><circle cx="358.87" cy="301.8" r="19.93" style="fill:#fff"/></g><g style="opacity:.30000000000000004"><rect width="68.89" height="5.76" x="322.49" y="238.52" rx="2.69" style="fill:#fff" transform="matrix(-1 0 0 -1 713.87 482.81)"/></g><path d="M410.81 225.26h40.67v191.55h-40.67z" style="opacity:.30000000000000004" transform="matrix(-1 0 0 -1 862.29 642.07)"/><path d="M417.53 276.2c0-.14 5.86-.26 13.09-.26s13.1.12 13.1.26-5.87.26-13.1.26-13.09-.11-13.09-.26m0 5.8c0-.14 5.86-.26 13.09-.26s13.1.12 13.1.26-5.87.26-13.1.26-13.09-.08-13.09-.26m0 5.86c0-.14 5.86-.26 13.09-.26s13.1.12 13.1.26-5.87.26-13.1.26-13.09-.12-13.09-.26m0 5.83c0-.14 5.86-.26 13.09-.26s13.1.12 13.1.26-5.87.26-13.1.26-13.09-.11-13.09-.26m0 5.83c0-.14 5.86-.26 13.09-.26s13.1.12 13.1.26-5.87.26-13.1.26-13.09-.11-13.09-.26m0 5.83c0-.14 5.86-.26 13.09-.26s13.1.12 13.1.26-5.87.26-13.1.26-13.09-.11-13.09-.26m0 5.83c0-.14 5.86-.26 13.09-.26s13.1.12 13.1.26-5.87.26-13.1.26-13.09-.11-13.09-.26" style="fill:#263238"/><rect width="19.34" height="4.28" x="421.37" y="264.89" rx="2" style="fill:#263238" transform="matrix(-1 0 0 -1 862.08 534.07)"/><path d="M451.48 254.56c0 .14-32.89.26-73.46.26s-73.46-.12-73.46-.26 32.89-.26 73.46-.26 73.46.12 73.46.26" style="fill:#263238"/><path d="M393.39 241.28c0 .15-13.24.26-29.56.26s-29.56-.11-29.56-.26 13.23-.26 29.56-.26 29.56.12 29.56.26" style="fill:#fff"/><rect width="16.48" height="9.66" x="320.07" y="385.3" rx="2.03" style="fill:#fff"/><path d="M402.06 354.31c0 .15-16.71.26-37.31.26s-37.32-.11-37.32-.26 16.7-.26 37.32-.26 37.31.12 37.31.26m0 5.69c0 .15-16.71.26-37.31.26s-37.32-.11-37.32-.26 16.7-.26 37.32-.26 37.31.11 37.31.26m-21.49 5.67c0 .15-8.5.27-19 .27s-19-.12-19-.27 8.5-.26 19-.26 19 .12 19 .26" style="fill:#263238"/><path d="M405.56 387.15c0 .14-13.86.26-30.95.26s-31-.12-31-.26 13.86-.26 31-.26 30.95.11 30.95.26m-23.68 4.41c0 .14-8.56.26-19.11.26s-19.12-.12-19.12-.26 8.56-.26 19.12-.26 19.11.12 19.11.26" style="fill:#fff"/><path d="M375.04 370.99h95.7v42.58h-95.7z" style="fill:#e0e0e0"/><path d="M473.79 371H372.85a3.33 3.33 0 0 1-3.34-3.33 3.33 3.33 0 0 1 3.34-3.34h100.94a3.33 3.33 0 0 1 3.34 3.34 3.33 3.33 0 0 1-3.34 3.33m0 45.85H372.85a3.34 3.34 0 0 1-3.34-3.34 3.33 3.33 0 0 1 3.34-3.34h100.94a3.33 3.33 0 0 1 3.34 3.34 3.34 3.34 0 0 1-3.34 3.34" style="fill:#e0e0e0"/><path d="M375.04 374.45h95.7v31.41h-95.7z" style="fill:#2d9f82"/><path d="M471.84 410.17c0 .14-22.13.26-49.42.26s-49.42-.12-49.42-.26 22.12-.26 49.42-.26 49.42.09 49.42.26m2.04-39.17c0 .15-22.13.27-49.42.27S375 371.14 375 371s22.12-.26 49.42-.26 49.46.11 49.46.26" style="fill:#263238"/><g style="opacity:.30000000000000004"><ellipse cx="423.9" cy="390.58" rx="33.69" ry="11.13" style="fill:#fff"/></g><path d="M405.3 392c2.87 2.64 13.39 7.19 30.59-.78a.85.85 0 0 0 0-1.54c-5.19-3.22-21.57-8-30.55-.35a1.78 1.78 0 0 0-.04 2.67" style="fill:#fff"/><path d="m434.43 389.88 7-3.33a.71.71 0 0 1 1 .63l.1 6.56a.7.7 0 0 1-1 .65l-7.07-3.23a.7.7 0 0 1-.03-1.28" style="fill:#fff"/><path d="m60.43 136.09-3.76-19.22h137.58l-3.91 19.22z" style="fill:#2d9f82"/><path d="m61.33 134.51-28.36 87.43v195.13h33.94L82.6 234.94z" style="fill:#2d9f82"/><path d="M41.27 361.5h16.51v37.27H41.27zm0-20.43h16.51v13.89H41.27z" style="fill:#e0e0e0"/><path d="m60.67 136.55-27.7 85.39v195.13h33.94L82.6 234.94z" style="opacity:.30000000000000004"/><path d="m65.34 220.79-4.91-84.7h129.91l24.14 84.7v196.28H66.91z" style="fill:#2d9f82"/><path d="M214.55 222c0 .15-33.62.26-75.08.26s-75.08-.11-75.08-.26 33.61-.26 75.08-.26 75.08.14 75.08.26m-24.88-85.67c0 .15-29 .26-64.88.26s-64.88-.11-64.88-.26 29-.26 64.88-.26 64.88.12 64.88.26" style="fill:#263238"/><path d="M157.53 196.37h-40.16a4.16 4.16 0 0 1-4.16-4.16 4.16 4.16 0 0 1 4.16-4.16h40.16a4.16 4.16 0 0 1 4.16 4.16 4.16 4.16 0 0 1-4.16 4.16m21.96 137.21h-64.86a4.16 4.16 0 0 1-4.16-4.16 4.16 4.16 0 0 1 4.16-4.15h64.86a4.16 4.16 0 0 1 4.16 4.15 4.16 4.16 0 0 1-4.16 4.16" style="fill:#fff"/><rect width="20.5" height="8.32" x="125.46" y="174.58" rx="4.16" style="fill:#fff"/><g style="opacity:.30000000000000004"><circle cx="145.64" cy="265.64" r="30.8" style="fill:#fff"/></g><path d="M171.72 250.58a15.86 15.86 0 0 0 1.1-10.8 15.6 15.6 0 0 1-9.71 13.73c-3.17-.49-15.66.16-15.66.16l-13.57-2.38-3.39-4.89-1.49-2.69a28 28 0 0 0 .26-3.53c.1-9.84-2.06-10.13-2.06-10.13l-2.54 4.78a18 18 0 0 0-1.78-3 17.1 17.1 0 0 0-.31 4.84l-2.07.16s-2.57 0-3.7.09-2.53 1.5-3.16 2.16c-.49.51-5 .68-7 .74a1 1 0 0 0-1 1c0 .61 0 1.51.12 2.71.22 2.48 4 4.6 4 4.6s.81 1.18 2.86.36c.33-.13 6.44 1.16 6.44 1.16l2.18 3.57a46.9 46.9 0 0 0 6.54 12.46c-2.33-.07-5 0-6.38.84-3 1.64-4.78 5.17-2.11 8.35s5.33 3.53 5.94 2.16a11.5 11.5 0 0 0 .43-4.05l7.3-.58 4.84 8.86s-6.28.24-6.54 5.32l9.38.43s3.91-2.92 3.29-5.33c-.39-1.51-1.51-5.55-2.3-8.36a17.3 17.3 0 0 0 4.58-.81 6.2 6.2 0 0 0 1.11 2.19c3.22 4.22 6 3.19 6 3.45s-1 4.47-1 4.47-7.04-.62-8.32 4.38h11l5-10.26a6.52 6.52 0 0 0 4.15 0c.09.24.59 4.54.59 4.54s-5.57 1.31-5.14 6.45l9.11-3.19 1.48-12.19-1.87-1.17s-2 2-3.52-1.47c-.09-.2-.18-.41-.26-.61a20.65 20.65 0 0 0 2.38-7.91 9.75 9.75 0 0 0-.81-4.32 16 16 0 0 0 5.61-6.29m-74.98 53.27h6a8.35 8.35 0 0 1 3.56.73 5.6 5.6 0 0 1 2.39 2.1 6.4 6.4 0 0 1 0 6.41 5.6 5.6 0 0 1-2.39 2.09 8.2 8.2 0 0 1-3.56.73h-6Zm5.78 8.89a2.9 2.9 0 0 0 2.09-.75 3.24 3.24 0 0 0 0-4.22 2.9 2.9 0 0 0-2.09-.75h-1.71v5.72Z" style="fill:#fff"/><path d="M113.8 315.38a6.18 6.18 0 0 1 0-11 8 8 0 0 1 7 0 6.18 6.18 0 0 1 0 11 8 8 0 0 1-7 0m4.87-2.85a2.66 2.66 0 0 0 1-1 3.4 3.4 0 0 0 .37-1.6 3.3 3.3 0 0 0-.37-1.59 2.6 2.6 0 0 0-1-1.05 2.72 2.72 0 0 0-2.74 0 2.6 2.6 0 0 0-1 1.05 3.3 3.3 0 0 0-.37 1.59 3.4 3.4 0 0 0 .37 1.6 2.66 2.66 0 0 0 3.71 1Z" style="fill:#fff"/><path d="M133.57 309.56h3.53v5.1a8.2 8.2 0 0 1-2.48 1.13 10 10 0 0 1-2.78.4 7.4 7.4 0 0 1-3.46-.8 6 6 0 0 1-2.4-2.24 6.56 6.56 0 0 1 0-6.53 6 6 0 0 1 2.42-2.24 7.55 7.55 0 0 1 3.53-.8 8 8 0 0 1 3.18.59 6 6 0 0 1 2.33 1.73l-2.6 2.29a3.46 3.46 0 0 0-2.7-1.32 2.86 2.86 0 0 0-2.14.81 3 3 0 0 0-.79 2.2 3.06 3.06 0 0 0 .78 2.19 2.75 2.75 0 0 0 2.09.83 3.8 3.8 0 0 0 1.49-.3Zm14.5-2.64V309h5v3.06h-5v3.86H144v-12.07h9.8v3.07Zm9.77 8.46a6.18 6.18 0 0 1 0-11 8 8 0 0 1 7 0 6.18 6.18 0 0 1 0 11 8 8 0 0 1-7 0m4.87-2.85a2.66 2.66 0 0 0 1-1 3.3 3.3 0 0 0 .37-1.6 3.2 3.2 0 0 0-.37-1.59 2.6 2.6 0 0 0-1-1.05 2.72 2.72 0 0 0-2.74 0 2.6 2.6 0 0 0-1 1.05 3.3 3.3 0 0 0-.36 1.59 3.4 3.4 0 0 0 .36 1.6 2.66 2.66 0 0 0 3.71 1Z" style="fill:#fff"/><path d="M172.45 315.38a6.18 6.18 0 0 1 0-11 8 8 0 0 1 7 0 6.13 6.13 0 0 1 2.43 2.25 6.42 6.42 0 0 1 0 6.49 6.13 6.13 0 0 1-2.43 2.25 8 8 0 0 1-7 0Zm4.87-2.85a2.76 2.76 0 0 0 1-1 3.4 3.4 0 0 0 .36-1.6 3.3 3.3 0 0 0-.36-1.59 2.7 2.7 0 0 0-1-1.05 2.72 2.72 0 0 0-2.74 0 2.6 2.6 0 0 0-1 1.05 3.3 3.3 0 0 0-.36 1.59 3.4 3.4 0 0 0 .36 1.6 2.66 2.66 0 0 0 3.71 1Zm6.92-8.68h5.94a8.3 8.3 0 0 1 3.56.73 5.6 5.6 0 0 1 2.4 2.1 6.47 6.47 0 0 1 0 6.41 5.57 5.57 0 0 1-2.4 2.09 8.2 8.2 0 0 1-3.56.73h-5.94Zm5.77 8.89a2.94 2.94 0 0 0 2.1-.75 3.24 3.24 0 0 0 0-4.22A2.94 2.94 0 0 0 190 307h-1.7v5.72Z" style="fill:#fff"/><g style="opacity:.30000000000000004"><circle cx="92.67" cy="398.77" r="9.28" style="fill:#fff"/></g><g style="opacity:.30000000000000004"><path d="M190.88 402.37h-69.2a3.15 3.15 0 0 1-3.15-3.15 3.15 3.15 0 0 1 3.15-3.15h69.2a3.16 3.16 0 0 1 3.16 3.15 3.16 3.16 0 0 1-3.16 3.15" style="fill:#fff"/></g><g style="opacity:.30000000000000004"><path d="M175.91 355h-55a5.07 5.07 0 0 1-5.07-5.07 5.07 5.07 0 0 1 5.07-5.07h55a5.07 5.07 0 0 1 5.07 5.07 5.07 5.07 0 0 1-5.07 5.07" style="fill:#fff"/></g><g style="opacity:.30000000000000004"><path d="M162.21 372h-19.69a5.07 5.07 0 0 1-5.07-5.07 5.07 5.07 0 0 1 5.07-5.07h19.69a5.07 5.07 0 0 1 5.07 5.07 5.07 5.07 0 0 1-5.07 5.07" style="fill:#fff"/></g><path d="M305.93 358.89a16 16 0 0 0-14.93-5.73 19.37 19.37 0 0 0-32-9.46c-6-5-12.9-9.08-20.52-10.77s-16-.79-22.53 3.44-10.95 12.06-10.06 19.81a15 15 0 0 0-16.75 18.39l118.94.13a16 16 0 0 0-2.15-15.81" style="fill:#ae7461"/><path d="m340.41 419.19-16.27-45.57a9.41 9.41 0 0 0-8.86-6.24H187.66a9.42 9.42 0 0 0-8.86 6.24l-16.27 45.57H159a6.41 6.41 0 0 0-6.4 6.4A6.41 6.41 0 0 0 159 432h185a6.4 6.4 0 0 0 6.4-6.41 6.4 6.4 0 0 0-6.4-6.4Z" style="fill:#455a64"/><path d="M267.51 324.42c-1.22-1.1-3.38-.44-4.13-.19l-1.46-.83-6-3.51c-.16-.78-.68-3-2.25-3.47s-2.12.21-2.5.81a5.4 5.4 0 0 0-.47 2 5.8 5.8 0 0 0-1.42 1.42c-.33.64-.68 1.44.56 2.57s3.38.44 4.14.19l4.4 2.58 2.93 1.71c.17.78.69 3 2.26 3.47s2.11-.21 2.5-.81a5.9 5.9 0 0 0 .51-1.95 5.5 5.5 0 0 0 1.47-1.4c.35-.66.71-1.46-.54-2.59m-19.39 22.13c-1.65-.12-3 1.72-3.39 2.38l-1.66.23-6.87.88c-.61-.51-2.36-1.93-3.91-1.36s-1.54 1.45-1.48 2.17a5.4 5.4 0 0 0 .84 1.84 5.7 5.7 0 0 0-.25 2c.13.7.34 1.55 2 1.68s3-1.72 3.39-2.38l5.07-.65 3.36-.44c.6.51 2.36 1.93 3.91 1.36s1.54-1.46 1.48-2.17a6 6 0 0 0-.8-1.86 5.3 5.3 0 0 0 .31-2c-.12-.7-.33-1.55-2-1.68m36.71 13.04c-.82-1.43-3.08-1.46-3.87-1.45l-1.13-1.24-4.61-5.17c.08-.79.26-3-1.08-4s-2.08-.45-2.63 0a5.6 5.6 0 0 0-1.05 1.74 5.7 5.7 0 0 0-1.79.92c-.51.51-1.09 1.16-.25 2.62s3.08 1.46 3.88 1.45l3.4 3.81 2.3 2.53c-.08.79-.26 3 1.08 4s2.08.45 2.63 0a5.6 5.6 0 0 0 1.08-1.7 5.4 5.4 0 0 0 1.83-.88c.47-.52 1.06-1.17.21-2.63" style="fill:#6f4439"/><g style="opacity:.1"><path d="m201.44 432 89.21-64.62h18.55L220.61 432z" style="fill:#fff"/></g><path d="M344 418.82c0 .15-41.42.26-92.49.26S159 419 159 418.82s41.41-.26 92.51-.26 92.49.12 92.49.26" style="fill:#263238"/><path d="M254.45 450.79c-2.37-1.11-5.33.89-6.35 1.62l-2.59-.59-10.66-2.56c-.61-1.1-2.41-4.18-5-4.21s-3.11 1.29-3.41 2.38a8.6 8.6 0 0 0 .21 3.21 9 9 0 0 0-1.5 2.82c-.2 1.12-.37 2.5 2 3.63s5.32-.9 6.35-1.62l7.87 1.87 5.22 1.23c.61 1.1 2.41 4.19 5 4.22s3.1-1.3 3.41-2.39a9 9 0 0 0-.13-3.19 8.7 8.7 0 0 0 1.58-2.8c.24-1.12.41-2.5-2-3.62m-32.01 16.9c-1.32-.79-3.19.2-3.84.57l-1.48-.5-6.12-2.16c-.28-.69-1.16-2.61-2.69-2.79s-1.91.57-2.16 1.2a3.47 3.47 0 0 1-1.12 3.47c-.19.64-.37 1.44 1 2.26s3.19-.2 3.83-.57l4.52 1.59 3 1c.29.68 1.16 2.61 2.7 2.79s1.9-.57 2.15-1.2a5.3 5.3 0 0 0 .12-1.88 5.1 5.1 0 0 0 1.1-1.56c.16-.6.34-1.4-1.01-2.22" style="fill:#ae7461"/><path d="M203.81 438.37c-2.52.58-3.62 3.95-4 5.14l-2.38 1.12-9.9 4.5c-1.15-.49-4.44-1.81-6.5-.23s-1.64 2.9-1.21 3.94a8.5 8.5 0 0 0 2.12 2.38 9.2 9.2 0 0 0 .54 3.12c.53 1 1.24 2.18 3.81 1.59s3.62-3.94 4-5.14l7.3-3.33 4.84-2.22c1.14.5 4.44 1.81 6.49.24s1.65-2.9 1.22-4a9.1 9.1 0 0 0-2-2.41 8.5 8.5 0 0 0-.47-3.16c-.58-.91-1.29-2.12-3.86-1.54" style="fill:#6f4439"/></svg>