<svg xmlns="http://www.w3.org/2000/svg" viewBox="0 0 500 500"><path d="M29.29 58.41H251.4v146.28H29.29z" style="fill:#f5f5f5"/><path d="M64.08 93.36S61 91.64 59 93.75c-.7.75-.88 3.21 1.86 3.7 0 0 5.93-.32 8.63-.81s8.84-3.2 8.84-3.2l3.19-7.11s.41-3.36.82-3.44S84 86.33 84 86.33l6.88 2 .73 1.39L86 92s.82 8.84.08 10.39a14.5 14.5 0 0 1-2.86 3.44l.32 12.85s1.23-.49 1.31.41h-3.26s-1.31-8-3.19-8.6l.49-3.35L66 106.05s.9 3-2.78 5.48a26.5 26.5 0 0 0-5.28 4.47v2.45s1.07.41 1.15 1.31h-3.93s.49-6.79 0-7.94c0 0 4.82-4.92 4.17-11 0 0-5.48-1.39-4.17-6.71s7.45-5.41 8.92-.75m.82 40.96s-1.93-1.06-3.16.25a1.45 1.45 0 0 0 1.15 2.3s3.69-.21 5.36-.51a39 39 0 0 0 5.5-2l2-4.42s.25-2.08.51-2.14 1 2.14 1 2.14l4.28 1.22.46.84-3.45 1.43s.5 5.49 0 6.46a9 9 0 0 1-1.78 2.13l.2 8s.76-.31.81.25h-2s-.81-5-2-5.34l.3-2.08-8-.67s.56 1.89-1.73 3.41a16.7 16.7 0 0 0-3.31 2.75v1.52s.66.26.72.82h-2.4s.3-4.22 0-4.94c0 0 3-3.06 2.59-6.81 0 0-3.41-.86-2.59-4.17s4.64-3.34 5.54-.44m-1.4 34s-1.46-.8-2.38.19a1.09 1.09 0 0 0 .87 1.73s2.77-.16 4-.39a29 29 0 0 0 4.13-1.49l1.5-3.33s.19-1.57.38-1.61.77 1.61.77 1.61L76 166l.34.65-2.6 1.07s.38 4.14 0 4.87a6.7 6.7 0 0 1-1.34 1.6l.16 6s.57-.23.61.19H71.7s-.62-3.75-1.5-4l.23-1.57-6-.5a2.41 2.41 0 0 1-1.3 2.57 12.4 12.4 0 0 0-2.49 2.06V180s.49.2.53.62h-1.85a20 20 0 0 0 0-3.72 7.2 7.2 0 0 0 2-5.13 2.59 2.59 0 0 1-2-3.14c.62-2.45 3.49-2.49 4.18-.31m154.33-69.21c0 .14-23.09.26-51.58.26s-51.58-.12-51.58-.26 23.09-.26 51.58-.26 51.58.15 51.58.26m0 3.98c0 .14-23.09.26-51.58.26s-51.58-.12-51.58-.26 23.09-.26 51.58-.26 51.58.11 51.58.26m0 3.97c0 .15-23.09.26-51.58.26s-51.58-.11-51.58-.26 23.09-.26 51.58-.26 51.58.12 51.58.26m0 3.94c0 .15-23.09.26-51.58.26s-51.58-.11-51.58-.26 23.09-.26 51.58-.26 51.58.16 51.58.26m0 22.58c0 .15-23.09.26-51.58.26s-51.58-.11-51.58-.26 23.09-.26 51.58-.26 51.58.12 51.58.26m0 3.98c0 .15-23.09.26-51.58.26s-51.58-.11-51.58-.26 23.09-.26 51.58-.26 51.58.12 51.58.26m0 3.98c0 .14-23.09.26-51.58.26s-51.58-.12-51.58-.26 23.09-.26 51.58-.26 51.58.12 51.58.26m0 3.98c0 .14-23.09.26-51.58.26s-51.58-.12-51.58-.26 23.09-.26 51.58-.26 51.58.11 51.58.26m0 22.54c0 .14-23.09.26-51.58.26s-51.58-.12-51.58-.26 23.09-.26 51.58-.26 51.58.12 51.58.26m0 3.94c0 .14-23.09.26-51.58.26s-51.58-.12-51.58-.26 23.09-.26 51.58-.26 51.58.15 51.58.26m0 4c0 .14-23.09.26-51.58.26s-51.58-.12-51.58-.26 23.09-.26 51.58-.26 51.58.13 51.58.26m0 4c0 .15-23.09.26-51.58.26s-51.58-.11-51.58-.26 23.09-.26 51.58-.26 51.58.11 51.58.26m-9.14-100.75c0 1.44-22.92 2.61-51.18 2.61s-51.19-1.17-51.19-2.61 22.91-2.6 51.19-2.6 51.18 1.16 51.18 2.6" style="fill:#e0e0e0"/><path d="M377.53 55.11h-2.81v-5.32a3 3 0 0 0-2.78-3.12h-21.39a3 3 0 0 0-2.77 3.12v5.32H345v-5.32a5.78 5.78 0 0 1 5.58-5.94h21.39a5.78 5.78 0 0 1 5.59 5.94Z" style="fill:#ebebeb"/><rect width="110.69" height="74.01" x="305.69" y="55.11" rx="9.13" style="fill:#ebebeb"/><path d="M357.93 77.17h6.64v29.75h-6.64z" style="fill:#f5f5f5"/><path d="M357.93 77.17h6.64v29.75h-6.64z" style="fill:#f5f5f5" transform="rotate(-90 361.25 92.05)"/><path d="M386 92.12v-.4c0-.26-.05-.68-.09-1.18 0-.26 0-.55-.05-.86s-.11-.66-.17-1a18 18 0 0 0-.52-2.55 23.5 23.5 0 0 0-2.76-6.56 24.76 24.76 0 0 0-32.73-9.06 26 26 0 0 0-3 1.93 28 28 0 0 0-2.78 2.37 27 27 0 0 0-2.4 2.84 23.9 23.9 0 0 0-3.51 6.76 24.25 24.25 0 0 0 0 15.49 23.7 23.7 0 0 0 3.5 6.76 29 29 0 0 0 2.41 2.85 28 28 0 0 0 2.78 2.37 26 26 0 0 0 3 1.93 26 26 0 0 0 3.2 1.41 24.67 24.67 0 0 0 12.91 1.08 24.73 24.73 0 0 0 16.62-11.55 23.5 23.5 0 0 0 2.76-6.56 18 18 0 0 0 .52-2.55c.06-.38.13-.72.17-1s0-.6.05-.86c0-.5.07-.89.09-1.18s0-.4 0-.4a1.6 1.6 0 0 1 0 .4v2.05c0 .32-.09.67-.14 1.05a19 19 0 0 1-.48 2.58 24 24 0 0 1-2.7 6.66 25 25 0 0 1-16.8 11.83 25.14 25.14 0 0 1-13.15-1 26 26 0 0 1-3.27-1.43 27 27 0 0 1-3.08-2 29 29 0 0 1-2.84-2.41 28.5 28.5 0 0 1-2.46-2.9 24.3 24.3 0 0 1-3.59-6.91 26.5 26.5 0 0 1-1.29-7.9 26.9 26.9 0 0 1 1.29-7.91 24.6 24.6 0 0 1 3.59-6.9 29 29 0 0 1 2.46-2.9 28 28 0 0 1 2.75-2.51 25 25 0 0 1 3.07-2 26 26 0 0 1 3.27-1.43 25.1 25.1 0 0 1 13.14-1 25 25 0 0 1 16.81 11.83 24 24 0 0 1 2.7 6.66 19 19 0 0 1 .48 2.58c.05.38.11.72.14 1s0 .61 0 .88v1.18a1.6 1.6 0 0 1 .1.42" style="fill:#f5f5f5"/><path d="M449.5 60.56V49.37h-7.87v11.19h-7.92v64h23.15v-64Z" style="fill:#ebebeb"/><path d="M292.94 124.57H483.9v9.74H292.94zm37.32 9.75h5.56v23.03h-5.56zm111.18 0H447v23.03h-5.56z" style="fill:#e0e0e0"/><path d="M406.44 77.78V69.6h-5.76v8.18h-5.79v46.79h16.92V77.78Z" style="fill:#fafafa"/><path d="M425.64 77.78V69.6h-5.75v8.18h-5.79v46.79H431V77.78Z" style="fill:#f5f5f5"/><path d="M299.86 94.17h30.4v30.4h-30.4z" style="fill:#e0e0e0"/><path d="M330.11 102c0 .2-6.71.36-15 .36s-15-.16-15-.36 6.71-.35 15-.35 15 .14 15 .35m-13.9 4s.11 0 .31.05a2.7 2.7 0 0 1 .81.38 4.36 4.36 0 0 1 1.67 2.8 6.34 6.34 0 0 1-.79 4.78 4.45 4.45 0 0 1-2.36 1.79 5.76 5.76 0 0 1-3.16 0 5.6 5.6 0 0 1-4.22-4.07 4.83 4.83 0 0 1 1.43-4.59 4.75 4.75 0 0 1 3-1.23 2.07 2.07 0 0 1 1.18.2c0 .06-.43 0-1.15.08a4.8 4.8 0 0 0-2.71 1.31 4.35 4.35 0 0 0-1.13 4.09 5.57 5.57 0 0 0 6.54 3.57 3.8 3.8 0 0 0 2-1.5 6 6 0 0 0 .82-4.31 4.28 4.28 0 0 0-1.34-2.67c-.5-.5-.92-.62-.9-.68M47.08 347.31c-6.37-3.28-13.86-3.71-20.93-2.54-3.8.63-7.76 1.76-10.35 4.61s-3.07 7.88-.1 10.33c1.76 1.46 4.23 1.68 6.52 1.65 5.53-.06 11.67-1 16.1 2.29 2.52 1.9 4.2 5.06 7.21 6s6.28-.83 7.85-3.49a12.23 12.23 0 0 0 .89-9 13.73 13.73 0 0 0-7.19-9.85m14.59-28.16c-3.89 5.56-11.46 3.72-15 .32s-5-8.31-6.34-13c-3.09-10.72-6.2-22-3.9-32.89a18.2 18.2 0 0 1 4.2-8.94c2.29-2.42 5.82-3.86 9-3 3.82 1 6.19 4.75 7.9 8.3a78.4 78.4 0 0 1 7.75 33.64c0 5.42-.62 11.1-3.68 15.58m10.77 7.97c-4.23-5-5-12.34-3.15-18.63s6.13-11.63 11-16A59.4 59.4 0 0 1 100 280.85a21.1 21.1 0 0 1 8.88-1.51c3 .29 6.05 1.83 7.45 4.51 2.08 4 .09 8.78-2.07 12.7a149 149 0 0 1-13 19.75c-3.89 5-8.34 10-14.27 12.23s-12.08 2-15.22-2.11" style="fill:#ebebeb"/><path d="M61.94 403a11 11 0 0 1-.36-2.53c-.18-1.83-.4-4.14-.67-6.89a98 98 0 0 0-1.55-10.12 77 77 0 0 0-3.68-11.94 44 44 0 0 0-6.09-10.8 22.8 22.8 0 0 0-7.71-6.41 21.7 21.7 0 0 0-6.49-2 13 13 0 0 1-2.52-.36 10.8 10.8 0 0 1 2.56 0 19.4 19.4 0 0 1 6.77 1.76 22.7 22.7 0 0 1 8.13 6.46 42.7 42.7 0 0 1 6.32 11 72.5 72.5 0 0 1 3.65 12.14 85 85 0 0 1 1.35 10.24c.22 2.93.3 5.3.34 6.94a11.8 11.8 0 0 1-.05 2.51" style="fill:#e0e0e0"/><path d="M61.46 397.74a4.8 4.8 0 0 1-.07-1.18v-3.35c0-2.91 0-7.12-.15-12.32-.26-10.4-1.15-21.6-2.88-37.38-1.64-14.84-3.84-32.11-6.16-43.33-.49-2.56-1-4.86-1.47-6.87s-.83-3.75-1.2-5.16-.58-2.4-.78-3.26a5.5 5.5 0 0 1-.21-1.16 5.7 5.7 0 0 1 .41 1.1c.25.85.58 1.91 1 3.22s.88 3.12 1.38 5.13 1.08 4.29 1.62 6.84a381 381 0 0 1 6.48 40.21c1.73 15.82 2.51 30.22 2.58 40.64.06 5.22-.05 9.44-.18 12.35-.09 1.36-.15 2.47-.21 3.35a5 5 0 0 1-.16 1.17" style="fill:#e0e0e0"/><path d="M61.39 370a22 22 0 0 1 0-3.5 93 93 0 0 1 1.1-9.5 126 126 0 0 1 3.08-13.83 114 114 0 0 1 5.79-16.36c4.79-11.37 11.31-20.68 17-26.44a43 43 0 0 1 4-3.71c.61-.52 1.16-1 1.71-1.45l1.55-1.06a21.5 21.5 0 0 1 3-1.89c.16.23-4.18 2.78-9.67 8.62a91.9 91.9 0 0 0-16.64 26.32 129 129 0 0 0-5.81 16.21 139 139 0 0 0-3.28 13.69c-.73 3.94-1.15 7.16-1.4 9.39a23 23 0 0 1-.43 3.51m26.84 48.95-2.78 38.13H36.47l-2.78-38.13z" style="fill:#e0e0e0"/><path d="M27.85 403.93h65.12v15.03H27.85z" style="fill:#e0e0e0"/><path d="M92.96 455.62v4.16H28.92v-4.16z" style="fill:#ebebeb"/><path d="m86.91 467.11 3-7.33H31.26l3.5 7.33z" style="fill:#e0e0e0"/><path d="M34.6 431.41a1.7 1.7 0 0 0 .23.35l.73 1 2.85 3.65.13.17.12-.17c1.8-2.48 4.19-5.8 7-9.7h-.4l6.9 9.77.22.31.24-.29 8.18-9.74h-.47l.45.56 7.32 9.18.24.3.23-.31c2.48-3.52 4.81-6.8 6.9-9.77h-.4l8.51 9.68.15.18.11-.2c1.12-1.88 2-3.38 2.66-4.47l.69-1.19a2 2 0 0 0 .21-.43 2 2 0 0 0-.29.38c-.2.3-.45.68-.75 1.15l-2.8 4.39h.27l-8.37-9.81-.21-.25-.19.27-7 9.73h.47c-2.32-2.91-4.77-6-7.3-9.19l-.45-.56-.23-.29-.24.28-8.17 9.76h.46c-2.52-3.52-4.86-6.79-7-9.72l-.2-.29-.2.29-6.86 9.8h.25l-3-3.56c-.32-.37-.58-.68-.8-.92s-.18-.35-.19-.34M33 418.7c0 .17 12.27.31 27.41.31s27.41-.14 27.41-.31-12.27-.3-27.41-.3-27.41.13-27.41.3m-2.46 41.49c0 .17 13.33.31 29.78.31s29.79-.14 29.79-.31-13.33-.3-29.79-.3-29.78.11-29.78.3" style="fill:#f5f5f5"/><path d="M368.76 170.08h92.35v96.27h-92.35z" style="fill:#e0e0e0"/><path d="M362.51 170.08h92.35v96.27h-92.35z" style="fill:#ebebeb"/><path d="M374.92 183.02h67.52v70.39h-67.52z" style="fill:#fafafa"/><path d="M374.92 253.87a12 12 0 0 1-1.68 1.92c-1.09 1.13-2.61 2.67-4.3 4.34s-3.26 3.17-4.41 4.23a12 12 0 0 1-1.93 1.64 13 13 0 0 1 1.68-1.9c1.09-1.14 2.61-2.68 4.31-4.35s3.27-3.18 4.41-4.24a13.3 13.3 0 0 1 1.92-1.64m67.53-.17a14 14 0 0 1 1.91 1.69c1.13 1.08 2.67 2.6 4.34 4.3s3.17 3.26 4.24 4.4a13 13 0 0 1 1.65 1.93 12 12 0 0 1-1.91-1.68c-1.13-1.08-2.67-2.6-4.35-4.31s-3.18-3.26-4.24-4.41a12.4 12.4 0 0 1-1.64-1.92m-.19-70.49a13.6 13.6 0 0 1 1.69-1.92c1.09-1.13 2.6-2.67 4.3-4.34s3.26-3.17 4.41-4.23a12 12 0 0 1 1.93-1.65 14 14 0 0 1-1.68 1.91c-1.09 1.13-2.61 2.67-4.31 4.35s-3.27 3.17-4.41 4.23a12.4 12.4 0 0 1-1.93 1.65m-67.52.17a13 13 0 0 1-1.91-1.69c-1.14-1.08-2.67-2.6-4.35-4.3s-3.16-3.26-4.23-4.4a13 13 0 0 1-1.65-1.93 12 12 0 0 1 1.91 1.68c1.13 1.08 2.67 2.6 4.35 4.31s3.17 3.26 4.24 4.41a12.4 12.4 0 0 1 1.64 1.92" style="fill:#e0e0e0"/><path d="M442.26 253.41v-19.48c0-12.33-.07-29.89-.12-50.93l.22.22h-67.33l.26-.25v70.39l-.22-.22 48.77.11 13.7.06h4.87-18.43l-48.91.11h-.21v-70.86h67.82v.44c0 21.09-.08 38.71-.11 51.07 0 6.14 0 11-.06 14.29v4.76c0 .28-.25.29-.25.29" style="fill:#e0e0e0"/><path d="M392.75 212.42s-1.45 17.43 17.42 17.43c0-9.3-7.67-16.64-17.42-17.43" style="fill:#ebebeb"/><path d="M427.28 212.44s-17.43-1.45-17.43 17.42c9.3 0 16.64-7.67 17.43-17.42" style="fill:#ebebeb"/><path d="M409.34 202.9s-14.24 12.78.78 26.95c6.98-7.4 6.39-19-.78-26.95" style="fill:#e0e0e0"/><path d="M462.14 467.23c0 .15-94.83.26-211.78.26s-211.81-.11-211.81-.26 94.81-.26 211.81-.26 211.78.12 211.78.26" style="fill:#263238"/><path d="M210.77 297.15s-20.15-3.16-21.83-3.1-17.66 3.19-17.66 3.19-22.61 4-24.89 5.64-.6 6.79-.6 6.79c2.51 1 10.42-.57 10.42-.57a11.9 11.9 0 0 0 1.38 5c1.42 2.86 5.3 2.14 5.3 2.14l-3 1.56a24.5 24.5 0 0 0 1.36 5.3c1.1 3 8.31 2.57 8.31 2.57s1.9 4.28 4.89 5 18.55-2.93 23.17-3.43 13.48-6 13.48-6a108 108 0 0 0 10.87 3.23l2.27-29.36c-1.7-.11-13.47 2.04-13.47 2.04" style="fill:#455a64"/><path d="M130 390.27c-8.59-2.16-15.09-9.67-18-18s-2.84-17.47-2-26.28a8.9 8.9 0 0 0-.39-4.87c-1.15-2.36-4.31-3.18-6.82-2.4s-4.44 2.76-6 4.83a37.44 37.44 0 0 0 32.5 60.24" style="fill:#2d9f82"/><path d="M195.12 307.37s20.13 34.87 25.22 48.89 11.57 52.57 11.57 52.57 30.22 7.78 11.5 40.28c-6.92 12-6.3 17.58-14.06 17.94-6 .27-54.72-.1-54.72-.1l.88 4.77s-4.08 13.78-12.32 9.89-18-14.66-18-14.66l-14.17-.19-33.73.24-9.87-.19v-.27a14 14 0 0 1 9.81-11.65l7.24-2.2s-9.41-39.52-1.26-49 21.41-8.83 21.41-8.83l-6.09-40.67a63.8 63.8 0 0 1 2.81-28.33l4.57-13.59Z" style="fill:#2d9f82"/><path d="M125.17 396.22c14 7.93 23.38 21.22 28.07 36.4 0 .16.29.09.24-.06-3.63-11.77-10.08-22.67-19.59-30.63a59 59 0 0 0-8.59-5.93c-.14-.08-.27.14-.13.22" style="fill:#263238"/><path d="M125.47 313.66s-6.57 17.55-7.12 26.32c-.91 14.55 6.3 54.86 6.3 54.86s-2.47 39.51-4.61 45.37-1.25 11.26-11 13.25c-2.63.54-7.22 9.07-7.22 13.3h27.27s7.38-8.34 7.73-16.14 13.33-50.18 13.33-50.18" style="fill:#2d9f82"/><path d="M150.15 400.44s0 .11-.08.32-.15.54-.27.94c-.24.83-.59 2.05-1.05 3.62-.93 3.2-2.27 7.85-4 13.75s-3.71 13.1-5.75 21.38c-.51 2.07-1 4.21-1.44 6.43q-.15.83-.3 1.68c-.1.56-.14 1.13-.21 1.7l-.18 1.76c-.1.59-.2 1.18-.35 1.77a35.2 35.2 0 0 1-7.28 13.12l-.06.08h-27.64v-.25a19.1 19.1 0 0 1 2.33-7.54 25 25 0 0 1 2.11-3.46 12.4 12.4 0 0 1 1.36-1.55 3.85 3.85 0 0 1 1.86-1.06c2.6-.57 5.31-1.54 7-3.66s2.18-5 3-7.7c.14-.51.32-1 .49-1.51s.27-1 .41-1.48c.2-1 .42-2 .56-3 .32-2 .57-4.08.8-6.11.47-4.06.83-8.07 1.18-12 .68-7.9 1.24-15.53 1.72-22.81v.06c-2.07-11.94-3.72-23-4.89-33-.58-5-1-9.67-1.26-14a47.5 47.5 0 0 1 .51-12c.69-3.59 1.58-6.75 2.38-9.49s1.58-5.05 2.22-6.93 1.17-3.3 1.52-4.27l.42-1.09c.1-.25.16-.37.16-.37l-.12.38c-.09.27-.22.63-.38 1.11-.33 1-.82 2.43-1.45 4.29s-1.35 4.21-2.14 6.95-1.65 5.9-2.32 9.48a47.5 47.5 0 0 0-.44 12c.24 4.36.71 9 1.31 14 1.19 9.94 2.87 21 5 33v.06c-.47 7.29-1 14.92-1.69 22.82-.34 3.95-.71 8-1.17 12-.24 2-.49 4.08-.81 6.13-.14 1-.36 2.05-.56 3.08-.15.51-.28 1-.43 1.54s-.34 1-.48 1.48c-.4 1.35-.72 2.72-1.15 4.08a11.4 11.4 0 0 1-1.93 3.79 9.7 9.7 0 0 1-3.37 2.56 18.2 18.2 0 0 1-4 1.29 3.26 3.26 0 0 0-1.62.93 11.5 11.5 0 0 0-1.3 1.48 24.4 24.4 0 0 0-2.06 3.38 18.7 18.7 0 0 0-2.29 7.31l-.25-.25h27.27l-.17.07a34.8 34.8 0 0 0 7.21-12.92c.14-.57.25-1.15.35-1.72l.18-1.73c.07-.58.12-1.17.21-1.74s.21-1.13.32-1.69c.44-2.22.95-4.37 1.46-6.44 2.07-8.29 4.15-15.45 5.86-21.37s3.13-10.54 4.1-13.71c.49-1.56.86-2.77 1.12-3.61l.3-.92a2.6 2.6 0 0 1 .17-.44m47.75-68.54s.1.21.27.64l.72 1.92c.63 1.7 1.54 4.19 2.72 7.39 2.33 6.43 5.7 15.73 9.61 27.32 1 2.9 2 5.94 2.95 9.14.5 1.59 1 3.23 1.43 4.91a44 44 0 0 1 .91 5.24c.87 7.15 1.28 14.83 1.74 22.9s.84 16.55 1.43 25.32c.31 4.38.63 8.85 1.25 13.33.16 1.12.34 2.25.59 3.35A12.5 12.5 0 0 0 222 455a3 3 0 0 0 .36.7c.07.08.15.18.22.2a3 3 0 0 0 .37.14 11 11 0 0 1 3.19 1.52 9.4 9.4 0 0 1 1.36 1.16 8.5 8.5 0 0 1 1.07 1.45 10.13 10.13 0 0 1 1 7v.2h-30.96v-.25a36.6 36.6 0 0 1 1.15-7.54c.58-2.43 1.24-4.8 2-7.12v.1c-1.84-12-3.58-23.11-5.21-33-.83-4.94-1.6-9.59-2.46-13.87-.12-.53-.21-1.07-.35-1.58l-.2-.76a5 5 0 0 0-.31-.7 17.4 17.4 0 0 0-1.71-2.52c-1.22-1.58-2.49-3-3.69-4.39-4.87-5.44-8.93-9.55-11.69-12.38l-3.18-3.23-.81-.83a4 4 0 0 1-.27-.29l.29.26.85.8q1.11 1.11 3.23 3.18c2.79 2.8 6.89 6.88 11.8 12.29 1.21 1.37 2.49 2.8 3.73 4.4a16.6 16.6 0 0 1 1.75 2.57 4.5 4.5 0 0 1 .34.74l.2.78c.15.52.24 1.05.36 1.59.89 4.29 1.67 8.93 2.51 13.88 1.67 9.89 3.44 21 5.29 33v.11a110 110 0 0 0-1.94 7.09 37 37 0 0 0-1.13 7.43l-.25-.25 30.49-.06-.26.2a9.56 9.56 0 0 0-1-6.59 9 9 0 0 0-1-1.36 9.4 9.4 0 0 0-1.28-1.08 10.4 10.4 0 0 0-3-1.45 5 5 0 0 1-.44-.17 1 1 0 0 1-.42-.37 3 3 0 0 1-.43-.82 12 12 0 0 1-.5-1.68c-.26-1.13-.44-2.26-.6-3.39-.62-4.52-.94-9-1.25-13.38-.58-8.78-1-17.26-1.4-25.33s-.84-15.74-1.68-22.87a45 45 0 0 0-.89-5.19q-.67-2.51-1.41-4.9c-1-3.19-2-6.23-2.92-9.13-3.86-11.6-7.18-20.92-9.45-27.37-1.14-3.21-2-5.71-2.63-7.43-.29-.83-.52-1.48-.67-1.93s-.27-.68-.27-.68" style="fill:#263238"/><path d="M171.27 424a4 4 0 0 1-.56-.43l-1.53-1.3a82 82 0 0 1-5.27-5.18 182.5 182.5 0 0 1-15.27-19 180 180 0 0 1-12.8-20.72c-1.43-2.78-2.45-5.09-3.1-6.71-.28-.78-.51-1.4-.69-1.88a4 4 0 0 1-.21-.67 3.4 3.4 0 0 1 .31.63l.78 1.84c.71 1.59 1.77 3.87 3.24 6.62a200 200 0 0 0 12.9 20.59 203 203 0 0 0 15.11 19 99 99 0 0 0 5.14 5.28l1.46 1.37a4 4 0 0 1 .49.56" style="fill:#263238"/><path d="M154.5 420.17a88.5 88.5 0 0 1 3.65 18.16 2.57 2.57 0 0 0 2.5 2.5 2.51 2.51 0 0 0 2.5-2.5 94.6 94.6 0 0 0-3.83-19.49 2.5 2.5 0 0 0-4.82 1.33m-28.87-102.49c-.85-21.39-2.39-46.36-.06-54.5s18.7-24.22 28.11-28 25 1.24 29.7 5.41l29.62-7.12s5.81 13.47-1.35 24.27-28.28 10.68-28.28 10.68-1.89 11.75 7.14 12.78 21.05-.38 22.2 9.44l-18.55 1.66 1 16.36-35.3 18.76-33.05-9.54" style="fill:#2d9f82"/><path d="M151 248.21a3.2 3.2 0 0 1 .19.89l.37 2.58c.3 2.37.7 5.58 1.2 9.49s1 8.83 1.65 14.1a76 76 0 0 1 .66 8.4 23 23 0 0 1-1.49 9 12.2 12.2 0 0 1-6.32 6.55 14.25 14.25 0 0 1-8.48.75 15.2 15.2 0 0 1-6.9-3.41 17.5 17.5 0 0 1-4-5.35 22 22 0 0 1-2.23-9.34 20 20 0 0 1 .09-2.61 3.1 3.1 0 0 1 .16-.9c.08 0-.05 1.25.09 3.49a23 23 0 0 0 2.45 9.07 17.2 17.2 0 0 0 4 5.08 14.6 14.6 0 0 0 6.59 3.17 13.46 13.46 0 0 0 8-.75 11.32 11.32 0 0 0 5.85-6.1 22.5 22.5 0 0 0 1.44-8.64 81 81 0 0 0-.6-8.31c-.55-5.29-1.05-10.07-1.47-14.13s-.68-7.15-.91-9.53c-.08-1-.15-1.9-.21-2.59a4 4 0 0 1-.13-.91m53.17-12.48a6.2 6.2 0 0 0 1.62 4.33 8.6 8.6 0 0 0 3.83 2.18 8.16 8.16 0 0 0 5.67.18 23 23 0 0 0-1.1-7 2.66 2.66 0 0 0-1.22-1.74 2.5 2.5 0 0 0-1.22-.12 19.1 19.1 0 0 0-7.58 2.2" style="fill:#263238"/><path d="M125.94 283.74c.8 5.29 2.26 11.08 5.87 15s9.3 6.26 14.46 4.88c6.35-1.7 10.27-8.45 10.78-15s-1.68-13-3.84-19.18c1 5.91 2.07 12 .68 17.84s-5.83 11.37-11.78 12.08A13.09 13.09 0 0 1 131 294.8a19 19 0 0 1-5.08-11.06" style="opacity:.30000000000000004"/><path d="M215.39 244.76a5 5 0 0 1 0 1.55 27 27 0 0 1-.67 4.17 28.2 28.2 0 0 1-2.14 5.9 17.8 17.8 0 0 1-4.77 6.08 24.4 24.4 0 0 1-6.79 3.65 37 37 0 0 1-6.05 1.63 34 34 0 0 1-4.18.53 4.7 4.7 0 0 1-1.54 0c0-.14 2.17-.32 5.59-1.12a43 43 0 0 0 5.89-1.78 25.3 25.3 0 0 0 6.53-3.58 17.8 17.8 0 0 0 4.59-5.75 31 31 0 0 0 2.26-5.69c.97-3.41 1.12-5.6 1.28-5.59m-43.16 4.48a2.72 2.72 0 1 0 .19-.07M162 252.41c-.33.13-.88-.3-1.29-1.24a6.6 6.6 0 0 1-.3-3.93 6.5 6.5 0 0 1 1.89-3.45c.76-.69 1.44-.86 1.69-.61.51.56-.52 2.33-1 4.62s-.25 4.31-.99 4.61m36.86 174.94c0 .06-1 0-2.87.09a24 24 0 0 0-3.33.39 13.2 13.2 0 0 0-4.13 1.49c-2.87 1.59-5.66 4.44-8.86 7.39s-6.09 6.9-10.25 9.89a16.3 16.3 0 0 1-6.83 2.9c-2.39.39-4.7.34-6.87.51a14.3 14.3 0 0 0-5.88 1.48 11.3 11.3 0 0 0-3.92 3.52 12.3 12.3 0 0 0-2.26 7.27 20 20 0 0 0 .37 2.83 8.4 8.4 0 0 1-.57-2.82 12.17 12.17 0 0 1 2.16-7.49 11.6 11.6 0 0 1 4-3.69 14.6 14.6 0 0 1 6.05-1.57c2.2-.19 4.5-.16 6.82-.54a16 16 0 0 0 6.62-2.82c4.07-2.93 7-6.81 10.22-9.81s6-5.77 9-7.38a13.7 13.7 0 0 1 4.26-1.45 21.5 21.5 0 0 1 3.37-.3c.93 0 1.65 0 2.14.05a5 5 0 0 1 .76.06m-37.24 30.47a3 3 0 0 1 .92-.08 11.8 11.8 0 0 1 2.49.3 13.37 13.37 0 0 1 10.44 11.67 11.7 11.7 0 0 1 0 2.51 2.8 2.8 0 0 1-.18.9c-.1 0 .11-1.31-.2-3.37a13.69 13.69 0 0 0-10.17-11.35c-1.99-.54-3.31-.48-3.3-.58m9.87 13.18a5.75 5.75 0 0 1-.74 2.28 10.64 10.64 0 0 1-9.47 5.83 5.4 5.4 0 0 1-2.37-.37c0-.08.91.09 2.35 0a11.22 11.22 0 0 0 9.16-5.64c.73-1.25.98-2.1 1.07-2.1m-8.63-6.45c0 .08-.8.24-2 .75a11.81 11.81 0 0 0-6.73 7.27c-.42 1.25-.51 2.07-.6 2.06a5.3 5.3 0 0 1 .25-2.17 10.91 10.91 0 0 1 7-7.51 4.9 4.9 0 0 1 2.08-.4m56.95 3.14a13 13 0 0 1 .21-2 11 11 0 0 0-.43-4.77 6.26 6.26 0 0 0-3.09-3.46 9.4 9.4 0 0 0-1.92-.52 3 3 0 0 1 2.07.18 6.2 6.2 0 0 1 3.43 3.62 9.8 9.8 0 0 1 .3 5 5.9 5.9 0 0 1-.57 1.95m-98.74-11.46c0 .09-.93 0-2.37.19a10.84 10.84 0 0 0-5.14 2.21 11 11 0 0 0-3.29 4.54c-.52 1.36-.61 2.28-.7 2.27a5.4 5.4 0 0 1 .36-2.4 10.09 10.09 0 0 1 8.72-7 5.35 5.35 0 0 1 2.42.19m124.5-9.12s.48-.63 1.24-1.83a22.4 22.4 0 0 0 2.48-5.42 26.9 26.9 0 0 0 1.1-8.76 27.3 27.3 0 0 0-2.5-10.47 20.45 20.45 0 0 0-6.82-8.22 21.3 21.3 0 0 0-8-3.51 13.6 13.6 0 0 0-5.91.11 13 13 0 0 0-1.54.54 2 2 0 0 1-.54.19 2.3 2.3 0 0 1 .5-.29 8.7 8.7 0 0 1 1.52-.63 12.9 12.9 0 0 1 6-.28 21 21 0 0 1 8.26 3.47 19.7 19.7 0 0 1 3.95 3.57 23 23 0 0 1 3.07 4.83 27.2 27.2 0 0 1 2.51 10.68 26.3 26.3 0 0 1-1.23 8.88 21.2 21.2 0 0 1-2.66 5.43c-.42.58-.76 1-1 1.3a2.7 2.7 0 0 1-.43.41M124.58 396a20.2 20.2 0 0 0-13.78 1.75 20.8 20.8 0 0 0-6.94 5.61 13.8 13.8 0 0 0-2.26 4 23.5 23.5 0 0 0-1 4.21 48 48 0 0 0-.43 7.39c0 2.11.08 3.82.11 5v1.36a1.5 1.5 0 0 1 0 .48 1.6 1.6 0 0 1-.07-.47c0-.38-.07-.82-.11-1.36-.09-1.19-.21-2.9-.28-5a45 45 0 0 1 .33-7.46 23 23 0 0 1 1-4.31 14.1 14.1 0 0 1 2.33-4.17 20.85 20.85 0 0 1 7.14-5.71 21.2 21.2 0 0 1 7.18-2.07 16.8 16.8 0 0 1 5 .24 10 10 0 0 1 1.33.34 2 2 0 0 1 .45.17m-41.25-21.69a4 4 0 0 1-.26-1.09 26 26 0 0 1-.36-3 36.67 36.67 0 0 1 4.13-19.53A24 24 0 0 1 88.4 348a4.4 4.4 0 0 1 .67-.9c.08.05-.79 1.39-1.91 3.69a40.84 40.84 0 0 0-4.08 19.35c.09 2.59.34 4.16.25 4.17m-3.21 1.56a4.7 4.7 0 0 1-.29-1.09c-.17-.7-.34-1.74-.51-3a46.4 46.4 0 0 1 1.94-20c.41-1.23.78-2.21 1.08-2.87a4.8 4.8 0 0 1 .49-1c.09 0-.5 1.53-1.22 4a53.3 53.3 0 0 0-1.92 19.89c.23 2.48.52 4.06.43 4.07" style="fill:#263238"/><path d="M145.35 415.52a37.7 37.7 0 0 1 8.66 16.1 6.43 6.43 0 0 1 .05 4c-1.15 2.7-4.86 2.82-7.39 4.28-2.13 1.22-3.44 3.44-4.66 5.57l-12.4 21.56c3.83-.32 5.25.08 9.08-.23l6.16.13c-.23.1-1.2-2.93-1.28-4.35-.25-4.34 2.68-9.59 6.58-11.52 4.89-2.43 10.52-.4 15.49-2.68 4.75-2.19 7.58-5.53 10.67-8.59 3.88-3.85 7.73-9 12.7-11.23 2.25-1 7.62-1.12 7.62-1.12-2.55-3-7.23-2.85-11-1.83s-7.71 2.69-11.56 1.82c-3.23-.72-5.8-3.11-8.19-5.4-6.13-5.86-12.47-12-15.21-20.07l-5.11 13.21m83.79 51.88c2-4.86-2.54-10.6-4.36-15.52s-1.44-10.48-1.43-15.79a102.7 102.7 0 0 0-5.36-33c-.4 14.58 1.27 30.06 2.14 44.61.18 3.09-.06 6.66 2.21 8.76 1.16 1.08 1.85.61 3.15 1.51s3.85 3 3.65 9.4" style="opacity:.30000000000000004"/><path d="M170.46 323.43a14.8 14.8 0 0 1-8.46-7.68 47 47 0 0 0 3.81 4.3 44 44 0 0 0 4.65 3.38m3.75-2.05a15.5 15.5 0 0 1-8-5.64c.12-.1 1.63 1.49 3.84 3s4.22 2.49 4.16 2.64m4.94-.18a10 10 0 0 1-4.33-1.9 10.2 10.2 0 0 1-3.37-3.31c.12-.11 1.53 1.45 3.66 2.88s4.09 2.18 4.04 2.33m-34.01 42.95a12.1 12.1 0 0 1-4.66-3.55 11.94 11.94 0 0 1-2.87-5.09 42 42 0 0 0 3.27 4.75 43.5 43.5 0 0 0 4.26 3.89m3.69.05a15.15 15.15 0 0 1-6.19-7.48c.14-.07 1.17 1.86 2.88 3.92s3.4 3.44 3.31 3.56m6.43 1.25a23.4 23.4 0 0 1-3.54-3.42 23 23 0 0 1-3.16-3.78 23.8 23.8 0 0 1 3.54 3.43 23.3 23.3 0 0 1 3.16 3.77m-19.84-83.22s-.45-.18-1-.72A6.8 6.8 0 0 1 133 279a6.9 6.9 0 0 1-.35-2.87c.08-.74.26-1.17.32-1.16a15 15 0 0 0 .52 3.86 14.4 14.4 0 0 0 1.93 3.4m1.76-.77a5.3 5.3 0 0 1-1.51-2.66 5.4 5.4 0 0 1-.27-3.05c.16 0 .28 1.34.77 2.89s1.13 2.74 1.01 2.82m3.97 2.54a14.65 14.65 0 0 1-3.48-7.7c.15 0 .68 1.78 1.64 3.89s1.96 3.67 1.84 3.81M258.92 99.35c-7.75 4.75-10.38 16.22-10.71 25.3s2.14 18 4.15 26.87 3.56 18.16 1.38 27c-2 8.18-7.12 16.8-3.45 24.38 2.77 5.72 9.86 8.69 11.82 14.74 2.28 7.06-3.49 14-8.79 19.15a9.33 9.33 0 0 0 12.11 3.13 7.82 7.82 0 0 1-2.86 5.57 16.24 16.24 0 0 0 16.59-5.79c-.73 2.52-1.47 5-2.2 7.56a24.05 24.05 0 0 0 14.74-10.46l2.55 4.78c9.75-6.7 16.53-17.24 19.86-28.6s3.36-23.49 1.45-35.17a110 110 0 0 0-56.64-78.44m113.42 83.26c-3.47-4.17-7.75-8.31-8.23-13.72-.21-2.38.36-4.83-.18-7.17-1.4-6-9.24-8.41-11.6-14.13-3-7.18 3.78-16.68-1.22-22.63-2.4-2.85-6.53-3.41-9.68-5.4-8-5.07-6.06-19-25.25-29.14l1.43 30.62A782 782 0 0 1 333 199.59l43.31-2.14c2.47-4.82-.49-10.65-3.97-14.82" style="fill:#263238"/><path d="M249.75 110.51a28.8 28.8 0 0 1 9.84-20c6.35-5.48 14.92-7.92 23.3-8s16.67 1.91 24.65 4.49c4.48 1.45 9 3.13 12.63 6.12 6.64 5.45 9.28 14.26 11.59 22.53 1.86 6.69 3.74 13.72 2.2 20.49a21.36 21.36 0 0 1-11.6 14.38" style="fill:#263238"/><path d="M252.07 104.75a39.53 39.53 0 0 0 6.93 48.83 332.5 332.5 0 0 1 5.69-57.53" style="fill:#263238"/><path d="M250.31 131.31c-2-13.53 3.37-31.8 17-33.22l32.45 1.23c10.41.4 18.78 7.32 21.69 17.32.14.5.06-.13.13.26l15.08 81.1a24.62 24.62 0 0 1-19.56 28.63 24.6 24.6 0 0 1-28.7-19c-1.41-6.49-3.06-14.15-3.06-14.11s-17.66.79-25.93-20.71c-4.11-10.7-6.88-26.47-9.1-41.5" style="fill:#9d6054"/><path d="M279.39 117.77a33.1 33.1 0 0 1-12.75 4.13c0-.16 2.9-.8 6.41-1.94s6.27-2.33 6.34-2.19m-5.14.28a16.3 16.3 0 0 1-8 2.17 28.4 28.4 0 0 1 4-1.11 28 28 0 0 1 4-1.06M293 160.1c-.14.05-.53-.81-1.55-1.19s-1.88 0-1.95-.19.14-.26.54-.4a2.32 2.32 0 0 1 1.61.07 2.4 2.4 0 0 1 1.23 1.05c.18.38.17.65.12.66" style="fill:#724a44"/><path d="M259 147.68a2.92 2.92 0 0 0 3.37 2.29 2.78 2.78 0 0 0 2.39-3.2 2.91 2.91 0 0 0-3.36-2.29 2.8 2.8 0 0 0-2.4 3.2m-2.74-7.77c.43.3 2.25-1.76 5.33-2.41s5.65.41 5.9 0c.13-.2-.37-.8-1.51-1.31a8.07 8.07 0 0 0-4.82-.43 7.74 7.74 0 0 0-4.14 2.38c-.79.86-.97 1.64-.76 1.77m30.33 1.74A2.93 2.93 0 0 0 290 144a2.79 2.79 0 0 0 2.39-3.2 2.92 2.92 0 0 0-3.36-2.3 2.79 2.79 0 0 0-2.44 3.15m-.02-7.59c.44.3 2.26-1.76 5.33-2.41s5.65.42 5.91 0c.12-.2-.38-.8-1.51-1.3a8 8 0 0 0-4.83-.44 7.7 7.7 0 0 0-4.14 2.39c-.79.89-.97 1.63-.76 1.76m-6.3 25.15c0-.18-2-.1-5.18.16-.8.09-1.58.09-1.82-.42a4 4 0 0 1 0-2.43c.33-2.06.68-4.21 1.05-6.47 1.41-9.19 2.25-16.68 1.88-16.73s-1.81 7.35-3.23 16.54q-.5 3.39-.94 6.48a4.64 4.64 0 0 0 .25 3.17 2 2 0 0 0 1.53.87 5.7 5.7 0 0 0 1.37-.1c3.18-.49 5.12-.89 5.09-1.07" style="fill:#263238"/><path d="M313.15 179.26s-4 16.83-26.68 19.49l-1.13-5.23a57.35 57.35 0 0 0 27.81-14.26m-30.01-12.92a5.66 5.66 0 0 1 4.53-3.11 5.16 5.16 0 0 1 3.89 1.13 3.28 3.28 0 0 1 1 3.61 3.79 3.79 0 0 1-3.81 1.87 11.8 11.8 0 0 1-4.43-1.51 3.5 3.5 0 0 1-1.07-.72 1.06 1.06 0 0 1-.24-1.14" style="fill:#724a44"/><path d="M289.76 159.41c-.5.08.2 3.42-2.15 6.39s-6 3.36-5.91 3.83c0 .22.93.48 2.44.2a8.48 8.48 0 0 0 5-3 7.38 7.38 0 0 0 1.59-5.31c-.2-1.43-.73-2.17-.97-2.11m-5.86-34.18c.48.77 3.46-.28 7.16-.61s6.82 0 7.14-.82c.13-.4-.54-1.08-1.89-1.64a12.5 12.5 0 0 0-10.89 1.09c-1.21.81-1.73 1.61-1.52 1.98m-28.4 5.55c.69.58 2.65-.59 5.19-1.17s4.79-.53 5.14-1.36c.14-.4-.35-1-1.43-1.49a7.72 7.72 0 0 0-8.32 2c-.75.95-.89 1.73-.58 2.02" style="fill:#263238"/><path d="M252 109.69c.64-3.64 3.88-6.44 7.45-7.4s7.39-.35 10.91.79c14.89 4.81 25.61 18.41 40.4 23.52 3.64 1.26 7.52 2 10.81 4s6 5.74 5.18 9.51a31.7 31.7 0 0 0 2.89-8.66 10.72 10.72 0 0 0-2.23-8.59c-1.55-1.72-3.87-2.79-4.9-4.87-.9-1.83-.57-4-1.08-6a13.2 13.2 0 0 0-3.26-5.24c-7.07-8-15.89-14.65-26.07-17.8a38.4 38.4 0 0 0-20.61-.85 29.38 29.38 0 0 0-17 11.37c-2.34 3.35-4.82 6.84-2.5 10.22" style="fill:#263238"/><path d="M335.21 143.47c-.58-.15-.64-1.67-1.08-4.07a11.6 11.6 0 0 0-1.31-3.81 6 6 0 0 0-.6-.81 4 4 0 0 0-.34-.34l-.48-.44a19 19 0 0 0-2.29-1.74 5.8 5.8 0 0 0-2.21-.93c-.26 0-.3.06-.18.07l-.75.32-.8.38a14.8 14.8 0 0 0-2.9 1.87c-.47.38-.93.8-1.4 1.25l-.35.35-.6.56a15 15 0 0 1-1.27 1 14.5 14.5 0 0 1-6 2.4 10.7 10.7 0 0 1-3.95-.13l-.54-.14-.43-.15c-.28-.1-.58-.19-.85-.31a14 14 0 0 1-1.62-.81 18.6 18.6 0 0 1-4.93-4.38C299 132 298 130.43 297 129a60.2 60.2 0 0 0-12.93-13.64 65 65 0 0 0-13.38-7.94 36.8 36.8 0 0 0-9.85-3.14c-2.39-.35-3.89-.26-4.1-.84s1-1.72 3.9-2.43 7.23-.52 12 .8a53 53 0 0 1 15.94 7.26 57 57 0 0 1 15.35 15.17c1 1.54 2 2.93 2.88 4.09a11.5 11.5 0 0 0 2.67 2.57 5 5 0 0 0 .63.35 3 3 0 0 0 .32.14l.15.06h.07a2.3 2.3 0 0 0 1 .08 7.1 7.1 0 0 0 2.85-1c.22-.13.42-.26.61-.39l.27-.2.49-.42c.67-.56 1.37-1.09 2.09-1.58a20.8 20.8 0 0 1 4.57-2.34c.38-.13.75-.26 1.12-.37l.54-.17.63-.17a6.6 6.6 0 0 1 3.7.08 11.4 11.4 0 0 1 4.27 2.53 19.5 19.5 0 0 1 2.62 2.85c.19.25.34.44.54.75a8 8 0 0 1 .55.9 10 10 0 0 1 .73 1.76 12 12 0 0 1 .22 5.62c-.64 2.96-1.71 4.24-2.24 4.09" style="fill:#263238"/><path d="M322.75 134c.1-.69 10.81-7.37 13.61 4.93 2.73 12-9.87 12.19-10 11.86S322.75 134 322.75 134" style="fill:#9d6054"/><path d="M329.06 145.41c.05 0 .24.1.63.18a2.17 2.17 0 0 0 1.57-.32c1.15-.75 1.77-3 1.34-5.16a6.9 6.9 0 0 0-1.25-2.85 2.46 2.46 0 0 0-1.93-1.25 1.1 1.1 0 0 0-1.1.85c-.09.37 0 .59 0 .62s-.31-.14-.32-.65a1.38 1.38 0 0 1 .3-.86 1.6 1.6 0 0 1 1.08-.56 3 3 0 0 1 2.6 1.36 7.2 7.2 0 0 1 1.47 3.17c.46 2.43-.26 5-1.88 5.85a2.29 2.29 0 0 1-2 .11c-.42-.21-.57-.46-.51-.49" style="fill:#724a44"/><path d="M282.51 220.92a19.66 19.66 0 0 0-10.6 11c-3.31 8.38-17.69 59.39-17.69 59.39l-30 3.85-2.27 27.72a159.5 159.5 0 0 0 26.46 4.56c11.06 1 28.94-.65 33.6-3.26s-.46-102.07-.46-102.07Z" style="fill:#e0e0e0"/><path d="M288.59 213.35c9.5 10.79 34.46-11.09 45.57-28.48l-35.74 167.85-6.1-1.49Z" style="fill:#455a64"/><path d="m287.85 206-2.3 10.9-8.55 7.74c-.11 14.24 7.59 42.68 5.67 48.38-2.73 8.15-3.82 16.59-.55 28.47 1.67 6.08 11.78 49.74 11.78 49.74S291 465.48 291.32 467h23.24l-22.69-152-.87-95.21Z" style="fill:#e0e0e0"/><path d="M436.94 394.56c-7.2-18-33.83-64.06-33.83-64.06s-2.16-16.19-4-51.82-17.23-75.57-20.47-81.68-39.24-12.12-39.24-12.12l-6.3-9.17S319.68 211 319 212s-15.09 43.36-16.53 55.24S297 343.1 297 343.1L314.56 467h130.92s-1.34-54.45-8.54-72.44" style="fill:#e0e0e0"/><path d="m315.67 390.08 65.12-7.35h.23v.23c1.85 19.93 4 43.59 6.4 68.88.26 2.79.51 5.55.77 8.3v.27H388l-52.35 1.2h-.18l-.05-.18c-5.8-21.24-10.67-39.09-14.1-51.64-1.74-6.25-3.11-11.18-4.06-14.56l-1.11-3.84-.31-1c-.08-.22-.13-.32-.12-.32a2 2 0 0 1 .16.31c.08.22.2.54.34 1 .29.86.68 2.14 1.18 3.82 1 3.35 2.42 8.27 4.19 14.53 3.53 12.51 8.47 30.34 14.28 51.59l-.23-.17 52.35-1.26-.25.29q-.37-4.12-.77-8.3c-2.32-25.3-4.49-49-6.32-68.89l.24.2Z" style="fill:#263238"/><path d="M382.32 399.25c0 .14-14 1.28-31.22 2.54s-31.25 2.17-31.26 2 14-1.28 31.22-2.54 31.25-2.15 31.26-2m20.31-68.94a3.5 3.5 0 0 1-.77.5c-.51.29-1.28.68-2.24 1.12a35.3 35.3 0 0 1-7.88 2.5 42.6 42.6 0 0 1-8.23.68c-1.06 0-1.91-.05-2.5-.1a3.2 3.2 0 0 1-.91-.12 30 30 0 0 1 3.4-.15 54 54 0 0 0 8.15-.82 42.6 42.6 0 0 0 7.83-2.33 34 34 0 0 1 3.15-1.28m.48.19a17.3 17.3 0 0 1-2.22 2.3c-1.43 1.36-3.46 3.18-5.74 5.14l-5.83 5a24.5 24.5 0 0 1-2.46 2 16 16 0 0 1 2.22-2.3c1.43-1.36 3.46-3.18 5.73-5.15l5.83-5a22 22 0 0 1 2.47-1.99" style="fill:#263238"/><path d="M358.62 427.34c-2.51-.91-5.25-1.27-7.57.06a5.7 5.7 0 0 0-2.52 5.55 9.62 9.62 0 0 0 3 5.59 6 6 0 0 0 3.79 2 6.3 6.3 0 0 0 4.35-2 10.2 10.2 0 0 0 2.88-4 5.46 5.46 0 0 0-.45-4.81c-1.08-1.6-3.06-2.3-4.91-2.9m-7.12-.83a5.33 5.33 0 0 0-.33-3.16 3.59 3.59 0 0 0-2.36-2 2.76 2.76 0 0 0-2.87 1 3.17 3.17 0 0 0-.45 2.22 3.86 3.86 0 0 0 2.34 3.15 3 3 0 0 0 3.67-1.19m11.18.5a5.34 5.34 0 0 0 3-1 3.63 3.63 0 0 0 1.51-2.72 2.78 2.78 0 0 0-1.56-2.61 3.25 3.25 0 0 0-2.28 0 3.87 3.87 0 0 0-2.61 2.92 3 3 0 0 0 1.91 3.36m5.49 3.53a3.7 3.7 0 0 0 2.09-.66 2.51 2.51 0 0 0 1-1.88 1.9 1.9 0 0 0-1.08-1.8 2.23 2.23 0 0 0-1.57 0 2.68 2.68 0 0 0-1.8 2 2.1 2.1 0 0 0 1.32 2.32m-11.55-5.29a6.33 6.33 0 0 0 2.9-2.38 4.29 4.29 0 0 0 .47-3.65 3.28 3.28 0 0 0-2.85-2.17 3.75 3.75 0 0 0-2.49 1 4.59 4.59 0 0 0-1.59 4.35 3.6 3.6 0 0 0 3.56 2.85" style="fill:#2d9f82"/><path d="M302.43 300a1 1 0 0 1 .07-.29c.06-.22.15-.5.25-.86.25-.78.59-1.88 1-3.27.92-2.88 2.24-7 3.88-12.05l13-39.93c.1-.7.21-1.45.31-2.21 1-6.77 1.88-13.28 2.74-19.33V222h.05l11.92-13.34-.05.11 2.66-17.39c.32-2 .58-3.64.76-4.77.09-.53.16-.94.21-1.25a3 3 0 0 1 .1-.42 2 2 0 0 1 0 .43c0 .31-.09.73-.15 1.25-.15 1.14-.37 2.75-.65 4.8-.6 4.18-1.45 10.14-2.48 17.41v.06l-11.86 13.4.06-.13c-.85 6.05-1.76 12.56-2.71 19.33-.11.76-.21 1.52-.31 2.22-5.18 15.63-9.83 29.69-13.2 39.88-1.7 5-3.07 9.14-4 12-.48 1.38-.85 2.47-1.12 3.24q-.18.53-.3.84c-.13.2-.17.33-.18.33m-11.16 12.41a.5.5 0 0 1 0-.2c0-.16-.07-.35-.11-.59q-.14-.84-.36-2.28c-.31-2-.74-4.91-1.28-8.48-1.05-7.26-2.5-17.33-4.15-28.79V272c.36-2.87.74-5.85 1.12-8.9.67-5.21 1.31-10.22 1.9-14.91l.07.2-7.46-7.74-.08-.09v-.11l3.13-17.11c.39-2 .7-3.64.91-4.78.11-.52.2-.94.26-1.26a2 2 0 0 1 .11-.42 2 2 0 0 1 0 .43c-.05.33-.11.75-.19 1.27-.19 1.15-.46 2.77-.79 4.8-.72 4.18-1.74 10.07-3 17.15l-.05-.19 7.46 7.71.08.08v.12c-.59 4.69-1.23 9.71-1.88 14.92-.39 3-.77 6-1.13 8.89V272l4 28.82c.48 3.58.86 6.47 1.13 8.51.11 1 .21 1.73.27 2.29l.07.59q-.02.2-.03.2m23.27 154.43c-.14 0-3.68-24.07-7.91-53.81s-7.54-53.88-7.4-53.9 3.69 24.08 7.91 53.83 7.54 53.86 7.4 53.88" style="fill:#263238"/><path d="m232 335.67 20.23-5.82 12.58 29.28-28.18-.88-4.63-21.39" style="fill:#9d6054"/><path d="m252.23 329.85 16.45 38.3s82.24-23.47 88.12-30.06 18.32-66 20.44-77.55 4.46-58.33-5.41-65.82-19.5-5.85-28.9 4.49c-7.61 8.37-20 56.29-24.45 74.19a38 38 0 0 0-.86 13.48l.87 7.49s-7.75 7.05-8.22 13.63Z" style="fill:#e0e0e0"/><path d="M332 224.76s-.1.42-.31 1.23-.55 2-1 3.6c-.87 3.16-2.14 7.81-3.78 13.78l-6 21.74c-.59 2.11-1.19 4.3-1.82 6.56a36.5 36.5 0 0 0-1.39 7.06 37.2 37.2 0 0 0 0 7.61q.47 3.92.94 8v.1l-.07.07a36 36 0 0 0-5.09 6 16.6 16.6 0 0 0-3.06 7.54v.13l-.12.05-58 21.89.14-.33 16.46 38.29-.31-.14c6.78-2 14-4.06 21.21-6.24 14.12-4.24 27.88-8.5 41.05-13 6.58-2.25 13-4.5 19.17-7.14 1.53-.65 3-1.36 4.47-2.15a10.8 10.8 0 0 0 2-1.37 5.5 5.5 0 0 0 .72-.93c.2-.35.41-.69.59-1.05a67 67 0 0 0 3.44-9c1.92-6.09 3.52-12.11 5-18s2.85-11.58 4.12-17.12c2.53-11.08 4.77-21.43 6.6-30.91a255 255 0 0 0 3.3-25.85 134 134 0 0 0 .23-19.66c-.42-5.38-1.36-9.52-2.63-12.07a9.6 9.6 0 0 0-2.55-3.45l.83.72c.25.27.53.63.87 1.05a14 14 0 0 1 .95 1.63c1.3 2.55 2.28 6.72 2.73 12.1a132 132 0 0 1-.14 19.7 251 251 0 0 1-3.23 25.89c-1.81 9.5-4 19.86-6.54 31-1.26 5.54-2.61 11.26-4.09 17.14s-3.09 11.9-5 18a67.6 67.6 0 0 1-3.45 9.1c-.19.37-.41.73-.61 1.09a6.4 6.4 0 0 1-.79 1 11 11 0 0 1-2.08 1.46c-1.46.8-3 1.52-4.51 2.18-6.17 2.65-12.62 4.91-19.2 7.17-13.18 4.47-26.94 8.74-41.07 13-7.26 2.18-14.44 4.29-21.22 6.23l-.22.07-.09-.21L252 330l-.1-.24.25-.09 58-21.82-.14.19a16.9 16.9 0 0 1 3.14-7.73 37 37 0 0 1 5.16-6l-.06.17q-.46-4.11-.92-8a38 38 0 0 1 0-7.68 37 37 0 0 1 1.43-7.12l1.83-6.55c2.37-8.45 4.41-15.75 6.08-21.72l3.88-13.75c.44-1.57.79-2.76 1-3.58s.45-1.32.45-1.32" style="fill:#263238"/><path d="M321 316.77a24.3 24.3 0 0 0-4.62-5.38 23.7 23.7 0 0 0-6.26-3.35 5.8 5.8 0 0 1 2.08.45 15 15 0 0 1 7.91 6.35 6 6 0 0 1 .89 1.93m18.4-15.54c-.08.06-.83-1.11-2.43-2.63a18.1 18.1 0 0 0-15.85-4.73c-2.17.4-3.44 1-3.48.88a3.3 3.3 0 0 1 .87-.45 16 16 0 0 1 2.54-.79 17.35 17.35 0 0 1 16.18 4.82 15 15 0 0 1 1.69 2.06 3.5 3.5 0 0 1 .48.84" style="fill:#263238"/><path d="M250.65 371.41c-11.18 0-26.67-3.87-46.06-11.51-14.35-5.66-25.62-11.4-25.74-11.45l1.82-3.57c.44.23 44.42 22.53 70 22.53 10.1 0 17.92-4.88 23.23-14.5a47.7 47.7 0 0 0 5.11-15c.27-1.6 6.3-37.57 8.37-47.17 1.08-5 4-13.22 6.76-21.16 2.56-7.27 5.2-14.78 5.73-18 1.09-6.53.3-20.8.3-20.94l4-.23c0 .61.82 14.86-.34 21.82-.59 3.55-3.17 10.89-5.9 18.65s-5.6 15.92-6.63 20.68c-2 9.51-8.26 46.54-8.32 46.92s-4.54 32.93-32.33 32.93" style="fill:#2d9f82"/><path d="M250.65 371.41c-11.18 0-26.67-3.87-46.06-11.51-14.35-5.66-25.62-11.4-25.74-11.45l1.82-3.57c.44.23 44.42 22.53 70 22.53 10.1 0 17.92-4.88 23.23-14.5a47.7 47.7 0 0 0 5.11-15c.27-1.6 6.3-37.57 8.37-47.17 1.08-5 4-13.22 6.76-21.16 2.56-7.27 5.2-14.78 5.73-18 1.09-6.53.3-20.8.3-20.94l4-.23c0 .61.82 14.86-.34 21.82-.59 3.55-3.17 10.89-5.9 18.65s-5.6 15.92-6.63 20.68c-2 9.51-8.26 46.54-8.32 46.92s-4.54 32.93-32.33 32.93" style="opacity:.4"/><path d="M299.48 231.89a9.5 9.5 0 0 1-6.7-2.64c-6.89-6.83-14.23-35.2-14.54-36.4l1.93-.5c.08.29 7.52 29 14 35.48a7.68 7.68 0 0 0 6.63 1.95c3.26-.51 6.17-2.81 8-6.31 5.32-10.25 19.82-80.24 20-80.95l2 .41c-.6 2.89-14.7 71-20.15 81.46-2.11 4.07-5.56 6.76-9.45 7.37a10 10 0 0 1-1.72.13" style="fill:#e0e0e0"/><path d="M328 148.28c.14-2.81-.54-5.09-1-7.86-.2-1.17.17-3.16 1.15-3.84s2.48.15 2.9 1.3a10 10 0 0 1 .19 4.12c-.45 3.32-1.39 4.29-1.93 6.28" style="fill:#e0e0e0"/><path d="M300.47 232.45h-.62a12.3 12.3 0 0 1-10.51-6.8c-2.53-5-5.83-11.74-7.18-15.43l3.75-1.37c1 2.73 3.49 8.06 7 15a8.34 8.34 0 0 0 7.13 4.62 8.18 8.18 0 0 0 7.42-3.84l.11-.18c.08-.15.43-1 1.66-4.52l.14-.4c.72-2 2.23-6.54 4.25-14l3.86 1c-2.05 7.63-3.6 12.27-4.35 14.35l-.13.38c-1.52 4.32-1.79 4.92-2 5.25l-.16.26a12.17 12.17 0 0 1-10.37 5.68" style="fill:#2d9f82"/><path d="M300.47 232.45h-.62a12.3 12.3 0 0 1-10.51-6.8c-2.53-5-5.83-11.74-7.18-15.43l3.75-1.37c1 2.73 3.49 8.06 7 15a8.34 8.34 0 0 0 7.13 4.62 8.18 8.18 0 0 0 7.42-3.84l.11-.18c.08-.15.43-1 1.66-4.52l.14-.4c.72-2 2.23-6.54 4.25-14l3.86 1c-2.05 7.63-3.6 12.27-4.35 14.35l-.13.38c-1.52 4.32-1.79 4.92-2 5.25l-.16.26a12.17 12.17 0 0 1-10.37 5.68" style="opacity:.4"/><circle cx="172.56" cy="343.04" r="9.68" style="fill:#e0e0e0"/><circle cx="173.1" cy="343.6" r="5.51" style="fill:#263238"/><path d="M166.46 352.72s-2.12-5 0-6.82 24.3-7.81 24.3-7.81 15.64-4.52 17.31-4.73 22 1.15 22 1.15 11.54-3.18 13.21-3.18-.76 10.62-1.06 14.12-2.58 5.59-.46 7.27 7.76 6.41 7.76 6.41-5.94 1.65-10 1.2a24.2 24.2 0 0 1-7-1.83s-8.35 6.23-12.91 7.14-19.73 5.92-22.77 5.47-5.31-4.56-5.31-4.56-7.14 1.06-8.51-1.82a25.3 25.3 0 0 1-1.82-5.16l2.89-1.83s-3.8 1.07-5.47-1.67a11.9 11.9 0 0 1-1.82-4.84s-7.8 2.24-10.34 1.49" style="fill:#455a64"/><path d="M280.43 261.39a2.1 2.1 0 0 1-.09.58q-.13.64-.36 1.65c-.16.71-.36 1.58-.54 2.6s-.44 2.18-.6 3.48-.41 2.7-.55 4.23-.28 3.16-.4 4.88a87.7 87.7 0 0 0 1.71 22.32c.38 1.69.72 3.29 1.14 4.77s.8 2.85 1.19 4.1.79 2.36 1.13 3.34.65 1.81.93 2.49.45 1.16.6 1.57a2 2 0 0 1 .18.57 3.6 3.6 0 0 1-.27-.53l-.7-1.53c-.3-.67-.66-1.49-1-2.47s-.81-2.07-1.2-3.33-.87-2.61-1.26-4.1-.79-3.09-1.18-4.78a90 90 0 0 1-1.63-11.16 91 91 0 0 1-.1-11.28c.13-1.73.23-3.38.45-4.91s.39-2.95.61-4.24.48-2.46.69-3.48.43-1.88.63-2.59l.45-1.63a2.2 2.2 0 0 1 .17-.55" style="fill:#263238"/></svg>